<svg width="100" height="100" viewBox="0 0 220 200.239" fill="none" xmlns="http://www.w3.org/2000/svg" preserveAspectRatio="xMidYMid meet">
<g id="Group 31">
<path id="Rectangle 444" d="M9.72628 58.3186C8.31807 57.5052 7.73976 55.7809 8.42639 54.3068C11.4146 47.8912 19.6948 31.3297 28.1263 25.3218C38.8294 17.6953 59.4765 15.0975 67.5669 14.3487C69.4018 14.1788 70.9354 15.6339 70.9354 17.4767L70.9354 19.4046C70.9354 20.8104 70.0209 22.0526 68.6786 22.4703L37.514 32.1666C36.8793 32.3641 36.3215 32.7537 35.9176 33.2817L16.3238 58.8992C15.3437 60.1806 13.5649 60.5357 12.1678 59.7288L9.72628 58.3186Z" fill="#434343"/>
<path id="Rectangle 445" d="M210.274 58.3186C211.682 57.5052 212.26 55.7809 211.574 54.3068C208.585 47.8912 200.305 31.3297 191.874 25.3218C181.171 17.6953 160.524 15.0975 152.433 14.3487C150.598 14.1788 149.065 15.6339 149.065 17.4767L149.065 19.4046C149.065 20.8104 149.979 22.0526 151.321 22.4703L182.486 32.1666C183.121 32.3641 183.679 32.7537 184.082 33.2817L203.676 58.8992C204.656 60.1806 206.435 60.5357 207.832 59.7288L210.274 58.3186Z" fill="#434343"/>
<path id="Vector 72" d="M110.532 147.86V24.2516V21.041C110.532 21.041 80.3266 19.8615 61.303 22.6463C53.9228 23.7267 49.5091 23.6454 42.5744 26.392C36.4768 28.8072 32.8657 30.4199 28.1266 34.9537C22.5072 40.3298 21.2719 45.0406 17.9597 52.0769C13.6535 61.2248 12.3295 66.8689 9.93318 76.6916C5.79832 93.6407 6.18801 103.692 5.11726 121.105C3.70645 144.048 5.11726 179.966 5.11726 179.966C5.11726 179.966 6.1643 186.576 8.32787 190.133C10.4778 193.668 12.2189 195.586 15.8193 197.625C20.6029 200.333 24.3191 200.724 29.7319 199.765C35.731 198.702 43.1095 191.738 43.1095 191.738L78.4262 147.86H110.532Z" fill="#262626"/>
<path id="Vector 73" d="M109.997 147.86V24.2516V21.041C109.997 21.041 140.203 19.8615 159.226 22.6463C166.606 23.7267 171.02 23.6454 177.955 26.392C184.053 28.8071 187.664 30.4199 192.403 34.9536C198.022 40.3298 199.257 45.0406 202.57 52.0769C206.876 61.2248 208.2 66.8689 210.596 76.6916C214.731 93.6407 214.341 103.692 215.412 121.105C216.823 144.048 215.412 179.966 215.412 179.966C215.412 179.966 214.365 186.576 212.201 190.133C210.052 193.668 208.31 195.586 204.71 197.625C199.926 200.333 196.21 200.724 190.797 199.765C184.798 198.702 177.42 191.738 177.42 191.738L142.103 147.86H109.997Z" fill="#262626"/>
<circle id="Ellipse 63" cx="80.5662" cy="114.149" r="20.869" fill="#222222"/>
<circle id="Ellipse 64" cx="140.498" cy="114.149" r="20.869" fill="#222222"/>
<circle id="Ellipse 57" cx="57.557" cy="62.2439" r="35.3167" fill="#222222"/>
<circle id="Ellipse 61" cx="57.0215" cy="62.779" r="28.3604" fill="#434343"/>
<circle id="Ellipse 58" cx="164.577" cy="62.2439" r="35.3167" fill="#222222"/>
<circle id="Ellipse 59" cx="80.5658" cy="114.149" r="14.9829" fill="#8C8C8C" stroke="#ABABAB" stroke-width="1.0702"/>
<circle id="Ellipse 60" cx="140.497" cy="114.149" r="14.9829" fill="#8C8C8C" stroke="#ABABAB" stroke-width="1.0702"/>
<circle id="Ellipse 62" cx="164.042" cy="62.779" r="28.3604" fill="#434343"/>
<g id="Group 30">
<path id="Vector 68" d="M48.9953 52.612V37.6292H65.0483V52.612L57.0218 60.1034L48.9953 52.612Z" fill="#ABABAB"/>
<path id="Vector 69" d="M66.1185 53.6822L81.1014 53.6822L81.1014 69.7353L66.1185 69.7353L58.6271 61.7087L66.1185 53.6822Z" fill="#ABABAB"/>
<path id="Vector 71" d="M47.9251 53.6822L32.9422 53.6822L32.9422 69.7353L47.9251 69.7353L55.4165 61.7087L47.9251 53.6822Z" fill="#ABABAB"/>
<path id="Vector 70" d="M65.0483 70.8055L65.0483 85.7883L48.9953 85.7883L48.9953 70.8055L57.0218 63.314L65.0483 70.8055Z" fill="#ABABAB"/>
</g>
<rect id="Rectangle 442" x="47.7822" y="50.4309" width="35.5866" height="2.82491" transform="rotate(45 47.7822 50.4309)" fill="#434343"/>
<rect id="Rectangle 443" x="70.8047" y="50.3287" width="35.5866" height="2.82491" transform="rotate(135 70.8047 50.3287)" fill="#434343"/>
<circle id="Ellipse 65" cx="161.901" cy="43.5153" r="9.09673" fill="#FE5252"/>
<circle id="Ellipse 66" cx="162.972" cy="76.6916" r="9.09673" fill="#ABABAB"/>
<circle id="Ellipse 67" cx="179.025" cy="60.6386" r="9.09673" fill="#FE5252"/>
<circle id="Ellipse 68" cx="146.919" cy="60.6386" r="9.09673" fill="#ABABAB"/>
<path id="Vector 74" d="M21.7159 83.5677C18.945 78.3883 14.7158 73.5677 14.7158 73.5677L11.2158 87.5677L8.21582 120.568V174.568C8.21582 174.568 7.89984 182.7 10.2158 187.068C12.6772 191.709 15.2418 194.376 20.2158 196.068C24.2827 197.451 27.0794 197.227 31.2158 196.068C35.9612 194.738 41.7158 189.068 41.7158 189.068L73.7158 146.568C73.7158 146.568 59.7846 139.669 55.2158 131.568C52.6982 127.103 51.569 124.181 51.2158 119.068C50.8463 113.719 54.7159 102.068 54.7159 102.068C54.7159 102.068 41.7096 101.064 34.7159 96.5677C27.7159 92.0677 25.3633 90.3854 21.7159 83.5677Z" fill="url(#paint0_linear_0_4)"/>
<path id="Vector 75" d="M199.216 83.5677C201.987 78.3882 206.216 73.5677 206.216 73.5677L209.716 87.5677L212.716 120.568V174.568C212.716 174.568 213.032 182.7 210.716 187.068C208.254 191.709 205.69 194.376 200.716 196.068C196.649 197.451 193.852 197.227 189.716 196.068C184.97 194.738 179.216 189.068 179.216 189.068L147.216 146.568C147.216 146.568 161.147 139.669 165.716 131.568C168.233 127.103 169.363 124.181 169.716 119.068C170.085 113.719 166.216 102.068 166.216 102.068C166.216 102.068 179.222 101.064 186.216 96.5677C193.216 92.0677 195.568 90.3853 199.216 83.5677Z" fill="url(#paint1_linear_0_4)"/>
</g>
<defs>
<linearGradient id="paint0_linear_0_4" x1="40.9586" y1="73.5677" x2="4.71595" y2="200.068" gradientUnits="userSpaceOnUse">
<stop offset="0.298077" stop-color="#262626"/>
<stop offset="1" stop-color="#737373"/>
</linearGradient>
<linearGradient id="paint1_linear_0_4" x1="179.973" y1="73.5677" x2="216.216" y2="200.068" gradientUnits="userSpaceOnUse">
<stop offset="0.298077" stop-color="#262626"/>
<stop offset="1" stop-color="#737373"/>
</linearGradient>
</defs>
</svg>
