<svg width="100" height="100" viewBox="0 0 220 173.351" fill="none" xmlns="http://www.w3.org/2000/svg" preserveAspectRatio="xMidYMid meet">
<g id="Group 37">
<g id="Frame 26">
<rect width="94.6995" height="113.082" transform="translate(0 58.8421) rotate(-22.5815)" fill="url(#paint0_linear_0_1)"/>
</g>
<g id="Frame 25">
<rect width="125.147" height="149.44" transform="translate(25.3545 23.8104) rotate(-9.88789)" fill="url(#paint1_linear_0_1)"/>
</g>
<g id="Frame 24">
<rect width="145.171" height="173.351" transform="translate(74.8301)" fill="white"/>
</g>
<g id="roboticscareer_logo 1 [Vectorized]">
<path id="Vector" d="M159.637 45.4462C159.669 45.4449 159.7 45.4429 159.732 45.4426C160.593 45.4325 169.529 49.1607 170.025 49.695C170.626 50.3438 170.128 54.8798 170.112 55.9476C170.068 58.7899 170.915 61.4269 172.937 63.5008C176.439 67.0923 181.886 65.6566 186.36 65.7139C187.454 67.5926 188.172 69.7134 189.008 71.7128C189.566 73.048 190.379 74.5124 190.68 75.9304C190.769 76.3503 190.673 76.6908 190.446 77.0485C190.007 77.7397 189.309 78.2899 188.711 78.8425C187.227 80.214 185.579 81.562 184.471 83.2694C183.623 84.5768 183.216 86.083 183.144 87.6324C182.809 94.7774 190.309 97.0276 190.782 99.5789C190.855 99.9707 190.731 100.452 190.615 100.823C190.268 101.936 189.67 103.008 189.224 104.087C188.339 106.226 187.709 108.471 186.387 110.4C182.017 110.366 176.352 109.287 173.022 112.81C169.277 116.769 170.772 121.46 170.796 126.232C170.732 126.283 170.187 126.69 170.052 126.743C167.638 127.68 162.203 130.579 159.967 130.879C157.798 129.274 156.525 126.948 154.333 125.181C149.902 121.61 145.086 122.708 141.372 126.707C140.27 127.893 138.765 130.022 137.366 130.817C136.288 131.108 133.057 129.382 131.828 128.917C130.073 128.253 128.689 127.398 126.771 127.077C126.574 122.192 127.8 116.429 123.809 112.717C121.238 110.328 118.315 110.458 115.033 110.562L110.4 110.728C110.097 109.635 109.512 108.616 109.06 107.578C108.363 105.978 107.716 104.35 107.049 102.737C106.713 101.921 106.183 100.879 106.119 99.9946C106.096 99.6794 106.472 99.2531 106.665 99.0347C108.225 97.2719 110.27 96.0148 111.731 94.119C112.817 92.709 113.655 90.8729 113.849 89.0916C113.966 88.0209 113.748 86.9729 113.432 85.9547C112.535 83.0694 110.593 81.389 108.414 79.4357C107.821 78.9036 107.158 78.3799 106.666 77.7508C106.407 77.4202 106.12 76.989 106.178 76.5526C106.407 74.8275 107.542 72.5395 108.19 70.884C108.718 69.5364 109.372 67.2196 110.504 66.2848C111.957 65.0841 118.782 67.7831 123.155 64.2635C124.099 63.5042 124.827 62.5265 125.362 61.4449C127.279 57.5774 125.835 53.9414 126.261 49.9034C128.61 48.5895 134.295 46.3296 136.911 45.4655C139.807 47.9705 142.525 52.3077 146.231 53.1451C150.639 54.1413 154.073 51.684 156.677 48.4018C157.373 47.5243 158.723 46.0079 159.637 45.4462Z" fill="url(#paint2_linear_0_1)"/>
<path id="Vector_2" d="M145.813 62.1513C148.169 61.9633 152.397 61.7661 154.29 63.1327C157.301 64.9001 157.039 68.937 158.816 71.1814C160.329 73.0919 163.668 75.3397 165.556 77.1319C167.771 79.2348 170.895 80.9663 171.425 84.3386C171.716 86.19 170.433 89.0001 169.796 90.7456L166.773 98.8628C165.467 102.334 164.279 105.878 162.948 109.344C161.474 113.184 158.913 113.667 155.258 114.161C155.345 113.111 155.398 109.856 156.381 109.165C156.938 108.871 157.097 108.604 157.152 107.947C157.696 101.381 157.861 94.7849 158.425 88.2158C158.528 87.0117 158.237 84.8974 157.351 84.0356C155.902 82.6272 153.576 82.7914 151.69 82.8018C148.669 82.8683 145.661 82.691 142.635 82.8483C139.195 82.9262 138.156 85.5434 138.426 88.6338C139.004 95.261 139.227 102.077 139.878 108.694C139.959 108.762 140.039 108.831 140.117 108.902C141.613 110.269 141.443 112.163 141.541 114.12C136.603 113.634 135.319 112.786 133.495 108.077C132.225 104.797 131.06 101.441 129.844 98.1462L127.428 91.7127C126.251 88.5854 124.487 84.9845 126.458 81.8405C127.278 80.532 128.318 79.7667 129.467 78.7763C131.068 77.3792 132.685 76.0006 134.318 74.6406C135.529 73.6255 137.16 72.3212 138.17 71.1326C139.587 69.4662 139.464 66.386 140.938 64.7139C142.3 63.1696 143.799 62.3726 145.813 62.1513Z" fill="white"/>
<path id="Vector_3" d="M147.723 67.1072C151.51 66.7218 154.888 69.49 155.254 73.2787C155.62 77.0674 152.834 80.431 149.044 80.7777C145.281 81.1217 141.946 78.3607 141.583 74.5994C141.22 70.838 143.964 67.4899 147.723 67.1072Z" fill="#FEB81D"/>
</g>
<path id="Robotics Seminar" d="M102.833 30.5409L102.689 30.5888C102.578 30.6286 102.446 30.6565 102.295 30.6724C102.151 30.6804 102.06 30.6844 102.02 30.6844C101.996 30.6844 101.94 30.6804 101.853 30.6724C101.773 30.6565 101.713 30.6485 101.673 30.6485C101.649 30.6485 101.617 30.6685 101.578 30.7083L101.04 30.517C101.04 30.4772 101.04 30.4413 101.04 30.4094C101.048 30.3775 101.055 30.3417 101.063 30.3018C101.079 30.1902 101.091 30.0866 101.099 29.991C101.115 29.8874 101.115 29.7917 101.099 29.7041C101.163 29.6403 101.171 29.445 101.123 29.1183C101.075 28.7835 101.052 28.5723 101.052 28.4846C101.052 28.4607 101.059 28.397 101.075 28.2934C101.091 28.1897 101.107 28.0981 101.123 28.0184C101.131 27.9945 101.147 27.9626 101.171 27.9227C101.203 27.8829 101.219 27.8391 101.219 27.7912C101.203 27.5601 101.211 27.3728 101.243 27.2293C101.283 27.0779 101.295 26.9265 101.279 26.775C101.271 26.7352 101.275 26.6953 101.291 26.6555C101.307 26.6156 101.315 26.5638 101.315 26.5001V26.1055C101.315 25.994 101.315 25.8704 101.315 25.7349C101.315 25.5915 101.319 25.4281 101.326 25.2448C101.334 24.8861 101.338 24.647 101.338 24.5275C101.346 24.4079 101.358 24.3242 101.374 24.2764C101.382 24.1967 101.402 24.1329 101.434 24.0851C101.474 24.0373 101.494 23.9576 101.494 23.846C101.494 23.838 101.478 23.8141 101.446 23.7743C101.422 23.7344 101.39 23.6826 101.35 23.6189C101.326 23.587 101.311 23.5471 101.303 23.4993C101.295 23.4515 101.291 23.4076 101.291 23.3678C101.299 23.32 101.303 23.2801 101.303 23.2482C101.311 23.2164 101.315 23.1247 101.315 22.9733C101.53 22.9095 101.749 22.8776 101.972 22.8776C102.195 22.8776 102.375 22.8697 102.51 22.8537C102.558 22.8458 102.594 22.8378 102.618 22.8298C102.65 22.8218 102.677 22.8179 102.701 22.8179C102.725 22.8099 102.753 22.8059 102.785 22.8059C102.825 22.7979 102.881 22.7939 102.952 22.7939C102.984 22.8736 103.028 22.9613 103.084 23.057C103.14 23.1526 103.184 23.2403 103.215 23.32C103.319 23.4634 103.419 23.5312 103.514 23.5232C103.61 23.5152 103.698 23.4794 103.777 23.4156C103.865 23.3519 103.937 23.2841 103.992 23.2124C104.048 23.1327 104.084 23.0928 104.1 23.0928L105.451 23.1048L106.479 23.8101C106.519 23.85 106.571 23.8978 106.635 23.9536C106.698 24.0014 106.766 24.0692 106.838 24.1568C106.997 24.3242 107.117 24.4039 107.196 24.3959L107.483 24.8144C107.467 24.8383 107.432 24.91 107.376 25.0296C107.328 25.1412 107.256 25.3006 107.161 25.5078C106.977 25.9382 106.886 26.2729 106.886 26.512L106.647 26.6555C106.487 26.7192 106.407 26.8826 106.407 27.1456C106.272 27.1297 106.049 27.1815 105.738 27.3011C105.65 27.3409 105.555 27.3688 105.451 27.3848C105.347 27.3927 105.252 27.4007 105.164 27.4087C105.108 27.4166 105.053 27.4206 104.997 27.4206C104.949 27.4206 104.897 27.4206 104.841 27.4206L104.71 27.7195C104.614 27.6478 104.507 27.5999 104.387 27.576C104.267 27.5521 104.148 27.5442 104.028 27.5521C103.917 27.5601 103.809 27.576 103.706 27.5999C103.602 27.6239 103.514 27.6518 103.443 27.6836C103.18 27.7793 103.044 27.8271 103.036 27.8271H102.964C102.972 27.8351 102.976 27.847 102.976 27.863C102.96 27.9427 102.932 28.0383 102.893 28.1499C102.861 28.2535 102.845 28.3252 102.845 28.3651C102.845 28.4129 102.849 28.4806 102.857 28.5683C102.865 28.648 102.873 28.7556 102.881 28.8911C102.889 29.0186 102.893 29.1262 102.893 29.2139C102.901 29.3016 102.905 29.3693 102.905 29.4171L102.952 29.7399C102.968 29.8037 102.98 29.8675 102.988 29.9312C102.996 29.987 103.008 30.0468 103.024 30.1105L102.833 30.5409ZM103.275 24.1329C103.275 24.1967 103.275 24.2724 103.275 24.3601C103.283 24.4478 103.291 24.5474 103.299 24.659C103.339 25.1531 103.351 25.448 103.335 25.5436C103.176 25.6393 103.08 25.7828 103.048 25.974C103.024 26.0776 103 26.1773 102.976 26.2729C102.952 26.3606 102.924 26.4363 102.893 26.5001L102.869 26.524C102.869 26.6116 102.869 26.6754 102.869 26.7153C102.877 26.7551 102.881 26.8029 102.881 26.8587L103.108 27.0141L103.335 26.9544C103.335 27.1297 103.55 27.1257 103.981 26.9424C104.403 26.7671 104.642 26.6794 104.698 26.6794H105.2C105.264 26.5917 105.339 26.5001 105.427 26.4044C105.515 26.3008 105.559 26.2371 105.559 26.2131L105.714 25.3404L105.642 25.0415L104.052 23.9058H103.526L103.275 24.1329ZM106.742 30.5648C106.726 30.4931 106.678 30.4453 106.599 30.4214C106.567 30.3895 106.555 30.3457 106.563 30.2899C106.571 30.2341 106.563 30.1982 106.539 30.1823C106.531 30.1663 106.523 30.1584 106.515 30.1584C106.507 30.1584 106.495 30.1544 106.479 30.1464C106.471 30.1305 106.447 30.1026 106.407 30.0627C106.384 30.0308 106.356 29.999 106.324 29.9671C106.292 29.9272 106.256 29.8754 106.216 29.8117C106.128 29.7001 106.061 29.6124 106.013 29.5486C105.965 29.4769 105.929 29.4331 105.905 29.4171C105.873 29.4012 105.826 29.3693 105.762 29.3215C105.698 29.2737 105.654 29.2458 105.63 29.2378C105.606 29.2139 105.587 29.186 105.571 29.1541C105.555 29.1222 105.539 29.0983 105.523 29.0824C105.507 29.0665 105.487 29.0107 105.463 28.915C105.439 28.8194 105.415 28.7357 105.391 28.664C105.304 28.5843 105.172 28.4408 104.997 28.2336C104.941 28.1778 104.909 28.1419 104.901 28.126L105.057 27.8988L105.63 28.1858C105.638 28.1937 105.678 28.1937 105.75 28.1858C105.83 28.1778 105.913 28.1738 106.001 28.1738C106.089 28.1658 106.172 28.1658 106.252 28.1738C106.34 28.1818 106.395 28.2057 106.419 28.2455C106.451 28.2854 106.491 28.3133 106.539 28.3292C106.587 28.3452 106.635 28.3611 106.682 28.377C106.738 28.385 106.782 28.393 106.814 28.4009C106.854 28.4089 106.878 28.4249 106.886 28.4488L107.125 28.8911C107.157 28.931 107.212 28.9987 107.292 29.0944C107.38 29.182 107.495 29.3056 107.639 29.465C107.926 29.7997 108.073 29.9711 108.081 29.979L108.045 30.3975L107.089 30.6724L106.742 30.5648ZM114.593 26.5957C114.617 26.7312 114.629 26.8508 114.629 26.9544C114.629 27.05 114.625 27.1456 114.617 27.2413C114.617 27.329 114.621 27.4166 114.629 27.5043C114.645 27.584 114.677 27.6717 114.725 27.7673C114.709 27.7992 114.669 27.863 114.605 27.9586C114.549 28.0463 114.51 28.1379 114.486 28.2336C114.47 28.3212 114.458 28.389 114.45 28.4368C114.442 28.4846 114.434 28.5165 114.426 28.5325C114.45 28.5484 114.47 28.5803 114.486 28.6281C114.494 28.6679 114.486 28.7198 114.462 28.7835C114.438 28.8393 114.39 28.919 114.318 29.0226C114.175 29.2139 114.095 29.3773 114.079 29.5128C114.063 29.6403 114.031 29.7399 113.984 29.8117C113.968 29.8276 113.916 29.8515 113.828 29.8834C113.748 29.9153 113.653 29.9551 113.541 30.0029C113.43 30.0428 113.318 30.0906 113.207 30.1464C113.095 30.2022 113.007 30.258 112.944 30.3138C112.808 30.3377 112.688 30.3696 112.585 30.4094C112.481 30.4493 112.354 30.4772 112.202 30.4931C112.059 30.525 111.911 30.5648 111.76 30.6127C111.609 30.6525 111.525 30.6724 111.509 30.6724C111.134 30.6724 110.911 30.6844 110.839 30.7083C110.776 30.7322 110.7 30.7442 110.612 30.7442L109.524 30.3496L109.022 29.6204C109.022 29.4291 109.014 29.2697 108.998 29.1422C108.99 29.0067 108.978 28.8911 108.962 28.7955C108.946 28.6919 108.935 28.5962 108.927 28.5085C108.919 28.4209 108.919 28.3212 108.927 28.2097C108.95 28.1858 108.986 28.13 109.034 28.0423C109.082 27.9466 109.13 27.8391 109.178 27.7195C109.233 27.5999 109.285 27.4764 109.333 27.3489C109.389 27.2214 109.429 27.1138 109.453 27.0261C109.516 26.8428 109.564 26.6834 109.596 26.5479C109.628 26.4044 109.652 26.2769 109.668 26.1653C109.732 26.1255 109.783 26.0816 109.823 26.0338C109.863 25.986 109.903 25.9461 109.943 25.9143C110.27 25.723 110.552 25.5676 110.792 25.448C111.031 25.3205 111.254 25.2408 111.461 25.2089L111.82 25.185C111.86 25.193 111.895 25.2009 111.927 25.2089C111.959 25.2169 111.991 25.2248 112.023 25.2328C112.071 25.2488 112.115 25.2607 112.154 25.2687C112.194 25.2687 112.218 25.2687 112.226 25.2687L112.465 25.6393C112.465 25.711 112.449 25.7708 112.417 25.8186C112.386 25.8585 112.417 25.8864 112.513 25.9023C112.617 25.9262 112.673 25.9422 112.68 25.9501V25.9621C112.808 25.9621 112.94 25.9342 113.075 25.8784C113.211 25.8146 113.346 25.7828 113.481 25.7828C113.513 25.7828 113.569 25.7987 113.649 25.8306C113.729 25.8545 113.812 25.8864 113.9 25.9262C113.988 25.9661 114.067 26.0059 114.139 26.0458C114.219 26.0776 114.275 26.1016 114.306 26.1175C114.29 26.2371 114.294 26.3207 114.318 26.3686C114.342 26.4164 114.374 26.4522 114.414 26.4762C114.454 26.4921 114.49 26.508 114.522 26.524C114.561 26.5319 114.585 26.5559 114.593 26.5957ZM112.453 29.5845C112.573 29.5048 112.688 29.2498 112.8 28.8194C112.864 28.5882 112.916 28.4169 112.955 28.3053C113.003 28.1858 113.027 28.0742 113.027 27.9706C113.027 27.7952 112.967 27.588 112.848 27.3489C112.784 27.2214 112.736 27.1138 112.704 27.0261C112.673 26.9384 112.649 26.8508 112.633 26.7631C112.569 26.7312 112.533 26.6834 112.525 26.6196C112.525 26.5479 112.493 26.4762 112.429 26.4044C112.35 26.3407 112.302 26.3168 112.286 26.3327C112.27 26.3486 112.254 26.3566 112.238 26.3566H112.131C112.067 26.3566 111.979 26.3686 111.868 26.3925C111.764 26.4164 111.68 26.4722 111.616 26.5598C111.521 26.6635 111.437 26.7471 111.365 26.8109C111.302 26.8667 111.266 26.9026 111.258 26.9185C111.178 27.0699 111.106 27.2014 111.043 27.313C110.979 27.4166 110.927 27.5003 110.887 27.5641L110.78 27.8151C110.732 27.9347 110.712 28.0941 110.72 28.2934C110.736 28.3252 110.752 28.397 110.768 28.5085C110.784 28.6122 110.736 28.7237 110.624 28.8433C110.6 28.8672 110.576 28.915 110.552 28.9868C110.529 29.0505 110.513 29.1262 110.505 29.2139C110.497 29.3016 110.505 29.3892 110.529 29.4769C110.56 29.5646 110.62 29.6403 110.708 29.7041C110.819 29.7838 110.935 29.8635 111.055 29.9432C111.174 30.0149 111.25 30.0508 111.282 30.0508H111.413C111.461 30.0508 111.505 30.0627 111.545 30.0866L112.453 29.5845ZM118.935 23.0331L118.648 23.5352C118.504 23.6468 118.436 23.7623 118.444 23.8819C118.452 24.0014 118.5 24.1289 118.588 24.2644C118.572 24.384 118.56 24.4796 118.552 24.5514C118.552 24.6231 118.552 24.6908 118.552 24.7546C118.56 24.8104 118.568 24.8742 118.576 24.9459C118.592 25.0096 118.612 25.0933 118.636 25.1969L118.516 25.6871L118.492 26.261L118.66 26.3566L118.899 26.3088C118.954 26.2689 119.006 26.2211 119.054 26.1653C119.102 26.1016 119.142 26.0418 119.174 25.986C119.214 25.9302 119.241 25.8824 119.257 25.8425C119.281 25.8027 119.297 25.7828 119.305 25.7828C119.313 25.7828 119.337 25.7828 119.377 25.7828C119.425 25.7748 119.477 25.7668 119.532 25.7588C119.596 25.7429 119.66 25.727 119.724 25.711C119.795 25.6951 119.855 25.6752 119.903 25.6512C119.927 25.6512 120.019 25.6632 120.178 25.6871C120.345 25.7031 120.533 25.7549 120.74 25.8425C120.796 25.8585 120.851 25.8824 120.907 25.9143C120.963 25.9382 121.023 25.9661 121.087 25.9979L121.421 26.1653C121.525 26.2131 121.613 26.257 121.684 26.2968C121.756 26.3367 121.804 26.3566 121.828 26.3566L122.031 27.0261C121.999 27.05 121.971 27.0859 121.947 27.1337C121.931 27.1815 121.915 27.2293 121.899 27.2772C121.891 27.325 121.891 27.3688 121.899 27.4087C121.907 27.4485 121.923 27.4724 121.947 27.4804C121.963 27.5601 121.975 27.6159 121.983 27.6478C121.991 27.6796 122.003 27.7036 122.019 27.7195C122.035 27.7354 122.055 27.7514 122.079 27.7673C122.111 27.7833 122.155 27.8151 122.21 27.863L122.067 28.9748L121.421 30.0508C121.365 30.0986 121.278 30.1584 121.158 30.2301C121.039 30.2939 120.899 30.3576 120.74 30.4214C120.588 30.4851 120.425 30.5409 120.25 30.5888C120.074 30.6286 119.899 30.6485 119.724 30.6485C119.604 30.6964 119.528 30.7322 119.496 30.7561C119.465 30.7721 119.433 30.78 119.401 30.78C119.377 30.7721 119.325 30.7561 119.245 30.7322C119.174 30.7003 119.038 30.6645 118.839 30.6246C118.791 30.5768 118.747 30.5409 118.707 30.517C118.676 30.4931 118.644 30.4692 118.612 30.4453C118.588 30.4214 118.564 30.3895 118.54 30.3496C118.516 30.3098 118.492 30.246 118.468 30.1584C118.389 30.0787 118.285 30.0069 118.157 29.9432C118.03 29.8714 117.922 29.8475 117.835 29.8714C117.723 30.0308 117.612 30.1584 117.5 30.254C117.388 30.3496 117.265 30.3935 117.129 30.3855C117.042 30.3377 116.946 30.3098 116.842 30.3018C116.747 30.2939 116.659 30.2939 116.579 30.3018C116.5 30.3018 116.432 30.3018 116.376 30.3018C116.328 30.2939 116.304 30.2699 116.304 30.2301C116.312 30.1982 116.336 30.1584 116.376 30.1105C116.392 30.0787 116.416 30.0388 116.448 29.991C116.488 29.9352 116.528 29.8714 116.567 29.7997L116.544 29.5965L116.759 28.1379C116.727 28.0503 116.715 27.9068 116.723 27.7075C116.731 27.5003 116.743 27.2214 116.759 26.8707C116.783 26.52 116.803 26.0856 116.818 25.5676C116.842 25.0415 116.85 24.4159 116.842 23.6906C116.85 23.571 116.866 23.4555 116.89 23.3439C116.922 23.2323 116.95 23.1287 116.974 23.0331C116.998 22.9294 117.014 22.8378 117.022 22.7581C117.03 22.6704 117.022 22.5907 116.998 22.519C116.99 22.4472 117.002 22.3915 117.034 22.3516C117.066 22.3038 117.125 22.2878 117.213 22.3038L118.42 22.3516L118.707 22.4472L118.935 23.0331ZM118.624 29.7758C118.719 29.8236 118.795 29.8595 118.851 29.8834C118.907 29.8993 118.954 29.9073 118.994 29.9073C119.042 29.9073 119.086 29.8993 119.126 29.8834C119.166 29.8675 119.21 29.8475 119.257 29.8236L119.64 29.7041L120.13 29.2259C120.266 29.186 120.369 29.1222 120.441 29.0346C120.521 28.9389 120.564 28.8114 120.572 28.652C120.604 28.5165 120.64 28.393 120.68 28.2814C120.72 28.1618 120.748 28.0463 120.764 27.9347C120.78 27.8231 120.78 27.7115 120.764 27.5999C120.756 27.4804 120.72 27.3529 120.656 27.2174L120.501 26.8229L119.867 26.512C119.755 26.4881 119.636 26.4722 119.508 26.4642C119.381 26.4562 119.261 26.4642 119.15 26.4881C119.038 26.512 118.943 26.5559 118.863 26.6196C118.783 26.6754 118.739 26.7591 118.731 26.8707L118.504 27.1098C118.464 27.4366 118.44 27.6996 118.432 27.8988C118.417 28.1061 118.397 28.3053 118.373 28.4966C118.357 28.6879 118.341 28.8114 118.325 28.8672C118.293 28.9788 118.293 29.0824 118.325 29.178C118.357 29.2657 118.357 29.3215 118.325 29.3454L118.624 29.7758ZM128.656 26.5957C128.679 26.7312 128.691 26.8508 128.691 26.9544C128.691 27.05 128.687 27.1456 128.679 27.2413C128.679 27.329 128.683 27.4166 128.691 27.5043C128.707 27.584 128.739 27.6717 128.787 27.7673C128.771 27.7992 128.731 27.863 128.668 27.9586C128.612 28.0463 128.572 28.1379 128.548 28.2336C128.532 28.3212 128.52 28.389 128.512 28.4368C128.504 28.4846 128.496 28.5165 128.488 28.5325C128.512 28.5484 128.532 28.5803 128.548 28.6281C128.556 28.6679 128.548 28.7198 128.524 28.7835C128.5 28.8393 128.452 28.919 128.381 29.0226C128.237 29.2139 128.157 29.3773 128.141 29.5128C128.126 29.6403 128.094 29.7399 128.046 29.8117C128.03 29.8276 127.978 29.8515 127.89 29.8834C127.811 29.9153 127.715 29.9551 127.604 30.0029C127.492 30.0428 127.38 30.0906 127.269 30.1464C127.157 30.2022 127.07 30.258 127.006 30.3138C126.87 30.3377 126.751 30.3696 126.647 30.4094C126.543 30.4493 126.416 30.4772 126.265 30.4931C126.121 30.525 125.974 30.5648 125.822 30.6127C125.671 30.6525 125.587 30.6724 125.571 30.6724C125.197 30.6724 124.973 30.6844 124.902 30.7083C124.838 30.7322 124.762 30.7442 124.674 30.7442L123.587 30.3496L123.084 29.6204C123.084 29.4291 123.076 29.2697 123.061 29.1422C123.053 29.0067 123.041 28.8911 123.025 28.7955C123.009 28.6919 122.997 28.5962 122.989 28.5085C122.981 28.4209 122.981 28.3212 122.989 28.2097C123.013 28.1858 123.049 28.13 123.096 28.0423C123.144 27.9466 123.192 27.8391 123.24 27.7195C123.296 27.5999 123.347 27.4764 123.395 27.3489C123.451 27.2214 123.491 27.1138 123.515 27.0261C123.579 26.8428 123.626 26.6834 123.658 26.5479C123.69 26.4044 123.714 26.2769 123.73 26.1653C123.794 26.1255 123.846 26.0816 123.885 26.0338C123.925 25.986 123.965 25.9461 124.005 25.9143C124.332 25.723 124.615 25.5676 124.854 25.448C125.093 25.3205 125.316 25.2408 125.523 25.2089L125.882 25.185C125.922 25.193 125.958 25.2009 125.99 25.2089C126.021 25.2169 126.053 25.2248 126.085 25.2328C126.133 25.2488 126.177 25.2607 126.217 25.2687C126.257 25.2687 126.28 25.2687 126.288 25.2687L126.528 25.6393C126.528 25.711 126.512 25.7708 126.48 25.8186C126.448 25.8585 126.48 25.8864 126.575 25.9023C126.679 25.9262 126.735 25.9422 126.743 25.9501V25.9621C126.87 25.9621 127.002 25.9342 127.137 25.8784C127.273 25.8146 127.408 25.7828 127.544 25.7828C127.576 25.7828 127.631 25.7987 127.711 25.8306C127.791 25.8545 127.874 25.8864 127.962 25.9262C128.05 25.9661 128.13 26.0059 128.201 26.0458C128.281 26.0776 128.337 26.1016 128.369 26.1175C128.353 26.2371 128.357 26.3207 128.381 26.3686C128.405 26.4164 128.436 26.4522 128.476 26.4762C128.516 26.4921 128.552 26.508 128.584 26.524C128.624 26.5319 128.648 26.5559 128.656 26.5957ZM126.516 29.5845C126.635 29.5048 126.751 29.2498 126.862 28.8194C126.926 28.5882 126.978 28.4169 127.018 28.3053C127.066 28.1858 127.089 28.0742 127.089 27.9706C127.089 27.7952 127.03 27.588 126.91 27.3489C126.846 27.2214 126.799 27.1138 126.767 27.0261C126.735 26.9384 126.711 26.8508 126.695 26.7631C126.631 26.7312 126.595 26.6834 126.587 26.6196C126.587 26.5479 126.555 26.4762 126.492 26.4044C126.412 26.3407 126.364 26.3168 126.348 26.3327C126.332 26.3486 126.316 26.3566 126.3 26.3566H126.193C126.129 26.3566 126.041 26.3686 125.93 26.3925C125.826 26.4164 125.742 26.4722 125.679 26.5598C125.583 26.6635 125.499 26.7471 125.428 26.8109C125.364 26.8667 125.328 26.9026 125.32 26.9185C125.24 27.0699 125.169 27.2014 125.105 27.313C125.041 27.4166 124.989 27.5003 124.949 27.5641L124.842 27.8151C124.794 27.9347 124.774 28.0941 124.782 28.2934C124.798 28.3252 124.814 28.397 124.83 28.5085C124.846 28.6122 124.798 28.7237 124.686 28.8433C124.663 28.8672 124.639 28.915 124.615 28.9868C124.591 29.0505 124.575 29.1262 124.567 29.2139C124.559 29.3016 124.567 29.3892 124.591 29.4769C124.623 29.5646 124.682 29.6403 124.77 29.7041C124.882 29.7838 124.997 29.8635 125.117 29.9432C125.236 30.0149 125.312 30.0508 125.344 30.0508H125.475C125.523 30.0508 125.567 30.0627 125.607 30.0866L126.516 29.5845ZM129.661 26.4522C129.629 26.3646 129.606 26.249 129.59 26.1055C129.574 25.9541 129.558 25.8266 129.542 25.723L129.769 25.2926C129.912 25.2687 130.012 25.2607 130.068 25.2687C130.132 25.2766 130.179 25.2886 130.211 25.3045C130.259 25.2966 130.327 25.2886 130.414 25.2806C130.51 25.2647 130.654 25.2408 130.845 25.2089C130.861 25.0734 130.889 24.922 130.929 24.7546C130.968 24.5872 130.996 24.3999 131.012 24.1927L130.845 24.0253L130.833 23.846L130.964 23.5352H132.399L132.937 23.5591C132.993 23.6228 133.017 23.6986 133.009 23.7862C133.001 23.8659 132.985 23.9416 132.961 24.0134C132.937 24.0851 132.913 24.1449 132.889 24.1927C132.873 24.2326 132.877 24.2445 132.901 24.2286V24.9698C132.853 25.0096 132.817 25.0575 132.794 25.1133C132.77 25.1611 132.75 25.2169 132.734 25.2806L132.758 25.3045L133.451 25.2806C133.475 25.2886 133.499 25.2966 133.523 25.3045C133.547 25.3125 133.575 25.3205 133.607 25.3285C133.702 25.3524 133.826 25.3643 133.977 25.3643L134.085 25.4839L133.953 26.0577C133.905 26.0577 133.842 26.0657 133.762 26.0816C133.682 26.0896 133.599 26.1016 133.511 26.1175C133.431 26.1255 133.355 26.1334 133.284 26.1414C133.22 26.1494 133.176 26.1534 133.152 26.1534L132.65 26.2968C132.618 26.3845 132.594 26.4602 132.578 26.524C132.57 26.5798 132.566 26.6356 132.566 26.6914C132.566 26.7392 132.566 26.795 132.566 26.8587C132.574 26.9145 132.578 26.9862 132.578 27.0739L132.495 28.5922C132.471 28.7277 132.463 28.8513 132.471 28.9628C132.487 29.0744 132.507 29.1701 132.531 29.2498C132.546 29.2896 132.562 29.3295 132.578 29.3693C132.594 29.4092 132.61 29.449 132.626 29.4889L132.734 29.7997L132.782 29.8595L133.941 29.5008L134.384 29.3932L134.647 29.6323L134.36 30.0149L134.085 30.1584L133.846 30.2062L132.471 30.8159C132.431 30.8159 132.399 30.8119 132.375 30.8039C132.335 30.8039 132.287 30.8039 132.232 30.8039C132.184 30.796 132.128 30.788 132.064 30.78C131.777 30.7561 131.562 30.7641 131.419 30.8039C131.419 30.5808 131.331 30.4294 131.156 30.3496C131.068 30.2939 130.988 30.246 130.917 30.2062C130.853 30.1663 130.793 30.1345 130.737 30.1105C130.737 29.9751 130.737 29.8834 130.737 29.8356C130.745 29.7878 130.737 29.724 130.713 29.6443C130.697 29.6044 130.693 29.5168 130.701 29.3813C130.709 29.2378 130.717 29.0585 130.725 28.8433C130.741 28.6201 130.733 28.4408 130.701 28.3053C130.67 28.1618 130.622 28.0901 130.558 28.0901C130.566 27.9865 130.57 27.8829 130.57 27.7793C130.578 27.6757 130.586 27.584 130.594 27.5043C130.602 27.4645 130.606 27.4206 130.606 27.3728C130.606 27.325 130.606 27.2811 130.606 27.2413C130.622 27.2094 130.634 27.1855 130.642 27.1696C130.65 27.1456 130.658 27.1297 130.666 27.1217C130.674 27.1058 130.709 27.0859 130.773 27.062C130.845 27.0301 130.909 26.9464 130.964 26.8109C131.148 26.6834 131.227 26.5678 131.204 26.4642C131.18 26.3606 131.04 26.2889 130.785 26.249C130.729 26.257 130.681 26.2729 130.642 26.2968C130.61 26.3128 130.594 26.3566 130.594 26.4283L129.876 26.5838L129.661 26.4522ZM136.364 23.3558C136.38 23.2921 136.388 23.2323 136.388 23.1765C136.396 23.1128 136.404 23.049 136.412 22.9852C136.412 22.9294 136.412 22.8816 136.412 22.8418C136.42 22.8019 136.424 22.7661 136.424 22.7342L136.483 22.6027C136.507 22.5947 136.539 22.5907 136.579 22.5907C136.619 22.5907 136.667 22.5867 136.722 22.5788C136.89 22.5708 136.997 22.5509 137.045 22.519C137.045 22.511 137.065 22.4951 137.105 22.4712C137.129 22.4472 137.149 22.4313 137.165 22.4233C137.173 22.4233 137.201 22.4273 137.248 22.4353C137.296 22.4433 137.36 22.4592 137.44 22.4831C137.575 22.515 137.671 22.5309 137.727 22.5309C137.798 22.5309 137.838 22.5269 137.846 22.519C137.854 22.511 137.878 22.511 137.918 22.519L138.026 22.7222L138.133 23.3319L137.882 23.7504C137.874 23.7583 137.866 23.7663 137.858 23.7743C137.858 23.7822 137.85 23.7902 137.834 23.7982C137.794 23.8221 137.747 23.858 137.691 23.9058L137.655 23.9416L137.296 23.9775C137.248 23.9616 137.193 23.9456 137.129 23.9297C137.065 23.9058 136.989 23.8779 136.902 23.846C136.814 23.8141 136.738 23.7862 136.675 23.7623C136.611 23.7304 136.555 23.7065 136.507 23.6906L136.447 23.6308L136.364 23.3558ZM137.846 25.4121L137.798 25.8425L137.846 26.0219L137.775 26.2131L137.81 26.4881L137.751 26.7153L137.786 26.787L137.739 27.325L137.691 28.4607C137.691 28.5165 137.683 28.5882 137.667 28.6759C137.651 28.7556 137.639 28.8433 137.631 28.9389C137.623 29.0266 137.623 29.1183 137.631 29.2139C137.639 29.3016 137.663 29.3773 137.703 29.4411C137.695 29.5606 137.683 29.7001 137.667 29.8595C137.651 30.0189 137.623 30.2022 137.583 30.4094C137.519 30.4971 137.452 30.5768 137.38 30.6485C137.316 30.7123 137.193 30.7482 137.009 30.7561C136.906 30.7641 136.802 30.7721 136.699 30.78C136.603 30.788 136.511 30.8 136.424 30.8159C136.376 30.8239 136.328 30.8318 136.28 30.8398C136.232 30.8478 136.18 30.8597 136.125 30.8757L135.826 30.4931C135.834 30.4533 135.846 30.3457 135.862 30.1703C135.886 29.987 135.906 29.7718 135.921 29.5247C135.937 29.2777 135.945 29.0146 135.945 28.7357C135.953 28.4567 135.945 28.1977 135.921 27.9586L135.993 27.7315L136.101 27.2054L136.137 26.787L136.208 26.6435L136.22 26.5359L136.292 26.2131L136.352 25.5556L137.428 25.1372L137.846 25.4121ZM144.464 25.723V26.1653L144.392 26.2371L143.305 26.0099L142.348 26.4522L142.085 27.062C141.846 27.5402 141.671 27.9745 141.559 28.3651C141.448 28.7476 141.459 29.0744 141.595 29.3454L141.942 29.9432L143.197 29.728L143.723 29.5486H144.703L144.823 29.9671L143.484 30.3496L141.595 30.7442L141.021 30.3736H140.041L139.67 29.9671C139.575 29.5128 139.586 29.0545 139.706 28.5922C139.826 28.122 140.005 27.6438 140.244 27.1576L141.583 26.1892L141.918 25.6154L142.3 25.4719L142.563 25.2567L144.381 25.4839L144.464 25.723ZM145.873 26.1653L146.388 25.3404C146.419 25.3404 146.451 25.3404 146.483 25.3404C146.515 25.3324 146.551 25.3245 146.591 25.3165C146.655 25.3085 146.738 25.2966 146.842 25.2806C146.945 25.2647 147.065 25.2488 147.2 25.2328C147.742 25.1691 147.942 25.0375 147.798 24.8383L149.508 24.5872H149.95L150.034 24.6829L150.082 25.0774L149.878 25.2328L149.281 25.2448L148.504 25.6273L147.643 25.9023L147.499 26.2251L147.774 26.8946L148.109 26.9424L148.264 27.2891L148.551 27.2652L148.719 27.4684C148.791 27.4445 148.862 27.4286 148.934 27.4206C149.006 27.4047 149.069 27.4047 149.125 27.4206C149.165 27.4286 149.209 27.4366 149.257 27.4445C149.305 27.4445 149.36 27.4525 149.424 27.4684C149.504 27.4924 149.56 27.5202 149.592 27.5521C149.623 27.576 149.651 27.5999 149.675 27.6239C149.699 27.6398 149.727 27.6557 149.759 27.6717C149.791 27.6876 149.847 27.6956 149.926 27.6956C149.95 27.7434 149.994 27.7912 150.058 27.8391C150.129 27.8869 150.205 27.9347 150.285 27.9825C150.373 28.0303 150.456 28.0782 150.536 28.126C150.624 28.1738 150.687 28.2216 150.727 28.2694C150.743 28.2854 150.751 28.2973 150.751 28.3053C150.759 28.3133 150.771 28.3252 150.787 28.3412L150.859 28.915L150.596 29.6323L150.524 30.1345L149.938 30.4333L148.97 30.8159L148.384 30.7322C148.177 30.7003 147.993 30.7003 147.834 30.7322C147.675 30.7641 147.527 30.78 147.392 30.78H146.077L145.933 30.4214L146.029 30.0747L147.762 29.8954L148.336 29.8236L149.054 29.0585L148.946 28.7118L148.42 28.6161L147.499 28.3651L147.344 28.4488L146.842 28.2216L146.519 28.0064L146.148 27.1935L145.873 26.6555V26.1653ZM155.601 29.6921L156.964 29.4889L158.267 29.1063L158.578 28.6042L158.446 28.0901L158.135 27.7075C158.048 27.6518 157.956 27.5999 157.86 27.5521C157.773 27.4963 157.681 27.4565 157.586 27.4326C157.498 27.4007 157.406 27.3887 157.311 27.3967C157.223 27.3967 157.135 27.4246 157.048 27.4804L156.749 27.6956L155.756 27.2293L155.398 26.3088L155.709 24.7666L156.258 24.0373C156.282 24.0931 156.33 24.113 156.402 24.0971C156.474 24.0811 156.545 24.0492 156.617 24.0014C156.689 23.9536 156.749 23.8978 156.796 23.8341C156.844 23.7623 156.856 23.6986 156.832 23.6428C156.968 23.6029 157.123 23.5631 157.299 23.5232C157.474 23.4754 157.625 23.4076 157.753 23.32L159.295 22.9972L159.546 22.9733L159.761 23.2243L159.57 23.7384L159.128 23.858L158.554 23.9177L157.681 24.3601L157.275 24.8861C157.147 25.0057 157.083 25.1372 157.083 25.2806C157.091 25.4161 157.127 25.5636 157.191 25.723C157.279 25.9063 157.342 26.0258 157.382 26.0816C157.43 26.1295 157.49 26.1733 157.562 26.2131L158.267 26.4522C158.347 26.516 158.418 26.5678 158.482 26.6077C158.554 26.6395 158.634 26.6595 158.721 26.6674C158.809 26.6754 158.932 26.6834 159.092 26.6914C159.259 26.6993 159.47 26.7113 159.726 26.7272C159.797 26.8627 159.881 26.9823 159.977 27.0859C160.072 27.1815 160.164 27.309 160.252 27.4684L160.491 28.0064L160.132 29.2019L159.845 29.5128L159.259 30.3616H158.96C158.857 30.3616 158.729 30.3656 158.578 30.3736C158.434 30.3736 158.263 30.3736 158.064 30.3736C157.864 30.3736 157.689 30.3935 157.538 30.4333C157.386 30.4732 157.251 30.517 157.131 30.5648C157.012 30.6047 156.908 30.6406 156.82 30.6724C156.733 30.7043 156.653 30.7163 156.581 30.7083L156.151 30.5768L155.434 30.6964L155.183 30.1823L155.254 29.8834L155.601 29.6921ZM166.492 27.9706C166.317 27.9466 166.161 27.9785 166.026 28.0662C165.978 28.0901 165.93 28.114 165.882 28.1379C165.835 28.1539 165.787 28.1698 165.739 28.1858C165.715 28.1937 165.691 28.2017 165.667 28.2097C165.643 28.2176 165.623 28.2256 165.607 28.2336L163.946 28.7357C163.483 28.6321 163.32 28.7078 163.455 28.9628C163.479 29.0186 163.511 29.1023 163.551 29.2139C163.591 29.3255 163.623 29.4052 163.647 29.453C163.75 29.4929 163.858 29.5566 163.97 29.6443C164.081 29.724 164.185 29.7718 164.28 29.7878L164.496 29.7638C164.551 29.7638 164.627 29.7599 164.723 29.7519C164.826 29.7439 164.926 29.732 165.022 29.716C165.125 29.6921 165.217 29.6642 165.297 29.6323C165.384 29.6005 165.444 29.5606 165.476 29.5128C165.5 29.4729 165.536 29.445 165.583 29.4291C165.631 29.4052 165.679 29.3853 165.727 29.3693C165.759 29.3614 165.787 29.3574 165.811 29.3574C165.843 29.3494 165.878 29.3414 165.918 29.3335L166.05 29.7997L165.906 30.0747C165.898 30.0906 165.87 30.1105 165.823 30.1345C165.783 30.1504 165.735 30.1743 165.679 30.2062C165.623 30.2381 165.568 30.2699 165.512 30.3018C165.464 30.3257 165.428 30.3496 165.404 30.3736C165.388 30.3895 165.344 30.3975 165.273 30.3975C165.209 30.3975 165.133 30.3975 165.045 30.3975C164.966 30.3975 164.882 30.4015 164.794 30.4094C164.707 30.4174 164.639 30.4333 164.591 30.4572C164.48 30.513 164.392 30.5489 164.328 30.5648C164.272 30.5808 164.225 30.5927 164.185 30.6007C164.145 30.6166 164.117 30.6127 164.101 30.5888C164.085 30.5808 164.057 30.5768 164.017 30.5768C163.993 30.5768 163.962 30.5768 163.922 30.5768C163.882 30.5768 163.842 30.5728 163.802 30.5648C163.699 30.5569 163.615 30.5529 163.551 30.5529C163.487 30.5449 163.447 30.5409 163.432 30.5409L162.284 29.979C162.26 29.7399 162.148 29.6204 161.949 29.6204C161.909 29.6204 161.861 29.5885 161.806 29.5247C161.75 29.453 161.702 29.3773 161.662 29.2976C161.63 29.2577 161.602 29.2139 161.578 29.1661C161.555 29.1103 161.531 29.0505 161.507 28.9868L161.399 27.6239L161.507 26.8229C161.515 26.791 161.539 26.7511 161.578 26.7033C161.626 26.6236 161.686 26.5041 161.758 26.3446C161.79 26.2729 161.853 26.2052 161.949 26.1414C162.045 26.0776 162.144 26.0219 162.248 25.974C162.36 25.9182 162.463 25.8704 162.559 25.8306C162.662 25.7828 162.738 25.7429 162.786 25.711C162.882 25.727 163.021 25.6234 163.204 25.4002C163.252 25.3444 163.312 25.3006 163.384 25.2687C163.455 25.2288 163.527 25.1969 163.599 25.173C163.639 25.1571 163.683 25.1451 163.73 25.1372C163.778 25.1292 163.822 25.1212 163.862 25.1133L165.261 25.2926C165.34 25.3085 165.424 25.3324 165.512 25.3643C165.576 25.3962 165.639 25.4361 165.703 25.4839C165.767 25.5317 165.819 25.5875 165.858 25.6512C165.914 25.7867 165.994 25.8983 166.098 25.986C166.201 26.0657 166.285 26.1215 166.349 26.1534L166.791 26.9424L166.695 27.7195L166.492 27.9706ZM164.723 27.5641L164.818 27.4924C164.842 27.4764 164.866 27.4605 164.89 27.4445C164.914 27.4206 164.934 27.4047 164.95 27.3967C165.006 27.3808 165.069 27.3489 165.141 27.3011C165.213 27.2532 165.241 27.1935 165.225 27.1217C165.225 26.9862 165.153 26.8348 165.01 26.6674C164.866 26.5001 164.679 26.3805 164.448 26.3088C164.336 26.2689 164.229 26.249 164.125 26.249C164.021 26.249 163.922 26.257 163.826 26.2729C163.738 26.2809 163.655 26.2928 163.575 26.3088C163.503 26.3247 163.443 26.3327 163.396 26.3327C163.212 26.2928 163.109 26.3765 163.085 26.5838C162.965 26.7671 162.906 26.9703 162.906 27.1935C162.913 27.4087 162.937 27.6159 162.977 27.8151C162.977 27.9267 162.997 28.0184 163.037 28.0901C163.085 28.1618 163.141 28.2057 163.204 28.2216C163.268 28.2376 163.332 28.2256 163.396 28.1858C163.467 28.1379 163.527 28.0542 163.575 27.9347L164.723 27.5641ZM175.755 30.3855L175.086 30.5888L174.213 30.6964L174.13 30.4931L174.309 29.7997L174.524 29.1661L174.584 26.9065L174.297 26.3686H173.95L173.4 26.775H173.269C173.181 26.775 173.125 26.8268 173.101 26.9305C173.085 27.0261 173.085 27.1377 173.101 27.2652C173.03 27.2891 172.978 27.4087 172.946 27.6239L172.898 27.9586L172.886 28.6879L172.671 29.6443L172.755 30.1225L172.647 30.5529L172.539 30.6605L171.212 30.7561L170.937 30.5051L171.021 30.0388L171.189 28.8074C171.22 28.664 171.248 28.5006 171.272 28.3173C171.304 28.1339 171.328 27.9506 171.344 27.7673C171.36 27.576 171.368 27.3967 171.368 27.2293C171.376 27.054 171.376 26.9105 171.368 26.7989C171.352 26.7113 171.352 26.6395 171.368 26.5838C171.384 26.52 171.388 26.4722 171.38 26.4403L171.153 26.2251L170.411 26.3446L170.172 26.1414C169.981 26.0298 169.881 26.0976 169.873 26.3446C169.826 26.4164 169.782 26.4762 169.742 26.524C169.71 26.5638 169.69 26.6276 169.682 26.7153C169.642 26.7312 169.61 26.7511 169.587 26.775C169.555 26.8069 169.523 26.8547 169.491 26.9185C169.459 26.9823 169.435 27.0739 169.419 27.1935C169.387 27.4246 169.371 27.6199 169.371 27.7793C169.371 27.9387 169.391 28.0503 169.431 28.114V28.3292L169.228 28.8074L169.168 29.6562L169.06 30.4812L168.965 30.5888L167.518 30.7083L167.279 30.4931L167.351 30.0388L167.423 29.4171L167.47 28.5085C167.47 28.3571 167.49 28.2136 167.53 28.0782C167.57 27.9427 167.606 27.7912 167.638 27.6239L167.757 26.6794C167.813 26.6236 167.873 26.524 167.937 26.3805C168.008 26.2371 168.044 26.0976 168.044 25.9621C168.044 25.9222 168.036 25.8943 168.02 25.8784C168.012 25.8545 168 25.8266 167.985 25.7947L168.164 25.5556C168.18 25.5556 168.216 25.5596 168.271 25.5676C168.327 25.5676 168.391 25.5676 168.463 25.5676C168.542 25.5596 168.622 25.5556 168.702 25.5556C168.782 25.5476 168.857 25.5357 168.929 25.5197C169.216 25.4799 169.395 25.4201 169.467 25.3404L169.921 25.3165L169.873 25.7708C169.945 25.8425 170.021 25.8864 170.101 25.9023C170.188 25.9103 170.276 25.8983 170.364 25.8664C170.451 25.8266 170.535 25.7708 170.615 25.6991C170.694 25.6194 170.762 25.5277 170.818 25.4241L171.499 25.4361C171.587 25.4281 171.671 25.4241 171.75 25.4241C171.838 25.4161 171.922 25.4121 172.001 25.4121C172.129 25.4121 172.249 25.4241 172.36 25.448C172.472 25.4639 172.535 25.4918 172.551 25.5317C172.583 25.6752 172.651 25.7309 172.755 25.6991C172.771 25.6911 172.798 25.719 172.838 25.7828C172.886 25.8385 172.958 25.8744 173.054 25.8904C173.101 25.9063 173.133 25.9342 173.149 25.974C173.173 26.0059 173.189 26.0418 173.197 26.0816C173.205 26.1215 173.213 26.1574 173.221 26.1892C173.229 26.2131 173.245 26.2251 173.269 26.2251L173.962 25.6752L175.074 25.4958L176.09 26.3088L176.114 26.4762C176.114 26.524 176.11 26.5718 176.102 26.6196C176.102 26.6595 176.09 26.6914 176.066 26.7153V27.7912L176.078 28.9389L175.863 30.266L175.755 30.3855ZM178.267 23.3558C178.283 23.2921 178.291 23.2323 178.291 23.1765C178.299 23.1128 178.307 23.049 178.315 22.9852C178.315 22.9294 178.315 22.8816 178.315 22.8418C178.323 22.8019 178.327 22.7661 178.327 22.7342L178.387 22.6027C178.411 22.5947 178.443 22.5907 178.482 22.5907C178.522 22.5907 178.57 22.5867 178.626 22.5788C178.793 22.5708 178.901 22.5509 178.949 22.519C178.949 22.511 178.969 22.4951 179.008 22.4712C179.032 22.4472 179.052 22.4313 179.068 22.4233C179.076 22.4233 179.104 22.4273 179.152 22.4353C179.2 22.4433 179.263 22.4592 179.343 22.4831C179.479 22.515 179.574 22.5309 179.63 22.5309C179.702 22.5309 179.742 22.5269 179.75 22.519C179.758 22.511 179.782 22.511 179.821 22.519L179.929 22.7222L180.037 23.3319L179.786 23.7504C179.778 23.7583 179.77 23.7663 179.762 23.7743C179.762 23.7822 179.754 23.7902 179.738 23.7982C179.698 23.8221 179.65 23.858 179.594 23.9058L179.558 23.9416L179.2 23.9775C179.152 23.9616 179.096 23.9456 179.032 23.9297C178.969 23.9058 178.893 23.8779 178.805 23.846C178.718 23.8141 178.642 23.7862 178.578 23.7623C178.514 23.7304 178.459 23.7065 178.411 23.6906L178.351 23.6308L178.267 23.3558ZM179.75 25.4121L179.702 25.8425L179.75 26.0219L179.678 26.2131L179.714 26.4881L179.654 26.7153L179.69 26.787L179.642 27.325L179.594 28.4607C179.594 28.5165 179.586 28.5882 179.57 28.6759C179.554 28.7556 179.542 28.8433 179.534 28.9389C179.527 29.0266 179.527 29.1183 179.534 29.2139C179.542 29.3016 179.566 29.3773 179.606 29.4411C179.598 29.5606 179.586 29.7001 179.57 29.8595C179.554 30.0189 179.527 30.2022 179.487 30.4094C179.423 30.4971 179.355 30.5768 179.283 30.6485C179.22 30.7123 179.096 30.7482 178.913 30.7561C178.809 30.7641 178.706 30.7721 178.602 30.78C178.506 30.788 178.415 30.8 178.327 30.8159C178.279 30.8239 178.231 30.8318 178.184 30.8398C178.136 30.8478 178.084 30.8597 178.028 30.8757L177.729 30.4931C177.737 30.4533 177.749 30.3457 177.765 30.1703C177.789 29.987 177.809 29.7718 177.825 29.5247C177.841 29.2777 177.849 29.0146 177.849 28.7357C177.857 28.4567 177.849 28.1977 177.825 27.9586L177.897 27.7315L178.004 27.2054L178.04 26.787L178.112 26.6435L178.124 26.5359L178.195 26.2131L178.255 25.5556L179.331 25.1372L179.75 25.4121ZM182.972 30.8279C182.948 30.8279 182.897 30.8318 182.817 30.8398C182.745 30.8398 182.666 30.8438 182.578 30.8518C182.49 30.8518 182.406 30.8558 182.327 30.8637C182.247 30.8637 182.191 30.8637 182.159 30.8637L181.896 30.8876L181.693 30.7442C181.685 30.6246 181.693 30.4851 181.717 30.3257C181.749 30.1663 181.765 30.0428 181.765 29.9551C181.861 29.9551 181.88 29.8595 181.825 29.6682C181.761 29.4769 181.737 29.3255 181.753 29.2139C181.761 29.0864 181.781 28.9589 181.813 28.8313C181.845 28.6958 181.849 28.6082 181.825 28.5683C181.809 28.5205 181.789 28.4687 181.765 28.4129C181.741 28.3491 181.721 28.2774 181.705 28.1977L181.849 27.4206C181.849 26.9902 181.853 26.6595 181.861 26.4283C181.876 26.1972 181.888 26.0258 181.896 25.9143C181.912 25.8027 181.928 25.7349 181.944 25.711C181.968 25.6791 181.984 25.6512 181.992 25.6273C182.008 25.6034 182.016 25.5636 182.016 25.5078C182.024 25.452 182.024 25.3404 182.016 25.173L182.267 25.0415C182.402 25.0495 182.566 25.0734 182.757 25.1133C182.956 25.1451 183.148 25.181 183.331 25.2209C183.427 25.2368 183.51 25.2527 183.582 25.2687C183.654 25.2766 183.718 25.2886 183.773 25.3045L183.941 25.5317C183.789 25.6353 183.69 25.7031 183.642 25.7349C183.594 25.7668 183.59 25.8346 183.63 25.9382C183.773 26.0657 183.897 26.1055 184.001 26.0577C184.112 26.0099 184.188 25.9342 184.228 25.8306L185.005 25.6393H185.459L185.662 25.711C185.854 25.7748 186.045 25.8425 186.236 25.9143C186.435 25.986 186.599 26.0418 186.726 26.0816L186.941 26.6077L186.93 26.7511C186.945 26.9823 186.957 27.2054 186.965 27.4206C186.981 27.6278 186.981 27.8829 186.965 28.1858C186.957 28.377 186.949 28.5723 186.941 28.7716C186.934 28.9628 186.926 29.1462 186.918 29.3215C186.918 29.4968 186.918 29.6523 186.918 29.7878C186.918 29.9153 186.918 30.0109 186.918 30.0747C186.918 30.0826 186.926 30.1145 186.941 30.1703C186.965 30.2261 186.997 30.2859 187.037 30.3496L186.953 30.4812L186.726 30.5888C186.615 30.5967 186.471 30.6166 186.296 30.6485C186.129 30.6804 185.989 30.6964 185.877 30.6964C185.83 30.6964 185.79 30.6804 185.758 30.6485C185.726 30.6087 185.654 30.5927 185.543 30.6007L185.375 30.4572C185.391 30.3536 185.395 30.2699 185.387 30.2062C185.379 30.1345 185.367 30.0747 185.351 30.0269C185.336 29.9711 185.32 29.9232 185.304 29.8834C185.288 29.8435 185.28 29.8037 185.28 29.7638C185.288 29.6443 185.3 29.5128 185.316 29.3693C185.332 29.2577 185.347 29.1302 185.363 28.9868C185.387 28.8353 185.415 28.6879 185.447 28.5444C185.463 28.4567 185.471 28.3452 185.471 28.2097C185.471 28.0662 185.471 27.9267 185.471 27.7912C185.471 27.6478 185.471 27.5123 185.471 27.3848C185.471 27.2572 185.475 27.1616 185.483 27.0978L185.136 26.4881C185.104 26.4801 185.072 26.4722 185.041 26.4642C185.009 26.4562 184.973 26.4443 184.933 26.4283C184.869 26.4124 184.805 26.4164 184.742 26.4403C184.686 26.4642 184.63 26.4921 184.574 26.524C184.519 26.5559 184.467 26.5877 184.419 26.6196C184.371 26.6515 184.327 26.6674 184.287 26.6674C184.287 26.6914 184.244 26.6714 184.156 26.6077C184.076 26.5359 184.008 26.4682 183.953 26.4044C183.817 26.2928 183.718 26.2729 183.654 26.3446C183.598 26.4084 183.55 26.4961 183.51 26.6077C183.518 26.6953 183.53 26.7551 183.546 26.787C183.57 26.8189 183.594 26.8428 183.618 26.8587C183.65 26.8667 183.678 26.8667 183.702 26.8587C183.662 26.8906 183.63 26.9504 183.606 27.0381C183.582 27.1178 183.562 27.2094 183.546 27.313C183.538 27.4087 183.534 27.5123 183.534 27.6239C183.542 27.7275 183.554 27.8231 183.57 27.9108C183.586 28.0064 183.574 28.1738 183.534 28.4129C183.502 28.652 183.494 28.927 183.51 29.2378C183.51 29.3574 183.506 29.4849 183.498 29.6204C183.49 29.7479 183.482 29.8754 183.474 30.0029C183.467 30.1225 183.459 30.2341 183.451 30.3377C183.443 30.4333 183.439 30.5091 183.439 30.5648V30.6007C183.287 30.7282 183.132 30.8039 182.972 30.8279ZM193.997 30.1584L192.323 30.3616L191.976 29.7997C191.976 29.6961 191.896 29.7001 191.737 29.8117C191.697 29.8356 191.657 29.8754 191.617 29.9312C191.578 29.987 191.538 30.0428 191.498 30.0986C191.474 30.1305 191.45 30.1624 191.426 30.1942C191.402 30.2261 191.378 30.262 191.354 30.3018C191.107 30.4851 190.852 30.6047 190.589 30.6605C190.334 30.7163 190.115 30.6804 189.932 30.5529C189.796 30.5369 189.705 30.5051 189.657 30.4572C189.633 30.4413 189.601 30.4134 189.561 30.3736L188.796 30.3257L188.473 30.1703L188.174 29.4171L188.234 29.1661L187.971 28.114L188.473 27.2772L188.88 26.9065C189.031 26.8268 189.207 26.7631 189.406 26.7153C189.605 26.6674 189.804 26.6356 190.004 26.6196C190.203 26.5957 190.394 26.5917 190.577 26.6077C190.761 26.6156 190.912 26.6395 191.032 26.6794C191.032 26.8069 191.072 26.8906 191.151 26.9305C191.231 26.9703 191.386 27.0141 191.617 27.062C191.697 26.9265 191.737 26.7631 191.737 26.5718C191.737 26.3725 191.701 26.1653 191.629 25.9501L191.438 25.3404C191.374 25.3165 191.275 25.2766 191.139 25.2209C191.012 25.1571 190.904 25.1053 190.816 25.0654L190.302 25.1491L189.776 25.2567L189.657 25.0654L189.788 24.7546L189.872 24.5633L190.039 24.5275L190.589 24.4318L191.079 24.5992L191.617 24.5155L192.658 24.8263L193.1 25.4958L193.255 27.3967L193.219 27.9945L193.482 29.3932L193.638 29.465H194.009L194.164 29.8834L193.997 30.1584ZM189.609 28.2097C189.569 28.4169 189.569 28.5922 189.609 28.7357C189.657 28.8792 189.733 28.9987 189.836 29.0944L190.015 29.465C190.159 29.5128 190.294 29.5486 190.422 29.5726C190.549 29.5965 190.681 29.6005 190.816 29.5845C190.96 29.5606 191.107 29.5168 191.259 29.453C191.418 29.3813 191.602 29.2777 191.809 29.1422L191.833 28.5325L191.617 27.4684C191.506 27.4286 191.406 27.4087 191.319 27.4087C191.239 27.4087 191.159 27.4166 191.079 27.4326C190.984 27.4565 190.872 27.4764 190.745 27.4924C190.617 27.5083 190.486 27.5282 190.35 27.5521C190.223 27.5681 190.103 27.592 189.992 27.6239C189.888 27.6478 189.812 27.6836 189.764 27.7315L189.609 28.2097ZM199.24 25.46V26.0099H198.929L198.475 26.3686C198.084 26.4244 197.765 26.5041 197.518 26.6077C197.271 26.7033 197.156 26.8388 197.172 27.0141C197.156 27.054 197.148 27.1018 197.148 27.1576C197.148 27.2054 197.176 27.2293 197.231 27.2293L196.992 28.4249L196.885 28.5564V29.8834L196.813 30.5529L196.574 30.792L195.211 30.6964L194.912 30.2899L194.996 30.0747L194.948 29.4171L195.091 28.2097L195.211 27.325C195.211 27.3011 195.215 27.2811 195.223 27.2652C195.223 27.2493 195.223 27.2293 195.223 27.2054C195.231 27.1815 195.235 27.1616 195.235 27.1456C195.275 27.1138 195.299 27.042 195.307 26.9305C195.322 26.8189 195.326 26.7471 195.318 26.7153C195.318 26.6595 195.314 26.6077 195.307 26.5598C195.307 26.512 195.291 26.4084 195.259 26.249C195.251 26.2012 195.223 26.1454 195.175 26.0816C195.135 26.0099 195.091 25.9461 195.043 25.8904L195.199 25.5197H195.426L196.657 25.2926L196.956 25.4361C196.932 25.5715 196.928 25.6871 196.944 25.7828C196.968 25.8704 197 25.9382 197.04 25.986C197.088 26.0338 197.14 26.0657 197.195 26.0816C197.251 26.0896 197.299 26.0816 197.339 26.0577L197.554 25.9382C197.594 25.9222 197.606 25.8784 197.59 25.8067C197.582 25.7349 197.586 25.6433 197.602 25.5317L199.084 25.2687L199.24 25.46Z" fill="url(#paint3_linear_0_1)"/>
<path id="------------------------------------------" d="M114.25 147.846L114.298 148.551C114.29 148.559 114.278 148.563 114.262 148.563C114.246 148.563 114.23 148.567 114.214 148.575C114.198 148.575 114.178 148.575 114.155 148.575C114.059 148.591 114.015 148.571 114.023 148.515H113.712C113.385 148.499 112.784 148.511 111.907 148.551C111.453 148.567 111.094 148.591 110.831 148.623C110.568 148.647 110.389 148.682 110.293 148.73C110.253 148.746 110.221 148.758 110.197 148.766C110.181 148.766 110.17 148.766 110.162 148.766C110.162 148.766 110.162 148.774 110.162 148.79C110.17 148.798 110.173 148.818 110.173 148.85H109.6L109.241 148.682C109.225 148.571 109.205 148.443 109.181 148.3C109.165 148.148 109.149 148.005 109.133 147.869L109.241 147.642C109.345 147.626 109.424 147.618 109.48 147.618C109.544 147.618 109.592 147.622 109.624 147.63C109.663 147.638 109.691 147.646 109.707 147.654C109.723 147.662 109.739 147.666 109.755 147.666C109.763 147.666 109.831 147.658 109.958 147.642C110.086 147.626 110.277 147.606 110.532 147.583C110.787 147.551 111.07 147.531 111.381 147.523C111.7 147.507 112.042 147.499 112.409 147.499H114.035L114.25 147.846ZM120.085 147.846L120.132 148.551C120.125 148.559 120.113 148.563 120.097 148.563C120.081 148.563 120.065 148.567 120.049 148.575C120.033 148.575 120.013 148.575 119.989 148.575C119.893 148.591 119.85 148.571 119.858 148.515H119.547C119.22 148.499 118.618 148.511 117.741 148.551C117.287 148.567 116.928 148.591 116.665 148.623C116.402 148.647 116.223 148.682 116.127 148.73C116.088 148.746 116.056 148.758 116.032 148.766C116.016 148.766 116.004 148.766 115.996 148.766C115.996 148.766 115.996 148.774 115.996 148.79C116.004 148.798 116.008 148.818 116.008 148.85H115.434L115.075 148.682C115.059 148.571 115.04 148.443 115.016 148.3C115 148.148 114.984 148.005 114.968 147.869L115.075 147.642C115.179 147.626 115.259 147.618 115.315 147.618C115.378 147.618 115.426 147.622 115.458 147.63C115.498 147.638 115.526 147.646 115.542 147.654C115.558 147.662 115.574 147.666 115.589 147.666C115.597 147.666 115.665 147.658 115.793 147.642C115.92 147.626 116.112 147.606 116.367 147.583C116.622 147.551 116.905 147.531 117.215 147.523C117.534 147.507 117.877 147.499 118.244 147.499H119.869L120.085 147.846ZM125.919 147.846L125.967 148.551C125.959 148.559 125.947 148.563 125.931 148.563C125.915 148.563 125.899 148.567 125.883 148.575C125.867 148.575 125.847 148.575 125.823 148.575C125.728 148.591 125.684 148.571 125.692 148.515H125.381C125.054 148.499 124.453 148.511 123.576 148.551C123.122 148.567 122.763 148.591 122.5 148.623C122.237 148.647 122.058 148.682 121.962 148.73C121.922 148.746 121.89 148.758 121.866 148.766C121.85 148.766 121.838 148.766 121.83 148.766C121.83 148.766 121.83 148.774 121.83 148.79C121.838 148.798 121.842 148.818 121.842 148.85H121.269L120.91 148.682C120.894 148.571 120.874 148.443 120.85 148.3C120.834 148.148 120.818 148.005 120.802 147.869L120.91 147.642C121.013 147.626 121.093 147.618 121.149 147.618C121.213 147.618 121.261 147.622 121.292 147.63C121.332 147.638 121.36 147.646 121.376 147.654C121.392 147.662 121.408 147.666 121.424 147.666C121.432 147.666 121.5 147.658 121.627 147.642C121.755 147.626 121.946 147.606 122.201 147.583C122.456 147.551 122.739 147.531 123.05 147.523C123.369 147.507 123.711 147.499 124.078 147.499H125.704L125.919 147.846ZM131.754 147.846L131.801 148.551C131.793 148.559 131.781 148.563 131.765 148.563C131.75 148.563 131.734 148.567 131.718 148.575C131.702 148.575 131.682 148.575 131.658 148.575C131.562 148.591 131.518 148.571 131.526 148.515H131.216C130.889 148.499 130.287 148.511 129.41 148.551C128.956 148.567 128.597 148.591 128.334 148.623C128.071 148.647 127.892 148.682 127.796 148.73C127.756 148.746 127.725 148.758 127.701 148.766C127.685 148.766 127.673 148.766 127.665 148.766C127.665 148.766 127.665 148.774 127.665 148.79C127.673 148.798 127.677 148.818 127.677 148.85H127.103L126.744 148.682C126.728 148.571 126.708 148.443 126.684 148.3C126.669 148.148 126.653 148.005 126.637 147.869L126.744 147.642C126.848 147.626 126.928 147.618 126.983 147.618C127.047 147.618 127.095 147.622 127.127 147.63C127.167 147.638 127.195 147.646 127.211 147.654C127.226 147.662 127.242 147.666 127.258 147.666C127.266 147.666 127.334 147.658 127.462 147.642C127.589 147.626 127.78 147.606 128.035 147.583C128.29 147.551 128.573 147.531 128.884 147.523C129.203 147.507 129.546 147.499 129.912 147.499H131.538L131.754 147.846ZM137.588 147.846L137.636 148.551C137.628 148.559 137.616 148.563 137.6 148.563C137.584 148.563 137.568 148.567 137.552 148.575C137.536 148.575 137.516 148.575 137.492 148.575C137.397 148.591 137.353 148.571 137.361 148.515H137.05C136.723 148.499 136.121 148.511 135.245 148.551C134.79 148.567 134.432 148.591 134.169 148.623C133.906 148.647 133.726 148.682 133.631 148.73C133.591 148.746 133.559 148.758 133.535 148.766C133.519 148.766 133.507 148.766 133.499 148.766C133.499 148.766 133.499 148.774 133.499 148.79C133.507 148.798 133.511 148.818 133.511 148.85H132.937L132.579 148.682C132.563 148.571 132.543 148.443 132.519 148.3C132.503 148.148 132.487 148.005 132.471 147.869L132.579 147.642C132.682 147.626 132.762 147.618 132.818 147.618C132.882 147.618 132.929 147.622 132.961 147.63C133.001 147.638 133.029 147.646 133.045 147.654C133.061 147.662 133.077 147.666 133.093 147.666C133.101 147.666 133.168 147.658 133.296 147.642C133.424 147.626 133.615 147.606 133.87 147.583C134.125 147.551 134.408 147.531 134.719 147.523C135.037 147.507 135.38 147.499 135.747 147.499H137.373L137.588 147.846ZM143.422 147.846L143.47 148.551C143.462 148.559 143.45 148.563 143.434 148.563C143.418 148.563 143.402 148.567 143.387 148.575C143.371 148.575 143.351 148.575 143.327 148.575C143.231 148.591 143.187 148.571 143.195 148.515H142.884C142.558 148.499 141.956 148.511 141.079 148.551C140.625 148.567 140.266 148.591 140.003 148.623C139.74 148.647 139.561 148.682 139.465 148.73C139.425 148.746 139.393 148.758 139.37 148.766C139.354 148.766 139.342 148.766 139.334 148.766C139.334 148.766 139.334 148.774 139.334 148.79C139.342 148.798 139.346 148.818 139.346 148.85H138.772L138.413 148.682C138.397 148.571 138.377 148.443 138.353 148.3C138.337 148.148 138.321 148.005 138.306 147.869L138.413 147.642C138.517 147.626 138.596 147.618 138.652 147.618C138.716 147.618 138.764 147.622 138.796 147.63C138.836 147.638 138.863 147.646 138.879 147.654C138.895 147.662 138.911 147.666 138.927 147.666C138.935 147.666 139.003 147.658 139.13 147.642C139.258 147.626 139.449 147.606 139.704 147.583C139.959 147.551 140.242 147.531 140.553 147.523C140.872 147.507 141.215 147.499 141.581 147.499H143.207L143.422 147.846ZM149.257 147.846L149.305 148.551C149.297 148.559 149.285 148.563 149.269 148.563C149.253 148.563 149.237 148.567 149.221 148.575C149.205 148.575 149.185 148.575 149.161 148.575C149.066 148.591 149.022 148.571 149.03 148.515H148.719C148.392 148.499 147.79 148.511 146.914 148.551C146.459 148.567 146.101 148.591 145.838 148.623C145.575 148.647 145.395 148.682 145.3 148.73C145.26 148.746 145.228 148.758 145.204 148.766C145.188 148.766 145.176 148.766 145.168 148.766C145.168 148.766 145.168 148.774 145.168 148.79C145.176 148.798 145.18 148.818 145.18 148.85H144.606L144.248 148.682C144.232 148.571 144.212 148.443 144.188 148.3C144.172 148.148 144.156 148.005 144.14 147.869L144.248 147.642C144.351 147.626 144.431 147.618 144.487 147.618C144.55 147.618 144.598 147.622 144.63 147.63C144.67 147.638 144.698 147.646 144.714 147.654C144.73 147.662 144.746 147.666 144.762 147.666C144.77 147.666 144.837 147.658 144.965 147.642C145.092 147.626 145.284 147.606 145.539 147.583C145.794 147.551 146.077 147.531 146.388 147.523C146.706 147.507 147.049 147.499 147.416 147.499H149.042L149.257 147.846ZM155.091 147.846L155.139 148.551C155.131 148.559 155.119 148.563 155.103 148.563C155.087 148.563 155.071 148.567 155.055 148.575C155.039 148.575 155.02 148.575 154.996 148.575C154.9 148.591 154.856 148.571 154.864 148.515H154.553C154.226 148.499 153.625 148.511 152.748 148.551C152.294 148.567 151.935 148.591 151.672 148.623C151.409 148.647 151.23 148.682 151.134 148.73C151.094 148.746 151.062 148.758 151.038 148.766C151.022 148.766 151.011 148.766 151.003 148.766C151.003 148.766 151.003 148.774 151.003 148.79C151.011 148.798 151.015 148.818 151.015 148.85H150.441L150.082 148.682C150.066 148.571 150.046 148.443 150.022 148.3C150.006 148.148 149.99 148.005 149.974 147.869L150.082 147.642C150.186 147.626 150.265 147.618 150.321 147.618C150.385 147.618 150.433 147.622 150.465 147.63C150.504 147.638 150.532 147.646 150.548 147.654C150.564 147.662 150.58 147.666 150.596 147.666C150.604 147.666 150.672 147.658 150.799 147.642C150.927 147.626 151.118 147.606 151.373 147.583C151.628 147.551 151.911 147.531 152.222 147.523C152.541 147.507 152.884 147.499 153.25 147.499H154.876L155.091 147.846ZM160.926 147.846L160.973 148.551C160.966 148.559 160.954 148.563 160.938 148.563C160.922 148.563 160.906 148.567 160.89 148.575C160.874 148.575 160.854 148.575 160.83 148.575C160.734 148.591 160.691 148.571 160.699 148.515H160.388C160.061 148.499 159.459 148.511 158.582 148.551C158.128 148.567 157.769 148.591 157.506 148.623C157.243 148.647 157.064 148.682 156.968 148.73C156.929 148.746 156.897 148.758 156.873 148.766C156.857 148.766 156.845 148.766 156.837 148.766C156.837 148.766 156.837 148.774 156.837 148.79C156.845 148.798 156.849 148.818 156.849 148.85H156.275L155.916 148.682C155.9 148.571 155.881 148.443 155.857 148.3C155.841 148.148 155.825 148.005 155.809 147.869L155.916 147.642C156.02 147.626 156.1 147.618 156.156 147.618C156.219 147.618 156.267 147.622 156.299 147.63C156.339 147.638 156.367 147.646 156.383 147.654C156.399 147.662 156.415 147.666 156.431 147.666C156.438 147.666 156.506 147.658 156.634 147.642C156.761 147.626 156.953 147.606 157.208 147.583C157.463 147.551 157.746 147.531 158.056 147.523C158.375 147.507 158.718 147.499 159.085 147.499H160.71L160.926 147.846ZM166.76 147.846L166.808 148.551C166.8 148.559 166.788 148.563 166.772 148.563C166.756 148.563 166.74 148.567 166.724 148.575C166.708 148.575 166.688 148.575 166.664 148.575C166.569 148.591 166.525 148.571 166.533 148.515H166.222C165.895 148.499 165.294 148.511 164.417 148.551C163.963 148.567 163.604 148.591 163.341 148.623C163.078 148.647 162.899 148.682 162.803 148.73C162.763 148.746 162.731 148.758 162.707 148.766C162.691 148.766 162.679 148.766 162.671 148.766C162.671 148.766 162.671 148.774 162.671 148.79C162.679 148.798 162.683 148.818 162.683 148.85H162.11L161.751 148.682C161.735 148.571 161.715 148.443 161.691 148.3C161.675 148.148 161.659 148.005 161.643 147.869L161.751 147.642C161.854 147.626 161.934 147.618 161.99 147.618C162.054 147.618 162.102 147.622 162.133 147.63C162.173 147.638 162.201 147.646 162.217 147.654C162.233 147.662 162.249 147.666 162.265 147.666C162.273 147.666 162.341 147.658 162.468 147.642C162.596 147.626 162.787 147.606 163.042 147.583C163.297 147.551 163.58 147.531 163.891 147.523C164.21 147.507 164.552 147.499 164.919 147.499H166.545L166.76 147.846ZM172.595 147.846L172.642 148.551C172.634 148.559 172.622 148.563 172.606 148.563C172.591 148.563 172.575 148.567 172.559 148.575C172.543 148.575 172.523 148.575 172.499 148.575C172.403 148.591 172.359 148.571 172.367 148.515H172.057C171.73 148.499 171.128 148.511 170.251 148.551C169.797 148.567 169.438 148.591 169.175 148.623C168.912 148.647 168.733 148.682 168.637 148.73C168.597 148.746 168.566 148.758 168.542 148.766C168.526 148.766 168.514 148.766 168.506 148.766C168.506 148.766 168.506 148.774 168.506 148.79C168.514 148.798 168.518 148.818 168.518 148.85H167.944L167.585 148.682C167.569 148.571 167.549 148.443 167.526 148.3C167.51 148.148 167.494 148.005 167.478 147.869L167.585 147.642C167.689 147.626 167.769 147.618 167.824 147.618C167.888 147.618 167.936 147.622 167.968 147.63C168.008 147.638 168.036 147.646 168.052 147.654C168.067 147.662 168.083 147.666 168.099 147.666C168.107 147.666 168.175 147.658 168.303 147.642C168.43 147.626 168.621 147.606 168.876 147.583C169.131 147.551 169.414 147.531 169.725 147.523C170.044 147.507 170.387 147.499 170.753 147.499H172.379L172.595 147.846ZM178.429 147.846L178.477 148.551C178.469 148.559 178.457 148.563 178.441 148.563C178.425 148.563 178.409 148.567 178.393 148.575C178.377 148.575 178.357 148.575 178.333 148.575C178.238 148.591 178.194 148.571 178.202 148.515H177.891C177.564 148.499 176.962 148.511 176.086 148.551C175.631 148.567 175.273 148.591 175.01 148.623C174.747 148.647 174.567 148.682 174.472 148.73C174.432 148.746 174.4 148.758 174.376 148.766C174.36 148.766 174.348 148.766 174.34 148.766C174.34 148.766 174.34 148.774 174.34 148.79C174.348 148.798 174.352 148.818 174.352 148.85H173.778L173.42 148.682C173.404 148.571 173.384 148.443 173.36 148.3C173.344 148.148 173.328 148.005 173.312 147.869L173.42 147.642C173.523 147.626 173.603 147.618 173.659 147.618C173.723 147.618 173.77 147.622 173.802 147.63C173.842 147.638 173.87 147.646 173.886 147.654C173.902 147.662 173.918 147.666 173.934 147.666C173.942 147.666 174.01 147.658 174.137 147.642C174.265 147.626 174.456 147.606 174.711 147.583C174.966 147.551 175.249 147.531 175.56 147.523C175.879 147.507 176.221 147.499 176.588 147.499H178.214L178.429 147.846ZM184.263 147.846L184.311 148.551C184.303 148.559 184.291 148.563 184.275 148.563C184.259 148.563 184.243 148.567 184.228 148.575C184.212 148.575 184.192 148.575 184.168 148.575C184.072 148.591 184.028 148.571 184.036 148.515H183.725C183.399 148.499 182.797 148.511 181.92 148.551C181.466 148.567 181.107 148.591 180.844 148.623C180.581 148.647 180.402 148.682 180.306 148.73C180.266 148.746 180.234 148.758 180.211 148.766C180.195 148.766 180.183 148.766 180.175 148.766C180.175 148.766 180.175 148.774 180.175 148.79C180.183 148.798 180.187 148.818 180.187 148.85H179.613L179.254 148.682C179.238 148.571 179.218 148.443 179.194 148.3C179.178 148.148 179.162 148.005 179.147 147.869L179.254 147.642C179.358 147.626 179.437 147.618 179.493 147.618C179.557 147.618 179.605 147.622 179.637 147.63C179.677 147.638 179.704 147.646 179.72 147.654C179.736 147.662 179.752 147.666 179.768 147.666C179.776 147.666 179.844 147.658 179.971 147.642C180.099 147.626 180.29 147.606 180.545 147.583C180.8 147.551 181.083 147.531 181.394 147.523C181.713 147.507 182.056 147.499 182.422 147.499H184.048L184.263 147.846ZM190.098 147.846L190.146 148.551C190.138 148.559 190.126 148.563 190.11 148.563C190.094 148.563 190.078 148.567 190.062 148.575C190.046 148.575 190.026 148.575 190.002 148.575C189.907 148.591 189.863 148.571 189.871 148.515H189.56C189.233 148.499 188.631 148.511 187.755 148.551C187.3 148.567 186.942 148.591 186.679 148.623C186.416 148.647 186.236 148.682 186.141 148.73C186.101 148.746 186.069 148.758 186.045 148.766C186.029 148.766 186.017 148.766 186.009 148.766C186.009 148.766 186.009 148.774 186.009 148.79C186.017 148.798 186.021 148.818 186.021 148.85H185.447L185.089 148.682C185.073 148.571 185.053 148.443 185.029 148.3C185.013 148.148 184.997 148.005 184.981 147.869L185.089 147.642C185.192 147.626 185.272 147.618 185.328 147.618C185.391 147.618 185.439 147.622 185.471 147.63C185.511 147.638 185.539 147.646 185.555 147.654C185.571 147.662 185.587 147.666 185.603 147.666C185.611 147.666 185.678 147.658 185.806 147.642C185.933 147.626 186.125 147.606 186.38 147.583C186.635 147.551 186.918 147.531 187.229 147.523C187.547 147.507 187.89 147.499 188.257 147.499H189.883L190.098 147.846ZM114.25 151.846L114.298 152.551C114.29 152.559 114.278 152.563 114.262 152.563C114.246 152.563 114.23 152.567 114.214 152.575C114.198 152.575 114.178 152.575 114.155 152.575C114.059 152.591 114.015 152.571 114.023 152.515H113.712C113.385 152.499 112.784 152.511 111.907 152.551C111.453 152.567 111.094 152.591 110.831 152.623C110.568 152.647 110.389 152.682 110.293 152.73C110.253 152.746 110.221 152.758 110.197 152.766C110.181 152.766 110.17 152.766 110.162 152.766C110.162 152.766 110.162 152.774 110.162 152.79C110.17 152.798 110.173 152.818 110.173 152.85H109.6L109.241 152.682C109.225 152.571 109.205 152.443 109.181 152.3C109.165 152.148 109.149 152.005 109.133 151.869L109.241 151.642C109.345 151.626 109.424 151.618 109.48 151.618C109.544 151.618 109.592 151.622 109.624 151.63C109.663 151.638 109.691 151.646 109.707 151.654C109.723 151.662 109.739 151.666 109.755 151.666C109.763 151.666 109.831 151.658 109.958 151.642C110.086 151.626 110.277 151.606 110.532 151.583C110.787 151.551 111.07 151.531 111.381 151.523C111.7 151.507 112.042 151.499 112.409 151.499H114.035L114.25 151.846ZM120.085 151.846L120.132 152.551C120.125 152.559 120.113 152.563 120.097 152.563C120.081 152.563 120.065 152.567 120.049 152.575C120.033 152.575 120.013 152.575 119.989 152.575C119.893 152.591 119.85 152.571 119.858 152.515H119.547C119.22 152.499 118.618 152.511 117.741 152.551C117.287 152.567 116.928 152.591 116.665 152.623C116.402 152.647 116.223 152.682 116.127 152.73C116.088 152.746 116.056 152.758 116.032 152.766C116.016 152.766 116.004 152.766 115.996 152.766C115.996 152.766 115.996 152.774 115.996 152.79C116.004 152.798 116.008 152.818 116.008 152.85H115.434L115.075 152.682C115.059 152.571 115.04 152.443 115.016 152.3C115 152.148 114.984 152.005 114.968 151.869L115.075 151.642C115.179 151.626 115.259 151.618 115.315 151.618C115.378 151.618 115.426 151.622 115.458 151.63C115.498 151.638 115.526 151.646 115.542 151.654C115.558 151.662 115.574 151.666 115.589 151.666C115.597 151.666 115.665 151.658 115.793 151.642C115.92 151.626 116.112 151.606 116.367 151.583C116.622 151.551 116.905 151.531 117.215 151.523C117.534 151.507 117.877 151.499 118.244 151.499H119.869L120.085 151.846ZM125.919 151.846L125.967 152.551C125.959 152.559 125.947 152.563 125.931 152.563C125.915 152.563 125.899 152.567 125.883 152.575C125.867 152.575 125.847 152.575 125.823 152.575C125.728 152.591 125.684 152.571 125.692 152.515H125.381C125.054 152.499 124.453 152.511 123.576 152.551C123.122 152.567 122.763 152.591 122.5 152.623C122.237 152.647 122.058 152.682 121.962 152.73C121.922 152.746 121.89 152.758 121.866 152.766C121.85 152.766 121.838 152.766 121.83 152.766C121.83 152.766 121.83 152.774 121.83 152.79C121.838 152.798 121.842 152.818 121.842 152.85H121.269L120.91 152.682C120.894 152.571 120.874 152.443 120.85 152.3C120.834 152.148 120.818 152.005 120.802 151.869L120.91 151.642C121.013 151.626 121.093 151.618 121.149 151.618C121.213 151.618 121.261 151.622 121.292 151.63C121.332 151.638 121.36 151.646 121.376 151.654C121.392 151.662 121.408 151.666 121.424 151.666C121.432 151.666 121.5 151.658 121.627 151.642C121.755 151.626 121.946 151.606 122.201 151.583C122.456 151.551 122.739 151.531 123.05 151.523C123.369 151.507 123.711 151.499 124.078 151.499H125.704L125.919 151.846ZM131.754 151.846L131.801 152.551C131.793 152.559 131.781 152.563 131.765 152.563C131.75 152.563 131.734 152.567 131.718 152.575C131.702 152.575 131.682 152.575 131.658 152.575C131.562 152.591 131.518 152.571 131.526 152.515H131.216C130.889 152.499 130.287 152.511 129.41 152.551C128.956 152.567 128.597 152.591 128.334 152.623C128.071 152.647 127.892 152.682 127.796 152.73C127.756 152.746 127.725 152.758 127.701 152.766C127.685 152.766 127.673 152.766 127.665 152.766C127.665 152.766 127.665 152.774 127.665 152.79C127.673 152.798 127.677 152.818 127.677 152.85H127.103L126.744 152.682C126.728 152.571 126.708 152.443 126.684 152.3C126.669 152.148 126.653 152.005 126.637 151.869L126.744 151.642C126.848 151.626 126.928 151.618 126.983 151.618C127.047 151.618 127.095 151.622 127.127 151.63C127.167 151.638 127.195 151.646 127.211 151.654C127.226 151.662 127.242 151.666 127.258 151.666C127.266 151.666 127.334 151.658 127.462 151.642C127.589 151.626 127.78 151.606 128.035 151.583C128.29 151.551 128.573 151.531 128.884 151.523C129.203 151.507 129.546 151.499 129.912 151.499H131.538L131.754 151.846ZM137.588 151.846L137.636 152.551C137.628 152.559 137.616 152.563 137.6 152.563C137.584 152.563 137.568 152.567 137.552 152.575C137.536 152.575 137.516 152.575 137.492 152.575C137.397 152.591 137.353 152.571 137.361 152.515H137.05C136.723 152.499 136.121 152.511 135.245 152.551C134.79 152.567 134.432 152.591 134.169 152.623C133.906 152.647 133.726 152.682 133.631 152.73C133.591 152.746 133.559 152.758 133.535 152.766C133.519 152.766 133.507 152.766 133.499 152.766C133.499 152.766 133.499 152.774 133.499 152.79C133.507 152.798 133.511 152.818 133.511 152.85H132.937L132.579 152.682C132.563 152.571 132.543 152.443 132.519 152.3C132.503 152.148 132.487 152.005 132.471 151.869L132.579 151.642C132.682 151.626 132.762 151.618 132.818 151.618C132.882 151.618 132.929 151.622 132.961 151.63C133.001 151.638 133.029 151.646 133.045 151.654C133.061 151.662 133.077 151.666 133.093 151.666C133.101 151.666 133.168 151.658 133.296 151.642C133.424 151.626 133.615 151.606 133.87 151.583C134.125 151.551 134.408 151.531 134.719 151.523C135.037 151.507 135.38 151.499 135.747 151.499H137.373L137.588 151.846ZM143.422 151.846L143.47 152.551C143.462 152.559 143.45 152.563 143.434 152.563C143.418 152.563 143.402 152.567 143.387 152.575C143.371 152.575 143.351 152.575 143.327 152.575C143.231 152.591 143.187 152.571 143.195 152.515H142.884C142.558 152.499 141.956 152.511 141.079 152.551C140.625 152.567 140.266 152.591 140.003 152.623C139.74 152.647 139.561 152.682 139.465 152.73C139.425 152.746 139.393 152.758 139.37 152.766C139.354 152.766 139.342 152.766 139.334 152.766C139.334 152.766 139.334 152.774 139.334 152.79C139.342 152.798 139.346 152.818 139.346 152.85H138.772L138.413 152.682C138.397 152.571 138.377 152.443 138.353 152.3C138.337 152.148 138.321 152.005 138.306 151.869L138.413 151.642C138.517 151.626 138.596 151.618 138.652 151.618C138.716 151.618 138.764 151.622 138.796 151.63C138.836 151.638 138.863 151.646 138.879 151.654C138.895 151.662 138.911 151.666 138.927 151.666C138.935 151.666 139.003 151.658 139.13 151.642C139.258 151.626 139.449 151.606 139.704 151.583C139.959 151.551 140.242 151.531 140.553 151.523C140.872 151.507 141.215 151.499 141.581 151.499H143.207L143.422 151.846ZM149.257 151.846L149.305 152.551C149.297 152.559 149.285 152.563 149.269 152.563C149.253 152.563 149.237 152.567 149.221 152.575C149.205 152.575 149.185 152.575 149.161 152.575C149.066 152.591 149.022 152.571 149.03 152.515H148.719C148.392 152.499 147.79 152.511 146.914 152.551C146.459 152.567 146.101 152.591 145.838 152.623C145.575 152.647 145.395 152.682 145.3 152.73C145.26 152.746 145.228 152.758 145.204 152.766C145.188 152.766 145.176 152.766 145.168 152.766C145.168 152.766 145.168 152.774 145.168 152.79C145.176 152.798 145.18 152.818 145.18 152.85H144.606L144.248 152.682C144.232 152.571 144.212 152.443 144.188 152.3C144.172 152.148 144.156 152.005 144.14 151.869L144.248 151.642C144.351 151.626 144.431 151.618 144.487 151.618C144.55 151.618 144.598 151.622 144.63 151.63C144.67 151.638 144.698 151.646 144.714 151.654C144.73 151.662 144.746 151.666 144.762 151.666C144.77 151.666 144.837 151.658 144.965 151.642C145.092 151.626 145.284 151.606 145.539 151.583C145.794 151.551 146.077 151.531 146.388 151.523C146.706 151.507 147.049 151.499 147.416 151.499H149.042L149.257 151.846ZM155.091 151.846L155.139 152.551C155.131 152.559 155.119 152.563 155.103 152.563C155.087 152.563 155.071 152.567 155.055 152.575C155.039 152.575 155.02 152.575 154.996 152.575C154.9 152.591 154.856 152.571 154.864 152.515H154.553C154.226 152.499 153.625 152.511 152.748 152.551C152.294 152.567 151.935 152.591 151.672 152.623C151.409 152.647 151.23 152.682 151.134 152.73C151.094 152.746 151.062 152.758 151.038 152.766C151.022 152.766 151.011 152.766 151.003 152.766C151.003 152.766 151.003 152.774 151.003 152.79C151.011 152.798 151.015 152.818 151.015 152.85H150.441L150.082 152.682C150.066 152.571 150.046 152.443 150.022 152.3C150.006 152.148 149.99 152.005 149.974 151.869L150.082 151.642C150.186 151.626 150.265 151.618 150.321 151.618C150.385 151.618 150.433 151.622 150.465 151.63C150.504 151.638 150.532 151.646 150.548 151.654C150.564 151.662 150.58 151.666 150.596 151.666C150.604 151.666 150.672 151.658 150.799 151.642C150.927 151.626 151.118 151.606 151.373 151.583C151.628 151.551 151.911 151.531 152.222 151.523C152.541 151.507 152.884 151.499 153.25 151.499H154.876L155.091 151.846ZM160.926 151.846L160.973 152.551C160.966 152.559 160.954 152.563 160.938 152.563C160.922 152.563 160.906 152.567 160.89 152.575C160.874 152.575 160.854 152.575 160.83 152.575C160.734 152.591 160.691 152.571 160.699 152.515H160.388C160.061 152.499 159.459 152.511 158.582 152.551C158.128 152.567 157.769 152.591 157.506 152.623C157.243 152.647 157.064 152.682 156.968 152.73C156.929 152.746 156.897 152.758 156.873 152.766C156.857 152.766 156.845 152.766 156.837 152.766C156.837 152.766 156.837 152.774 156.837 152.79C156.845 152.798 156.849 152.818 156.849 152.85H156.275L155.916 152.682C155.9 152.571 155.881 152.443 155.857 152.3C155.841 152.148 155.825 152.005 155.809 151.869L155.916 151.642C156.02 151.626 156.1 151.618 156.156 151.618C156.219 151.618 156.267 151.622 156.299 151.63C156.339 151.638 156.367 151.646 156.383 151.654C156.399 151.662 156.415 151.666 156.431 151.666C156.438 151.666 156.506 151.658 156.634 151.642C156.761 151.626 156.953 151.606 157.208 151.583C157.463 151.551 157.746 151.531 158.056 151.523C158.375 151.507 158.718 151.499 159.085 151.499H160.71L160.926 151.846ZM166.76 151.846L166.808 152.551C166.8 152.559 166.788 152.563 166.772 152.563C166.756 152.563 166.74 152.567 166.724 152.575C166.708 152.575 166.688 152.575 166.664 152.575C166.569 152.591 166.525 152.571 166.533 152.515H166.222C165.895 152.499 165.294 152.511 164.417 152.551C163.963 152.567 163.604 152.591 163.341 152.623C163.078 152.647 162.899 152.682 162.803 152.73C162.763 152.746 162.731 152.758 162.707 152.766C162.691 152.766 162.679 152.766 162.671 152.766C162.671 152.766 162.671 152.774 162.671 152.79C162.679 152.798 162.683 152.818 162.683 152.85H162.11L161.751 152.682C161.735 152.571 161.715 152.443 161.691 152.3C161.675 152.148 161.659 152.005 161.643 151.869L161.751 151.642C161.854 151.626 161.934 151.618 161.99 151.618C162.054 151.618 162.102 151.622 162.133 151.63C162.173 151.638 162.201 151.646 162.217 151.654C162.233 151.662 162.249 151.666 162.265 151.666C162.273 151.666 162.341 151.658 162.468 151.642C162.596 151.626 162.787 151.606 163.042 151.583C163.297 151.551 163.58 151.531 163.891 151.523C164.21 151.507 164.552 151.499 164.919 151.499H166.545L166.76 151.846ZM172.595 151.846L172.642 152.551C172.634 152.559 172.622 152.563 172.606 152.563C172.591 152.563 172.575 152.567 172.559 152.575C172.543 152.575 172.523 152.575 172.499 152.575C172.403 152.591 172.359 152.571 172.367 152.515H172.057C171.73 152.499 171.128 152.511 170.251 152.551C169.797 152.567 169.438 152.591 169.175 152.623C168.912 152.647 168.733 152.682 168.637 152.73C168.597 152.746 168.566 152.758 168.542 152.766C168.526 152.766 168.514 152.766 168.506 152.766C168.506 152.766 168.506 152.774 168.506 152.79C168.514 152.798 168.518 152.818 168.518 152.85H167.944L167.585 152.682C167.569 152.571 167.549 152.443 167.526 152.3C167.51 152.148 167.494 152.005 167.478 151.869L167.585 151.642C167.689 151.626 167.769 151.618 167.824 151.618C167.888 151.618 167.936 151.622 167.968 151.63C168.008 151.638 168.036 151.646 168.052 151.654C168.067 151.662 168.083 151.666 168.099 151.666C168.107 151.666 168.175 151.658 168.303 151.642C168.43 151.626 168.621 151.606 168.876 151.583C169.131 151.551 169.414 151.531 169.725 151.523C170.044 151.507 170.387 151.499 170.753 151.499H172.379L172.595 151.846ZM178.429 151.846L178.477 152.551C178.469 152.559 178.457 152.563 178.441 152.563C178.425 152.563 178.409 152.567 178.393 152.575C178.377 152.575 178.357 152.575 178.333 152.575C178.238 152.591 178.194 152.571 178.202 152.515H177.891C177.564 152.499 176.962 152.511 176.086 152.551C175.631 152.567 175.273 152.591 175.01 152.623C174.747 152.647 174.567 152.682 174.472 152.73C174.432 152.746 174.4 152.758 174.376 152.766C174.36 152.766 174.348 152.766 174.34 152.766C174.34 152.766 174.34 152.774 174.34 152.79C174.348 152.798 174.352 152.818 174.352 152.85H173.778L173.42 152.682C173.404 152.571 173.384 152.443 173.36 152.3C173.344 152.148 173.328 152.005 173.312 151.869L173.42 151.642C173.523 151.626 173.603 151.618 173.659 151.618C173.723 151.618 173.77 151.622 173.802 151.63C173.842 151.638 173.87 151.646 173.886 151.654C173.902 151.662 173.918 151.666 173.934 151.666C173.942 151.666 174.01 151.658 174.137 151.642C174.265 151.626 174.456 151.606 174.711 151.583C174.966 151.551 175.249 151.531 175.56 151.523C175.879 151.507 176.221 151.499 176.588 151.499H178.214L178.429 151.846ZM184.263 151.846L184.311 152.551C184.303 152.559 184.291 152.563 184.275 152.563C184.259 152.563 184.243 152.567 184.228 152.575C184.212 152.575 184.192 152.575 184.168 152.575C184.072 152.591 184.028 152.571 184.036 152.515H183.725C183.399 152.499 182.797 152.511 181.92 152.551C181.466 152.567 181.107 152.591 180.844 152.623C180.581 152.647 180.402 152.682 180.306 152.73C180.266 152.746 180.234 152.758 180.211 152.766C180.195 152.766 180.183 152.766 180.175 152.766C180.175 152.766 180.175 152.774 180.175 152.79C180.183 152.798 180.187 152.818 180.187 152.85H179.613L179.254 152.682C179.238 152.571 179.218 152.443 179.194 152.3C179.178 152.148 179.162 152.005 179.147 151.869L179.254 151.642C179.358 151.626 179.437 151.618 179.493 151.618C179.557 151.618 179.605 151.622 179.637 151.63C179.677 151.638 179.704 151.646 179.72 151.654C179.736 151.662 179.752 151.666 179.768 151.666C179.776 151.666 179.844 151.658 179.971 151.642C180.099 151.626 180.29 151.606 180.545 151.583C180.8 151.551 181.083 151.531 181.394 151.523C181.713 151.507 182.056 151.499 182.422 151.499H184.048L184.263 151.846ZM190.098 151.846L190.146 152.551C190.138 152.559 190.126 152.563 190.11 152.563C190.094 152.563 190.078 152.567 190.062 152.575C190.046 152.575 190.026 152.575 190.002 152.575C189.907 152.591 189.863 152.571 189.871 152.515H189.56C189.233 152.499 188.631 152.511 187.755 152.551C187.3 152.567 186.942 152.591 186.679 152.623C186.416 152.647 186.236 152.682 186.141 152.73C186.101 152.746 186.069 152.758 186.045 152.766C186.029 152.766 186.017 152.766 186.009 152.766C186.009 152.766 186.009 152.774 186.009 152.79C186.017 152.798 186.021 152.818 186.021 152.85H185.447L185.089 152.682C185.073 152.571 185.053 152.443 185.029 152.3C185.013 152.148 184.997 152.005 184.981 151.869L185.089 151.642C185.192 151.626 185.272 151.618 185.328 151.618C185.391 151.618 185.439 151.622 185.471 151.63C185.511 151.638 185.539 151.646 185.555 151.654C185.571 151.662 185.587 151.666 185.603 151.666C185.611 151.666 185.678 151.658 185.806 151.642C185.933 151.626 186.125 151.606 186.38 151.583C186.635 151.551 186.918 151.531 187.229 151.523C187.547 151.507 187.89 151.499 188.257 151.499H189.883L190.098 151.846ZM114.25 155.846L114.298 156.551C114.29 156.559 114.278 156.563 114.262 156.563C114.246 156.563 114.23 156.567 114.214 156.575C114.198 156.575 114.178 156.575 114.155 156.575C114.059 156.591 114.015 156.571 114.023 156.515H113.712C113.385 156.499 112.784 156.511 111.907 156.551C111.453 156.567 111.094 156.591 110.831 156.623C110.568 156.647 110.389 156.682 110.293 156.73C110.253 156.746 110.221 156.758 110.197 156.766C110.181 156.766 110.17 156.766 110.162 156.766C110.162 156.766 110.162 156.774 110.162 156.79C110.17 156.798 110.173 156.818 110.173 156.85H109.6L109.241 156.682C109.225 156.571 109.205 156.443 109.181 156.3C109.165 156.148 109.149 156.005 109.133 155.869L109.241 155.642C109.345 155.626 109.424 155.618 109.48 155.618C109.544 155.618 109.592 155.622 109.624 155.63C109.663 155.638 109.691 155.646 109.707 155.654C109.723 155.662 109.739 155.666 109.755 155.666C109.763 155.666 109.831 155.658 109.958 155.642C110.086 155.626 110.277 155.606 110.532 155.583C110.787 155.551 111.07 155.531 111.381 155.523C111.7 155.507 112.042 155.499 112.409 155.499H114.035L114.25 155.846ZM120.085 155.846L120.132 156.551C120.125 156.559 120.113 156.563 120.097 156.563C120.081 156.563 120.065 156.567 120.049 156.575C120.033 156.575 120.013 156.575 119.989 156.575C119.893 156.591 119.85 156.571 119.858 156.515H119.547C119.22 156.499 118.618 156.511 117.741 156.551C117.287 156.567 116.928 156.591 116.665 156.623C116.402 156.647 116.223 156.682 116.127 156.73C116.088 156.746 116.056 156.758 116.032 156.766C116.016 156.766 116.004 156.766 115.996 156.766C115.996 156.766 115.996 156.774 115.996 156.79C116.004 156.798 116.008 156.818 116.008 156.85H115.434L115.075 156.682C115.059 156.571 115.04 156.443 115.016 156.3C115 156.148 114.984 156.005 114.968 155.869L115.075 155.642C115.179 155.626 115.259 155.618 115.315 155.618C115.378 155.618 115.426 155.622 115.458 155.63C115.498 155.638 115.526 155.646 115.542 155.654C115.558 155.662 115.574 155.666 115.589 155.666C115.597 155.666 115.665 155.658 115.793 155.642C115.92 155.626 116.112 155.606 116.367 155.583C116.622 155.551 116.905 155.531 117.215 155.523C117.534 155.507 117.877 155.499 118.244 155.499H119.869L120.085 155.846ZM125.919 155.846L125.967 156.551C125.959 156.559 125.947 156.563 125.931 156.563C125.915 156.563 125.899 156.567 125.883 156.575C125.867 156.575 125.847 156.575 125.823 156.575C125.728 156.591 125.684 156.571 125.692 156.515H125.381C125.054 156.499 124.453 156.511 123.576 156.551C123.122 156.567 122.763 156.591 122.5 156.623C122.237 156.647 122.058 156.682 121.962 156.73C121.922 156.746 121.89 156.758 121.866 156.766C121.85 156.766 121.838 156.766 121.83 156.766C121.83 156.766 121.83 156.774 121.83 156.79C121.838 156.798 121.842 156.818 121.842 156.85H121.269L120.91 156.682C120.894 156.571 120.874 156.443 120.85 156.3C120.834 156.148 120.818 156.005 120.802 155.869L120.91 155.642C121.013 155.626 121.093 155.618 121.149 155.618C121.213 155.618 121.261 155.622 121.292 155.63C121.332 155.638 121.36 155.646 121.376 155.654C121.392 155.662 121.408 155.666 121.424 155.666C121.432 155.666 121.5 155.658 121.627 155.642C121.755 155.626 121.946 155.606 122.201 155.583C122.456 155.551 122.739 155.531 123.05 155.523C123.369 155.507 123.711 155.499 124.078 155.499H125.704L125.919 155.846ZM131.754 155.846L131.801 156.551C131.793 156.559 131.781 156.563 131.765 156.563C131.75 156.563 131.734 156.567 131.718 156.575C131.702 156.575 131.682 156.575 131.658 156.575C131.562 156.591 131.518 156.571 131.526 156.515H131.216C130.889 156.499 130.287 156.511 129.41 156.551C128.956 156.567 128.597 156.591 128.334 156.623C128.071 156.647 127.892 156.682 127.796 156.73C127.756 156.746 127.725 156.758 127.701 156.766C127.685 156.766 127.673 156.766 127.665 156.766C127.665 156.766 127.665 156.774 127.665 156.79C127.673 156.798 127.677 156.818 127.677 156.85H127.103L126.744 156.682C126.728 156.571 126.708 156.443 126.684 156.3C126.669 156.148 126.653 156.005 126.637 155.869L126.744 155.642C126.848 155.626 126.928 155.618 126.983 155.618C127.047 155.618 127.095 155.622 127.127 155.63C127.167 155.638 127.195 155.646 127.211 155.654C127.226 155.662 127.242 155.666 127.258 155.666C127.266 155.666 127.334 155.658 127.462 155.642C127.589 155.626 127.78 155.606 128.035 155.583C128.29 155.551 128.573 155.531 128.884 155.523C129.203 155.507 129.546 155.499 129.912 155.499H131.538L131.754 155.846ZM137.588 155.846L137.636 156.551C137.628 156.559 137.616 156.563 137.6 156.563C137.584 156.563 137.568 156.567 137.552 156.575C137.536 156.575 137.516 156.575 137.492 156.575C137.397 156.591 137.353 156.571 137.361 156.515H137.05C136.723 156.499 136.121 156.511 135.245 156.551C134.79 156.567 134.432 156.591 134.169 156.623C133.906 156.647 133.726 156.682 133.631 156.73C133.591 156.746 133.559 156.758 133.535 156.766C133.519 156.766 133.507 156.766 133.499 156.766C133.499 156.766 133.499 156.774 133.499 156.79C133.507 156.798 133.511 156.818 133.511 156.85H132.937L132.579 156.682C132.563 156.571 132.543 156.443 132.519 156.3C132.503 156.148 132.487 156.005 132.471 155.869L132.579 155.642C132.682 155.626 132.762 155.618 132.818 155.618C132.882 155.618 132.929 155.622 132.961 155.63C133.001 155.638 133.029 155.646 133.045 155.654C133.061 155.662 133.077 155.666 133.093 155.666C133.101 155.666 133.168 155.658 133.296 155.642C133.424 155.626 133.615 155.606 133.87 155.583C134.125 155.551 134.408 155.531 134.719 155.523C135.037 155.507 135.38 155.499 135.747 155.499H137.373L137.588 155.846ZM143.422 155.846L143.47 156.551C143.462 156.559 143.45 156.563 143.434 156.563C143.418 156.563 143.402 156.567 143.387 156.575C143.371 156.575 143.351 156.575 143.327 156.575C143.231 156.591 143.187 156.571 143.195 156.515H142.884C142.558 156.499 141.956 156.511 141.079 156.551C140.625 156.567 140.266 156.591 140.003 156.623C139.74 156.647 139.561 156.682 139.465 156.73C139.425 156.746 139.393 156.758 139.37 156.766C139.354 156.766 139.342 156.766 139.334 156.766C139.334 156.766 139.334 156.774 139.334 156.79C139.342 156.798 139.346 156.818 139.346 156.85H138.772L138.413 156.682C138.397 156.571 138.377 156.443 138.353 156.3C138.337 156.148 138.321 156.005 138.306 155.869L138.413 155.642C138.517 155.626 138.596 155.618 138.652 155.618C138.716 155.618 138.764 155.622 138.796 155.63C138.836 155.638 138.863 155.646 138.879 155.654C138.895 155.662 138.911 155.666 138.927 155.666C138.935 155.666 139.003 155.658 139.13 155.642C139.258 155.626 139.449 155.606 139.704 155.583C139.959 155.551 140.242 155.531 140.553 155.523C140.872 155.507 141.215 155.499 141.581 155.499H143.207L143.422 155.846ZM149.257 155.846L149.305 156.551C149.297 156.559 149.285 156.563 149.269 156.563C149.253 156.563 149.237 156.567 149.221 156.575C149.205 156.575 149.185 156.575 149.161 156.575C149.066 156.591 149.022 156.571 149.03 156.515H148.719C148.392 156.499 147.79 156.511 146.914 156.551C146.459 156.567 146.101 156.591 145.838 156.623C145.575 156.647 145.395 156.682 145.3 156.73C145.26 156.746 145.228 156.758 145.204 156.766C145.188 156.766 145.176 156.766 145.168 156.766C145.168 156.766 145.168 156.774 145.168 156.79C145.176 156.798 145.18 156.818 145.18 156.85H144.606L144.248 156.682C144.232 156.571 144.212 156.443 144.188 156.3C144.172 156.148 144.156 156.005 144.14 155.869L144.248 155.642C144.351 155.626 144.431 155.618 144.487 155.618C144.55 155.618 144.598 155.622 144.63 155.63C144.67 155.638 144.698 155.646 144.714 155.654C144.73 155.662 144.746 155.666 144.762 155.666C144.77 155.666 144.837 155.658 144.965 155.642C145.092 155.626 145.284 155.606 145.539 155.583C145.794 155.551 146.077 155.531 146.388 155.523C146.706 155.507 147.049 155.499 147.416 155.499H149.042L149.257 155.846ZM155.091 155.846L155.139 156.551C155.131 156.559 155.119 156.563 155.103 156.563C155.087 156.563 155.071 156.567 155.055 156.575C155.039 156.575 155.02 156.575 154.996 156.575C154.9 156.591 154.856 156.571 154.864 156.515H154.553C154.226 156.499 153.625 156.511 152.748 156.551C152.294 156.567 151.935 156.591 151.672 156.623C151.409 156.647 151.23 156.682 151.134 156.73C151.094 156.746 151.062 156.758 151.038 156.766C151.022 156.766 151.011 156.766 151.003 156.766C151.003 156.766 151.003 156.774 151.003 156.79C151.011 156.798 151.015 156.818 151.015 156.85H150.441L150.082 156.682C150.066 156.571 150.046 156.443 150.022 156.3C150.006 156.148 149.99 156.005 149.974 155.869L150.082 155.642C150.186 155.626 150.265 155.618 150.321 155.618C150.385 155.618 150.433 155.622 150.465 155.63C150.504 155.638 150.532 155.646 150.548 155.654C150.564 155.662 150.58 155.666 150.596 155.666C150.604 155.666 150.672 155.658 150.799 155.642C150.927 155.626 151.118 155.606 151.373 155.583C151.628 155.551 151.911 155.531 152.222 155.523C152.541 155.507 152.884 155.499 153.25 155.499H154.876L155.091 155.846ZM160.926 155.846L160.973 156.551C160.966 156.559 160.954 156.563 160.938 156.563C160.922 156.563 160.906 156.567 160.89 156.575C160.874 156.575 160.854 156.575 160.83 156.575C160.734 156.591 160.691 156.571 160.699 156.515H160.388C160.061 156.499 159.459 156.511 158.582 156.551C158.128 156.567 157.769 156.591 157.506 156.623C157.243 156.647 157.064 156.682 156.968 156.73C156.929 156.746 156.897 156.758 156.873 156.766C156.857 156.766 156.845 156.766 156.837 156.766C156.837 156.766 156.837 156.774 156.837 156.79C156.845 156.798 156.849 156.818 156.849 156.85H156.275L155.916 156.682C155.9 156.571 155.881 156.443 155.857 156.3C155.841 156.148 155.825 156.005 155.809 155.869L155.916 155.642C156.02 155.626 156.1 155.618 156.156 155.618C156.219 155.618 156.267 155.622 156.299 155.63C156.339 155.638 156.367 155.646 156.383 155.654C156.399 155.662 156.415 155.666 156.431 155.666C156.438 155.666 156.506 155.658 156.634 155.642C156.761 155.626 156.953 155.606 157.208 155.583C157.463 155.551 157.746 155.531 158.056 155.523C158.375 155.507 158.718 155.499 159.085 155.499H160.71L160.926 155.846ZM166.76 155.846L166.808 156.551C166.8 156.559 166.788 156.563 166.772 156.563C166.756 156.563 166.74 156.567 166.724 156.575C166.708 156.575 166.688 156.575 166.664 156.575C166.569 156.591 166.525 156.571 166.533 156.515H166.222C165.895 156.499 165.294 156.511 164.417 156.551C163.963 156.567 163.604 156.591 163.341 156.623C163.078 156.647 162.899 156.682 162.803 156.73C162.763 156.746 162.731 156.758 162.707 156.766C162.691 156.766 162.679 156.766 162.671 156.766C162.671 156.766 162.671 156.774 162.671 156.79C162.679 156.798 162.683 156.818 162.683 156.85H162.11L161.751 156.682C161.735 156.571 161.715 156.443 161.691 156.3C161.675 156.148 161.659 156.005 161.643 155.869L161.751 155.642C161.854 155.626 161.934 155.618 161.99 155.618C162.054 155.618 162.102 155.622 162.133 155.63C162.173 155.638 162.201 155.646 162.217 155.654C162.233 155.662 162.249 155.666 162.265 155.666C162.273 155.666 162.341 155.658 162.468 155.642C162.596 155.626 162.787 155.606 163.042 155.583C163.297 155.551 163.58 155.531 163.891 155.523C164.21 155.507 164.552 155.499 164.919 155.499H166.545L166.76 155.846ZM172.595 155.846L172.642 156.551C172.634 156.559 172.622 156.563 172.606 156.563C172.591 156.563 172.575 156.567 172.559 156.575C172.543 156.575 172.523 156.575 172.499 156.575C172.403 156.591 172.359 156.571 172.367 156.515H172.057C171.73 156.499 171.128 156.511 170.251 156.551C169.797 156.567 169.438 156.591 169.175 156.623C168.912 156.647 168.733 156.682 168.637 156.73C168.597 156.746 168.566 156.758 168.542 156.766C168.526 156.766 168.514 156.766 168.506 156.766C168.506 156.766 168.506 156.774 168.506 156.79C168.514 156.798 168.518 156.818 168.518 156.85H167.944L167.585 156.682C167.569 156.571 167.549 156.443 167.526 156.3C167.51 156.148 167.494 156.005 167.478 155.869L167.585 155.642C167.689 155.626 167.769 155.618 167.824 155.618C167.888 155.618 167.936 155.622 167.968 155.63C168.008 155.638 168.036 155.646 168.052 155.654C168.067 155.662 168.083 155.666 168.099 155.666C168.107 155.666 168.175 155.658 168.303 155.642C168.43 155.626 168.621 155.606 168.876 155.583C169.131 155.551 169.414 155.531 169.725 155.523C170.044 155.507 170.387 155.499 170.753 155.499H172.379L172.595 155.846ZM178.429 155.846L178.477 156.551C178.469 156.559 178.457 156.563 178.441 156.563C178.425 156.563 178.409 156.567 178.393 156.575C178.377 156.575 178.357 156.575 178.333 156.575C178.238 156.591 178.194 156.571 178.202 156.515H177.891C177.564 156.499 176.962 156.511 176.086 156.551C175.631 156.567 175.273 156.591 175.01 156.623C174.747 156.647 174.567 156.682 174.472 156.73C174.432 156.746 174.4 156.758 174.376 156.766C174.36 156.766 174.348 156.766 174.34 156.766C174.34 156.766 174.34 156.774 174.34 156.79C174.348 156.798 174.352 156.818 174.352 156.85H173.778L173.42 156.682C173.404 156.571 173.384 156.443 173.36 156.3C173.344 156.148 173.328 156.005 173.312 155.869L173.42 155.642C173.523 155.626 173.603 155.618 173.659 155.618C173.723 155.618 173.77 155.622 173.802 155.63C173.842 155.638 173.87 155.646 173.886 155.654C173.902 155.662 173.918 155.666 173.934 155.666C173.942 155.666 174.01 155.658 174.137 155.642C174.265 155.626 174.456 155.606 174.711 155.583C174.966 155.551 175.249 155.531 175.56 155.523C175.879 155.507 176.221 155.499 176.588 155.499H178.214L178.429 155.846ZM184.263 155.846L184.311 156.551C184.303 156.559 184.291 156.563 184.275 156.563C184.259 156.563 184.243 156.567 184.228 156.575C184.212 156.575 184.192 156.575 184.168 156.575C184.072 156.591 184.028 156.571 184.036 156.515H183.725C183.399 156.499 182.797 156.511 181.92 156.551C181.466 156.567 181.107 156.591 180.844 156.623C180.581 156.647 180.402 156.682 180.306 156.73C180.266 156.746 180.234 156.758 180.211 156.766C180.195 156.766 180.183 156.766 180.175 156.766C180.175 156.766 180.175 156.774 180.175 156.79C180.183 156.798 180.187 156.818 180.187 156.85H179.613L179.254 156.682C179.238 156.571 179.218 156.443 179.194 156.3C179.178 156.148 179.162 156.005 179.147 155.869L179.254 155.642C179.358 155.626 179.437 155.618 179.493 155.618C179.557 155.618 179.605 155.622 179.637 155.63C179.677 155.638 179.704 155.646 179.72 155.654C179.736 155.662 179.752 155.666 179.768 155.666C179.776 155.666 179.844 155.658 179.971 155.642C180.099 155.626 180.29 155.606 180.545 155.583C180.8 155.551 181.083 155.531 181.394 155.523C181.713 155.507 182.056 155.499 182.422 155.499H184.048L184.263 155.846ZM190.098 155.846L190.146 156.551C190.138 156.559 190.126 156.563 190.11 156.563C190.094 156.563 190.078 156.567 190.062 156.575C190.046 156.575 190.026 156.575 190.002 156.575C189.907 156.591 189.863 156.571 189.871 156.515H189.56C189.233 156.499 188.631 156.511 187.755 156.551C187.3 156.567 186.942 156.591 186.679 156.623C186.416 156.647 186.236 156.682 186.141 156.73C186.101 156.746 186.069 156.758 186.045 156.766C186.029 156.766 186.017 156.766 186.009 156.766C186.009 156.766 186.009 156.774 186.009 156.79C186.017 156.798 186.021 156.818 186.021 156.85H185.447L185.089 156.682C185.073 156.571 185.053 156.443 185.029 156.3C185.013 156.148 184.997 156.005 184.981 155.869L185.089 155.642C185.192 155.626 185.272 155.618 185.328 155.618C185.391 155.618 185.439 155.622 185.471 155.63C185.511 155.638 185.539 155.646 185.555 155.654C185.571 155.662 185.587 155.666 185.603 155.666C185.611 155.666 185.678 155.658 185.806 155.642C185.933 155.626 186.125 155.606 186.38 155.583C186.635 155.551 186.918 155.531 187.229 155.523C187.547 155.507 187.89 155.499 188.257 155.499H189.883L190.098 155.846Z" fill="url(#paint4_linear_0_1)"/>
</g>
<defs>
<linearGradient id="paint0_linear_0_1" x1="47.3497" y1="0" x2="47.3497" y2="113.082" gradientUnits="userSpaceOnUse">
<stop stop-color="#E0E0E0"/>
<stop offset="1" stop-color="#A6A6A6"/>
</linearGradient>
<linearGradient id="paint1_linear_0_1" x1="62.5735" y1="0" x2="62.5735" y2="149.44" gradientUnits="userSpaceOnUse">
<stop stop-color="#ECECEC"/>
<stop offset="1" stop-color="#B7B7B7"/>
</linearGradient>
<linearGradient id="paint2_linear_0_1" x1="148.461" y1="45.4426" x2="148.461" y2="130.879" gradientUnits="userSpaceOnUse">
<stop offset="0.403846" stop-color="#FEB81D"/>
<stop offset="1" stop-color="#986E11"/>
</linearGradient>
<linearGradient id="paint3_linear_0_1" x1="87.6387" y1="27.3263" x2="212.315" y2="27.3263" gradientUnits="userSpaceOnUse">
<stop stop-color="#262626"/>
<stop offset="0.5" stop-color="#D1D1D1"/>
<stop offset="1" stop-color="#262626"/>
</linearGradient>
<linearGradient id="paint4_linear_0_1" x1="106.426" y1="152.002" x2="192.674" y2="152.002" gradientUnits="userSpaceOnUse">
<stop stop-color="#262626"/>
<stop offset="0.5" stop-color="#D1D1D1"/>
<stop offset="1" stop-color="#262626"/>
</linearGradient>
</defs>
</svg>
