<svg width="100" height="100" viewBox="0 0 166.021 185.239" fill="none" xmlns="http://www.w3.org/2000/svg" preserveAspectRatio="xMidYMid meet">
<g id="Group 26">
<path id="Vector 65" d="M3.04472 92.657C2.05751 78.4371 3.04472 56.157 3.04472 56.157L57.5447 54.157L133.545 65.157C133.545 65.157 165.757 80.8857 165.545 102.657C165.459 111.513 162.793 124.918 159.545 133.157C155.172 144.248 153.226 150.039 145.545 159.157C137.248 169.005 130.713 176.445 118.545 180.657C105.545 185.157 97.6953 185.454 84.5449 185.157C70.7124 184.845 62.8606 183.872 50.0447 178.657C37.7022 173.635 30.5543 169.411 22.0447 159.157C14.7951 150.421 12.7493 143.888 9.04472 133.157C3.82695 118.043 4.15207 108.607 3.04472 92.657Z" fill="url(#paint0_linear_0_4)"/>
<rect id="Rectangle 427" x="0.52553" y="16.7463" width="40" height="59" rx="20" transform="rotate(-3.00574 0.52553 16.7463)" fill="url(#paint1_linear_0_4)" stroke="url(#paint2_linear_0_4)"/>
<rect id="Rectangle 428" x="36.8634" y="9.96701" width="41.371" height="69.9506" rx="20" transform="rotate(-3.00574 36.8634 9.96701)" fill="url(#paint3_linear_0_4)" stroke="url(#paint4_linear_0_4)"/>
<rect id="Rectangle 429" x="75.6945" y="2.69486" width="41.371" height="77.1174" rx="20" transform="rotate(-3.00574 75.6945 2.69486)" fill="url(#paint5_linear_0_4)" stroke="url(#paint6_linear_0_4)"/>
<rect id="Rectangle 430" x="115.036" y="4.67028" width="41.371" height="77.4147" rx="20" transform="rotate(1.54234 115.036 4.67028)" fill="url(#paint7_linear_0_4)" stroke="url(#paint8_linear_0_4)"/>
<path id="Vector 64" d="M118.045 53.157C97.0924 51.0447 61.045 53.157 59.545 53.157C59.545 53.157 55.6563 56.3166 54.5449 59.157C52.9731 63.1739 53.0449 65.657 54.0448 70.157C54.8025 73.5668 55.575 75.6871 58.0449 78.157C61.5449 81.657 64.0284 83.4222 68.5448 85.657C72.4188 87.5739 74.8152 88.2666 79.0448 89.157C86.6878 90.766 91.6352 86.6871 99.0448 89.157C102.359 90.2616 104.506 90.7581 107.045 93.157C109.65 95.6188 110.393 97.7625 111.545 101.157C113.552 107.074 111.545 117.157 111.545 117.157L135.045 134.657L163.545 117.157C163.545 117.157 167.323 101.486 165.545 91.657C164.479 85.7628 163.822 82.171 160.545 77.157C156.756 71.3597 152.767 69.5588 147.045 65.657C136.856 58.7091 130.315 54.394 118.045 53.157Z" fill="#E1A476"/>
<g id="Ellipse 55">
</g>
</g>
<defs>
<linearGradient id="paint0_linear_0_4" x1="84.5449" y1="111.657" x2="84.5449" y2="37.157" gradientUnits="userSpaceOnUse">
<stop stop-color="#E1A476"/>
<stop offset="1" stop-color="#BF875E"/>
</linearGradient>
<linearGradient id="paint1_linear_0_4" x1="20.5" y1="16.2732" x2="20.5" y2="76.2732" gradientUnits="userSpaceOnUse">
<stop offset="0.201923" stop-color="#E1A476"/>
<stop offset="1" stop-color="#CD9469"/>
</linearGradient>
<linearGradient id="paint2_linear_0_4" x1="20.5" y1="16.2732" x2="20.5" y2="76.2732" gradientUnits="userSpaceOnUse">
<stop offset="0.225962" stop-color="#E1A477"/>
<stop offset="1" stop-color="#B5815B"/>
</linearGradient>
<linearGradient id="paint3_linear_0_4" x1="57.5234" y1="9.49392" x2="57.5234" y2="80.4445" gradientUnits="userSpaceOnUse">
<stop offset="0.274038" stop-color="#E1A476"/>
<stop offset="1" stop-color="#CD9369"/>
</linearGradient>
<linearGradient id="paint4_linear_0_4" x1="57.5234" y1="9.49392" x2="57.5234" y2="80.4445" gradientUnits="userSpaceOnUse">
<stop offset="0.3125" stop-color="#E1A477"/>
<stop offset="1" stop-color="#A97753"/>
</linearGradient>
<linearGradient id="paint5_linear_0_4" x1="96.3544" y1="2.22176" x2="96.3544" y2="80.3392" gradientUnits="userSpaceOnUse">
<stop offset="0.317308" stop-color="#E1A476"/>
<stop offset="1" stop-color="#CD9368"/>
</linearGradient>
<linearGradient id="paint6_linear_0_4" x1="96.3544" y1="2.22176" x2="96.3544" y2="80.3392" gradientUnits="userSpaceOnUse">
<stop offset="0.331731" stop-color="#E1A476"/>
<stop offset="1" stop-color="#B7835D"/>
</linearGradient>
<linearGradient id="paint7_linear_0_4" x1="135.735" y1="4.15701" x2="135.735" y2="82.5717" gradientUnits="userSpaceOnUse">
<stop offset="0.240385" stop-color="#E1A476"/>
<stop offset="1" stop-color="#CD9368"/>
</linearGradient>
<linearGradient id="paint8_linear_0_4" x1="135.735" y1="4.15701" x2="135.735" y2="82.5717" gradientUnits="userSpaceOnUse">
<stop offset="0.326923" stop-color="#E1A476"/>
<stop offset="1" stop-color="#B9845D"/>
</linearGradient>
</defs>
</svg>
