<svg width="100" height="100" viewBox="0 0 220 210.028" fill="none" xmlns="http://www.w3.org/2000/svg" preserveAspectRatio="xMidYMid meet">
<g id="Group 21">
<path id="Rectangle 417" d="M13.2931 169.592L135.977 35.5681L190.102 79.8992L35.9742 198.459L13.2931 169.592Z" fill="#D9D9D9"/>
<path id="Vector 58" d="M36.0535 198.398L36.2977 198.716L36.3194 198.699L36.3387 198.679L36.0535 198.398ZM37.1068 197.33L36.9431 196.965L36.8745 196.995L36.8217 197.049L37.1068 197.33ZM38.5951 196.664L38.7588 197.029L38.7887 197.016L38.816 196.998L38.5951 196.664ZM39.9217 195.787L40.1426 196.121L40.1709 196.102L40.1958 196.079L39.9217 195.787ZM41.084 194.696L41.3581 194.989L41.366 194.981L41.084 194.696ZM42.2191 193.571L41.9976 193.237L41.9649 193.259L41.9371 193.286L42.2191 193.571ZM43.5437 192.691L43.7652 193.025L43.8102 192.995L43.8457 192.954L43.5437 192.691ZM44.6064 191.471L44.442 191.106L44.362 191.142L44.3044 191.208L44.6064 191.471ZM46.0929 190.803L46.2572 191.168L46.2984 191.149L46.3344 191.122L46.0929 190.803ZM47.3584 189.846L47.5998 190.166L47.6282 190.144L47.6523 190.118L47.3584 189.846ZM48.4513 188.666L48.2432 188.324L48.1954 188.353L48.1574 188.394L48.4513 188.666ZM49.8146 187.837L50.0227 188.179L50.0696 188.15L50.1071 188.11L49.8146 187.837ZM50.9126 186.663L50.7139 186.315L50.6614 186.345L50.6201 186.389L50.9126 186.663ZM52.3027 185.868L52.5014 186.216L52.5518 186.187L52.5919 186.146L52.3027 185.868ZM53.4125 184.71L53.284 184.331L53.1912 184.362L53.1233 184.433L53.4125 184.71ZM55 184.172L55.1285 184.552L55.2017 184.527L55.2605 184.476L55 184.172ZM56.2064 183.139L55.9624 182.822L55.954 182.828L55.9459 182.835L56.2064 183.139ZM57.4641 182.173L57.7081 182.491L57.7525 182.456L57.7858 182.412L57.4641 182.173ZM58.4464 180.849L58.3123 180.471L58.1974 180.512L58.1247 180.61L58.4464 180.849ZM60.0179 180.29L60.152 180.667L60.2673 180.626L60.34 180.528L60.0179 180.29ZM60.9983 178.963L60.7369 178.66L60.7029 178.689L60.6762 178.725L60.9983 178.963ZM62.2018 177.926L61.9585 177.608L61.9492 177.615L61.9403 177.623L62.2018 177.926ZM63.4616 176.963L63.3019 176.596L63.2571 176.615L63.2183 176.645L63.4616 176.963ZM64.9612 176.311L65.1209 176.678L65.2052 176.642L65.2651 176.572L64.9612 176.311ZM66.0165 175.082L65.7578 174.776L65.7334 174.796L65.7126 174.821L66.0165 175.082ZM67.2286 174.056L67.0415 173.702L67.0031 173.722L66.9699 173.75L67.2286 174.056ZM68.6515 173.304L68.8386 173.658L68.9082 173.622L68.9587 173.561L68.6515 173.304ZM69.6942 172.059L69.5975 171.67L69.4709 171.701L69.3871 171.801L69.6942 172.059ZM71.3739 171.641L71.4706 172.029L71.6372 171.988L71.7221 171.839L71.3739 171.641ZM72.2241 170.145L72.1192 169.758L71.9582 169.802L71.8758 169.947L72.2241 170.145ZM73.8796 169.695L73.9845 170.082L74.0949 170.052L74.1728 169.968L73.8796 169.695ZM74.9751 168.518L74.7929 168.162L74.73 168.194L74.6819 168.245L74.9751 168.518ZM76.4117 167.784L76.5939 168.141L76.6473 168.114L76.6904 168.072L76.4117 167.784ZM77.5584 166.674L77.837 166.961L77.8603 166.939L77.8797 166.913L77.5584 166.674ZM78.5421 165.351L78.2947 165.036L78.2527 165.069L78.2208 165.112L78.5421 165.351ZM79.7893 164.371L79.5489 164.051L79.5418 164.056L79.7893 164.371ZM81.0583 163.42L80.8781 163.062L80.8464 163.078L80.8181 163.099L81.0583 163.42ZM82.5003 162.693L82.6806 163.05L82.7183 163.031L82.7512 163.005L82.5003 162.693ZM83.737 161.699L83.5626 161.339L83.5216 161.358L83.4861 161.387L83.737 161.699ZM85.1954 160.994L85.3698 161.354L85.4442 161.318L85.4983 161.256L85.1954 160.994ZM86.2543 159.769L85.9583 159.499L85.9513 159.507L86.2543 159.769ZM87.3402 158.579L87.2312 158.194L87.1213 158.225L87.0444 158.309L87.3402 158.579ZM88.9838 158.115L89.0928 158.5L89.1853 158.474L89.2559 158.408L88.9838 158.115ZM90.1524 157.032L90.4245 157.326L90.4518 157.301L90.474 157.271L90.1524 157.032ZM91.1349 155.708L91.0094 155.328L90.8889 155.368L90.8133 155.47L91.1349 155.708ZM92.7309 155.182L92.8564 155.562L92.9172 155.542L92.9687 155.504L92.7309 155.182ZM94.0074 154.24L94.2452 154.562L94.3113 154.513L94.3529 154.443L94.0074 154.24ZM94.8732 152.764L94.743 152.385L94.6027 152.433L94.5277 152.561L94.8732 152.764ZM96.4557 152.22L96.5859 152.599L96.6872 152.564L96.7576 152.483L96.4557 152.22ZM97.5186 151L97.3096 150.659L97.2571 150.691L97.2167 150.737L97.5186 151ZM98.8794 150.168L99.0884 150.51L99.1489 150.473L99.1929 150.417L98.8794 150.168ZM99.8965 148.889L99.6733 148.556L99.6216 148.591L99.5829 148.64L99.8965 148.889ZM101.216 148.003L101.042 147.643L101.016 147.655L100.993 147.671L101.216 148.003ZM102.674 147.297L102.849 147.658L102.902 147.632L102.945 147.593L102.674 147.297ZM103.848 146.222L103.665 145.865L103.617 145.89L103.577 145.926L103.848 146.222ZM105.284 145.487L105.466 145.843L105.507 145.822L105.543 145.792L105.284 145.487ZM106.495 144.461L106.257 144.139L106.247 144.147L106.237 144.155L106.495 144.461ZM107.77 143.517L108.009 143.839L108.065 143.797L108.104 143.738L107.77 143.517ZM108.696 142.118L108.559 141.742L108.435 141.787L108.362 141.897L108.696 142.118ZM110.259 141.55L110.396 141.926L110.488 141.893L110.554 141.821L110.259 141.55ZM111.35 140.366L111.098 140.055L111.075 140.073L111.056 140.095L111.35 140.366ZM112.584 139.369L112.424 139.002L112.375 139.024L112.333 139.058L112.584 139.369ZM114.083 138.717L114.243 139.084L114.335 139.044L114.398 138.965L114.083 138.717ZM115.096 137.432L114.856 137.111L114.814 137.142L114.781 137.184L115.096 137.432ZM116.368 136.484L116.138 136.155L116.128 136.163L116.368 136.484ZM117.669 135.574L117.898 135.902L117.903 135.898L117.669 135.574ZM118.954 134.643L119.189 134.968L119.211 134.951L119.231 134.932L118.954 134.643ZM120.106 133.539L119.9 133.195L119.861 133.219L119.828 133.25L120.106 133.539ZM121.475 132.718L121.681 133.062L121.725 133.036L121.76 133L121.475 132.718ZM122.601 131.581L122.459 131.206L122.378 131.237L122.316 131.299L122.601 131.581ZM124.15 130.992L124.292 131.367L124.361 131.341L124.417 131.291L124.15 130.992ZM125.336 129.933L125.088 129.619L125.078 129.626L125.069 129.634L125.336 129.933ZM126.581 128.951L126.829 129.265L126.874 129.23L126.908 129.183L126.581 128.951ZM127.543 127.6L127.321 127.266L127.26 127.307L127.217 127.367L127.543 127.6ZM128.867 126.72L128.71 126.352L128.676 126.366L128.646 126.386L128.867 126.72ZM130.372 126.075L130.53 126.443L130.569 126.427L130.603 126.403L130.372 126.075ZM131.671 125.162L131.902 125.49L131.967 125.444L132.01 125.376L131.671 125.162ZM132.573 123.733L132.47 123.346L132.318 123.387L132.234 123.52L132.573 123.733ZM134.233 123.29L134.336 123.676L134.499 123.633L134.582 123.486L134.233 123.29ZM135.077 121.786L134.87 121.443L134.78 121.498L134.728 121.59L135.077 121.786ZM136.444 120.961L136.651 121.304L136.659 121.299L136.667 121.294L136.444 120.961ZM137.764 120.076L137.549 119.738L137.541 119.743L137.764 120.076ZM139.108 119.221L139.323 119.559L139.355 119.539L139.383 119.512L139.108 119.221ZM140.266 118.125L140.541 118.416L140.549 118.408L140.557 118.4L140.266 118.125ZM141.367 116.956L141.228 116.58L141.14 116.613L141.075 116.681L141.367 116.956ZM142.925 116.379L143.064 116.755L143.131 116.73L143.185 116.684L142.925 116.379ZM144.131 115.347L144.392 115.651L144.421 115.626L144.445 115.596L144.131 115.347ZM145.148 114.068L145.008 113.693L144.904 113.732L144.835 113.818L145.148 114.068ZM146.702 113.486L146.842 113.861L146.943 113.823L147.012 113.739L146.702 113.486ZM147.733 112.224L147.56 111.863L147.479 111.902L147.422 111.971L147.733 112.224ZM149.195 111.524L149.368 111.886L149.387 111.877L149.405 111.866L149.195 111.524ZM150.554 110.69L150.764 111.031L150.841 110.983L150.891 110.907L150.554 110.69ZM151.467 109.275L151.28 108.921L151.187 108.97L151.13 109.058L151.467 109.275ZM152.89 108.524L153.077 108.878L153.089 108.871L152.89 108.524ZM154.28 107.729L154.479 108.076L154.551 108.035L154.601 107.968L154.28 107.729ZM155.264 106.406L155.084 106.048L154.999 106.091L154.942 106.167L155.264 106.406ZM156.708 105.682L156.887 106.04L156.967 106L157.023 105.93L156.708 105.682ZM157.719 104.396L157.616 104.009L157.487 104.043L157.404 104.148L157.719 104.396ZM159.38 103.953L159.483 104.34L159.592 104.311L159.669 104.23L159.38 103.953ZM160.489 102.794L160.241 102.479L160.219 102.497L160.199 102.517L160.489 102.794ZM161.736 101.813L161.495 101.493L161.488 101.499L161.736 101.813ZM163.002 100.859L162.786 100.522L162.773 100.53L162.761 100.539L163.002 100.859ZM164.34 99.9969L164.557 100.334L164.587 100.315L164.613 100.291L164.34 99.9969ZM165.509 98.9144L165.26 98.6003L165.248 98.61L165.237 98.6206L165.509 98.9144ZM166.753 97.93L167.001 98.244L167.019 98.23L167.035 98.214L166.753 97.93ZM167.887 96.8027L167.71 96.4431L167.651 96.4721L167.604 96.5187L167.887 96.8027ZM169.34 96.0904L169.516 96.4501L169.538 96.4392L169.559 96.4257L169.34 96.0904ZM170.671 95.2201L170.89 95.5554L170.912 95.5414L170.931 95.5249L170.671 95.2201ZM171.88 94.1897L171.663 93.8526L171.64 93.8673L171.62 93.8849L171.88 94.1897ZM173.219 93.3298L173.436 93.6668L173.499 93.6259L173.544 93.5645L173.219 93.3298ZM174.189 91.989L174.025 91.6235L173.927 91.6674L173.864 91.7543L174.189 91.989ZM175.677 91.3225L175.841 91.6881L175.919 91.6532L175.976 91.5896L175.677 91.3225ZM176.753 90.1202L176.544 89.7791L176.494 89.8096L176.455 89.8531L176.753 90.1202ZM178.111 89.2842L178.321 89.6253L178.376 89.5917L178.417 89.5428L178.111 89.2842ZM179.159 88.0449L179.02 87.6693L178.921 87.7059L178.853 87.7863L179.159 88.0449ZM180.716 87.4678L180.855 87.8434L180.941 87.8117L181.004 87.7461L180.716 87.4678ZM181.83 86.3145L182.118 86.5927L182.129 86.5821L182.138 86.5708L181.83 86.3145ZM182.87 85.0654L182.62 84.7528L182.588 84.778L182.563 84.8091L182.87 85.0654ZM184.109 84.0739L183.896 83.7345L183.876 83.7468L183.858 83.7612L184.109 84.0739ZM185.459 83.2277L185.672 83.5671L185.685 83.5589L185.697 83.5497L185.459 83.2277ZM186.734 82.2841L186.53 81.9396L186.512 81.95L186.496 81.9621L186.734 82.2841ZM188.108 81.4692L188.313 81.8137L188.375 81.7767L188.42 81.7201L188.108 81.4692ZM189.131 80.1971L189.121 79.7967L188.935 79.8013L188.819 79.9462L189.131 80.1971ZM190.309 80.168L190.319 80.5684L191.107 80.5489L190.627 79.9238L190.309 80.168ZM35.9742 198.459L36.2184 198.777L36.2977 198.716L36.0535 198.398L35.8093 198.081L35.73 198.142L35.9742 198.459ZM36.0535 198.398L36.3387 198.679L37.392 197.611L37.1068 197.33L36.8217 197.049L35.7683 198.117L36.0535 198.398ZM37.1068 197.33L37.2706 197.696L38.7588 197.029L38.5951 196.664L38.4314 196.298L36.9431 196.965L37.1068 197.33ZM38.5951 196.664L38.816 196.998L40.1426 196.121L39.9217 195.787L39.7009 195.453L38.3743 196.329L38.5951 196.664ZM39.9217 195.787L40.1958 196.079L41.358 194.988L41.084 194.696L40.81 194.404L39.6477 195.495L39.9217 195.787ZM41.084 194.696L41.366 194.981L42.5012 193.855L42.2191 193.571L41.9371 193.286L40.802 194.412L41.084 194.696ZM42.2191 193.571L42.4407 193.904L43.7652 193.025L43.5437 192.691L43.3221 192.358L41.9976 193.237L42.2191 193.571ZM43.5437 192.691L43.8457 192.954L44.9084 191.735L44.6064 191.471L44.3044 191.208L43.2417 192.428L43.5437 192.691ZM44.6064 191.471L44.7707 191.837L46.2572 191.168L46.0929 190.803L45.9285 190.437L44.442 191.106L44.6064 191.471ZM46.0929 190.803L46.3344 191.122L47.5998 190.166L47.3584 189.846L47.1169 189.527L45.8514 190.483L46.0929 190.803ZM47.3584 189.846L47.6523 190.118L48.7452 188.938L48.4513 188.666L48.1574 188.394L47.0644 189.574L47.3584 189.846ZM48.4513 188.666L48.6594 189.008L50.0227 188.179L49.8146 187.837L49.6065 187.494L48.2432 188.324L48.4513 188.666ZM49.8146 187.837L50.1071 188.11L51.2051 186.936L50.9126 186.663L50.6201 186.389L49.5221 187.563L49.8146 187.837ZM50.9126 186.663L51.1114 187.011L52.5014 186.216L52.3027 185.868L52.104 185.521L50.7139 186.315L50.9126 186.663ZM52.3027 185.868L52.5919 186.146L53.7018 184.987L53.4125 184.71L53.1233 184.433L52.0135 185.591L52.3027 185.868ZM53.4125 184.71L53.541 185.089L55.1285 184.552L55 184.172L54.8715 183.793L53.284 184.331L53.4125 184.71ZM55 184.172L55.2605 184.476L56.4669 183.443L56.2064 183.139L55.9459 182.835L54.7395 183.868L55 184.172ZM56.2064 183.139L56.4504 183.457L57.7081 182.491L57.4641 182.173L57.2201 181.855L55.9624 182.822L56.2064 183.139ZM57.4641 182.173L57.7858 182.412L58.7681 181.087L58.4464 180.849L58.1247 180.61L57.1424 181.934L57.4641 182.173ZM58.4464 180.849L58.5805 181.226L60.152 180.667L60.0179 180.29L59.8837 179.913L58.3123 180.471L58.4464 180.849ZM60.0179 180.29L60.34 180.528L61.3204 179.201L60.9983 178.963L60.6762 178.725L59.6957 180.052L60.0179 180.29ZM60.9983 178.963L61.2598 179.267L62.4632 178.23L62.2018 177.926L61.9403 177.623L60.7369 178.66L60.9983 178.963ZM62.2018 177.926L62.4451 178.245L63.705 177.281L63.4616 176.963L63.2183 176.645L61.9585 177.608L62.2018 177.926ZM63.4616 176.963L63.6213 177.33L65.1209 176.678L64.9612 176.311L64.8015 175.944L63.3019 176.596L63.4616 176.963ZM64.9612 176.311L65.2651 176.572L66.3204 175.342L66.0165 175.082L65.7126 174.821L64.6573 176.05L64.9612 176.311ZM66.0165 175.082L66.2752 175.387L67.4873 174.362L67.2286 174.056L66.9699 173.75L65.7578 174.776L66.0165 175.082ZM67.2286 174.056L67.4157 174.41L68.8386 173.658L68.6515 173.304L68.4645 172.95L67.0415 173.702L67.2286 174.056ZM68.6515 173.304L68.9587 173.561L70.0014 172.316L69.6942 172.059L69.3871 171.801L68.3444 173.047L68.6515 173.304ZM69.6942 172.059L69.7909 172.447L71.4706 172.029L71.3739 171.641L71.2772 171.252L69.5975 171.67L69.6942 172.059ZM71.3739 171.641L71.7221 171.839L72.5723 170.342L72.2241 170.145L71.8758 169.947L71.0256 171.443L71.3739 171.641ZM72.2241 170.145L72.3289 170.531L73.9845 170.082L73.8796 169.695L73.7747 169.309L72.1192 169.758L72.2241 170.145ZM73.8796 169.695L74.1728 169.968L75.2683 168.791L74.9751 168.518L74.6819 168.245L73.5864 169.423L73.8796 169.695ZM74.9751 168.518L75.1573 168.875L76.5939 168.141L76.4117 167.784L76.2295 167.428L74.7929 168.162L74.9751 168.518ZM76.4117 167.784L76.6904 168.072L77.837 166.961L77.5584 166.674L77.2797 166.386L76.133 167.497L76.4117 167.784ZM77.5584 166.674L77.8797 166.913L78.8635 165.59L78.5421 165.351L78.2208 165.112L77.237 166.435L77.5584 166.674ZM78.5421 165.351L78.7896 165.666L80.0368 164.686L79.7893 164.371L79.5418 164.056L78.2947 165.036L78.5421 165.351ZM79.7893 164.371L80.0296 164.692L81.2986 163.74L81.0583 163.42L80.8181 163.099L79.549 164.051L79.7893 164.371ZM81.0583 163.42L81.2386 163.777L82.6806 163.05L82.5003 162.693L82.32 162.335L80.8781 163.062L81.0583 163.42ZM82.5003 162.693L82.7512 163.005L83.9879 162.011L83.737 161.699L83.4861 161.387L82.2494 162.381L82.5003 162.693ZM83.737 161.699L83.9114 162.06L85.3698 161.354L85.1954 160.994L85.0209 160.633L83.5626 161.339L83.737 161.699ZM85.1954 160.994L85.4983 161.256L86.5572 160.031L86.2543 159.769L85.9513 159.507L84.8924 160.732L85.1954 160.994ZM86.2543 159.769L86.5501 160.039L87.636 158.849L87.3402 158.579L87.0444 158.309L85.9584 159.499L86.2543 159.769ZM87.3402 158.579L87.4491 158.965L89.0928 158.5L88.9838 158.115L88.8748 157.729L87.2312 158.194L87.3402 158.579ZM88.9838 158.115L89.2559 158.408L90.4245 157.326L90.1524 157.032L89.8802 156.738L88.7116 157.821L88.9838 158.115ZM90.1524 157.032L90.474 157.271L91.4566 155.947L91.1349 155.708L90.8133 155.47L89.8307 156.794L90.1524 157.032ZM91.1349 155.708L91.2604 156.089L92.8564 155.562L92.7309 155.182L92.6054 154.801L91.0094 155.328L91.1349 155.708ZM92.7309 155.182L92.9687 155.504L94.2452 154.562L94.0074 154.24L93.7696 153.918L92.4931 154.86L92.7309 155.182ZM94.0074 154.24L94.3529 154.443L95.2187 152.967L94.8732 152.764L94.5277 152.561L93.662 154.037L94.0074 154.24ZM94.8732 152.764L95.0034 153.143L96.5859 152.599L96.4557 152.22L96.3255 151.841L94.743 152.385L94.8732 152.764ZM96.4557 152.22L96.7576 152.483L97.8205 151.264L97.5186 151L97.2167 150.737L96.1538 151.957L96.4557 152.22ZM97.5186 151L97.7276 151.342L99.0884 150.51L98.8794 150.168L98.6705 149.826L97.3096 150.659L97.5186 151ZM98.8794 150.168L99.1929 150.417L100.21 149.138L99.8965 148.889L99.5829 148.64L98.5659 149.919L98.8794 150.168ZM99.8965 148.889L100.12 149.221L101.439 148.336L101.216 148.003L100.993 147.671L99.6733 148.556L99.8965 148.889ZM101.216 148.003L101.391 148.364L102.849 147.658L102.674 147.297L102.5 146.937L101.042 147.643L101.216 148.003ZM102.674 147.297L102.945 147.593L104.119 146.517L103.848 146.222L103.577 145.926L102.404 147.002L102.674 147.297ZM103.848 146.222L104.03 146.578L105.466 145.843L105.284 145.487L105.101 145.13L103.665 145.865L103.848 146.222ZM105.284 145.487L105.543 145.792L106.754 144.766L106.495 144.461L106.237 144.155L105.025 145.181L105.284 145.487ZM106.495 144.461L106.734 144.783L108.009 143.839L107.77 143.517L107.532 143.195L106.257 144.139L106.495 144.461ZM107.77 143.517L108.104 143.738L109.03 142.339L108.696 142.118L108.362 141.897L107.436 143.296L107.77 143.517ZM108.696 142.118L108.833 142.495L110.396 141.926L110.259 141.55L110.122 141.173L108.559 141.742L108.696 142.118ZM110.259 141.55L110.554 141.821L111.645 140.638L111.35 140.366L111.056 140.095L109.965 141.278L110.259 141.55ZM111.35 140.366L111.602 140.678L112.836 139.681L112.584 139.369L112.333 139.058L111.098 140.055L111.35 140.366ZM112.584 139.369L112.744 139.737L114.243 139.084L114.083 138.717L113.923 138.349L112.424 139.002L112.584 139.369ZM114.083 138.717L114.398 138.965L115.41 137.68L115.096 137.432L114.781 137.184L113.769 138.469L114.083 138.717ZM115.096 137.432L115.335 137.753L116.607 136.805L116.368 136.484L116.128 136.163L114.856 137.111L115.096 137.432ZM116.368 136.484L116.597 136.812L117.898 135.902L117.669 135.574L117.439 135.245L116.138 136.155L116.368 136.484ZM117.669 135.574L117.903 135.898L119.189 134.968L118.954 134.643L118.719 134.319L117.434 135.249L117.669 135.574ZM118.954 134.643L119.231 134.932L120.383 133.828L120.106 133.539L119.828 133.25L118.677 134.354L118.954 134.643ZM120.106 133.539L120.311 133.883L121.681 133.062L121.475 132.718L121.27 132.375L119.9 133.195L120.106 133.539ZM121.475 132.718L121.76 133L122.886 131.862L122.601 131.581L122.316 131.299L121.191 132.437L121.475 132.718ZM122.601 131.581L122.743 131.955L124.292 131.367L124.15 130.992L124.008 130.618L122.459 131.206L122.601 131.581ZM124.15 130.992L124.417 131.291L125.603 130.232L125.336 129.933L125.069 129.634L123.883 130.694L124.15 130.992ZM125.336 129.933L125.584 130.248L126.829 129.265L126.581 128.951L126.333 128.636L125.088 129.619L125.336 129.933ZM126.581 128.951L126.908 129.183L127.869 127.832L127.543 127.6L127.217 127.367L126.255 128.718L126.581 128.951ZM127.543 127.6L127.765 127.933L129.089 127.054L128.867 126.72L128.646 126.386L127.321 127.266L127.543 127.6ZM128.867 126.72L129.025 127.088L130.53 126.443L130.372 126.075L130.215 125.707L128.71 126.352L128.867 126.72ZM130.372 126.075L130.603 126.403L131.902 125.49L131.671 125.162L131.441 124.835L130.142 125.747L130.372 126.075ZM131.671 125.162L132.01 125.376L132.912 123.947L132.573 123.733L132.234 123.52L131.333 124.948L131.671 125.162ZM132.573 123.733L132.677 124.12L134.336 123.676L134.233 123.29L134.129 122.903L132.47 123.346L132.573 123.733ZM134.233 123.29L134.582 123.486L135.427 121.982L135.077 121.786L134.728 121.59L133.884 123.093L134.233 123.29ZM135.077 121.786L135.284 122.129L136.651 121.304L136.444 120.961L136.237 120.618L134.87 121.443L135.077 121.786ZM136.444 120.961L136.667 121.294L137.987 120.409L137.764 120.076L137.541 119.743L136.221 120.628L136.444 120.961ZM137.764 120.076L137.979 120.414L139.323 119.559L139.108 119.221L138.893 118.884L137.549 119.738L137.764 120.076ZM139.108 119.221L139.383 119.512L140.541 118.416L140.266 118.125L139.99 117.834L138.832 118.931L139.108 119.221ZM140.266 118.125L140.557 118.4L141.658 117.23L141.367 116.956L141.075 116.681L139.974 117.851L140.266 118.125ZM141.367 116.956L141.506 117.331L143.064 116.755L142.925 116.379L142.786 116.004L141.228 116.58L141.367 116.956ZM142.925 116.379L143.185 116.684L144.392 115.651L144.131 115.347L143.871 115.042L142.664 116.075L142.925 116.379ZM144.131 115.347L144.445 115.596L145.462 114.317L145.148 114.068L144.835 113.818L143.818 115.097L144.131 115.347ZM145.148 114.068L145.289 114.443L146.842 113.861L146.702 113.486L146.561 113.11L145.008 113.693L145.148 114.068ZM146.702 113.486L147.012 113.739L148.043 112.478L147.733 112.224L147.422 111.971L146.392 113.232L146.702 113.486ZM147.733 112.224L147.905 112.586L149.368 111.886L149.195 111.524L149.022 111.163L147.56 111.863L147.733 112.224ZM149.195 111.524L149.405 111.866L150.764 111.031L150.554 110.69L150.345 110.348L148.986 111.183L149.195 111.524ZM150.554 110.69L150.891 110.907L151.804 109.492L151.467 109.275L151.13 109.058L150.218 110.473L150.554 110.69ZM151.467 109.275L151.654 109.629L153.077 108.878L152.89 108.524L152.703 108.17L151.28 108.921L151.467 109.275ZM152.89 108.524L153.089 108.871L154.479 108.076L154.28 107.729L154.081 107.381L152.691 108.176L152.89 108.524ZM154.28 107.729L154.601 107.968L155.585 106.645L155.264 106.406L154.942 106.167L153.958 107.49L154.28 107.729ZM155.264 106.406L155.443 106.764L156.887 106.04L156.708 105.682L156.528 105.324L155.084 106.048L155.264 106.406ZM156.708 105.682L157.023 105.93L158.034 104.644L157.719 104.396L157.404 104.148L156.393 105.435L156.708 105.682ZM157.719 104.396L157.822 104.783L159.483 104.34L159.38 103.953L159.277 103.566L157.616 104.009L157.719 104.396ZM159.38 103.953L159.669 104.23L160.778 103.071L160.489 102.794L160.199 102.517L159.09 103.677L159.38 103.953ZM160.489 102.794L160.736 103.109L161.983 102.128L161.736 101.813L161.488 101.499L160.241 102.479L160.489 102.794ZM161.736 101.813L161.977 102.133L163.244 101.179L163.002 100.859L162.761 100.539L161.495 101.494L161.736 101.813ZM163.002 100.859L163.219 101.196L164.557 100.334L164.34 99.9969L164.124 99.6602L162.786 100.522L163.002 100.859ZM164.34 99.9969L164.613 100.291L165.781 99.2081L165.509 98.9144L165.237 98.6206L164.068 99.7031L164.34 99.9969ZM165.509 98.9144L165.757 99.2284L167.001 98.244L166.753 97.93L166.504 97.6159L165.26 98.6003L165.509 98.9144ZM166.753 97.93L167.035 98.214L168.169 97.0867L167.887 96.8027L167.604 96.5187L166.47 97.6459L166.753 97.93ZM167.887 96.8027L168.063 97.1623L169.516 96.4501L169.34 96.0904L169.163 95.7308L167.71 96.4431L167.887 96.8027ZM169.34 96.0904L169.559 96.4257L170.89 95.5554L170.671 95.2201L170.452 94.8848L169.121 95.7551L169.34 96.0904ZM170.671 95.2201L170.931 95.5249L172.14 94.4944L171.88 94.1897L171.62 93.8849L170.411 94.9154L170.671 95.2201ZM171.88 94.1897L172.096 94.5267L173.436 93.6668L173.219 93.3298L173.003 92.9927L171.663 93.8526L171.88 94.1897ZM173.219 93.3298L173.544 93.5645L174.514 92.2238L174.189 91.989L173.864 91.7543L172.895 93.095L173.219 93.3298ZM174.189 91.989L174.353 92.3546L175.841 91.6881L175.677 91.3225L175.514 90.957L174.025 91.6235L174.189 91.989ZM175.677 91.3225L175.976 91.5896L177.052 90.3873L176.753 90.1202L176.455 89.8531L175.379 91.0554L175.677 91.3225ZM176.753 90.1202L176.963 90.4613L178.321 89.6253L178.111 89.2842L177.902 88.9431L176.544 89.7791L176.753 90.1202ZM178.111 89.2842L178.417 89.5428L179.465 88.3034L179.159 88.0449L178.853 87.7863L177.806 89.0256L178.111 89.2842ZM179.159 88.0449L179.298 88.4204L180.855 87.8434L180.716 87.4678L180.577 87.0923L179.02 87.6693L179.159 88.0449ZM180.716 87.4678L181.004 87.7461L182.118 86.5927L181.83 86.3145L181.542 86.0363L180.428 87.1896L180.716 87.4678ZM181.83 86.3145L182.138 86.5708L183.178 85.3217L182.87 85.0654L182.563 84.8091L181.522 86.0582L181.83 86.3145ZM182.87 85.0654L183.121 85.3781L184.359 84.3865L184.109 84.0739L183.858 83.7612L182.62 84.7528L182.87 85.0654ZM184.109 84.0739L184.321 84.4132L185.672 83.5671L185.459 83.2277L185.246 82.8883L183.896 83.7345L184.109 84.0739ZM185.459 83.2277L185.697 83.5497L186.972 82.606L186.734 82.2841L186.496 81.9621L185.221 82.9058L185.459 83.2277ZM186.734 82.2841L186.938 82.6286L188.313 81.8137L188.108 81.4692L187.904 81.1247L186.53 81.9396L186.734 82.2841ZM188.108 81.4692L188.42 81.7201L189.443 80.448L189.131 80.1971L188.819 79.9462L187.796 81.2183L188.108 81.4692ZM189.131 80.1971L189.141 80.5975L190.319 80.5684L190.309 80.168L190.299 79.7676L189.121 79.7967L189.131 80.1971ZM190.309 80.168L190.627 79.9238L190.42 79.6549L190.102 79.8991L189.785 80.1433L189.992 80.4122L190.309 80.168Z" fill="#D9D9D9"/>
<path id="Vector" fill-rule="evenodd" clip-rule="evenodd" d="M102.471 69.5896L163.297 0C163.297 0 165.852 1.20301 166.906 2.57739C168.184 4.24542 168.452 7.73217 168.452 7.73217C168.452 7.73217 191.362 16.0146 202.474 26.2894C205.715 29.2868 210.206 34.537 210.206 34.537L220 40.2073C220 40.2073 211.659 57.7342 202.474 65.4657C196.742 70.2902 185.978 75.2598 185.978 75.2598L194.742 80.4146L185.978 86.6004L132.884 45.8776L108.141 69.5896H102.471ZM149.895 27.3203C147.367 27.826 146.081 29.5174 145.256 31.9596C144.482 34.2481 144.914 35.8868 145.771 38.1454C146.628 40.4039 147.856 41.9893 149.895 43.3002C157.111 47.9395 162.266 49.4859 169.483 53.0943L169.485 53.095C176.385 56.545 180.824 58.7645 188.556 58.7645C191.739 58.7645 193.747 58.2491 196.288 55.6717C198.256 53.6749 199.032 51.7694 198.865 48.9704C198.721 46.5423 197.98 45.0475 196.288 43.3002C193.806 40.7377 191.133 41.2382 187.525 40.7228C179.773 39.6154 175.579 37.7801 168.452 34.537C163.202 32.1481 161.235 28.8668 155.565 27.3203C153.429 26.7377 152.472 26.8049 149.895 27.3203Z" fill="#BC875C"/>
</g>

</svg>
