<?xml version="1.0" encoding="UTF-8"?>
<svg width="100" height="100" viewBox="0 0 220 222.198" fill="none" xmlns="http://www.w3.org/2000/svg" preserveAspectRatio="xMidYMid meet">
<g id="Group 19">
<rect id="Rectangle 415" x="142.551" y="130.763" width="73.6226" height="19.7792" transform="rotate(45 142.551 130.763)" fill="#4C4C4C"/>
<circle id="Ellipse 52" cx="85.1605" cy="85.1605" r="85.1605" fill="#262626"/>
<rect id="Rectangle 416" x="166.322" y="147.245" width="75.9121" height="30.0866" rx="5.49422" transform="rotate(45 166.322 147.245)" fill="#262626"/>
<path id="Vector 57" d="M41.1143 61.9669C38.4957 74.1931 47.8925 80.3927 50.0792 92.7035C51.3992 100.136 49.4026 104.909 52.2136 111.914C56.3404 122.198 61.1971 131.887 72.2779 131.978C78.1907 132.027 80.6106 127.787 86.3655 126.429C95.614 124.245 101.607 129.194 110.699 126.429C117.267 124.431 121.887 123.337 126.067 117.891C131.006 111.455 129.635 105.511 129.482 97.3994C129.345 90.109 130.786 84.6014 126.067 79.0428C120.227 72.1635 113.325 68.7268 105.576 64.1014C93.0277 56.6109 99.1297 48.1651 86.3655 41.0489C77.5695 36.1449 70.2659 34.7594 60.7516 38.0606C49.3373 42.021 43.6446 50.1529 41.1143 61.9669Z" fill="white"/>
<circle id="Ellipse 53" cx="86.2595" cy="93.9512" r="19.2298" fill="#FFB81C"/>
</g>

</svg>
