<svg width="100" height="100" viewBox="0 0 200 208.205" fill="none" xmlns="http://www.w3.org/2000/svg" preserveAspectRatio="xMidYMid meet">
<g id="Group 36">
<mask id="mask0_0_1" style="mask-type:alpha" maskUnits="userSpaceOnUse" x="0" y="6" width="200" height="203">
<path id="Vector" fill-rule="evenodd" clip-rule="evenodd" d="M0 6.15385H200V208.205H0V6.15385ZM32.8205 36.9231C39.0514 36.9231 44.1026 31.8719 44.1026 25.641C44.1026 19.4101 39.0514 14.359 32.8205 14.359C26.5896 14.359 21.5385 19.4101 21.5385 25.641C21.5385 31.8719 26.5896 36.9231 32.8205 36.9231ZM179.487 25.641C179.487 31.8719 174.436 36.9231 168.205 36.9231C161.974 36.9231 156.923 31.8719 156.923 25.641C156.923 19.4101 161.974 14.359 168.205 14.359C174.436 14.359 179.487 19.4101 179.487 25.641Z" fill="white"/>
</mask>
<g mask="url(#mask0_0_1)">
<rect id="Rectangle 454" y="6.15381" width="200" height="202.051" fill="url(#paint0_linear_0_1)"/>
<rect id="Rectangle 455" x="-16.4102" y="-1.0257" width="228.718" height="92.3077" fill="#FE5252"/>
<path id="17" d="M79.8902 141.333C79.8902 141.538 79.8902 141.778 79.8902 142.051C79.9586 142.256 79.9928 142.462 79.9928 142.667C79.9928 143.077 79.9586 143.487 79.8902 143.897C79.8219 144.308 79.7877 144.752 79.7877 145.231C79.7877 145.983 79.8561 146.735 79.9928 147.487C80.1979 148.171 80.3005 148.889 80.3005 149.641C80.3005 152.034 80.4031 154.393 80.6082 156.718C80.8133 158.974 80.9159 161.299 80.9159 163.692C80.9159 164.444 80.8817 165.026 80.8133 165.436C80.7449 165.846 80.6082 166.188 80.4031 166.462C80.1979 166.735 79.9244 167.009 79.5826 167.282C79.2407 167.487 78.7962 167.829 78.2492 168.308C77.9073 168.376 77.5996 168.444 77.3261 168.513C77.121 168.581 76.8475 168.615 76.5056 168.615C76.1638 168.615 75.7877 168.513 75.3774 168.308C75.0355 168.103 74.6937 167.897 74.3518 167.692L73.5313 166.667C73.2578 165.641 73.0185 164.615 72.8133 163.59C72.6082 162.564 72.5056 161.504 72.5056 160.41C72.5056 159.043 72.4031 157.675 72.1979 156.308C72.1296 156.103 72.0954 155.726 72.0954 155.179C72.0954 154.632 72.1296 154.085 72.1979 153.538C72.3347 152.991 72.4031 152.444 72.4031 151.897C72.4031 150.94 72.4031 150.051 72.4031 149.231C72.4714 148.342 72.6424 147.419 72.9159 146.462C72.5056 145.846 72.3005 145.162 72.3005 144.41C72.3005 143.932 72.4031 143.316 72.6082 142.564C72.8133 141.812 72.9843 141.197 73.121 140.718L73.0185 140.205C72.8817 140.137 72.7791 139.897 72.7108 139.487C72.6424 139.009 72.574 138.496 72.5056 137.949C72.4373 137.402 72.3689 136.889 72.3005 136.41C72.3005 135.932 72.3005 135.59 72.3005 135.385C72.3005 134.427 72.3689 133.504 72.5056 132.615C72.6424 131.726 72.7108 130.803 72.7108 129.846C72.7108 129.231 72.6082 128.65 72.4031 128.103C72.2663 127.487 72.1979 126.872 72.1979 126.256C72.1979 125.709 72.3347 125.197 72.6082 124.718C72.8817 124.239 73.0185 123.726 73.0185 123.179C73.0185 122.769 72.9159 122.393 72.7108 122.051C72.574 121.641 72.5056 121.231 72.5056 120.82C72.5056 120.479 72.574 120.171 72.7108 119.897C72.8475 119.556 72.9843 119.248 73.121 118.974V118.564L72.9159 118.256C72.7108 117.983 72.6082 117.607 72.6082 117.128C72.6082 116.855 72.6766 116.444 72.8133 115.897C72.9501 115.35 73.121 114.803 73.3261 114.256C73.5313 113.641 73.7364 113.094 73.9415 112.615C74.1467 112.068 74.3518 111.726 74.5569 111.59C74.8304 111.385 75.1381 111.248 75.48 111.179C75.8902 111.111 76.1638 110.906 76.3005 110.564C77.121 110.769 77.7364 111.145 78.1467 111.692C78.5569 112.171 78.8646 112.752 79.0697 113.436C79.2749 114.12 79.4116 114.838 79.48 115.59C79.5484 116.342 79.6167 117.06 79.6851 117.744C79.5484 118.085 79.5484 118.393 79.6851 118.667C79.8219 118.872 79.8902 119.145 79.8902 119.487C79.8902 119.829 79.8561 120.205 79.7877 120.615C79.7877 121.026 79.7877 121.402 79.7877 121.744C79.7877 122.085 79.8219 122.427 79.8902 122.769C79.9586 123.111 79.9928 123.453 79.9928 123.795C79.9928 124.41 79.9586 125.026 79.8902 125.641C79.8219 126.188 79.7877 126.735 79.7877 127.282C79.7877 128.718 79.8561 130.154 79.9928 131.59C80.1296 133.026 80.1979 134.462 80.1979 135.897C80.1979 136.786 80.1638 137.641 80.0954 138.462C80.027 139.282 79.9586 140.103 79.8902 140.923L79.1723 141.231L79.8902 141.436V141.333ZM103.525 119.897C102.294 120.65 100.961 121.162 99.5249 121.436C98.1573 121.641 96.8582 122.085 95.6274 122.769C95.012 123.248 94.3625 123.624 93.6787 123.897C92.9949 124.103 92.3112 124.376 91.6274 124.718L90.4992 124.41L88.6531 126.154C88.1061 126.291 87.5932 126.462 87.1146 126.667C86.636 126.803 86.1232 126.872 85.5761 126.872H85.371C84.824 126.53 84.4821 126.188 84.3454 125.846C84.2086 125.504 84.0719 125.06 83.9351 124.513L84.4479 122.564C85.1317 121.675 86.2257 120.684 87.73 119.59C89.2343 118.427 90.8411 117.367 92.5505 116.41C94.3283 115.453 96.0719 114.632 97.7813 113.949C99.4907 113.265 100.927 112.923 102.089 112.923H102.499L102.602 113.026C103.286 112.684 104.174 112.376 105.268 112.103C106.362 111.761 107.491 111.487 108.653 111.282C109.884 111.077 111.046 110.906 112.14 110.769C113.303 110.632 114.294 110.564 115.115 110.564C115.867 110.564 116.619 110.598 117.371 110.667C118.192 110.735 118.978 110.769 119.73 110.769C119.935 110.769 120.14 110.769 120.345 110.769C120.619 110.769 120.824 110.701 120.961 110.564C122.397 111.111 123.525 111.59 124.345 112C125.234 112.41 125.952 112.889 126.499 113.436C127.115 113.983 127.662 114.667 128.14 115.487C128.619 116.308 129.2 117.402 129.884 118.769V119.385C129.884 120.752 129.781 122.427 129.576 124.41C129.371 126.325 128.961 127.897 128.345 129.128C128.14 129.538 127.969 129.949 127.833 130.359C127.696 130.701 127.627 131.111 127.627 131.59C127.559 132.547 127.354 133.641 127.012 134.872C126.67 136.103 126.294 137.367 125.884 138.667C125.474 139.966 125.029 141.231 124.551 142.462C124.072 143.624 123.627 144.65 123.217 145.538C123.08 145.88 123.012 146.291 123.012 146.769C123.012 147.179 122.875 147.556 122.602 147.897C121.918 149.538 121.2 151.179 120.448 152.82C119.696 154.393 119.046 156.068 118.499 157.846C118.226 158.667 117.85 159.692 117.371 160.923C116.892 162.154 116.277 163.35 115.525 164.513C114.841 165.607 114.055 166.564 113.166 167.385C112.277 168.205 111.32 168.615 110.294 168.615C109.952 168.615 109.61 168.581 109.268 168.513C108.995 168.376 108.687 168.273 108.345 168.205L107.32 167.282C107.115 166.462 107.012 165.675 107.012 164.923C107.012 163.556 107.251 162.222 107.73 160.923C108.277 159.556 108.995 158.325 109.884 157.231C110.157 155.932 110.533 154.701 111.012 153.538C111.491 152.376 112.038 151.248 112.653 150.154L114.704 149.949L113.371 147.795H106.089L105.371 147.179C105.029 147.179 104.756 147.316 104.551 147.59C104.414 147.795 104.243 148 104.038 148.205C103.08 148.205 102.123 148.273 101.166 148.41C100.209 148.547 99.2514 148.615 98.2941 148.615C97.1317 148.615 96.0035 148.273 94.9095 147.59C93.8838 146.906 93.371 145.88 93.371 144.513C93.371 143.897 93.4394 143.248 93.5761 142.564C93.7813 141.88 94.1573 141.333 94.7043 140.923L95.6274 141.333L96.1402 140.41C99.6958 139.59 103.354 139.179 107.115 139.179C107.593 139.179 107.935 139.214 108.14 139.282C108.414 139.35 108.756 139.214 109.166 138.872C110.123 139.145 110.978 139.316 111.73 139.385C112.551 139.453 113.303 139.761 113.986 140.308V140.513L113.781 140.923C113.986 141.197 114.123 141.402 114.192 141.538C114.26 141.607 114.465 141.709 114.807 141.846C115.764 141.094 116.345 140.205 116.551 139.179C116.824 138.085 117.303 137.094 117.986 136.205C117.918 135.59 117.952 135.009 118.089 134.462C118.294 133.846 118.499 133.265 118.704 132.718C118.909 132.171 119.115 131.658 119.32 131.179C119.593 130.632 119.798 130.051 119.935 129.436C120.072 128.889 120.106 128.376 120.038 127.897C120.038 127.35 120.106 126.803 120.243 126.256C120.38 125.573 120.585 124.923 120.858 124.308C121.2 123.692 121.371 123.009 121.371 122.256C121.371 121.436 121.166 120.855 120.756 120.513C120.414 120.103 120.003 119.795 119.525 119.59C119.115 119.385 118.67 119.248 118.192 119.179C117.713 119.043 117.371 118.803 117.166 118.462C116.756 118.803 116.14 119.009 115.32 119.077C114.499 119.145 113.61 119.179 112.653 119.179C111.764 119.179 110.978 119.179 110.294 119.179C109.61 119.179 108.961 119.214 108.345 119.282C107.73 119.35 107.08 119.487 106.397 119.692C105.713 119.829 104.927 120.034 104.038 120.308L103.525 119.897Z" fill="#262626"/>
<path id="July" d="M30.6051 58.0769C30.5504 58.5966 30.482 59.1299 30.3999 59.6769C30.3179 60.1966 30.2495 60.7436 30.1948 61.3179C30.1948 61.5641 30.1538 61.8102 30.0717 62.0564C29.9076 62.4119 29.8119 62.7948 29.7845 63.2051C29.7572 63.588 29.7162 63.9846 29.6615 64.3948C29.5794 64.641 29.4837 64.8735 29.3743 65.0923C29.3196 65.2017 29.2649 65.3384 29.2102 65.5025C29.1555 65.6393 29.1281 65.776 29.1281 65.9128C29.0461 66.4325 28.9367 66.9658 28.7999 67.5128C28.6905 68.0325 28.4991 68.5248 28.2256 68.9897C28.1709 69.0718 28.0751 69.1401 27.9384 69.1948C27.829 69.2495 27.7333 69.3316 27.6512 69.441C27.3504 69.8513 27.0495 70.3162 26.7486 70.8359C26.4751 71.3555 26.1606 71.8068 25.8051 72.1897C24.6837 73.3931 23.4392 74.2137 22.0717 74.6513C21.388 74.8701 20.5401 75.0068 19.5281 75.0615C18.5435 75.1162 17.6273 75.0478 16.7794 74.8564C16.3145 74.7196 15.9179 74.4735 15.5897 74.1179C15.5897 74.1179 15.535 74.0906 15.4256 74.0359C15.0974 73.6803 14.8786 73.2427 14.7692 72.7231C14.7418 72.5042 14.8102 72.3128 14.9743 72.1487C15.1384 71.9572 15.3298 71.8752 15.5486 71.9025C17.8734 72.0393 19.8016 71.547 21.3333 70.4256C22.8649 69.3042 24.0273 67.7589 24.8204 65.7897C25.641 63.7931 26.1196 61.5914 26.2563 59.1846C26.311 58.5555 26.4341 57.8854 26.6256 57.1743C26.8444 56.4359 26.9948 55.7384 27.0768 55.082V54.6718C27.0495 54.3983 27.1315 54.1931 27.323 54.0564C27.5418 53.8923 27.788 53.8513 28.0615 53.9333C28.4717 54.0974 28.8273 54.3162 29.1281 54.5897C29.4563 54.8632 29.7435 55.1641 29.9897 55.4923C30.1264 55.6837 30.2358 55.8889 30.3179 56.1077C30.3999 56.3265 30.4546 56.5589 30.482 56.8051C30.482 56.8872 30.4957 56.9692 30.523 57.0513C30.5777 57.188 30.6187 57.3521 30.6461 57.5436C30.6734 57.7077 30.6598 57.8854 30.6051 58.0769ZM50.8249 73.5436C50.8523 73.8444 50.7976 74.0085 50.6608 74.0359C50.5241 74.0359 50.3326 74.0085 50.0865 73.9538C49.7583 73.9265 49.4574 73.8991 49.1839 73.8718C48.9377 73.8171 48.6642 73.6803 48.3634 73.4615C48.0078 73.2154 47.7206 72.9008 47.5018 72.5179C47.3924 72.2991 47.2283 72.176 47.0095 72.1487C46.7907 72.1213 46.5856 72.176 46.3942 72.3128C46.2574 72.4495 46.1207 72.5863 45.9839 72.7231C45.8471 72.8325 45.6967 72.9555 45.5326 73.0923C45.095 73.5572 44.5754 73.9812 43.9736 74.3641C43.3719 74.7196 42.6745 75.0068 41.8813 75.2256C41.5805 75.3077 41.2112 75.3213 40.7736 75.2666C40.5001 75.1846 40.2403 75.1025 39.9942 75.0205C39.748 74.9384 39.5155 74.8974 39.2967 74.8974C39.1053 74.8974 38.9275 74.8701 38.7634 74.8154C38.5993 74.7607 38.4489 74.706 38.3121 74.6513C37.3548 74.1316 36.6027 73.3111 36.0557 72.1897C35.536 71.041 35.2078 69.7829 35.0711 68.4154C34.9617 67.0478 35.0437 65.776 35.3172 64.6C35.3993 64.2991 35.5497 64.0666 35.7685 63.9025C36.0147 63.7384 36.2745 63.6564 36.548 63.6564C36.7121 63.6564 36.8762 63.6701 37.0403 63.6974C37.2044 63.7248 37.3822 63.7931 37.5736 63.9025C37.7651 64.0119 37.9839 64.135 38.2301 64.2718C38.4762 64.4085 38.654 64.5589 38.7634 64.7231C38.9548 64.9692 39.0095 65.2154 38.9275 65.4615C38.8454 65.7077 38.7907 65.9675 38.7634 66.241C38.7634 66.4325 38.7497 66.706 38.7224 67.0615C38.7224 67.3897 38.7224 67.6632 38.7224 67.882C38.7224 68.3196 38.736 68.7572 38.7634 69.1948C38.7907 69.6051 38.8591 70.0154 38.9685 70.4256C39.0779 70.9179 39.2967 71.3692 39.6249 71.7795C39.6796 71.8068 39.707 71.8342 39.707 71.8615C39.707 71.8615 39.7207 71.8752 39.748 71.9025C39.9395 72.094 40.1993 72.2034 40.5275 72.2307C40.883 72.2307 41.1702 72.176 41.389 72.0666C42.0454 71.8205 42.5788 71.5196 42.989 71.1641C43.536 70.6991 43.9873 70.1795 44.3429 69.6051C44.6984 69.0307 45.095 68.4837 45.5326 67.9641C45.8608 67.6085 46.1207 67.2256 46.3121 66.8154C46.5309 66.4051 46.7497 66.0359 46.9685 65.7077C47.1326 65.4889 47.3514 65.3384 47.6249 65.2564C47.8984 65.147 48.1583 65.1607 48.4044 65.2974C48.842 65.4889 49.1429 65.7624 49.307 66.1179C49.4984 66.4461 49.5258 66.8974 49.389 67.4718C49.307 67.882 49.2659 68.2923 49.2659 68.7025C49.2933 69.1128 49.2796 69.5231 49.2249 69.9333C49.1976 70.2068 49.1702 70.5077 49.1429 70.8359C49.1429 71.1367 49.2386 71.4102 49.4301 71.6564C49.5121 71.7384 49.5942 71.8068 49.6762 71.8615C49.7856 71.9162 49.8813 71.9846 49.9634 72.0666C50.0181 72.176 50.0728 72.2444 50.1275 72.2718C50.1822 72.2991 50.2369 72.3538 50.2916 72.4359C50.4557 72.5453 50.5788 72.7094 50.6608 72.9282C50.7702 73.1196 50.8249 73.3248 50.8249 73.5436ZM61.898 57.8307C61.6792 58.9521 61.392 60.2649 61.0365 61.7692C60.6809 63.2735 60.3254 64.8051 59.9698 66.3641C59.6142 67.9231 59.286 69.4 58.9852 70.7948C58.7117 72.1624 58.5202 73.2837 58.4108 74.1589C58.3835 74.5419 58.233 74.9248 57.9595 75.3077C57.686 75.7179 57.3305 75.8547 56.8929 75.7179C56.7835 75.6906 56.6877 75.6495 56.6057 75.5948C56.5236 75.5675 56.4279 75.5401 56.3185 75.5128C55.7989 75.3213 55.457 74.9384 55.2929 74.3641C55.2655 74.3094 55.2382 74.241 55.2108 74.1589C55.2108 74.0769 55.1835 73.9948 55.1288 73.9128C54.9373 73.4752 54.91 72.9829 55.0467 72.4359C55.3202 71.2872 55.6348 69.906 55.9903 68.2923C56.3459 66.6786 56.7151 65.0102 57.098 63.2872C57.4809 61.5367 57.8501 59.8684 58.2057 58.282C58.5886 56.6957 58.9305 55.3419 59.2313 54.2205C59.3134 53.9743 59.4501 53.7419 59.6416 53.5231C59.833 53.3042 60.0655 53.1812 60.339 53.1538C61.2963 52.9897 61.9254 53.2906 62.2262 54.0564C62.5544 54.7948 62.445 56.053 61.898 57.8307ZM82.4567 65.7077C82.4293 65.7897 82.3062 66.0222 82.0874 66.4051C81.896 66.788 81.6498 67.0752 81.349 67.2666C81.0755 67.4034 80.8567 67.6085 80.6926 67.882C79.7626 69.1401 78.7096 70.3025 77.5336 71.3692C76.3849 72.4085 75.3045 73.5709 74.2926 74.8564C74.2105 74.9111 74.1284 74.9931 74.0464 75.1025C73.9643 75.1846 73.8686 75.253 73.7592 75.3077C72.9387 75.8547 72.2276 76.4974 71.6259 77.2359C71.0515 78.0017 70.4772 78.7675 69.9028 79.5333C69.3558 80.2991 68.6857 80.9829 67.8926 81.5846C67.4276 81.8581 66.9763 81.9948 66.5387 81.9948C66.0464 82.0769 65.6225 81.9812 65.2669 81.7077C65.0755 81.5709 64.9524 81.3658 64.8977 81.0923C64.843 80.8461 64.8977 80.6273 65.0618 80.4359C65.6908 79.588 66.3473 78.7538 67.031 77.9333C67.7421 77.1401 68.4396 76.347 69.1233 75.5538C69.4789 75.1436 69.8344 74.7333 70.19 74.3231C70.5729 73.9128 70.9421 73.5025 71.2977 73.0923C71.4344 72.9555 71.5438 72.8051 71.6259 72.641C71.7353 72.4495 71.872 72.2991 72.0361 72.1897C72.1729 72.0256 72.3233 71.8889 72.4874 71.7795C72.6789 71.6701 72.8567 71.5607 73.0208 71.4513C73.2669 71.2325 73.4857 70.9863 73.6772 70.7128C73.896 70.4119 74.1148 70.1248 74.3336 69.8513C74.5524 69.6051 74.7849 69.3863 75.031 69.1948C75.3045 68.976 75.5643 68.7436 75.8105 68.4974C76.0567 68.2239 76.2755 67.9504 76.4669 67.6769C76.6584 67.376 76.8498 67.1025 77.0413 66.8564C77.4515 66.3367 77.8481 65.8171 78.231 65.2974C78.6139 64.7504 79.0105 64.2581 79.4208 63.8205C79.8584 63.3282 80.3643 63.1914 80.9387 63.4102C81.431 63.547 81.8413 63.8068 82.1695 64.1897C82.4977 64.5453 82.5934 65.0513 82.4567 65.7077ZM72.5284 70.4666C72.419 70.7948 72.2139 71.0273 71.9131 71.1641C71.8037 71.1914 71.6396 71.2461 71.4208 71.3282C71.2293 71.4102 71.0789 71.4513 70.9695 71.4513C70.696 71.3966 70.4908 71.2188 70.3541 70.9179C70.2447 70.6171 70.1353 70.3709 70.0259 70.1795C69.8344 69.8786 69.6567 69.5778 69.4926 69.2769C69.3284 68.976 69.1507 68.6752 68.9592 68.3743C68.6037 67.8273 68.2481 67.253 67.8926 66.6513C67.537 66.0495 67.2088 65.4342 66.9079 64.8051C66.7985 64.6137 66.6891 64.4222 66.5797 64.2307C66.4977 64.0393 66.5524 63.8478 66.7438 63.6564C66.9079 63.5196 67.0994 63.4513 67.3182 63.4513C67.5643 63.4239 67.7832 63.4376 67.9746 63.4923C68.1114 63.547 68.2071 63.629 68.2618 63.7384C68.3438 63.8478 68.4396 63.9436 68.549 64.0256C68.6857 64.1077 68.8088 64.176 68.9182 64.2307C69.0276 64.2854 69.137 64.3538 69.2464 64.4359C69.5199 64.6273 69.7661 64.8598 69.9849 65.1333C70.2037 65.4068 70.4088 65.6803 70.6002 65.9538C70.9011 66.3641 71.1609 66.8017 71.3797 67.2666C71.6259 67.7042 71.872 68.1419 72.1182 68.5795C72.2823 68.853 72.4327 69.1675 72.5695 69.5231C72.7336 69.8786 72.7199 70.1931 72.5284 70.4666Z" fill="white"/>
</g>
</g>
<defs>
<linearGradient id="paint0_linear_0_1" x1="100" y1="6.15381" x2="100" y2="208.205" gradientUnits="userSpaceOnUse">
<stop offset="0.394231" stop-color="white"/>
<stop offset="1" stop-color="#E5E5E5"/>
</linearGradient>
</defs>
</svg>
