<svg width="100" height="100" viewBox="0 0 220 216.40646362304688" fill="none" xmlns="http://www.w3.org/2000/svg" preserveAspectRatio="xMidYMid meet">
<g id="Group 40">
<mask id="mask0_0_1" style="mask-type:alpha" maskUnits="userSpaceOnUse" x="0" y="0" width="220" height="217">
<path id="Vector 90" d="M27.2911 35.9379V50.419L25.0633 52.0898L13.9241 50.9759L0 64.343C0 64.343 5.35724 75.3636 10.5823 81.0519C17.0313 88.0726 30.6329 94.9759 30.6329 94.9759L43.443 83.2797V73.2544L47.3418 71.0266C47.3418 71.0266 54.2762 74.2129 59.038 74.9253C63.1251 75.5367 69.6203 74.9253 69.6203 74.9253L197.165 216.394C197.165 216.394 208.771 216.838 213.873 212.495C219.635 207.591 220 194.115 220 194.115L84.6582 59.3303C84.6582 59.3303 85.6677 51.42 84.6582 46.5202C83.0248 38.5921 74.076 28.6974 74.076 28.6974C74.076 28.6974 80.9745 21.1845 86.3291 17.5582C97.4382 10.0348 119.19 7.53288 119.19 7.53288V3.07718C119.19 3.07718 99.1297 -1.12601 86.3291 0.29237C73.884 1.67136 66.6775 3.7446 55.6962 9.76073C42.4665 17.0086 27.2911 35.9379 27.2911 35.9379Z" fill="url(#paint0_linear_0_1)"/>
</mask>
<g mask="url(#mask0_0_1)">
<path id="Vector 91" d="M27.2911 35.9379V50.419L25.0633 52.0898L13.9241 50.9759L0 64.343C0 64.343 5.35724 75.3636 10.5823 81.0519C17.0313 88.0726 30.6329 94.9759 30.6329 94.9759L43.443 83.2797V73.2544L47.3418 71.0266C47.3418 71.0266 54.2762 74.2129 59.038 74.9253C63.1251 75.5367 69.6203 74.9253 69.6203 74.9253L197.165 216.394C197.165 216.394 208.771 216.838 213.873 212.495C219.635 207.591 220 194.115 220 194.115L84.6582 59.3303C84.6582 59.3303 85.6677 51.42 84.6582 46.5202C83.0248 38.5921 74.076 28.6974 74.076 28.6974C74.076 28.6974 80.9745 21.1845 86.3291 17.5582C97.4382 10.0348 119.19 7.53288 119.19 7.53288V3.07718C119.19 3.07718 99.1297 -1.12601 86.3291 0.29237C73.884 1.67136 66.6775 3.7446 55.6962 9.76073C42.4665 17.0086 27.2911 35.9379 27.2911 35.9379Z" fill="url(#paint1_linear_0_1)"/>
<path id="Rectangle 460" d="M13.5078 50.4189C13.5078 50.4189 19.8847 62.3959 25.6206 68.7986C31.963 75.8784 44.5968 84.0406 44.5968 84.0406L18.8364 107.86L-12.2526 74.2388L13.5078 50.4189Z" fill="url(#paint2_linear_0_1)"/>
<rect id="Rectangle 462" x="93.5693" y="129.577" width="56.8101" height="41.2152" transform="rotate(-45 93.5693 129.577)" fill="url(#paint3_linear_0_1)"/>
<path id="Rectangle 461" d="M94.9229 167.743C94.9229 167.743 127.878 151.576 144.253 136.191C160.633 120.802 178.54 89.1804 178.54 89.1804L262.805 178.867L179.187 257.429L94.9229 167.743Z" fill="#262626"/>
</g>
</g>
<defs>
<linearGradient id="paint0_linear_0_1" x1="37.3164" y1="24.7987" x2="220.557" y2="220.292" gradientUnits="userSpaceOnUse">
<stop stop-color="#D9D9D9"/>
<stop offset="1" stop-color="#737373"/>
</linearGradient>
<linearGradient id="paint1_linear_0_1" x1="37.3164" y1="24.7987" x2="220.557" y2="220.292" gradientUnits="userSpaceOnUse">
<stop stop-color="#D9D9D9"/>
<stop offset="1" stop-color="#737373"/>
</linearGradient>
<linearGradient id="paint2_linear_0_1" x1="0.627617" y1="62.3288" x2="31.7166" y2="95.9505" gradientUnits="userSpaceOnUse">
<stop stop-color="#F6F6F6"/>
<stop offset="1" stop-color="#9F9F9F"/>
</linearGradient>
<linearGradient id="paint3_linear_0_1" x1="125.125" y1="183.877" x2="126.7" y2="114.562" gradientUnits="userSpaceOnUse">
<stop stop-color="#D9D9D9"/>
<stop offset="0.716346" stop-color="#B0B0B0" stop-opacity="0"/>
</linearGradient>
</defs>
</svg>