<svg width="100" height="100" viewBox="81 83 200 200" fill="none" xmlns="http://www.w3.org/2000/svg" preserveAspectRatio="xMidYMid meet">
<g id="Scene 4, Q 3">

<path id="Vector 67" d="M162.5 110.5C162.5 110.5 164.371 102.767 167.5 99C172.759 92.6678 178.332 91.021 186.5 90C194.5 89 199.423 88.4836 207.5 88C213.152 87.6616 222 88 222 88" stroke="black" stroke-width="2"/>
<rect id="Rectangle 440" x="97" y="150" width="130" height="132" fill="url(#paint0_linear_0_1)"/>
<path id="Rectangle 441" d="M227 150H266V261L227 282V150Z" fill="url(#paint1_linear_0_1)"/>
<rect id="Rectangle 438" x="81" y="108" width="156" height="50" fill="#BC875C"/>
<path id="Rectangle 439" d="M237 108C237 108 251.455 107.565 260 110.5C269.221 113.667 281 124 281 124V158H237V108Z" fill="#936845"/>
<path id="Ellipse 56" d="M223.5 86.5C223.5 88.3728 223.643 89.7819 219.251 89.7819C214.86 89.7819 206 89.8728 206 88C206 86.1272 210.09 83 214.481 83C218.872 83 223.5 84.6272 223.5 86.5Z" fill="black"/>
</g>
<defs>
<linearGradient id="paint0_linear_0_1" x1="162" y1="150" x2="162" y2="282" gradientUnits="userSpaceOnUse">
<stop stop-color="#936845"/>
<stop offset="1" stop-color="#BC875C"/>
</linearGradient>
<linearGradient id="paint1_linear_0_1" x1="246.5" y1="150" x2="246.5" y2="282" gradientUnits="userSpaceOnUse">
<stop stop-color="#7E5838"/>
<stop offset="1" stop-color="#936845"/>
</linearGradient>
</defs>
</svg>
