<svg width="100" height="100" viewBox="0 0 220 144.518" fill="none" xmlns="http://www.w3.org/2000/svg" preserveAspectRatio="xMidYMid meet">
<g id="Group 35">
<path id="Vector 88" d="M51.8936 2.7901C51.8936 2.7901 59.4412 7.01617 63.6113 10.6019C66.1815 12.812 69.7491 16.7397 69.7491 16.7397L68.0751 22.3196" stroke="#8D8D8D" stroke-width="5.57986"/>
<path id="Vector 89" d="M51.8936 2.7901C51.8936 2.7901 62.1623 3.7479 68.6331 5.02204C73.9223 6.06351 82.0248 8.36996 82.0248 8.36996" stroke="#262626" stroke-width="5.57986" stroke-linecap="round"/>
<g id="Group 34">
<path id="Vector 76" d="M15.0664 78.1182L42.4077 98.7637L21.2042 70.8644" stroke="#262626" stroke-width="1.11597"/>
<path id="Vector 79" d="M21.9692 133.883L43.5233 103.786L13.9438 127.469" stroke="#262626" stroke-width="1.11597"/>
<path id="Vector 80" d="M50.1455 140.672L46.0858 106.017L40.5337 140.994" stroke="#262626" stroke-width="1.11597"/>
<path id="Vector 83" d="M76.2936 125.546L47.9878 105.145L70.0422 132.854" stroke="#262626" stroke-width="1.11597"/>
<path id="Vector 78" d="M6.45353 106.854L41.2355 102.21L5.51422 97.1247" stroke="#262626" stroke-width="1.11597"/>
<path id="Vector 77" d="M40.9687 62.3893L45.1189 97.0934L50.7113 61.2603" stroke="#262626" stroke-width="1.11597"/>
<path id="Vector 81" d="M69.1413 69.5686L46.871 98.0138L76.6776 76.172" stroke="#262626" stroke-width="1.11597"/>
<path id="Vector 82" d="M86.8939 99.3819L49.1033 101.674L86.2282 109.698" stroke="#262626" stroke-width="1.11597"/>
<circle id="Ellipse 69" cx="45.7548" cy="101.554" r="42.4069" stroke="#262626" stroke-width="6.69583"/>
<circle id="Ellipse 70" cx="45.7558" cy="101.554" r="40.7329" stroke="#858585" stroke-width="1.11597"/>
<circle id="Ellipse 71" cx="45.1972" cy="102.112" r="7.25381" fill="#20A8C8"/>
<circle id="Ellipse 72" cx="45.1972" cy="102.112" r="2.78993" fill="#262626"/>
</g>
<g id="Group 33">
<path id="Vector 76_2" d="M143.402 78.1182L170.744 98.7637L149.54 70.8644" stroke="#262626" stroke-width="1.11597"/>
<path id="Vector 79_2" d="M150.306 133.883L171.86 103.786L142.281 127.469" stroke="#262626" stroke-width="1.11597"/>
<path id="Vector 80_2" d="M178.481 140.672L174.422 106.017L168.87 140.994" stroke="#262626" stroke-width="1.11597"/>
<path id="Vector 83_2" d="M204.631 125.546L176.325 105.145L198.379 132.854" stroke="#262626" stroke-width="1.11597"/>
<path id="Vector 78_2" d="M134.79 106.854L169.572 102.21L133.851 97.1247" stroke="#262626" stroke-width="1.11597"/>
<path id="Vector 77_2" d="M169.306 62.3893L173.456 97.0934L179.048 61.2603" stroke="#262626" stroke-width="1.11597"/>
<path id="Vector 81_2" d="M197.478 69.5686L175.208 98.0138L205.015 76.172" stroke="#262626" stroke-width="1.11597"/>
<path id="Vector 82_2" d="M215.23 99.3819L177.439 101.674L214.564 109.698" stroke="#262626" stroke-width="1.11597"/>
<circle id="Ellipse 69_2" cx="174.092" cy="101.554" r="42.4069" stroke="#262626" stroke-width="6.69583"/>
<circle id="Ellipse 70_2" cx="174.092" cy="101.554" r="40.7329" stroke="#858585" stroke-width="1.11597"/>
<circle id="Ellipse 71_2" cx="173.534" cy="102.112" r="7.25381" fill="#20A8C8"/>
<circle id="Ellipse 72_2" cx="173.534" cy="102.112" r="2.78993" fill="#262626"/>
</g>
<path id="Rectangle 447" d="M130.545 30.7668L137.415 27.0476L176.153 98.3271L167.063 99.1225L130.545 30.7668Z" fill="url(#paint0_linear_0_1)"/>
<path id="Rectangle 448" d="M133.067 26.4325L140.675 28.2021L123.1 104.349L115.737 99.0482L133.067 26.4325Z" fill="#20A8C8"/>
<path id="Rectangle 450" d="M139.497 29.4742L136.707 37.9432L61.3791 37.9432L64.8728 29.0154L139.497 29.4742Z" fill="url(#paint1_linear_0_1)"/>
<path id="Rectangle 451" d="M166.305 98.6398C168.144 98.6534 169.628 100.148 169.628 101.988L169.628 103.647C169.628 105.496 168.129 106.995 166.28 106.995L111.144 106.995C109.295 106.995 107.796 105.496 107.796 103.647L107.796 101.578C107.796 99.7198 109.31 98.2169 111.169 98.2307L166.305 98.6398Z" fill="#20A8C8"/>
<path id="Vector 87" d="M127.779 16.7397C127.779 16.7397 129.453 21.7616 132.243 23.4356C135.033 25.1095 137.509 25.9679 141.171 25.1095C142.787 24.7308 144.46 24.0493 145.635 22.8776C146.81 21.7058 147.309 18.4137 147.309 18.4137" stroke="#262626" stroke-width="1.11597"/>
<rect id="Rectangle 452" x="131.686" y="14.5078" width="11.1597" height="14.5076" fill="#8D8D8D"/>
<path id="Vector 86" d="M118.851 11.718C112.155 13.9499 114.387 16.1818 114.387 16.1818L135.591 18.4138L153.446 20.0877C153.446 20.0877 158.83 17.0257 158.468 13.9499C158.297 12.4982 158.232 10.8635 156.794 10.602C150.656 9.48602 145.62 12.5867 138.381 12.8339C130.746 13.0947 125.547 9.48596 118.851 11.718Z" fill="#262626"/>
<path id="Rectangle 449" d="M59.4754 41.9478L65.4467 36.9112L118.818 99.9849L110.036 102.558L59.4754 41.9478Z" fill="url(#paint2_linear_0_1)"/>
<path id="Rectangle 446" d="M64.3808 21.084L71.9686 22.9412L52.4512 103.228L45.1975 97.6477L64.3808 21.084Z" fill="#20A8C8"/>
<circle id="Ellipse 73" cx="114.945" cy="102.67" r="8.92777" fill="#8D8D8D"/>
<circle id="Ellipse 74" cx="115.504" cy="103.228" r="16.1816" stroke="#262626" stroke-width="2.23194"/>
<path id="Vector 84" d="M116.062 118.851L174.092 108.807" stroke="#262626" stroke-width="1.11597"/>
<path id="Vector 85" d="M116.062 87.0459L174.092 95.9737" stroke="#262626" stroke-width="1.11597"/>
<circle id="Ellipse 73_2" cx="173.534" cy="102.112" r="7.25381" fill="#20A8C8"/>
<circle id="Ellipse 74_2" cx="173.534" cy="102.112" r="2.78993" fill="#262626"/>
</g>
<defs>
<linearGradient id="paint0_linear_0_1" x1="133.848" y1="28.9786" x2="172.472" y2="100.32" gradientUnits="userSpaceOnUse">
<stop stop-color="#3D8EA1"/>
<stop offset="0.625" stop-color="#20A8C8"/>
</linearGradient>
<linearGradient id="paint1_linear_0_1" x1="139.497" y1="33.4793" x2="61.3791" y2="33.4793" gradientUnits="userSpaceOnUse">
<stop offset="0.456731" stop-color="#20A8C8"/>
<stop offset="1" stop-color="#3D8EA1"/>
</linearGradient>
<linearGradient id="paint2_linear_0_1" x1="62.3464" y1="39.5262" x2="115.618" y2="102.684" gradientUnits="userSpaceOnUse">
<stop stop-color="#3D8EA1"/>
<stop offset="0.341346" stop-color="#20A8C8"/>
</linearGradient>
</defs>
</svg>
