<svg width="100" height="100" viewBox="0 0 195.21499633789062 187.98741149902344" fill="none" xmlns="http://www.w3.org/2000/svg" preserveAspectRatio="xMidYMid meet">
<g id="Group 41">
<path id="Rectangle 457" d="M0.470703 19.4874L73.4707 53.9874V187.987L0.470703 131.487V19.4874Z" fill="url(#paint0_linear_0_1)"/>
<path id="Rectangle 458" d="M194.471 30.4874L73.4707 53.9874V187.487L194.471 156.487V30.4874Z" fill="url(#paint1_linear_0_1)"/>
<path id="Rectangle 459" d="M105.971 3.48739L194.471 30.4874L73.283 53.9874L0.470112 19.4874L105.971 3.48739Z" fill="url(#paint2_linear_0_1)"/>
<ellipse id="Ellipse 75" cx="97.4707" cy="24.9874" rx="18" ry="5.5" fill="url(#paint3_linear_0_1)"/>
<ellipse id="Ellipse 76" cx="17.4707" cy="68.4874" rx="7" ry="17" fill="url(#paint4_linear_0_1)"/>
<ellipse id="Ellipse 77" cx="49.4707" cy="125.487" rx="7" ry="17" fill="url(#paint5_linear_0_1)"/>
<ellipse id="Ellipse 78" cx="172.971" cy="65.4874" rx="11.5" ry="14" fill="url(#paint6_linear_0_1)"/>
<ellipse id="Ellipse 79" cx="138.971" cy="106.487" rx="11.5" ry="14" fill="url(#paint7_linear_0_1)"/>
<ellipse id="Ellipse 80" cx="96.9707" cy="148.487" rx="11.5" ry="14" fill="url(#paint8_linear_0_1)"/>
</g>
<defs>
<linearGradient id="paint0_linear_0_1" x1="36.9707" y1="19.4874" x2="36.9707" y2="187.987" gradientUnits="userSpaceOnUse">
<stop stop-color="#F4F4F4"/>
<stop offset="1" stop-color="#B5B5B5"/>
</linearGradient>
<linearGradient id="paint1_linear_0_1" x1="133.971" y1="30.4874" x2="133.971" y2="187.487" gradientUnits="userSpaceOnUse">
<stop stop-color="#D9D9D9"/>
<stop offset="1" stop-color="#B0B0B0"/>
</linearGradient>
<linearGradient id="paint2_linear_0_1" x1="95.1157" y1="-33.7051" x2="99.8258" y2="84.18" gradientUnits="userSpaceOnUse">
<stop stop-color="white"/>
<stop offset="1" stop-color="#F4F4F4"/>
</linearGradient>
<linearGradient id="paint3_linear_0_1" x1="89.2533" y1="24.9874" x2="115.471" y2="24.9874" gradientUnits="userSpaceOnUse">
<stop stop-color="#262626"/>
<stop offset="1" stop-color="#8C8C8C"/>
</linearGradient>
<linearGradient id="paint4_linear_0_1" x1="17.4707" y1="51.4874" x2="17.4707" y2="85.4874" gradientUnits="userSpaceOnUse">
<stop stop-color="#262626"/>
<stop offset="1" stop-color="#8C8C8C"/>
</linearGradient>
<linearGradient id="paint5_linear_0_1" x1="49.4707" y1="108.487" x2="49.4707" y2="142.487" gradientUnits="userSpaceOnUse">
<stop stop-color="#262626"/>
<stop offset="1" stop-color="#8C8C8C"/>
</linearGradient>
<linearGradient id="paint6_linear_0_1" x1="172.971" y1="51.4874" x2="172.971" y2="79.4874" gradientUnits="userSpaceOnUse">
<stop stop-color="#262626"/>
<stop offset="1" stop-color="#8C8C8C"/>
</linearGradient>
<linearGradient id="paint7_linear_0_1" x1="138.971" y1="92.4874" x2="138.971" y2="120.487" gradientUnits="userSpaceOnUse">
<stop stop-color="#262626"/>
<stop offset="1" stop-color="#8C8C8C"/>
</linearGradient>
<linearGradient id="paint8_linear_0_1" x1="96.9707" y1="134.487" x2="96.9707" y2="162.487" gradientUnits="userSpaceOnUse">
<stop stop-color="#262626"/>
<stop offset="1" stop-color="#8C8C8C"/>
</linearGradient>
</defs>
</svg>