<svg width="100" height="100" viewBox="68 73 224 219" fill="none" xmlns="http://www.w3.org/2000/svg" preserveAspectRatio="xMidYMid meet">
<g id="Scene 2, Q 3">

<g id="Group 25">
<rect id="Rectangle 422" x="138.712" y="94.8672" width="28.258" height="114.379" rx="14.129" transform="rotate(-39.0067 138.712 94.8672)" fill="#E1A476"/>
<rect id="Rectangle 423" x="100.473" y="105.793" width="28.258" height="129.596" rx="14.129" transform="rotate(-40.7426 100.473 105.793)" fill="#E1A476"/>
<rect id="Rectangle 424" x="87.9604" y="145.941" width="28.258" height="129.596" rx="14.129" transform="rotate(-44.4805 87.9604 145.941)" fill="#E1A476"/>
<rect id="Rectangle 425" x="93.6138" y="200.273" width="28.258" height="106.074" rx="14.129" transform="rotate(-47.9708 93.6138 200.273)" fill="#E1A476"/>
<path id="Ellipse 54" d="M283.565 232.99C283.565 252.035 241.522 291.219 216.856 291.219C192.19 291.219 150.712 259.95 150.712 240.904C150.712 221.858 184.841 153.843 209.507 153.843C234.172 153.843 283.565 213.944 283.565 232.99Z" fill="#E1A476"/>
<path id="Vector 59" d="M232.685 162.323C228.321 160.623 223.64 154.973 223.64 154.973L258.691 235.816L283.566 232.99C283.566 232.99 283.67 227.131 283.566 223.379C283.349 215.626 282.819 211.289 281.87 203.592C280.608 193.362 278.702 187.806 277.347 177.587C276.85 173.841 276.196 171.755 276.216 167.976C276.25 161.654 277.648 158.157 279.608 152.147C281.478 146.414 283.312 143.494 285.827 138.013C287.763 133.795 291.62 131.86 290.915 127.272C290.584 125.123 289.985 123.903 288.654 122.184C286.235 119.062 283.527 118.151 279.608 117.661C275.086 117.096 272.537 118.032 268.302 119.357C263.098 120.986 260.387 122.749 256.43 126.141C252.472 129.533 250.581 132.771 249.08 138.013C247.561 143.32 249.852 146.682 249.08 152.147C248.765 154.376 248.859 155.741 247.95 157.8C246.435 161.227 244.687 161.608 241.165 162.888C237.839 164.097 235.984 163.607 232.685 162.323Z" fill="#E1A476"/>
<g id="Group 23">
<path id="Vector 61" d="M190.851 88.264C190.851 88.264 202.374 97.2221 207.811 104.659C213.463 112.391 218.552 126.707 218.552 126.707" stroke="#262626" stroke-width="5.65334"/>
<path id="Vector 62" d="M197.634 73C197.634 73 214.567 84.5928 222.555 94.2167C230.861 104.223 238.338 122.749 238.338 122.749" stroke="#262626" stroke-width="5.65334"/>
</g>
<g id="Group 24">
<path id="Vector 61_2" d="M119.69 245.37C119.69 245.37 107.19 237.834 100.914 231.092C94.388 224.081 87.6448 210.466 87.6448 210.466" stroke="#262626" stroke-width="5.65334"/>
<path id="Vector 62_2" d="M114.756 261.328C114.756 261.328 96.5735 251.815 87.5048 243.201C78.0759 234.246 68.4638 216.731 68.4638 216.731" stroke="#262626" stroke-width="5.65334"/>
</g>
</g>
<path id="Vector 63" d="M243.5 179.5L248 158C248 158 238.704 164.865 233.5 162.5C228 160 221 152 221 152L164 209.844L214.5 239C214.5 239 212.881 213.406 221 200.5C228.031 189.323 243.5 179.5 243.5 179.5Z" fill="url(#paint0_linear_0_1)"/>
<rect id="Rectangle 426" x="190.893" y="172.661" width="62.5561" height="69.1616" transform="rotate(33.5285 190.893 172.661)" fill="url(#paint1_linear_0_1)"/>
</g>
<defs>
<linearGradient id="paint0_linear_0_1" x1="199" y1="162.5" x2="257.5" y2="214.5" gradientUnits="userSpaceOnUse">
<stop offset="0.25" stop-color="#E1A476"/>
<stop offset="1" stop-color="#C78D61"/>
</linearGradient>
<linearGradient id="paint1_linear_0_1" x1="222.171" y1="172.661" x2="222.171" y2="241.822" gradientUnits="userSpaceOnUse">
<stop stop-color="#E1A476" stop-opacity="0"/>
<stop offset="0.495192" stop-color="#E1A476"/>
</linearGradient>
</defs>
</svg>
