<svg preserveAspectRatio="none" width="100%" height="100%" overflow="visible" style="display: block;" viewBox="0 0 97.3805 136.337" fill="none" xmlns="http://www.w3.org/2000/svg">
<g id="ARM 2">
<rect id="Rectangle 34" x="65.9532" y="25.4448" width="9.29318" height="35.3961" rx="1.55785" transform="rotate(120 65.9532 25.4448)" fill="white"/>
<rect id="Rectangle 35" x="57.1475" y="40.6695" width="9.29318" height="35.3961" rx="1.55785" transform="rotate(120 57.1475 40.6695)" fill="white"/>
<rect id="Rectangle 38" x="36.9687" y="34.6482" width="9.29318" height="17.7664" rx="1.55785" transform="rotate(-150 36.9687 34.6482)" fill="white"/>
<rect id="Rectangle 36" x="68.0731" y="38.7195" width="6.1499" height="20.4997" rx="1.55785" transform="rotate(120 68.0731 38.7195)" fill="url(#paint0_linear_0_4)"/>
<rect id="Rectangle 37" x="49.0085" y="43.1774" width="2.3233" height="20.6363" rx="1.16165" transform="rotate(-150 49.0085 43.1774)" fill="white"/>
<rect id="Rectangle 39" x="75.3037" y="35.2294" width="9.0005" height="1.03852" transform="rotate(120 75.3037 35.2294)" fill="white"/>
<rect id="Rectangle 40" x="77.7021" y="36.6141" width="9.0005" height="1.03852" transform="rotate(120 77.7021 36.6141)" fill="white"/>
<rect id="Rectangle 41" width="9.0005" height="1.03852" transform="matrix(0.5 -0.866025 -0.866025 -0.5 65.3513 52.4676)" fill="white"/>
<rect id="Rectangle 42" width="9.0005" height="1.03852" transform="matrix(0.5 -0.866025 -0.866025 -0.5 67.7496 53.8523)" fill="white"/>
<circle id="Ellipse 32" cx="67.2523" cy="41.8915" r="7.2357" transform="rotate(75 67.2523 41.8915)" fill="white"/>
<ellipse id="Ellipse 33" cx="67.2816" cy="42.0007" rx="4.86149" ry="4.74843" transform="rotate(75 67.2816 42.0007)" fill="#E7E7E7"/>
<circle id="Ellipse 34" cx="26.6092" cy="18.0153" r="13.1881" transform="rotate(120 26.6092 18.0153)" fill="white"/>
<path id="Rectangle 43" d="M94.9165 47.6463L93.6616 49.8198C93.6616 49.8198 88.4712 43.8686 84.1623 41.4373C80.0543 39.1195 72.676 37.7037 72.676 37.7037L75.0126 33.6565C75.0126 33.6565 82.662 34.5789 86.6171 37.1853C90.9714 40.0548 94.9165 47.6463 94.9165 47.6463Z" fill="white"/>
<path id="Rectangle 44" d="M86 63.0901L87.2549 60.9166C87.2549 60.9166 79.5058 59.3972 75.2458 56.8811C71.1846 54.4825 66.2693 48.8005 66.2693 48.8005L63.9326 52.8477C63.9326 52.8477 68.5561 59.0111 72.7909 61.1331C77.4531 63.4693 86 63.0901 86 63.0901Z" fill="white"/>
<rect id="Rectangle 45" x="15.6969" y="83.1971" width="14.9951" height="49.9178" transform="rotate(-15 15.6969 83.1971)" fill="white"/>
<rect id="Rectangle 46" y="43.0662" width="25.2799" height="49.9178" rx="5.15634" transform="rotate(-15 0 43.0662)" fill="white"/>
<ellipse id="Ellipse 35" cx="60.1888" cy="131.108" rx="31.0753" ry="5.22854" fill="white"/>
<rect id="Rectangle 463" x="14.2632" y="18.9064" width="9.88298" height="32.1658" rx="4.94149" transform="rotate(12.4936 14.2632 18.9064)" fill="white"/>
</g>
<defs>
<linearGradient id="paint0_linear_0_4" x1="71.148" y1="38.7195" x2="71.148" y2="59.2191" gradientUnits="userSpaceOnUse">
<stop stop-color="#E7E7E7"/>
<stop offset="0.5" stop-color="white"/>
</linearGradient>
</defs>
</svg>
