<svg width="1417" height="1095" viewBox="0 0 1417 1095" fill="none" xmlns="http://www.w3.org/2000/svg">
<g id="Boy Variation 1" clip-path="url(#clip0_0_1)">
<path id="Vector" d="M490.049 233.805C548.263 132.927 711.323 106.952 795.16 188.487C828.343 220.76 851.833 254.434 863.789 299.505C878.906 355.64 871.053 415.483 841.959 465.818C824.558 495.574 796.121 525.736 767.761 545.525C763.242 548.678 754.31 554.223 749.328 555.695C751.176 590.526 751.003 637.62 781.446 660.306L781.972 660.725C791.582 668.234 810.464 676.275 822.227 681.546C847.737 692.984 855.666 697.286 873.212 718.799C891.478 741.19 892.53 754.429 896.958 782.396C899.255 798.921 899.214 815.848 898.314 832.484C897.982 838.737 896.923 845.038 896.079 851.285C895.56 855.172 896.571 860.457 895.055 864.102C893.651 867.471 891.098 866.648 887.956 866.129C882.795 891.01 872.859 917.13 866.231 941.762C864.114 949.627 859.81 959 858.717 966.886C860.8 983.992 861.325 1010.17 861.692 1027.43C862.01 1049.97 862.73 1072.49 863.844 1095H552.44C553.245 1061.58 555.017 1038.53 551.194 1004.81C542.155 1002.79 526.69 1000.79 517.231 1000.2C503.607 1009.1 488.239 1019.08 470.785 1017.4L469.641 1017.54C464.313 1028.21 454.177 1026.51 444.368 1030.37C439.187 1032.41 433.879 1034.37 428.553 1035.96C418.86 1032.38 407.626 1022.96 399.589 1016.25C400.57 1000.16 403.136 1000.68 400.583 981.419C406.178 970.801 409.096 964.146 418.117 956.275C406.929 950.596 404.821 948.147 401.438 935.627C398.804 925.88 395.472 916.667 393.81 906.54C392.033 895.707 394.013 887.13 397.63 877.003C411.373 839.221 432.307 805.375 452.714 771.031C469.407 742.843 485.443 714.275 500.809 685.342C507.568 672.443 514.285 659.963 520.169 646.572C523.918 640.32 521.126 629.771 523.841 623.777C531.624 606.591 538.445 594.79 540.196 575.645C539.312 570.027 540.122 564.492 539.47 558.818C518.807 536.704 505.818 519.303 503.161 488.072C501.712 471.034 501.618 459.707 503.274 442.711C487.464 433.765 468.74 406.962 460.164 391.071C452.534 402.87 446.39 415.292 442.845 429.188C442.115 432.055 443.127 435.93 439.915 436.773C437.355 433.385 435.797 426.034 434.865 421.779C424.847 376.049 423.344 319.346 448.127 278.217C430.402 281.932 409.7 281.145 392.618 274.807C389.529 273.661 383.954 272.573 382.105 269.741C383.497 266.86 392.581 267.615 396.151 267.242C403.477 266.495 410.683 264.848 417.605 262.337C442.931 253.306 464.676 234.64 490.049 233.805ZM631.758 612.256C630.063 626.848 627.602 636.817 629.254 651.687C630.662 664.368 617.828 661.137 612.189 652.601C611.567 651.643 610.981 650.661 610.431 649.659C580.245 672.525 580.22 657.006 567.946 694.491C581.009 689.403 601.496 682.755 615.274 679.307C621.336 676.521 625.504 674.426 630.063 669.391C642.629 655.512 654.338 639.513 664.154 623.645L664.359 612.916C664.454 606.232 664.444 601.964 663.02 595.43C655.046 598.426 641.607 601.778 633.099 602.91C631.833 604.956 632.789 608.707 631.758 612.256ZM494.596 940.718C508.724 940.842 525.185 941.126 539.121 943.249L539.912 942.544C539.236 933.372 537.644 923.535 536.578 914.259C522.919 926.918 512.511 934.008 494.596 940.718Z" fill="#E1A476"/>
<path id="Vector_2" d="M490.049 233.805C548.263 132.927 711.323 106.952 795.16 188.487C828.343 220.76 851.833 254.434 863.789 299.505C878.906 355.64 871.053 415.483 841.959 465.818C824.558 495.574 796.121 525.736 767.761 545.525C763.242 548.678 754.31 554.223 749.328 555.695C751.176 590.526 751.003 637.62 781.446 660.306C765.173 671.472 746.381 682.478 729.34 692.624C715.564 700.821 698.066 706.057 683.43 712.642C674.236 716.281 650.517 726.899 641.672 724.713C630.394 721.918 610.806 709.412 602.293 701.07C606.539 693.772 611.114 686.545 615.274 679.307C621.336 676.521 625.504 674.426 630.063 669.391C642.629 655.512 654.338 639.513 664.154 623.645L664.359 612.916C664.454 606.232 664.444 601.964 663.02 595.43C655.046 598.426 641.607 601.778 633.099 602.91C632 600.683 631.978 596.175 630.943 593.953C624.713 580.576 611.134 573.029 598.439 567.903L591.794 558.929L590.12 556.221C572.621 538.59 570.061 536.134 556.317 560.13C550.918 550.914 545.436 548.02 539.47 558.818C518.807 536.704 505.818 519.303 503.161 488.072C501.712 471.034 501.618 459.707 503.274 442.711C487.464 433.765 468.74 406.962 460.164 391.071C452.534 402.87 446.39 415.292 442.845 429.188C442.115 432.055 443.127 435.93 439.915 436.773C437.355 433.385 435.797 426.034 434.865 421.779C424.847 376.049 423.344 319.346 448.127 278.217C430.402 281.932 409.7 281.145 392.618 274.807C389.529 273.661 383.954 272.573 382.105 269.741C383.497 266.86 392.581 267.615 396.151 267.242C403.477 266.495 410.683 264.848 417.605 262.337C442.931 253.306 464.676 234.64 490.049 233.805Z" fill="#442301"/>
<path id="Vector_3" d="M487.013 317.766L606.587 359.928C623.854 366.199 646.843 373.65 663.073 381.191C656.294 369.874 650.758 352.156 644.881 339.784C671.427 367.049 697.035 409.574 712.049 444.773C714.27 449.986 718.304 460.839 720.567 466.62C721.134 466.749 721.694 466.877 722.255 467.006C733.367 463.025 744.645 427.702 747.89 417.557C750.09 410.68 763.443 400.836 769.906 398.281C780.353 393.946 790.531 403.019 793.015 412.969C800.757 443.921 790.406 471.318 772.825 496.245C777.821 501.538 782.374 506.755 787.148 512.253C780.409 523.489 771.85 533.526 761.824 541.954C758.046 545.127 753.874 548.154 750.034 551.281C749.163 551.995 749.329 554.481 749.329 555.695C751.176 590.526 751.003 637.62 781.446 660.306C765.173 671.472 746.381 682.478 729.34 692.624C715.564 700.821 698.066 706.057 683.43 712.642C674.236 716.281 650.517 726.899 641.673 724.713C630.394 721.918 610.807 709.412 602.293 701.07C606.54 693.772 611.114 686.545 615.274 679.307C621.336 676.521 625.504 674.426 630.063 669.391C642.63 655.512 654.338 639.513 664.154 623.645L664.359 612.916C664.454 606.232 664.444 601.964 663.02 595.43C655.046 598.426 641.608 601.778 633.099 602.91C632 600.683 631.978 596.175 630.943 593.953C624.714 580.576 611.134 573.029 598.44 567.903L591.795 558.929L590.12 556.221C572.621 538.59 570.061 536.134 556.317 560.129C550.918 550.914 545.436 548.02 539.47 558.818C518.807 536.704 505.818 519.303 503.162 488.072C501.712 471.034 501.618 459.707 503.274 442.711C502.55 439.307 487.245 411.976 484.372 406.077C482.971 402.542 481.631 398.211 480.399 394.551C472.611 372.001 476.03 340.468 486.322 319.173C486.549 318.702 486.78 318.233 487.013 317.766Z" fill="#E1A476"/>
<path id="Vector_4" d="M663.02 595.43C675.343 589.98 690.967 585.072 702.328 578.85C696.011 591.513 684 607.297 669.949 611.09C669.196 611.293 664.76 612.697 664.359 612.916C664.454 606.232 664.444 601.964 663.02 595.43Z" fill="#AF7C54"/>
<path id="Vector_5" d="M480.399 394.551C498.063 393.99 509.853 399.337 523.929 410.144C513.722 407.292 493.561 399.906 484.372 406.077C482.972 402.542 481.632 398.211 480.399 394.551Z" fill="#723B29"/>
<path id="Vector_6" d="M590.12 556.221C597.581 557.304 611.105 559.632 615.952 565.715L616.249 567.495L615.573 568.089C608.96 566.555 598.182 556.315 591.794 558.929L590.12 556.221Z" fill="#C18A62"/>
<path id="Vector_7" d="M606.256 444.269C606.123 444.524 605.284 445.313 605.043 445.556L603.824 445.026C602.715 442.303 603.472 440.736 604.274 437.595C611.917 407.687 652.047 399.724 672.451 420.861C673.354 421.796 672.214 423.746 671.723 424.962C675.319 444.198 629.184 480.663 606.256 444.269Z" fill="#FEFEFE"/>
<path id="Vector_8" d="M610.851 433.571C617.945 422.53 621.823 422.672 631.415 415.729C640.197 438.62 629.174 469.619 611.828 438.263C614.978 437.861 617.104 437.894 619.692 436.107L620.653 434.519C618.935 430.629 613.988 432.563 610.851 433.571Z" fill="#3E382C"/>
<path id="Vector_9" d="M606.256 444.269C606.123 444.524 605.284 445.313 605.043 445.556L603.824 445.026C602.715 442.303 603.472 440.736 604.274 437.595C611.917 407.687 652.047 399.724 672.451 420.861C673.354 421.796 672.214 423.746 671.723 424.962C668.479 424.547 667.062 424.006 664.279 422.246C652.38 414.72 645.527 413.133 631.415 415.729C621.823 422.672 617.945 422.53 610.851 433.571C608.898 437.151 607.717 440.464 606.256 444.269Z" fill="black"/>
<path id="Vector_10" d="M509.112 435.164C506.433 435.062 507.27 435.479 505.521 433.942C502.463 425.439 509.651 415.86 519.198 421.565C530.322 428.212 538.696 438.644 545.914 449.172L547.6 452.364L546.506 454.321C546.257 460.17 548.241 463.873 545.394 469.375C544.259 470.241 542.834 471.204 541.431 471.455C522.806 474.787 512.269 448.269 509.112 435.164Z" fill="#FEFEFE"/>
<path id="Vector_11" d="M512.082 425.409C518.742 424.558 530.121 432.813 533.766 437.862C532.781 443.92 533.983 454.812 526.683 458.251C520.125 457.193 514.522 442.965 513.53 437.16C515.749 435.172 517.596 438.395 520.101 434.804C518.588 427.673 513.662 434.779 512.082 425.409Z" fill="#3E382C"/>
<path id="Vector_12" d="M509.112 435.164C506.433 435.062 507.27 435.479 505.521 433.942C502.463 425.439 509.651 415.86 519.198 421.565C530.322 428.212 538.696 438.644 545.914 449.172L547.6 452.364L546.506 454.321C543.814 448.714 537.975 442.638 533.767 437.862C530.122 432.813 518.743 424.558 512.083 425.409C508.81 428.877 509.188 430.425 509.112 435.164Z" fill="black"/>
<path id="Vector_13" d="M618.095 378.479C638.272 376.765 647.268 383.961 664.674 393.346C654.959 392.007 647.338 391.015 637.549 390.737C622.097 388.639 607.295 388.32 592.505 394.024C601.927 385.958 606.998 383.525 618.095 378.479Z" fill="#723B29"/>
<path id="Vector_14" d="M538.96 512.861L539.272 510.928L540.271 510.563C544.802 513.635 546.699 517.855 553.409 521.56C563.082 526.9 576.31 520.238 580.972 522.05C580.317 522.851 580.618 522.769 579.832 523.087C575.09 528.599 563.214 535.045 556.026 532.157C549.005 529.335 542.054 519.333 538.96 512.861Z" fill="#AF7C54"/>
<path id="Vector_15" d="M538.96 512.861L539.272 510.928L540.271 510.563C544.802 513.635 546.699 517.855 553.409 521.56C563.082 526.9 576.31 520.238 580.972 522.05C580.317 522.851 580.618 522.769 579.832 523.087C572.49 524.201 562.843 528.464 555.473 525.389C549.577 522.929 544.415 517.123 539.408 513.206L538.96 512.861Z" fill="#926543"/>
<path id="Vector_16" d="M545.914 449.172L547.438 447.064L548.688 447.064C551 449.735 552.208 455.333 553.277 458.92C551.37 456.127 550.224 453.255 547.599 452.364L545.914 449.172Z" fill="#C18A62"/>
<path id="Vector_17" d="M781.447 660.306L781.973 660.725C791.583 668.234 810.465 676.275 822.227 681.546C847.737 692.983 855.666 697.286 873.213 718.799C891.479 741.19 892.53 754.429 896.959 782.396C899.256 798.921 899.214 815.848 898.315 832.484C897.983 838.737 896.924 845.038 896.08 851.285C895.561 855.172 896.571 860.457 895.056 864.102C893.651 867.471 891.098 866.648 887.957 866.129C863.457 863.597 832.266 863.175 807.448 863.113C797.886 884.557 790.76 910.814 782.478 933.13C779.606 940.863 777.067 949.938 773.739 957.437C707.912 957.34 644.922 955.804 579.492 947.58C573.292 946.798 543.482 944.979 539.121 943.249L539.913 942.544C539.237 933.372 537.645 923.535 536.578 914.259C536.362 906.823 533.629 889.745 532.37 881.416C529.78 864.289 527.182 841.026 523.111 824.321C523.631 818.642 529.147 808.349 530.361 801.667C531.241 798.651 532.562 795.082 533.701 792.121C546.011 760.102 555.127 726.235 567.947 694.491C581.009 689.403 601.496 682.755 615.274 679.307C611.114 686.545 606.54 693.772 602.294 701.07C610.807 709.412 630.394 721.918 641.673 724.713C650.517 726.899 674.236 716.281 683.43 712.642C698.067 706.057 715.565 700.821 729.34 692.624C746.382 682.478 765.173 671.472 781.447 660.306Z" fill="#BD4D3B"/>
<path id="Vector_18" d="M551.194 1004.81C561.915 1005.75 577.268 1008.82 588.22 1010.82C611.396 1015.11 634.43 1020.13 657.287 1025.89C686.721 1033.55 715.883 1042.49 745.523 1049.32C753.494 1051.16 761.575 1052.67 769.747 1053.35C775.662 1053.84 781.896 1053.6 787.729 1054.7C796.163 1056.29 805.815 1061.52 814.526 1058.49C833.767 1051.8 849.224 985.943 858.399 967.515L858.717 966.886C860.8 983.992 861.326 1010.17 861.692 1027.43C862.011 1049.97 862.73 1072.49 863.844 1095H552.44C553.245 1061.58 555.017 1038.53 551.194 1004.81Z" fill="#BD4D3B"/>
<path id="Vector_19" d="M556.317 560.13C570.06 536.134 572.62 538.59 590.12 556.221L591.794 558.929L598.439 567.903C611.134 573.029 624.713 580.576 630.943 593.953C631.978 596.175 632 600.683 633.099 602.91C631.833 604.956 632.789 608.707 631.758 612.256C631.986 578.141 603.974 575.466 579.692 563.81C584.033 564.275 589.126 565.453 593.467 566.338C572.955 538.25 573.972 539.264 555.782 566.585C553.857 562.539 551.118 554.193 545.668 556.314C542.057 560.642 541.675 569.408 540.196 575.645C539.311 570.027 540.122 564.492 539.47 558.818C545.436 548.02 550.918 550.914 556.317 560.13Z" fill="#926543"/>
<path id="Vector_20" d="M530.361 801.667C529.147 808.349 523.631 818.642 523.111 824.321C520.386 829.115 518.989 837.139 516.482 842.541C508.202 860.374 500.532 878.573 491.872 896.226C484.792 910.662 479.271 926.15 466.853 936.955L466.243 935.53C477.4 923.639 497.874 877.01 505.008 860.208C508.6 851.755 513.046 842.88 516.617 834.331C520.486 825.068 525.067 809.504 530.361 801.667Z" fill="#AF7C54"/>
<path id="Vector_21" d="M428.27 1005.08C439.787 1009.49 449.904 1013.52 462.087 1015.67L461.409 1016.75L457.89 1017.23C451.925 1016.09 445.486 1014.44 439.536 1013.05C440.486 1015.21 441.979 1018.32 441.552 1020.55C439.554 1019.41 436.74 1013.9 435.365 1011.58L428.963 1008.87C425.814 1012.12 419.377 1017.23 415.716 1020.31C418.878 1015.67 424.492 1009.35 428.27 1005.08Z" fill="#AF7C54"/>
<path id="Vector_22" d="M462.087 1015.67C465.154 1016.19 467.767 1016.62 470.785 1017.4L469.641 1017.54C465.315 1017.59 462.184 1017.59 457.89 1017.23L461.409 1016.75L462.087 1015.67Z" fill="#C18A62"/>
<path id="Vector_23" d="M466.853 936.955C464.971 938.553 465.318 938.802 463.353 938.947C463.856 936.989 464.323 937.169 466.243 935.53L466.853 936.955Z" fill="#C18A62"/>
</g>
<defs>
<clipPath id="clip0_0_1">
<rect width="1417" height="1095" fill="white"/>
</clipPath>
</defs>
</svg>
