<svg width="1417" height="1095" viewBox="0 0 1417 1095" fill="none" xmlns="http://www.w3.org/2000/svg">
<g id="Boy 1">
<path id="Vector" d="M490.049 233.805C548.263 132.927 711.323 106.952 795.16 188.487C828.343 220.758 851.84 254.435 863.789 299.505C878.851 355.545 871.054 415.272 842.105 465.567C824.766 495.376 796.128 525.738 767.761 545.525C763.243 548.677 754.31 554.223 749.329 555.695C751.183 590.514 751.003 637.633 781.446 660.307C750.712 681.393 719.037 699.894 683.874 712.463C672.423 716.557 654.332 726.145 641.673 724.713C630.43 721.96 610.775 709.371 602.284 701.063C606.369 694.09 611.3 686.306 615.11 679.349C620.783 677.047 624.536 675.443 628.778 670.866C641.949 656.654 653.996 640.065 664.155 623.644L664.36 612.916C664.455 606.213 664.444 601.962 663.015 595.409C648.262 601.418 621.72 605.333 605.542 604.39C596.528 603.642 589.044 598.228 581.535 593.508C554.255 576.362 523.086 546.945 509.82 517.38C500.763 497.198 501.382 464.253 503.261 442.675C484.711 430.37 471.067 410.032 460.067 391.208C452.475 403.048 446.388 415.26 442.847 429.189C442.107 432.1 443.144 435.912 439.896 436.784C436.595 432.288 435.523 424.497 434.33 418.987C424.801 374.933 423.882 317.587 448.128 278.217C430.403 281.932 409.7 281.145 392.618 274.807C389.528 273.661 383.955 272.573 382.104 269.741C383.498 266.86 392.578 267.615 396.151 267.242C403.477 266.495 410.683 264.848 417.605 262.337C442.931 253.306 464.676 234.64 490.049 233.805Z" fill="#442301"/>
<path id="Vector_2" d="M487.013 317.766L606.586 359.928C623.846 366.196 646.852 373.652 663.073 381.191C656.493 370.206 650.67 352.229 645.071 340.077C670.885 365.958 697.665 410.873 712.049 444.771C714.249 449.969 718.318 460.85 720.566 466.619C721.134 466.748 721.694 466.877 722.254 467.005C733.366 463.027 744.644 427.702 747.889 417.557C750.089 410.681 763.443 400.835 769.905 398.281C780.353 393.948 790.531 403.018 793.015 412.969C800.764 443.934 790.399 471.296 772.825 496.245C777.821 501.538 782.373 506.755 787.147 512.253C780.415 523.49 771.856 533.527 761.824 541.952C758.039 545.123 753.874 548.154 750.041 551.283C749.162 552 749.328 554.478 749.328 555.695C751.183 590.514 751.003 637.633 781.446 660.306C750.712 681.393 719.037 699.894 683.874 712.462C672.423 716.557 654.332 726.145 641.672 724.713C630.43 721.96 610.774 709.371 602.284 701.063C606.368 694.09 611.3 686.306 615.11 679.349C620.783 677.047 624.536 675.443 628.777 670.866C641.949 656.654 653.996 640.065 664.155 623.644L664.359 612.916C664.455 606.213 664.444 601.962 663.015 595.409C648.262 601.418 621.72 605.333 605.542 604.389C596.528 603.642 589.043 598.228 581.535 593.508C554.255 576.362 523.086 546.945 509.819 517.38C500.763 497.198 501.382 464.253 503.261 442.675C502.878 439.184 487.133 411.567 484.369 406.045C482.958 402.391 481.662 398.294 480.399 394.551C472.613 371.999 476.027 340.468 486.321 319.172C486.548 318.702 486.779 318.233 487.013 317.766Z" fill="#E1A476"/>
<path id="Vector_3" d="M663.016 595.409C675.161 590.146 691.227 584.921 702.328 578.851C696.011 591.514 683.999 607.295 669.95 611.09C669.196 611.294 664.761 612.696 664.36 612.916C664.455 606.213 664.444 601.962 663.016 595.409Z" fill="#B27E57"/>
<path id="Vector_4" d="M480.399 394.551C497.953 393.966 509.768 399.369 523.749 410.074C513.361 407.126 493.844 399.894 484.37 406.045C482.959 402.391 481.663 398.294 480.399 394.551Z" fill="#733B29"/>
<path id="Vector_5" d="M606.253 444.267C606.117 444.522 605.286 445.303 605.043 445.547L603.822 445.028C602.721 442.3 603.474 440.74 604.277 437.596C611.91 407.688 652.056 399.722 672.452 420.861C673.355 421.796 672.217 423.74 671.725 424.956C675.305 444.237 629.179 480.639 606.253 444.267Z" fill="#FEFEFE"/>
<path id="Vector_6" d="M619.762 422.786C624.231 414.757 644.301 413.106 652.591 416.248C654.864 420.679 657.797 423.856 658.744 428.93C661.63 444.387 649.039 454.051 634.508 447.997C630.513 446.333 624.213 441.286 623.323 436.911C626.289 436.359 628.531 436.177 631.044 434.451C632.301 432.203 632.086 433.353 631.883 430.92C628.693 427.186 625.682 428.321 621.112 428.583C619.935 426.322 620.842 424.985 619.762 422.786Z" fill="#3E382C"/>
<path id="Vector_7" d="M606.253 444.267C606.117 444.522 605.286 445.303 605.043 445.547L603.822 445.028C602.721 442.3 603.474 440.74 604.277 437.596C611.91 407.688 652.056 399.722 672.452 420.861C673.355 421.796 672.217 423.74 671.725 424.956C666.578 424.548 659.548 418.885 652.592 416.248C644.301 413.106 624.232 414.757 619.762 422.786C612.376 429.977 609.741 434.467 606.253 444.267Z" fill="black"/>
<path id="Vector_8" d="M509.055 435.048L506.486 434.94C504.559 432.649 504.831 429.948 505.492 427.11C511.051 403.226 546.674 445.443 547.187 452.972C546.374 455.868 546.561 458.78 546.584 461.786L546.948 462.244C547.479 466.334 546.63 469.973 541.925 470.912C522.588 474.771 512.864 449.631 509.055 435.048Z" fill="#3E382C"/>
<path id="Vector_9" d="M509.056 435.048C509.299 430.926 508.589 428.29 512.354 425.835C515.522 425.204 517.163 425.958 520.205 426.876C519.604 430.273 519.379 431.246 519.639 434.814C522.49 438.685 528.108 435.917 530.452 441.835C528.555 444.914 525.045 442.592 522.981 445.545C525.66 452.709 537.7 472.027 546.585 461.786L546.949 462.244C547.48 466.334 546.63 469.973 541.925 470.912C522.588 474.771 512.865 449.631 509.056 435.048Z" fill="#FEFEFE"/>
<path id="Vector_10" d="M509.055 435.048L506.486 434.94C504.559 432.649 504.831 429.948 505.492 427.11C511.051 403.226 546.674 445.443 547.187 452.972C542.278 450.795 532.993 433.145 520.204 426.876C517.163 425.958 515.522 425.204 512.353 425.835C508.589 428.29 509.299 430.926 509.055 435.048Z" fill="black"/>
<path id="Vector_11" d="M618.072 378.537C639.231 377.2 646.267 383.408 664.659 393.344C655.786 392.369 648.95 391.264 639.835 390.693C623.403 388.809 609.145 388.06 593.184 393.549C602.203 385.817 607.425 383.414 618.072 378.537Z" fill="#733B29"/>
<path id="Vector_12" d="M538.955 512.852L539.275 510.929L540.272 510.566C542.888 512.351 545.436 515.313 547.785 517.534C558.397 527.57 567.82 522.922 579.915 521.322C580.679 521.605 580.256 521.373 581.055 522.212C578.699 525.273 573.247 527.97 569.96 530.121C555.999 539.256 544.587 524.763 538.955 512.852Z" fill="#B27E57"/>
<path id="Vector_13" d="M538.955 512.852L539.275 510.929L540.272 510.566C542.888 512.351 545.436 515.313 547.785 517.534C558.397 527.57 567.82 522.922 579.915 521.322C577.055 523.798 570.009 526.176 566.315 526.579C553.377 527.993 547.978 519.843 539.41 513.199L538.955 512.852Z" fill="#936645"/>
<path id="Vector_14" d="M615.237 541.274C617.707 543.054 617.679 543.305 616.993 545.977C608.736 555.572 574.851 557.182 562.703 553.8C560.541 553.198 556.792 551.302 554.678 550.236L554.398 548.469L555.076 547.58C573.719 557.777 599.617 556.253 615.237 541.274Z" fill="#B27E57"/>
<path id="Vector_15" d="M781.446 660.306L781.972 660.726C792.184 668.72 818.435 679.95 830.972 685.432C878.809 706.355 894.882 751.227 900.417 799.53C901.981 813.178 904.326 833.583 905.06 847.529C901.939 848.144 896.294 849.417 893.346 849.597C897.608 870.937 895.934 893.155 899.082 914.702C907.122 969.715 918.372 1024.22 926.363 1079.23C927.117 1084.43 927.726 1089.87 928.737 1095H850.027H552.73H535.345C537.423 1068.17 542.742 1043.6 545.746 1017.22C546.928 1006.83 544.957 986.676 545.078 975.09C544.523 973.035 544.538 970.054 544.172 967.861C537.831 929.934 534.305 891.19 528.166 853.291C523.142 822.274 516.927 792.786 516.252 761.118C515.505 726.152 528.158 710.076 560.014 697.604C578.535 690.15 596.004 684.793 615.11 679.349C611.3 686.306 606.368 694.09 602.284 701.063C610.774 709.37 630.43 721.96 641.672 724.713C654.332 726.145 672.423 716.557 683.874 712.462C719.037 699.894 750.712 681.393 781.446 660.306Z" fill="#BD4D3B"/>
<path id="Vector_16" d="M809.745 862.705C816.934 862.456 830.218 859.848 837.67 858.7C856.15 855.864 874.846 852.163 893.347 849.597C897.609 870.937 895.934 893.155 899.083 914.702C907.122 969.715 918.373 1024.22 926.364 1079.23C927.118 1084.43 927.727 1089.87 928.737 1095H850.027C846.187 1085.03 840.126 1048.58 838.396 1037.66L827.928 971.057C825.306 953.459 821.542 935.191 818.456 917.58C815.391 899.311 812.492 881.022 809.745 862.705Z" fill="#E1A476"/>
<path id="Vector_17" d="M545.078 975.09C546.528 976.895 547.555 986.081 548.202 988.779C556.76 1024.43 553.102 1058.73 552.73 1095H535.345C537.423 1068.17 542.742 1043.6 545.746 1017.22C546.928 1006.83 544.957 986.676 545.078 975.09Z" fill="#E1A476"/>
</g>

</svg>
