<svg width="1417" height="1095" viewBox="0 0 1417 1095" fill="none" xmlns="http://www.w3.org/2000/svg">
<g id="Boy Variation 2">
<path id="Vector" d="M489.827 233.878C517.21 188.32 561.554 159.66 612.357 146.774C661.673 134.267 722.248 138.867 766.094 166.053C813.295 195.32 851.708 250.023 864.827 303.55C878.852 359.884 869.898 419.48 839.932 469.207C822.711 497.42 780.955 543.602 749.799 555.648C749.654 567.264 750.747 577.546 751.847 589.002C754.677 618.316 757.445 640.532 781.502 660.309C750.242 681.294 719.065 699.963 683.46 712.539C671.99 716.592 654.205 726.166 641.54 724.568C630.136 721.745 611.057 709.357 602.319 701.042C606.718 693.848 611.032 686.606 615.262 679.312C620.41 676.971 624.32 675.634 628.469 671.068C641.176 657.085 654.981 639.625 663.832 622.931C664.492 621.688 664.331 614.608 664.316 612.903C664.426 606.098 664.476 602.164 662.92 595.53C647.638 601.591 621.9 605.435 605.279 604.342C595.357 603.759 587.93 597.504 579.714 592.277C552.951 575.25 522.151 545.982 509.531 516.68C501.009 496.891 501.163 463.7 503.281 442.671C485.763 431.864 469.752 408.816 460.177 391.055C452.491 402.949 446.429 415.186 442.846 429.188C442.105 432.084 443.123 435.901 439.923 436.759C432.591 426.456 428.695 383.694 428.318 370.717C427.378 338.378 431.235 306.557 448.073 278.225C430.392 281.941 409.658 281.129 392.618 274.807C389.529 273.661 383.954 272.572 382.104 269.741C383.505 266.849 391.977 267.632 395.495 267.309C402.419 266.654 409.243 265.193 415.829 262.958C441.077 254.449 465.445 234.183 489.827 233.878Z" fill="#442301"/>
<path id="Vector_2" d="M487.077 317.781L606.586 359.929C624.266 366.349 646.316 373.518 663.062 381.171C656.296 369.875 650.751 352.139 644.882 339.785C671.42 367.037 697.043 409.585 712.05 444.773C714.271 449.995 718.304 460.827 720.567 466.615C721.134 466.746 721.695 466.878 722.262 467.01C733.547 462.79 744.534 427.843 747.883 417.557C750.166 410.574 763.52 400.775 770.072 398.225C780.042 394.057 790.158 402.465 792.773 411.949C801.263 442.792 790.607 471.426 772.791 496.312C777.648 501.518 782.395 506.824 787.023 512.228C777.89 528.272 764.738 540.182 750.18 551.082C749.018 551.951 749.668 554.319 749.799 555.648C749.654 567.264 750.747 577.546 751.848 589.002C754.677 618.316 757.445 640.532 781.502 660.309C750.242 681.294 719.066 699.963 683.46 712.539C671.99 716.592 654.205 726.166 641.54 724.568C630.136 721.745 611.057 709.357 602.319 701.042C606.718 693.848 611.032 686.606 615.262 679.312C620.41 676.971 624.32 675.634 628.47 671.068C641.176 657.085 654.981 639.625 663.832 622.931C664.492 621.688 664.331 614.608 664.316 612.903C664.426 606.098 664.476 602.164 662.92 595.53C647.638 601.591 621.9 605.435 605.279 604.342C595.358 603.759 587.93 597.504 579.715 592.277C552.951 575.25 522.151 545.982 509.532 516.68C501.009 496.891 501.163 463.7 503.281 442.671C502.521 438.984 492.864 422.092 490.168 417.496C472.334 387.084 471.811 349.258 487.077 317.781Z" fill="#E1A476"/>
<path id="Vector_3" d="M702.377 578.826C694.96 593.549 685.13 605.882 668.945 611.439C668.152 611.711 664.692 612.705 664.315 612.903C664.426 606.098 664.476 602.164 662.92 595.53C675.514 589.727 690.545 585.314 702.377 578.826Z" fill="#B48059"/>
<path id="Vector_4" d="M606.251 444.261C606.111 444.517 605.287 445.291 605.043 445.537L603.823 445.027C602.719 442.295 603.476 440.759 604.281 437.596C611.901 407.663 652.086 399.716 672.449 420.863C673.356 421.805 672.208 423.739 671.705 424.968C675.462 443.793 629.321 480.888 606.251 444.261Z" fill="#FEFEFE"/>
<path id="Vector_5" d="M627.91 417.503C636.923 413.599 659.438 415.278 665.019 422.875C664.651 425.9 665.137 431.714 664.242 434.379C658.08 452.73 641.219 443.104 634.573 431.843C635.852 429.795 638.816 431.26 641.783 428.53C641.659 422.943 634.624 424.659 631.254 423.756C629.061 422.148 628.799 420.182 627.91 417.503Z" fill="#403A2E"/>
<path id="Vector_6" d="M606.251 444.261C606.111 444.517 605.287 445.291 605.043 445.537L603.823 445.027C602.719 442.295 603.476 440.759 604.281 437.596C611.901 407.663 652.086 399.716 672.449 420.863C673.356 421.805 672.208 423.739 671.705 424.968C668.404 424.612 667.984 424.404 665.019 422.875C659.438 415.278 636.923 413.599 627.91 417.503C615.651 424.61 611.015 431.046 606.251 444.261Z" fill="black"/>
<path id="Vector_7" d="M581.091 572.572C576.263 574.232 566.366 557.136 561.204 555.354C559.205 554.664 554.315 552.433 552.928 550.69L553.426 549.857L555.029 549.509C556.863 550.563 558.66 550.756 560.702 550.413C578.481 547.422 595.971 545.279 613.985 544.18C616.847 544.005 618.997 541.845 622.401 541.565C623.785 546.675 619.55 564.403 615.694 568.802L613.968 568.515L611.816 571.384C601.454 585.125 592.616 581.722 581.091 572.572Z" fill="#BD4D3B"/>
<path id="Vector_8" d="M581.091 572.572C576.263 574.232 566.366 557.136 561.204 555.354C559.205 554.664 554.315 552.433 552.928 550.69L553.426 549.857L555.029 549.509C556.863 550.563 558.66 550.756 560.702 550.413C578.481 547.422 595.971 545.279 613.985 544.18C616.847 544.005 618.997 541.845 622.401 541.565C623.785 546.675 619.55 564.403 615.694 568.802L613.968 568.515C615.825 564.229 617.731 559.569 617.879 554.872C618.811 551.853 619.756 550.166 617.998 547.408C612.878 546.793 595.606 548.662 589.747 549.2C587.823 549.445 585.875 549.483 584.3 550.538C580.65 557.123 579.23 560.085 577.349 567.339C578.542 569.934 579.133 570.451 581.091 572.572Z" fill="#B48059"/>
<path id="Vector_9" d="M563.424 553.188C568.239 552.495 580.848 548.989 584.3 550.538C580.65 557.123 579.23 560.085 577.349 567.339C575.097 566.828 567.475 556.535 563.424 553.188Z" fill="#450200"/>
<path id="Vector_10" d="M584.3 550.538C585.875 549.483 587.823 549.445 589.747 549.2C587.966 554.502 584.002 564.893 587.194 569.352C595.62 581.121 613.39 560.138 617.879 554.872C617.731 559.568 615.825 564.229 613.968 568.515L611.816 571.384C601.454 585.125 592.616 581.722 581.09 572.572C579.133 570.451 578.542 569.934 577.349 567.339C579.23 560.085 580.65 557.123 584.3 550.538Z" fill="#FEFEFE"/>
<path id="Vector_11" d="M509.105 435.165C506.453 435.011 506.979 435.454 505.388 434.043C502.125 414.698 518.792 418.876 527.922 427.818C532.813 432.608 547.014 446.87 547.25 453.005C546.225 455.639 546.163 455.974 546.382 458.79L546.999 459.724C548.572 473.158 538.253 473.916 528.596 468.713C518.659 463.358 511.785 445.961 509.105 435.165Z" fill="#FEFEFE"/>
<path id="Vector_12" d="M509.105 435.165C506.453 435.011 506.979 435.454 505.388 434.043C502.125 414.698 518.792 418.876 527.922 427.818C532.813 432.608 547.014 446.87 547.25 453.005C543.168 451.391 537.097 440.005 530.772 435.836C527.62 433.915 526.556 434.314 523.524 433.431C519.87 432.366 518.128 422.891 512.183 424.346C509.345 427.232 509.177 431.376 509.105 435.165Z" fill="black"/>
<path id="Vector_13" d="M530.773 435.836C537.097 440.005 543.169 451.391 547.251 453.005C546.226 455.639 546.164 455.974 546.383 458.79C539.152 466.462 527.344 448.453 525.642 442.279C526.837 441.238 528.081 440.898 529.596 440.251C531.249 438.01 530.812 439.014 530.773 435.836Z" fill="#403A2E"/>
<path id="Vector_14" d="M618.118 378.536C639.221 377.197 646.319 383.437 664.658 393.344C655.673 392.329 648.329 391.31 639.142 390.599C622.63 389.021 608.425 387.927 592.496 394.024C601.831 386.04 607.092 383.421 618.118 378.536Z" fill="#733B29"/>
<path id="Vector_15" d="M539.18 513.245L539.062 511.108L539.985 510.52C543.301 512.252 546.305 516.529 549.526 519.095C560.478 527.817 569.746 521.903 579.984 521.372L581.01 521.809L580.761 522.763C561.411 539.782 550.332 534.541 539.18 513.245Z" fill="#B48059"/>
<path id="Vector_16" d="M539.18 513.245L539.062 511.108L539.985 510.52C543.301 512.252 546.305 516.529 549.526 519.095C560.478 527.817 569.746 521.903 579.984 521.372C577.1 523.795 569.989 526.25 566.306 526.647C553.399 528.042 548.236 520.191 539.68 513.623L539.18 513.245Z" fill="#926644"/>
<path id="Vector_17" d="M476.5 375C477.171 375.073 478.676 374.993 479.346 375.077C492.533 376.747 510.745 394.545 518.518 404.595C507.195 397.409 491.077 386.477 478 385.686C477.5 382.5 477 378.5 476.5 375Z" fill="#733B29"/>
<path id="Vector_18" d="M781.502 660.309C795.734 670.504 818.498 679.772 834.826 687.269C874.167 705.331 891.721 743.673 898.315 784.243C900.812 799.627 904.383 831.204 905.088 847.584C901.843 848.234 896.709 849.445 893.589 849.528C897.194 871.04 895.893 892.38 898.896 912.814C905.178 955.521 913.08 998.546 920.476 1041.11C923.603 1059.09 925.714 1077.37 928.786 1095H849.861H552.444C552.985 1078.7 552.824 1059.2 553.82 1043.35C555.006 1024.58 550.285 1000.67 547.173 982.159C545.794 973.955 543.254 953.819 540.728 946.362C536.082 918.34 533.495 888.333 529.102 859.143C523.5 821.921 506.885 757.847 523.969 723.468C534.775 701.72 592.075 685.263 615.262 679.312C611.032 686.606 606.718 693.848 602.319 701.042C611.057 709.357 630.136 721.745 641.54 724.568C654.205 726.166 671.99 716.592 683.46 712.539C719.065 699.963 750.242 681.294 781.502 660.309Z" fill="#BD4D3B"/>
<path id="Vector_19" d="M809.523 862.85C819.376 862.069 833.636 859.475 843.544 857.821L893.589 849.528C897.193 871.04 895.893 892.38 898.895 912.814C905.178 955.521 913.079 998.546 920.476 1041.11C923.603 1059.09 925.713 1077.37 928.785 1095H849.861C848.221 1090.1 847.218 1084.81 846.083 1079.76C836.459 1036.93 832.238 992.59 824.205 949.579C818.788 920.568 814.643 891.764 809.523 862.85Z" fill="#E1A476"/>
<path id="Vector_20" d="M323.767 748.916C323.351 744.441 322.888 740.422 321.346 736.209C318.084 727.286 303.963 697.687 319.31 693.094C325.148 694.443 329.827 707.434 332.586 712.919C336.564 720.86 341.068 728.531 346.068 735.87C360.977 757.466 381.78 774.399 392.4 797.69C395.462 804.406 397.191 814.941 398.957 822.26L499.68 910.96C512.97 922.595 527.883 934.534 540.728 946.362C543.255 953.819 545.794 973.955 547.173 982.159C550.285 1000.67 555.006 1024.58 553.82 1043.35C522.404 1026.82 488.091 989.948 462.723 964.126L408.982 909.735C403.248 903.897 377.75 876.837 372.265 874.001C342.627 859.191 310.666 852.156 277.96 847.273C261.628 844.831 240.705 845.945 224.946 841.262C223.101 840.715 222.623 838.225 222.292 836.551C227.283 822.357 281.929 836.337 284.722 819.638C280.659 802.947 196.981 811.331 199.897 793.18C202.592 789.458 205.142 789.313 209.588 788.234C203.801 786.871 195.541 787.252 190.678 783.655C189.101 782.486 188.103 780.86 187.881 778.903C187.64 776.786 188.45 774.759 189.899 773.23C196.398 766.369 252.188 773.016 263.167 773.666C271.691 774.164 280.285 774.04 288.823 774.054C274.731 766.514 259.157 760.191 244.4 753.987C236.123 750.507 214.187 743.562 208.939 738.866C207.449 737.524 206.318 735.538 206.396 733.491C206.453 731.99 207.055 730.551 208.184 729.555C220.331 718.785 284.539 750.68 301.36 754.803C308.358 756.518 317.552 754.236 324.938 754.395L323.767 748.916ZM259.225 792.232C253.919 790.109 249.351 789.555 243.728 788.94C241.178 788.559 237.147 787.798 235 789.258C237.127 790.171 238.689 789.894 241.009 789.811C246.435 790.288 253.695 791.485 259.225 792.232Z" fill="#E1A476"/>
<path id="Vector_21" d="M323.767 748.916C327.171 753.717 331.065 764.805 334.52 771.121C337.497 776.565 343.231 781.96 344.996 785.529C343.246 784.146 341.511 782.742 339.793 781.317C334.324 776.731 327.308 761.803 324.937 754.395L323.767 748.916Z" fill="#B48059"/>
<path id="Vector_22" d="M243.727 788.94C249.35 789.555 253.918 790.109 259.224 792.232C253.694 791.485 246.434 790.288 241.009 789.811L243.727 788.94Z" fill="#E1A476" fill-opacity="0.133333"/>
<path id="Vector_23" d="M241.009 789.811C238.689 789.894 237.127 790.171 235 789.258C237.147 787.798 241.178 788.559 243.728 788.94L241.009 789.811Z" fill="#E1A476" fill-opacity="0.635294"/>
</g>

</svg>
