<svg width="1405" height="1085" viewBox="0 0 1405 1085" fill="none" xmlns="http://www.w3.org/2000/svg">
<g id="Variation 1" clip-path="url(#clip0)">
<path id="Vector" d="M663.698 116.944C665.071 75.0816 693.232 40.9225 736.932 43.3296C771.982 45.2602 801.79 65.4579 824.923 90.5903C856.062 124.039 870.901 175.648 873.913 220.312C875.298 240.81 874.468 260.947 876.664 282.205C882.79 341.689 912.763 421.008 974.609 442.975C944.979 441.369 920.7 427.848 901.135 405.999C896.044 400.319 891.53 394.15 887.654 387.584C893.499 410.453 903.906 429.21 924.865 441.696C935.237 447.982 947.085 451.433 959.221 451.701C933.179 475.702 892.333 474.565 863.115 457.165C866.62 465.731 869.193 468.817 875.861 475.365C857.695 472.197 850.155 469.072 836.352 456.102C818.344 491.892 780.454 532.42 744.472 550.445C748.341 563.471 752.649 577.363 760.237 588.827C753.129 586.021 750.275 584.28 744.108 579.744C744.65 605.263 752.965 638.783 774.808 654.257C766.809 659.903 758.281 664.851 749.974 670.026C741.179 675.507 732.438 681.296 723.307 686.216C708.901 693.982 650.278 720.123 636.515 717.957C624.181 716.018 606.387 703.536 597.393 694.846C601.13 686.998 605.973 680.427 610.14 672.943C612.904 671.839 618.994 669.594 621.149 667.277C634.17 653.277 648.366 635.439 657.585 618.687C658.411 617.187 658.724 610.101 658.838 608.115C659.044 603.567 658.061 594.755 657.725 589.884C647.046 593.484 638.365 595.794 627.092 597.283C627.188 580.22 607.912 568.038 593.68 562.99L586.826 553.881L585.304 551.4L584.909 551.024C566.847 533.59 566.303 530.026 551.504 554.959C546.429 546.541 540.79 542.59 535.094 553.459L533.15 552.15C533.214 557.723 532.697 563.288 531.609 568.754C527.793 587.024 517.545 604.485 501.718 614.83C502.378 612.378 504.3 608.217 505.466 605.799C526.787 561.555 493.667 508.783 474.822 468.069C467.188 451.163 459.666 434.206 452.257 417.201C427.779 361.631 412.286 333.902 444.234 275.947C443.884 268.183 443.64 257.159 448.208 250.332C453.484 242.448 473.649 238.556 482.91 236.801C485.164 232.749 487.543 228.768 490.044 224.864C517.277 182.6 564.121 155.295 612.437 144.216C621.544 142.127 631.067 141.577 640.067 139.59L640.584 139.472C646.502 127.331 651.682 122.576 663.698 116.944Z" fill="#442301"/>
<path id="Vector_2" d="M483.177 314.485C520.681 318.891 583.308 354.947 616.606 373.816C621.42 376.324 634.548 383.891 638.225 387.616L639.014 387.993C648.493 392.596 678.25 414.642 684.614 415.461C692.004 410.793 697.54 372.047 698.192 362.016C701.56 380.409 703.09 399.71 703.783 418.425C705.059 453.108 702.349 504.443 714.142 537.061C720.2 553.673 730.538 568.395 744.108 579.744C744.65 605.263 752.965 638.783 774.808 654.257C766.809 659.903 758.281 664.851 749.974 670.026C741.179 675.507 732.438 681.296 723.307 686.216C708.901 693.982 650.278 720.123 636.515 717.957C624.181 716.018 606.387 703.537 597.393 694.846C601.13 686.998 605.973 680.427 610.14 672.943C612.904 671.839 618.994 669.594 621.149 667.277C634.17 653.277 648.366 635.439 657.585 618.686C658.411 617.187 658.724 610.101 658.838 608.115C659.044 603.567 658.061 594.755 657.725 589.884C647.046 593.484 638.365 595.794 627.092 597.283C627.188 580.22 607.912 568.038 593.68 562.99L586.826 553.881L585.304 551.4L584.909 551.024C566.847 533.59 566.303 530.026 551.504 554.959C546.429 546.541 540.79 542.59 535.094 553.459L533.15 552.15C531.805 550.105 526.962 544.706 524.998 542.364C518.202 534.266 511.276 525.065 506.798 515.371C498.863 498.193 497.946 474.931 497.917 456.182C497.91 451.768 499.423 440.757 498.137 437.264C493.901 425.755 485.822 413.652 480.29 402.368C479.008 399.675 477.27 394.145 476.305 391.257C468.925 368.281 471.586 335.711 483.177 314.485Z" fill="#E1A476"/>
<path id="Vector_3" d="M657.725 589.884C670.369 584.303 683.426 579.624 696.332 573.965C687.297 589.997 677.834 601.872 659.473 607.126L658.838 608.115C659.044 603.567 658.061 594.755 657.725 589.884Z" fill="#B07D56"/>
<path id="Vector_4" d="M616.606 373.816C621.42 376.324 634.548 383.891 638.226 387.616C620.052 385.709 605.373 383.86 587.715 390.232C597.282 382.058 604.941 378.323 616.606 373.816Z" fill="#733B29"/>
<path id="Vector_5" d="M476.305 391.257C494.813 390.465 505.039 395.676 520.017 406.762C512.644 404.461 485.663 395.736 480.29 402.368C479.007 399.675 477.27 394.145 476.305 391.257Z" fill="#733B29"/>
<path id="Vector_6" d="M585.304 551.4C592.843 552.146 605.297 554.541 610.642 560.243L611.206 562.031L610.598 562.943C604.304 561.584 592.572 551.219 586.825 553.881L585.304 551.4Z" fill="#B07D56"/>
<path id="Vector_7" d="M601.18 440.099C600.432 440.89 600.421 440.696 599.263 441.143L598.412 440.292C598.182 439.132 598.081 438.724 598.269 437.513C599.875 427.59 605.375 418.715 613.551 412.855C627.916 402.408 652.891 402.478 666.444 416.63C667.461 417.693 666.42 420.01 666.02 421.314C666.967 422.648 666.642 423.436 666.277 425.092C660.925 449.343 620.294 468.926 603.769 444.186C602.879 442.84 602.016 441.478 601.18 440.099Z" fill="#FEFEFE"/>
<path id="Vector_8" d="M605.857 429.495C611.329 420.763 617.197 416.142 626.686 412.132C628.392 420.382 631.874 436.222 626.889 442.986C618.194 454.784 609.77 440.081 606.793 434.214C609.848 433.836 611.902 433.885 614.377 432.117L615.326 430.561C613.88 426.558 608.878 428.564 605.857 429.495Z" fill="#3E382C"/>
<path id="Vector_9" d="M601.18 440.099C600.432 440.89 600.421 440.696 599.263 441.143L598.412 440.292C598.182 439.132 598.081 438.724 598.269 437.513C599.875 427.59 605.375 418.715 613.551 412.855C627.916 402.408 652.891 402.478 666.444 416.63C667.461 417.693 666.42 420.01 666.02 421.314C662.413 420.654 660.192 419.213 657.056 417.416C645.961 411.055 639.105 408.749 626.686 412.132C617.197 416.142 611.329 420.763 605.857 429.495C603.792 432.925 602.614 436.369 601.18 440.099Z" fill="black"/>
<path id="Vector_10" d="M504.24 431.23C501.459 430.807 502.261 431.353 500.878 429.482C497.007 394.558 541.804 437.136 542.627 448.85L541.754 450.416C541.007 459.067 546.334 470.979 528.563 466.555C512.609 462.583 510.852 442.376 504.24 431.23Z" fill="#FEFEFE"/>
<path id="Vector_11" d="M507.278 421.509C513.752 419.921 524.964 428.612 528.756 433.413C528.872 439.345 529.579 448.633 524.472 452.537C515.393 455.274 508.445 437.677 510.408 432.755C512.694 432.504 514.295 432.785 515.62 430.973C513.795 423.434 508.915 430.709 507.278 421.509Z" fill="#3E382C"/>
<path id="Vector_12" d="M504.24 431.23C501.459 430.807 502.261 431.353 500.878 429.482C497.007 394.558 541.804 437.136 542.627 448.85L541.754 450.416C539.123 444.213 533.317 438.458 528.756 433.413C524.964 428.612 513.752 419.921 507.278 421.509C504.892 425.182 504.408 426.699 504.24 431.23Z" fill="black"/>
<path id="Vector_13" d="M534.738 508.4C534.439 506.56 534.201 507.333 535.053 505.938C536.656 506.408 538.27 508.036 539.487 509.188C550.88 519.964 553.953 520.032 568.979 517.868C571.499 517.072 575.495 516.546 578.2 516.094C564.869 527.398 550.798 535.396 539.536 516.541C537.786 513.613 536.174 511.735 534.738 508.4Z" fill="#B07D56"/>
<path id="Vector_14" d="M534.738 508.4C534.439 506.56 534.201 507.333 535.053 505.938C536.656 506.408 538.27 508.036 539.487 509.188C550.88 519.964 553.953 520.032 568.979 517.868C569.397 518.767 569.274 518.232 569.1 519.509C551.725 526.229 546.66 518.001 534.738 508.4Z" fill="#926643"/>
<path id="Vector_15" d="M663.699 116.944C694.707 107.54 726.573 114.845 737.934 148.222C738.723 150.524 738.64 151.258 737.618 153.337C735.553 153.366 732.349 151.948 730.374 151.158C701.004 139.393 671.835 137.852 640.584 139.472C646.502 127.331 651.682 122.576 663.699 116.944Z" fill="#F0C100"/>
<path id="Vector_16" d="M766.5 393.405C797.859 392.322 789.531 450.002 780.674 467.506C775.659 477.418 772.75 482.779 766.123 491.569C770.672 495.983 776.414 502.905 780.605 507.775C774.541 516.707 770.514 522.047 763.132 529.902C756.416 536.453 751.73 540.582 743.868 545.861C736.919 513.228 742.098 451.218 750.159 417.684C752.615 407.469 757.088 398.735 766.5 393.405Z" fill="#E1A476"/>
<path id="Vector_17" d="M551.504 554.959C566.303 530.026 566.847 533.59 584.909 551.024L585.304 551.4L586.826 553.88L593.68 562.99C607.912 568.038 627.188 580.22 627.092 597.283C627.083 600.651 627.242 604.703 626.553 607.921C624.933 616.337 624.094 623.22 623.814 631.831C623.654 636.724 625.329 651.315 621.143 653.646C615.447 656.82 608.045 648.214 605.1 643.952C576.985 664.897 574.12 652.785 563.339 687.566C565.549 687.347 579.347 682.52 582.351 681.529C591.57 678.527 600.834 675.664 610.14 672.943C605.973 680.427 601.13 686.998 597.393 694.846C606.387 703.536 624.181 716.018 636.515 717.957C650.278 720.123 708.901 693.982 723.307 686.216C732.439 681.296 741.179 675.507 749.974 670.026C758.282 664.851 766.809 659.903 774.808 654.257C789.27 665.104 807.608 671.471 823.942 679.228C841.923 687.765 861.043 701.329 872.98 717.704C896.881 750.48 892.312 799.953 889.314 838.322C888.875 843.942 889.012 853.86 885.898 858.041C883.517 858.987 883.531 858.521 880.588 858.144C872.102 891.989 860.466 928.405 849.538 961.681C841.264 986.856 830.795 1020.8 816.011 1042.44C820.038 1054.56 824.484 1072.42 827.523 1085H554C553.392 1061.2 558.048 1037.63 559.449 1014.07C559.608 1011.4 555.437 1001.2 554.791 996.822C545.122 994.286 522.006 991.887 512.223 991.332C495.206 1003.13 486.738 1007.46 465.599 1008.37L465.36 1008.8C459.701 1018.72 451.341 1017.12 441.6 1020.66C436.066 1022.66 430.787 1024.7 425.087 1026.29C415.936 1023.51 407.225 1015.8 399.69 1010.02C393.185 1005.04 398.128 1000.04 398.239 993.471C398.366 985.945 397.993 978.289 397.687 970.715C404.545 960.297 404.789 955.451 414.659 947.59C407.633 944.135 401.846 940.825 399.727 932.62C396.496 920.098 386.838 895.766 390.139 883.442C402.895 835.82 432.017 793.27 456.479 750.987C475.831 717.498 493.729 686.031 510.676 651.552C513.444 645.919 516.292 639.813 518.277 633.869C519.131 630.61 517.052 623.323 519.325 618.075C527.278 599.704 535.121 588.739 535.695 567.868C535.257 564.824 535.294 557.19 535.094 553.459C540.791 542.59 546.429 546.541 551.504 554.959ZM490.523 931.997C503.037 932.051 512.492 932.024 524.973 933.552L524.736 933.306C520.731 929.186 517.858 924.745 514.585 920.043C505.747 925.334 500.164 928.384 490.523 931.997Z" fill="#E1A476"/>
<path id="Vector_18" d="M774.808 654.257C789.27 665.104 807.608 671.471 823.942 679.228C841.923 687.765 861.043 701.329 872.98 717.704C896.881 750.48 892.312 799.953 889.314 838.322C888.875 843.942 889.012 853.86 885.898 858.041C883.517 858.987 883.531 858.521 880.588 858.144C856.906 856.766 823.832 854.018 800.432 855.135C791.582 876.801 784.653 900.077 776.722 922.12C773.848 930.112 770.424 941.503 767.125 949.07C749.205 948.864 732.055 949.42 713.93 948.988C682.619 947.994 651.342 946.095 620.139 943.292C598.416 941.311 576.705 939.221 555.004 937.014C548.371 936.294 530.303 933.594 524.974 933.552L524.736 933.306C520.731 929.186 517.858 924.745 514.586 920.043C513.534 916.918 509.298 910.694 507.93 906.691C501.414 887.61 500.575 874.443 503.884 855.156C504.877 851.091 505.775 846.999 506.577 842.887C507.222 840.077 512.152 828.123 513.404 825.046C518.169 813.558 522.766 802.002 527.193 790.378C536.996 764.003 545.765 737.45 554.505 710.726C556.848 703.557 560.647 694.839 563.339 687.567C565.549 687.347 579.347 682.52 582.351 681.529C591.57 678.527 600.834 675.664 610.14 672.943C605.973 680.427 601.13 686.998 597.393 694.846C606.387 703.537 624.181 716.018 636.515 717.957C650.278 720.123 708.901 693.982 723.308 686.216C732.439 681.296 741.179 675.507 749.974 670.026C758.282 664.851 766.809 659.903 774.808 654.257Z" fill="#BD4D3B"/>
<path id="Vector_19" d="M554.791 996.822C621.087 1005.62 683.679 1026.66 748.485 1041.65C758.124 1043.88 768.524 1043.51 778.307 1044.47C791.781 1046.29 790.532 1050.16 807.354 1049.33C811.106 1047.15 813.13 1045.86 816.011 1042.44C820.039 1054.56 824.484 1072.42 827.523 1085H554C553.392 1061.2 558.048 1037.63 559.449 1014.07C559.608 1011.4 555.438 1001.2 554.791 996.822Z" fill="#BD4D3B"/>
<path id="Vector_20" d="M551.504 554.959C566.303 530.026 566.847 533.59 584.91 551.024L585.304 551.4L586.826 553.88L593.68 562.99C607.912 568.038 627.188 580.22 627.092 597.283C627.083 600.651 627.242 604.703 626.553 607.921C626.615 572.81 599.741 570.358 574.146 558.386C578.892 559.46 583.68 560.345 588.498 561.039C584.13 555.307 579.342 548.786 574.383 543.645C564.784 533.694 556.285 554.299 551.227 560.923L550.691 561.619C548.948 557.425 547.259 550.512 541.922 550.817C537.911 554.007 537.625 562.105 535.695 567.868C535.257 564.824 535.294 557.19 535.094 553.459C540.791 542.59 546.429 546.541 551.504 554.959Z" fill="#926643"/>
<path id="Vector_21" d="M503.884 855.155L503.392 854.532C497.804 857.527 480.62 917.061 460.133 930.694L459.185 930.454C459.718 929.07 460.116 928.782 461.23 927.774C465.58 923.854 468.131 919.652 470.895 914.539C479.456 898.336 487.691 881.962 495.597 865.43C498.865 858.713 503.065 849.062 506.577 842.887C505.775 846.999 504.877 851.091 503.884 855.155Z" fill="#B07D56"/>
<path id="Vector_22" d="M424.385 996.308C426.19 996.397 434.589 999.557 436.715 1000.31C447.608 1004.16 452.766 1006.21 464.235 1007.25L463.95 1007.69C459.056 1008.6 446.695 1006.56 441.618 1005.27L436.853 1003.77C435.559 1005.64 438.909 1008.69 437.964 1012.42L436.833 1011.71C435.35 1008.19 433.499 1005.17 431.588 1001.87L425.243 999.989C421.046 1003.61 418.114 1006.25 413.379 1009.23C417.075 1004.69 420.404 1000.63 424.385 996.308Z" fill="#B07D56"/>
</g>
<defs>
<clipPath id="clip0">
<rect width="1405" height="1085" fill="white"/>
</clipPath>
</defs>
</svg>
