<svg width="1417" height="1095" viewBox="0 0 1417 1095" fill="none" xmlns="http://www.w3.org/2000/svg">
<g clip-path="url(#clip0)" id="Variation 2">
<path id="Vector" d="M669.08 118.154C679.672 22.2424 768.37 28.3408 823.576 82.7524C854.068 111.13 869.531 150.361 877.468 190.515C883.895 223.006 880.837 256.985 884.781 289.951C891.7 347.726 922.489 426.878 983.258 447.08C942.81 444.205 916.49 423.574 894.786 390.906C895.934 394.691 897.055 398.52 898.342 402.259C908.797 432.715 934.964 455.172 967.76 455.632C940.423 480.423 900.12 479.125 869.663 460.846C874.236 469.595 875.779 472.149 882.885 479.408C863.803 477.291 857.582 472.175 843.392 460.389C824.524 498.323 788.199 535.293 750.982 555.53C754.829 570.254 758.884 581.476 766.944 594.597C764.979 593.713 750.948 586.032 750.775 586.007L750.38 587.739C753.321 617.151 757.597 640.334 781.446 660.306C765.18 671.472 746.381 682.483 729.34 692.624C715.467 700.869 697.859 706.133 683.12 712.767C673.938 716.398 650.478 726.899 641.673 724.713C630.355 721.904 610.834 709.433 602.285 701.063C606.369 694.097 611.298 686.307 615.11 679.348C620.783 677.047 624.536 675.443 628.778 670.866C641.949 656.654 653.997 640.064 664.154 623.644L664.36 612.916C664.455 606.213 664.445 601.963 663.016 595.409C650.703 600.882 622.085 604.987 608.625 604.54C587.03 603.822 552.323 572.394 537.745 557.172C537.85 564.53 536.891 571.864 534.898 578.947C530.137 595.459 520.478 612.181 505.041 620.704C507.697 616.338 509.95 611.74 511.773 606.965C515.49 597.38 518.296 585.116 517.209 574.82C513.431 539.021 493.131 503.32 478.23 470.916C469.071 450.568 460.02 430.171 451.076 409.728C425.976 353.092 420.8 331.687 447.469 279.005C449.013 275.954 448.287 260.896 451.837 251.7C457.839 245.552 478.204 240.44 487.146 238.851C515.413 188.132 563.846 157.506 619.884 145.122C622.706 144.498 645.973 140.751 646.349 140.452C651.529 129.065 657.792 123.366 669.08 118.154Z" fill="#442301"/>
<path id="Vector_2" d="M487.177 317.49C498.151 318.308 509.189 322.3 519.446 326.113C552.438 338.377 583.635 355.16 614.037 372.773C616.639 374.281 619.386 375.959 622.046 377.334C626.944 379.911 640.101 387.578 643.924 391.318C654.912 396.8 666.781 405.835 677.322 412.342C681.288 414.79 687.04 419.054 691.215 420.79C698.315 404.951 702.979 384.06 704.314 366.783C715.108 419.833 705.034 476.55 716.554 529.56C721.584 552.688 733.332 569.103 749.827 585.018C749.903 585.088 750.353 587.419 750.38 587.739C753.321 617.151 757.597 640.334 781.447 660.306C765.18 671.472 746.381 682.483 729.34 692.624C715.467 700.869 697.859 706.133 683.12 712.767C673.938 716.398 650.478 726.899 641.673 724.713C630.355 721.904 610.834 709.433 602.285 701.063C606.369 694.097 611.298 686.307 615.11 679.348C620.783 677.047 624.537 675.443 628.778 670.866C641.949 656.654 653.997 640.065 664.154 623.644L664.36 612.916C664.455 606.213 664.445 601.963 663.016 595.41C650.703 600.882 622.085 604.987 608.625 604.54C587.03 603.822 552.323 572.394 537.745 557.172C533.905 552.16 527.806 545.505 523.626 540.161C506.506 519.666 502.101 493.263 502.003 467.304C501.928 447.394 506.487 443.194 494.386 424.749C487.94 414.923 480.957 398.949 478.278 387.235C476.874 383.39 476.239 379.006 475.957 374.943C476.277 355.389 477.644 335.129 487.177 317.49Z" fill="#E1A476"/>
<path id="Vector_3" d="M663.016 595.41C675.163 590.143 691.222 584.924 702.328 578.853C696.018 591.513 683.992 607.297 669.95 611.09C669.196 611.294 664.761 612.697 664.36 612.916C664.455 606.213 664.445 601.963 663.016 595.41Z" fill="#B58059"/>
<path id="Vector_4" d="M622.046 377.334C626.944 379.911 640.101 387.578 643.924 391.318C625.715 389.233 611.053 387.385 593.165 393.557C602.748 385.412 610.05 381.6 622.046 377.334Z" fill="#733B29"/>
<path id="Vector_5" d="M475.957 374.943C477.574 375.043 482.486 375.371 483.786 375.815C496.634 380.204 510.125 395.686 519.82 405.377C511.784 400.324 486.49 382.029 478.278 387.235C476.874 383.39 476.239 379.006 475.957 374.943Z" fill="#733B29"/>
<path id="Vector_6" d="M606.253 444.269C606.116 444.523 605.285 445.304 605.043 445.547L603.821 445.028C602.719 442.3 603.474 440.738 604.277 437.596C611.92 407.689 652.048 399.721 672.452 420.862C673.358 421.801 672.212 423.749 671.716 424.969C675.41 443.911 629.301 480.812 606.253 444.269Z" fill="#FEFEFE"/>
<path id="Vector_7" d="M627.914 417.539C636.991 413.628 659.332 415.284 665.023 422.893C664.645 425.916 665.14 431.716 664.244 434.379C658.066 452.74 641.229 443.099 634.569 431.844C635.85 429.795 638.811 431.256 641.785 428.532C641.664 422.951 634.619 424.659 631.252 423.757C629.066 422.148 628.804 420.208 627.914 417.539Z" fill="#3E382C"/>
<path id="Vector_8" d="M606.253 444.269C606.116 444.523 605.285 445.304 605.043 445.547L603.821 445.028C602.719 442.3 603.474 440.738 604.277 437.596C611.92 407.689 652.048 399.721 672.452 420.862C673.358 421.801 672.212 423.749 671.716 424.969C668.412 424.617 667.993 424.416 665.023 422.893C659.332 415.284 636.991 413.628 627.914 417.539C615.655 424.536 611.025 431.108 606.253 444.269Z" fill="black"/>
<path id="Vector_9" d="M581.095 572.573C580.509 572.688 579.923 572.803 579.337 572.918C572.765 568.698 567.406 558.74 560.966 555.231C558.296 553.777 554.842 553.095 552.928 550.668L553.424 549.815L555.042 549.467C556.452 550.205 558.019 550.786 559.62 550.552C575.737 548.264 591.812 545.309 608.132 544.677C611.593 544.543 621.818 541.606 622.851 541.916C623.645 546.799 619.062 564.445 615.88 568.876L613.973 568.518L611.813 571.382C601.439 585.124 592.629 581.724 581.095 572.573Z" fill="#BD4D3B"/>
<path id="Vector_10" d="M581.095 572.573C580.509 572.688 579.923 572.803 579.337 572.918C572.765 568.698 567.406 558.74 560.966 555.231C558.296 553.777 554.842 553.095 552.928 550.668L553.424 549.815L555.042 549.467C556.452 550.205 558.019 550.786 559.62 550.552C575.737 548.264 591.812 545.309 608.132 544.677C611.593 544.543 621.818 541.606 622.851 541.916C623.645 546.799 619.062 564.445 615.88 568.876L613.973 568.518C615.82 564.241 617.728 559.557 617.882 554.874C618.764 552.001 619.913 549.766 617.824 547.35C611.939 546.886 596.373 548.574 589.727 549.227L584.886 549.642C580.898 556.49 579.335 559.701 577.349 567.338C578.538 569.94 579.13 570.452 581.095 572.573Z" fill="#B58059"/>
<path id="Vector_11" d="M563.432 553.189C570.831 552.011 577.272 550.355 584.886 549.642C580.898 556.49 579.334 559.701 577.348 567.338C575.096 566.824 567.472 556.534 563.432 553.189Z" fill="#450200"/>
<path id="Vector_12" d="M584.886 549.642L589.727 549.227C587.954 554.529 584.021 564.884 587.198 569.345C595.595 581.141 613.396 560.133 617.882 554.874C617.728 559.557 615.819 564.241 613.973 568.518L611.813 571.382C601.439 585.124 592.628 581.724 581.095 572.573C579.13 570.452 578.538 569.94 577.349 567.338C579.334 559.701 580.898 556.49 584.886 549.642Z" fill="#FEFEFE"/>
<path id="Vector_13" d="M509.056 435.048L506.486 434.94C503.242 431.027 505.255 419.788 513.303 419.934C522.711 420.104 546.488 444.567 547.082 452.804C546.352 455.61 546.125 455.999 546.393 458.808L547.002 459.724C547.225 461.627 547.8 464.999 546.983 466.664C543.696 473.368 534.066 471.883 528.806 468.769C518.068 462.414 512.058 446.461 509.056 435.048Z" fill="#FEFEFE"/>
<path id="Vector_14" d="M509.056 435.048L506.486 434.94C503.242 431.027 505.255 419.788 513.303 419.934C522.711 420.104 546.488 444.567 547.082 452.804C543.28 451.626 537.058 439.931 530.765 435.849C527.941 434.11 525.63 433.856 522.418 433.228C520.404 430.113 516.381 422.864 512.121 424.462C509.412 427.34 509.161 431.337 509.056 435.048Z" fill="black"/>
<path id="Vector_15" d="M530.765 435.849C537.058 439.931 543.28 451.626 547.083 452.804C546.353 455.61 546.125 455.999 546.393 458.808C539.095 466.411 527.355 448.471 525.634 442.278C526.836 441.228 528.069 440.9 529.598 440.252C531.246 438.013 530.813 439.019 530.765 435.849Z" fill="#3E382C"/>
<path id="Vector_16" d="M538.959 512.862L539.292 510.931C540.42 510.778 540.541 510.505 541.568 511.488C550.233 519.777 554.028 525.372 567.649 523.523C571.141 523.049 577.284 521.355 580.785 521.957L580.577 522.791L579.833 523.088C575.092 528.595 563.211 535.045 556.027 532.156C549.006 529.333 542.057 519.334 538.959 512.862Z" fill="#B58059"/>
<path id="Vector_17" d="M538.959 512.862L539.292 510.931C540.42 510.778 540.541 510.505 541.568 511.488C550.233 519.777 554.028 525.372 567.649 523.523C571.141 523.049 577.284 521.355 580.785 521.957L580.577 522.791L579.833 523.088C572.825 524.129 563.421 528.179 556.278 525.668C550.054 523.482 544.568 517.24 539.407 513.208L538.959 512.862Z" fill="#976A47"/>
<path id="Vector_18" d="M669.08 118.154C674.771 116.381 679.659 114.725 685.653 114.226C715.059 111.776 740.362 125.805 744.762 155.909C720.539 144.878 695.52 140.736 669.025 140.131C664.772 140.034 648.977 141.311 646.349 140.452C651.529 129.065 657.792 123.366 669.08 118.154Z" fill="#F0C100"/>
<path id="Vector_19" d="M772.466 397.117C786.407 396.545 792.517 406.896 794.516 419.19C797.561 437.895 793.451 458.575 785.674 475.744C782.547 482.647 777.15 489.993 772.825 496.244C777.171 500.517 782.989 507.52 787.148 512.255C783.149 519.767 774.638 529.564 768.771 535.719C762.233 542.023 757.23 546.175 749.702 551.244C748.838 540.58 746.706 529.364 746.817 518.558C747.115 489.225 748.782 458.616 754.636 429.836C757.452 415.976 760.323 405.124 772.466 397.117Z" fill="#E1A476"/>
<path id="Vector_20" d="M781.447 660.306L781.972 660.726C792.178 668.716 818.442 679.954 830.972 685.432C878.81 706.355 894.883 751.227 900.418 799.53C901.982 813.178 904.327 833.59 905.06 847.529C901.94 848.144 896.294 849.417 893.347 849.597C897.609 870.937 895.934 893.155 899.082 914.702C907.122 969.715 918.366 1024.22 926.364 1079.23C927.118 1084.43 927.727 1089.87 928.737 1095H849.667C844.229 1075.99 840.949 1052.94 837.608 1033.46C833.913 1011.93 830.052 990.052 827.492 968.338C822.78 983.522 816.823 994.873 811.454 1009.16C815.003 1019.92 818.103 1031.38 820.808 1042.41C825.119 1059.98 830.44 1077.48 834.792 1095H558.536C558.354 1083.39 560.286 1057.46 562.133 1045.67C565.803 1024.15 564.714 1022.29 558.104 1001.81C554.816 991.622 552.546 974.045 551.369 963.309C544.966 957.243 538.116 951.855 532.135 945.152C527.336 939.784 522.684 931.954 517.848 926.987C513.977 919.357 511.236 913.381 508.756 905.059C500.801 878.38 510.308 845.606 523.477 821.679C518.73 788.787 504.631 732.654 536.064 710.422C556.061 696.283 591.469 686.069 615.11 679.348C611.298 686.307 606.369 694.097 602.285 701.063C610.834 709.433 630.355 721.904 641.673 724.713C650.478 726.899 673.938 716.398 683.12 712.767C697.859 706.133 715.467 700.869 729.34 692.624C746.381 682.483 765.18 671.472 781.447 660.306Z" fill="#BD4D3B"/>
<path id="Vector_21" d="M809.745 862.705C816.934 862.456 830.218 859.848 837.67 858.707C856.144 855.864 874.846 852.163 893.347 849.597C897.609 870.937 895.934 893.155 899.083 914.702C907.122 969.715 918.366 1024.22 926.364 1079.23C927.118 1084.43 927.727 1089.87 928.737 1095H849.667C844.229 1075.99 840.95 1052.94 837.608 1033.46C833.913 1011.93 830.052 990.052 827.492 968.338C820.975 933.233 815.059 898.011 809.745 862.705Z" fill="#E1A476"/>
<path id="Vector_22" d="M323.761 748.937C323.347 744.662 322.949 740.795 321.519 736.749C318.343 727.763 303.787 697.722 319.309 693.094C325.162 694.457 329.844 707.468 332.615 712.967C336.639 720.998 341.199 728.746 346.264 736.161C361.117 757.597 381.863 774.51 392.401 797.69C395.583 804.69 397.073 814.741 398.964 822.26L474.748 889.004C488.334 900.978 504.049 915.712 517.848 926.987C522.684 931.954 527.336 939.784 532.135 945.152C538.116 951.854 544.966 957.243 551.369 963.309C552.546 974.045 554.816 991.622 558.104 1001.81C564.714 1022.29 565.803 1024.15 562.133 1045.67C535.773 1041.3 483.76 985.583 464.569 965.98L406.111 906.934C399.002 899.692 378.771 877.217 371.936 873.849C329.016 852.71 279.727 845.806 232.394 843.489C227.824 843.268 222.832 841.504 222.121 836.433C226.893 822.474 281.178 836.447 284.931 819.576C279.766 802.968 196.773 811.248 199.931 793.152C202.61 789.458 205.105 789.313 209.524 788.227C203.748 786.864 195.527 787.252 190.675 783.662C189.1 782.493 188.101 780.86 187.879 778.903C187.638 776.786 188.435 774.745 189.887 773.21C196.357 766.376 252.299 773.016 263.167 773.659C271.688 774.164 280.28 774.04 288.815 774.047C275.348 767.074 260.947 761.077 246.986 755.135C239.198 751.822 212.501 742.497 207.977 738.042C206.895 736.977 205.999 735.587 206.042 734.01C206.086 732.426 207.079 730.579 208.249 729.534C220.523 718.564 284.818 751.144 301.917 754.927C308.766 756.442 317.737 754.222 324.954 754.374L323.761 748.937ZM258.764 792.121C253.632 790.026 249.205 789.576 243.75 788.926C241.092 788.531 237.123 787.743 234.922 789.362C237.563 790.199 238.146 790.005 240.994 789.832C246.819 790.385 252.941 791.326 258.764 792.121Z" fill="#E1A476"/>
<path id="Vector_23" d="M323.761 748.937C327.856 755.08 331.136 765.877 335.241 772.947C338.58 778.695 343.09 781.144 344.891 784.928C336.996 782.396 327.367 762.191 324.954 754.374L323.761 748.937Z" fill="#976A47"/>
<path id="Vector_24" d="M243.75 788.926C249.205 789.576 253.632 790.026 258.764 792.121C252.941 791.326 246.819 790.385 240.994 789.832L243.75 788.926Z" fill="#E1A476" fill-opacity="0.133333"/>
<path id="Vector_25" d="M240.994 789.832C238.146 790.005 237.563 790.198 234.922 789.361C237.123 787.743 241.092 788.531 243.75 788.926L240.994 789.832Z" fill="#E1A476" fill-opacity="0.666667"/>
</g>
<defs>
<clipPath id="clip0">
<rect width="1417" height="1095" fill="white"/>
</clipPath>
</defs>
</svg>
