<svg width="1417" height="1095" viewBox="0 0 1417 1095" fill="none" xmlns="http://www.w3.org/2000/svg">
<g clip-path="url(#clip0)" id="Variation 3">
<path id="Vector" d="M669.08 118.154C679.671 22.2424 768.369 28.3408 823.576 82.7524C854.067 111.13 869.531 150.361 877.467 190.515C883.895 223.006 880.837 256.985 884.781 289.951C891.7 347.726 922.489 426.879 983.258 447.08C942.803 444.205 916.49 423.573 894.785 390.905C895.934 394.69 897.055 398.519 898.342 402.259C908.796 432.715 934.964 455.172 967.76 455.632C940.423 480.423 900.12 479.125 869.663 460.846C874.236 469.594 875.779 472.148 882.885 479.407C863.802 477.295 857.582 472.171 843.392 460.389C824.524 498.327 788.199 535.29 750.982 555.53C754.829 570.254 758.884 581.475 766.944 594.597C764.979 593.713 750.947 586.032 750.775 586.007L750.38 587.739C753.321 617.155 757.597 640.329 781.446 660.306C750.719 681.393 719.03 699.894 683.875 712.462C672.424 716.557 654.332 726.145 641.672 724.713C630.434 721.96 610.774 709.37 602.286 701.063C606.369 694.09 611.301 686.305 615.11 679.349C620.782 677.046 624.536 675.443 628.778 670.866C641.948 656.654 653.996 640.064 664.155 623.644L664.36 612.916C664.455 606.211 664.444 601.962 663.015 595.407C650.737 600.886 622.021 604.986 608.625 604.539C587.029 603.819 552.324 572.397 537.744 557.171C537.85 564.529 536.891 571.863 534.898 578.947C530.136 595.463 520.477 612.178 505.04 620.705C507.697 616.339 509.95 611.74 511.773 606.965C515.49 597.381 518.296 585.115 517.21 574.82C513.43 539.021 493.131 503.32 478.23 470.916C469.071 450.568 460.02 430.171 451.076 409.728C425.981 353.105 420.798 331.687 447.467 279.005C449.022 275.932 448.28 260.913 451.834 251.708C457.855 245.543 478.184 240.444 487.146 238.851C515.412 188.133 563.846 157.506 619.883 145.122C622.705 144.498 645.974 140.751 646.349 140.452C651.529 129.065 657.792 123.367 669.08 118.154Z" fill="#442301"/>
<path id="Vector_2" d="M487.177 317.49C521.242 319.74 590.909 359.764 622.046 377.332C627.045 379.975 640.088 387.565 643.92 391.315C655.001 396.889 666.696 405.755 677.313 412.336C681.24 414.77 687.083 419.071 691.215 420.791C698.315 404.953 702.979 384.059 704.314 366.783C715.108 419.832 705.034 476.55 716.554 529.56C721.584 552.686 733.332 569.103 749.827 585.018C749.903 585.088 750.353 587.419 750.38 587.739C753.321 617.155 757.597 640.329 781.446 660.306C750.719 681.393 719.031 699.894 683.875 712.462C672.424 716.557 654.332 726.145 641.673 724.713C630.434 721.96 610.774 709.37 602.287 701.063C606.369 694.09 611.301 686.305 615.11 679.349C620.782 677.046 624.537 675.443 628.778 670.866C641.948 656.654 653.997 640.064 664.155 623.644L664.36 612.916C664.455 606.212 664.444 601.962 663.016 595.407C650.737 600.886 622.022 604.986 608.625 604.539C587.029 603.82 552.324 572.397 537.745 557.171C533.696 551.899 527.67 545.364 523.25 539.666C504.778 515.849 503.11 495.391 501.974 466.415C501.752 460.789 503.994 445.352 502.489 441.412C498.197 430.168 489.955 417.178 484.369 406.046C482.972 402.373 481.672 398.305 480.397 394.556C471.664 372.71 476.991 338.115 487.177 317.49Z" fill="#E1A476"/>
<path id="Vector_3" d="M663.016 595.407C675.135 590.159 691.265 584.908 702.328 578.849C696.018 591.509 683.993 607.301 669.95 611.09C669.196 611.294 664.761 612.697 664.36 612.916C664.455 606.211 664.444 601.962 663.016 595.407Z" fill="#B58159"/>
<path id="Vector_4" d="M622.046 377.332C627.045 379.975 640.088 387.565 643.92 391.315C625.713 389.239 611.087 387.377 593.181 393.55C602.738 385.407 610.08 381.593 622.046 377.332Z" fill="#733B29"/>
<path id="Vector_5" d="M480.397 394.556C497.949 393.958 509.769 399.372 523.749 410.074C513.357 407.125 493.848 399.894 484.369 406.046C482.972 402.373 481.672 398.305 480.397 394.556Z" fill="#733B29"/>
<path id="Vector_6" d="M606.254 444.266C606.117 444.521 605.285 445.304 605.043 445.547L603.822 445.028C602.723 442.3 603.475 440.739 604.277 437.596C611.905 407.688 652.059 399.724 672.453 420.861C673.356 421.797 672.219 423.739 671.727 424.955C675.286 444.284 629.156 480.614 606.254 444.266Z" fill="#FEFEFE"/>
<path id="Vector_7" d="M619.76 422.785C620.613 421.258 625.813 418.134 627.602 417.375C635.24 414.132 644.792 413.291 652.591 416.247C654.822 420.601 657.855 423.953 658.745 428.929C662.227 448.409 642.564 455.959 628.633 444.304C626.892 442.848 623.454 439.066 623.449 436.804C627.55 436.154 631.805 436.303 632.008 431.261C629.422 427.219 625.442 428.192 621.112 428.583C619.935 426.321 620.842 424.984 619.76 422.785Z" fill="#3E382C"/>
<path id="Vector_8" d="M606.254 444.266C606.117 444.521 605.285 445.304 605.043 445.547L603.822 445.028C602.723 442.3 603.475 440.739 604.277 437.596C611.905 407.688 652.059 399.724 672.453 420.861C673.356 421.797 672.219 423.739 671.727 424.955C666.105 424.27 658.904 418.633 652.591 416.247C644.792 413.291 635.24 414.132 627.602 417.375C625.813 418.134 620.613 421.258 619.761 422.785C612.377 429.977 609.741 434.467 606.254 444.266Z" fill="black"/>
<path id="Vector_9" d="M582.516 573.979C576.482 573.947 568.075 559.648 562.258 555.783C557.938 552.911 555.658 553.656 552.89 551.446L553.072 550.256C565.012 550.367 574.618 548.406 586.306 546.604C596.202 545.079 606.927 545.79 616.646 543.46C618.928 542.913 620.165 541.485 622.693 541.968C622.945 548.01 619.859 563.85 615.902 568.526L614.608 567.288C604.924 582.392 597.143 584.256 582.516 573.979Z" fill="#BD4D3B"/>
<path id="Vector_10" d="M582.516 573.979C576.482 573.947 568.075 559.648 562.258 555.783C557.938 552.911 555.658 553.656 552.89 551.446L553.072 550.256C565.012 550.367 574.618 548.406 586.306 546.604C596.202 545.079 606.927 545.79 616.646 543.46C618.928 542.913 620.165 541.485 622.693 541.968C622.945 548.01 619.859 563.85 615.902 568.526L614.608 567.288C616.198 563.309 617.936 559.108 617.826 554.822C619.047 552.215 619.777 549.54 617.834 547.272C612.188 546.716 596.004 548.529 589.806 549.127L585.052 549.753C580.349 557.08 579.789 559.883 577.152 567.913C578.858 569.873 580.729 572.132 582.516 573.979Z" fill="#B58159"/>
<path id="Vector_11" d="M563.376 553.223C569.544 552.034 579.072 549.915 585.052 549.753C580.349 557.08 579.789 559.883 577.152 567.913C575.649 566.863 567.149 556.568 563.376 553.223Z" fill="#450200"/>
<path id="Vector_12" d="M585.052 549.753L589.806 549.127C587.94 554.92 586.35 559.518 585.587 565.641C586.594 568.096 587.893 571.912 590.613 572.677C600.533 575.469 612.58 561.022 617.826 554.822C617.936 559.108 616.198 563.309 614.608 567.288C604.924 582.392 597.143 584.256 582.516 573.979C580.729 572.132 578.858 569.873 577.152 567.913C579.789 559.883 580.349 557.08 585.052 549.753Z" fill="#FEFEFE"/>
<path id="Vector_13" d="M509.057 435.049L506.486 434.942C503.185 430.962 505.48 419.534 513.308 419.901C523.072 420.358 546.165 444.288 547.188 452.973C546.373 455.868 546.561 458.781 546.584 461.787L546.948 462.244C547.482 466.336 546.632 469.973 541.925 470.912C522.587 474.769 512.862 449.635 509.057 435.049Z" fill="#3E382C"/>
<path id="Vector_14" d="M509.057 435.049C509.297 430.928 508.589 428.287 512.354 425.836C515.521 425.204 517.163 425.958 520.204 426.876C519.603 430.273 519.378 431.246 519.638 434.814C522.49 438.685 528.108 435.917 530.451 441.834C528.554 444.914 525.044 442.592 522.981 445.545C525.658 452.707 537.7 472.028 546.583 461.787L546.948 462.244C547.481 466.336 546.632 469.973 541.925 470.912C522.587 474.769 512.862 449.635 509.057 435.049Z" fill="#FEFEFE"/>
<path id="Vector_15" d="M509.057 435.049L506.486 434.942C503.185 430.962 505.48 419.534 513.308 419.901C523.072 420.358 546.165 444.288 547.188 452.973C542.278 450.791 532.982 433.137 520.204 426.876C517.163 425.958 515.522 425.204 512.354 425.836C508.589 428.287 509.297 430.928 509.057 435.049Z" fill="black"/>
<path id="Vector_16" d="M538.952 512.847L539.279 510.91L540.29 510.608C542.96 512.433 545.395 515.27 547.777 517.528C558.395 527.59 567.8 522.922 579.914 521.323L581.079 522.015C579.268 524.99 573.025 528.108 570.006 530.093C556.034 539.288 544.586 524.773 538.952 512.847Z" fill="#B58159"/>
<path id="Vector_17" d="M538.952 512.847L539.279 510.91L540.29 510.608C542.96 512.433 545.395 515.27 547.777 517.528C558.395 527.59 567.8 522.922 579.914 521.323C577.055 523.798 570.007 526.178 566.314 526.58C553.381 527.99 547.975 519.847 539.407 513.195L538.952 512.847Z" fill="#936744"/>
<path id="Vector_18" d="M669.08 118.154C674.77 116.381 679.659 114.725 685.653 114.226C715.059 111.776 740.362 125.805 744.762 155.908C720.539 144.878 695.513 140.736 669.025 140.131C664.772 140.033 648.978 141.311 646.349 140.452C651.529 129.065 657.792 123.367 669.08 118.154Z" fill="#F0C100"/>
<path id="Vector_19" d="M772.459 397.117C786.407 396.547 792.51 406.888 794.516 419.19C797.561 437.893 793.451 458.576 785.674 475.744C782.547 482.646 777.15 489.994 772.825 496.245C777.171 500.517 782.989 507.521 787.148 512.255C783.149 519.768 774.638 529.564 768.771 535.719C762.233 542.024 757.23 546.175 749.702 551.244C748.838 540.58 746.706 529.364 746.817 518.558C747.115 489.225 748.782 458.616 754.636 429.836C757.452 415.975 760.323 405.134 772.459 397.117Z" fill="#E1A476"/>
<path id="Vector_20" d="M781.447 660.306L781.972 660.726C792.185 668.721 818.435 679.949 830.972 685.432C878.81 706.355 894.883 751.227 900.418 799.53C901.982 813.178 904.327 833.59 905.06 847.529C901.94 848.144 896.294 849.417 893.347 849.597C897.609 870.937 895.934 893.155 899.083 914.702C907.122 969.715 918.366 1024.22 926.364 1079.23C927.118 1084.43 927.727 1089.87 928.737 1095H849.667C844.229 1076 840.943 1052.94 837.608 1033.46C833.913 1011.93 830.052 990.045 827.492 968.338C822.78 983.522 816.823 994.873 811.454 1009.16C815.004 1019.92 818.103 1031.38 820.809 1042.41C825.119 1059.98 830.447 1077.48 834.792 1095H558.539C558.443 1085.05 560.015 1059.12 561.825 1048.91C565.019 1026.08 565.724 1023.68 558.107 1001.83C554.868 992.535 552.457 973.263 551.365 963.303C533.317 946.293 528.853 944.854 515.103 921.716C512.54 915.214 510.089 910.102 508.161 903.15C501.025 877.425 510.908 844.478 523.477 821.679C508.042 717.754 511.474 708.796 615.11 679.349C611.301 686.305 606.37 694.09 602.287 701.063C610.774 709.37 630.434 721.96 641.673 724.713C654.332 726.145 672.424 716.557 683.876 712.462C719.031 699.894 750.72 681.393 781.447 660.306Z" fill="#BD4D3B"/>
<path id="Vector_21" d="M809.745 862.705C816.934 862.456 830.218 859.848 837.67 858.707C856.144 855.864 874.846 852.163 893.347 849.597C897.609 870.937 895.934 893.155 899.083 914.702C907.122 969.715 918.366 1024.22 926.364 1079.23C927.118 1084.43 927.727 1089.87 928.737 1095H849.667C844.229 1076 840.943 1052.94 837.608 1033.46C833.913 1011.93 830.052 990.045 827.492 968.338C820.975 933.233 815.059 898.011 809.745 862.705Z" fill="#E1A476"/>
<path id="Vector_22" d="M334.036 710.782C332.733 701.45 329.733 694.021 328.115 683.501C324.748 661.617 315.473 621.38 334.074 604.325C337.341 601.33 342.25 607.245 342.895 611.064C344.47 620.411 344.673 630.653 345.746 640.143C347.721 660.205 352.773 676.302 360.082 694.962C368.114 693.219 370.152 694.9 372.715 702.709C374.037 716.481 377.568 729.292 383.271 741.971C391.359 759.949 404.771 773.417 406.197 793.851C407.003 805.409 404.403 814.07 402.905 825.02C440.417 856.604 477.959 889.592 515.103 921.716C528.852 944.854 533.317 946.293 551.364 963.303C552.457 973.263 554.868 992.535 558.106 1001.83C565.723 1023.68 565.018 1026.08 561.825 1048.91C552.564 1042.98 542.613 1040.01 532.896 1032.85C462.104 980.651 412.545 905.467 350.046 844.354C345.667 840.072 339.225 837.339 335.385 832.456C332.342 828.354 331.569 821.547 328.301 817.321C320.304 823.443 315.785 818.31 311.094 811.58L310.213 811.407C299.863 809.318 285.877 789.825 278.431 781.96C273.72 776.986 277.59 760.62 279.463 754.139C282.22 744.614 284.331 731.838 293.158 726.166C297.021 721.074 299.836 720.445 305.783 718.999L309.947 716.8C315.261 713.403 316.465 713.21 322.511 712.144C326.052 711.058 330.334 710.643 334.036 710.782Z" fill="#E1A476"/>
<path id="Vector_23" d="M309.947 716.8C315.261 713.403 316.465 713.21 322.511 712.144C316.64 715.188 312.311 717.775 310.463 724.678C307.785 734.674 298.734 768.174 303.836 776.184C306.247 779.968 326.286 811.026 327.063 811.704C336.997 808.626 329.271 789.991 326.7 783.724C323.942 777.159 320.903 770.719 317.593 764.418C322.112 758.144 325.793 752.167 328.95 745.07C329.78 743.203 330.88 738.61 331.977 738.063C332.484 743.535 324.657 758.476 322.323 764.632C327.494 775.423 339.308 797.399 335.407 809.2C334.65 811.49 332.188 814.125 329.942 815.073C328.455 815.695 326.962 815.813 325.442 815.156C323.652 814.381 322.243 812.929 321.139 811.351C318.856 808.086 315.363 800.727 313.365 797.821C307.665 789.541 304.41 786.055 300.314 777.388C294.426 764.923 311.95 721.704 309.947 716.8Z" fill="#936744"/>
<path id="Vector_24" d="M360.082 694.962C368.114 693.219 370.152 694.9 372.714 702.709C369.612 699.569 366.242 695.999 361.467 697.95C357.742 701.187 358.639 704.086 357.674 706.86C353.655 718.411 365.169 745.015 363.295 751.925C359.571 765.663 350.286 773.293 348.687 791.291C347.664 802.809 354.395 811.766 353.717 815.73L352.885 815.439C346.608 807.644 344.994 796.154 345.304 786.498C344.595 773.244 360.494 760.115 360.176 748.737C359.765 734.01 344.663 707.925 360.082 694.962Z" fill="#936744"/>
<path id="Vector_25" d="M293.159 726.166C297.021 721.074 299.836 720.445 305.783 718.999C304.564 719.933 298.717 724.173 298.203 725.218C293.529 734.722 289.367 750.971 287.337 761.084C285.245 771.501 289.166 777.664 295.282 785.114C301.405 792.578 305.087 797.641 308.827 806.641C305.301 802.241 301.69 797.918 297.995 793.657C288.87 783.26 283.542 779.055 284.314 764.632C284.818 755.225 293.869 732.142 293.159 726.166Z" fill="#936744"/>
</g>
<defs>
<clipPath id="clip0">
<rect width="1417" height="1095" fill="white"/>
</clipPath>
</defs>
</svg>
