<svg width="1405" height="1085" viewBox="0 0 1405 1085" fill="none" xmlns="http://www.w3.org/2000/svg">
<g id="Character 1" clip-path="url(#clip0)">
<path id="Vector" d="M663.804 116.746C664.642 76.0371 692.525 41.2966 735.258 42.7877C769.45 43.9806 799.67 63.6828 822.556 87.7252C854.587 120.788 869.824 171.15 873.597 216.001C875.436 237.858 874.022 261.782 876.897 284.363C884.875 347.026 912.139 419.097 975.748 443.465C936.212 439.172 907.762 420.861 887.304 386.914C889.89 395.912 891.866 403.04 896.325 411.37C908.633 434.372 932.685 451.802 959.406 451.415C933.536 475.666 891.997 474.865 862.936 456.885C866.483 465.069 869.186 469.212 875.765 475.281C858.669 472.472 849.181 468.743 836.455 456.004C816.402 493.717 782.588 530.656 744.478 550.453C748.718 565.181 752.196 575.745 760.237 588.907C753.678 586.304 749.877 584.016 744.142 579.86C744.458 601.84 751.819 633.32 768.119 648.528C770.212 650.48 772.62 652.637 774.794 654.527C764.435 661.135 753.575 667.458 743.367 674.178C713.552 693.81 678.802 706.587 645.117 717.883C632.328 722.17 606.858 703.391 597.376 695.052C600.519 688.022 606.167 680.173 610.098 673.005C614.241 671.747 619.274 669.25 622.523 665.776C635.155 652.262 649.121 634.577 657.707 618.191C658.629 616.431 658.686 611.963 658.742 609.994C659.159 605.462 658.606 594.396 657.227 589.981C644.109 595.703 614.246 600.203 600.171 598.725C582.157 596.835 544.809 565.826 533.374 552.017C532.232 577.821 523.281 600.299 501.309 615.288C506.64 602.48 513.469 589.763 512.976 574.85C511.743 537.535 489.103 500.208 474.266 466.854C464.874 445.741 455.843 425.732 446.807 404.776C438.164 384.731 426.607 359.075 425.941 337.329C425.482 322.399 430.616 305.137 436.626 291.494C438.029 288.308 443.686 276.524 444.02 273.872C445.422 262.79 443.976 260.312 447.838 249.241C454.648 243.031 473.586 238.041 482.984 236.421C517.233 176.527 573.772 147.786 640.754 139.267C646.06 128.223 652.092 121.315 663.804 116.746Z" fill="#442301"/>
<path id="Vector_2" d="M483.243 314.402C514.85 315.249 587.217 357.711 616.278 373.452C621.225 376.218 635.071 384.078 638.922 387.841C649.568 393.278 661.449 402.274 671.802 408.623C676.287 411.373 680.646 414.806 685.518 416.915C693.053 396.688 696.525 384.312 698.336 362.898C709.333 421.387 696.991 482.501 714.931 539.167C719.555 553.765 732.548 569.718 744.142 579.86C744.458 601.84 751.819 633.32 768.119 648.528C770.212 650.48 772.62 652.637 774.794 654.527C764.435 661.135 753.575 667.458 743.367 674.178C713.552 693.81 678.802 706.587 645.117 717.883C632.328 722.17 606.858 703.391 597.376 695.052C600.519 688.022 606.167 680.173 610.099 673.005C614.241 671.747 619.274 669.25 622.523 665.776C635.155 652.262 649.121 634.577 657.708 618.191C658.63 616.431 658.686 611.963 658.742 609.994C659.159 605.462 658.606 594.395 657.227 589.981C644.11 595.703 614.246 600.203 600.171 598.725C582.157 596.835 544.809 565.826 533.375 552.017C531.461 550.447 524.702 542.23 522.673 539.839C501.547 514.946 499.015 493.175 497.374 461.488C497.105 456.302 499.585 441.935 498.342 438.149C494.917 427.722 485.642 412.575 480.341 402.512C479.156 398.781 477.663 394.769 476.309 391.074C476.089 390.474 475.886 389.867 475.7 389.256C468.785 366.892 472.21 334.845 483.243 314.402Z" fill="#E1A476"/>
<path id="Vector_3" d="M657.227 589.981C670.211 584.825 684.219 579.749 696.682 573.556C690.439 584.178 686.104 590.853 676.525 599.231C669.694 605.208 660.68 604.256 658.742 609.994C659.159 605.462 658.606 594.395 657.227 589.981Z" fill="#B27F57"/>
<path id="Vector_4" d="M616.278 373.452C621.225 376.218 635.071 384.078 638.922 387.841C621.553 384.791 605.112 384.398 588.233 389.931C599.909 379.323 604.175 380.124 615.841 373.697L616.278 373.452Z" fill="#733B29"/>
<path id="Vector_5" d="M476.309 391.074C494.571 390.693 505.181 395.24 519.828 406.714C511.711 404.062 486.548 395.642 480.34 402.512C479.156 398.781 477.663 394.769 476.309 391.074Z" fill="#733B29"/>
<path id="Vector_6" d="M601.317 440.28C600.09 440.995 600.111 440.874 598.665 440.764L598.017 439.376C598.983 430.432 603.134 422.134 609.71 415.994C624.155 402.367 650.262 401.268 665.687 415.667C667.245 417.121 666.791 418.757 666.684 420.73C664.82 446.484 626.379 467.54 606.325 447.51C604.914 446.101 602.405 442.06 601.317 440.28Z" fill="#FEFEFE"/>
<path id="Vector_7" d="M615.024 418.39C623.804 410.271 636.737 408.703 647.77 412.574L647.514 413.613C657.855 427.915 655.52 447.524 633.418 445.302C628.682 444.826 619.139 438.196 618.276 433.457C620.582 430.82 627.208 433.106 626.682 427.153C623.738 423.136 620.559 424.152 615.995 424.769C614.74 423.102 615.018 420.715 615.024 418.39Z" fill="#3E382C"/>
<path id="Vector_8" d="M601.317 440.28C600.09 440.995 600.111 440.874 598.665 440.764L598.017 439.376C598.983 430.432 603.134 422.134 609.71 415.994C624.155 402.367 650.262 401.268 665.687 415.667C667.245 417.121 666.791 418.757 666.684 420.73C660.917 420.639 654.412 415.456 647.769 412.574C636.737 408.703 623.804 410.271 615.024 418.39C607.914 425.241 604.099 430.599 601.317 440.28Z" fill="black"/>
<path id="Vector_9" d="M504.801 427.641L504.077 430.213L502.777 430.802C498.072 427.058 501.574 416.794 507.951 415.808C517.787 414.288 543.426 442.939 542.497 449.137C542.182 451.888 541.945 453.533 542.039 456.336C542.995 458.275 542.694 463.47 541.143 464.888C535.035 470.478 523.736 465.064 519.149 460.273C512.149 452.963 504.811 437.434 504.801 427.641Z" fill="#3E382C"/>
<path id="Vector_10" d="M504.801 427.641C505.986 419.783 509.49 420.88 515.496 422.787C515.219 425.694 514.679 428.567 515.421 431.325C518.749 435.173 522.357 431.108 525.706 437.223C524.814 441.34 520.369 438.936 518.489 441.34C521.513 448.167 534.238 469.77 542.039 456.336C542.995 458.275 542.694 463.47 541.143 464.888C535.035 470.478 523.736 465.064 519.149 460.273C512.149 452.963 504.811 437.434 504.801 427.641Z" fill="#FEFEFE"/>
<path id="Vector_11" d="M504.801 427.641L504.077 430.213L502.777 430.802C498.072 427.058 501.574 416.794 507.951 415.808C517.787 414.288 543.426 442.939 542.497 449.137C538.887 447.693 528.423 428.892 515.496 422.786C509.49 420.88 505.986 419.783 504.801 427.641Z" fill="black"/>
<path id="Vector_12" d="M534.644 508.049L534.681 506.389L535.404 505.937C550.051 515.217 543.559 521.222 566.871 518.19C568.178 517.595 575.503 516.759 577.42 516.5C571.53 522.426 559.123 530.61 550.468 526.913C544.109 524.196 537.091 514.315 534.644 508.049Z" fill="#B27F57"/>
<path id="Vector_13" d="M534.644 508.049L534.681 506.389L535.404 505.937C550.051 515.217 543.559 521.222 566.871 518.19C567.575 519.312 567.398 518.704 567.167 520.099C553.033 526.011 543.817 516.695 534.644 508.049Z" fill="#936645"/>
<path id="Vector_14" d="M609.824 536.878C610.925 537.087 611.126 537.372 612.168 537.972C613.928 546.773 586.19 549.965 580.107 550.171C568.217 550.574 560.784 551.253 550.337 545.216L549.54 543.736L550.21 542.868C558.542 545.597 559.947 547.972 569.32 548.906C583.89 550.507 598.491 546.17 609.824 536.878Z" fill="#B27F57"/>
<path id="Vector_15" d="M663.804 116.746C697.732 105.99 731.588 116.917 739.066 154.573C714.698 143.517 690.378 139.016 663.642 138.717C656.316 138.635 647.486 139.525 640.754 139.267C646.061 128.223 652.092 121.315 663.804 116.746Z" fill="#F0C100"/>
<path id="Vector_16" d="M765.814 393.615C778.423 392.841 784.57 400.872 787.136 412.219C791.575 431.837 786.882 454.205 778.602 472.282C775.549 478.94 770.177 485.448 766.384 491.724C771.097 496.569 776.036 502.557 780.495 507.741C775.096 516.472 769.718 522.801 762.775 530.252C757.472 535.801 750.227 541.666 743.854 545.817C736.726 515.952 742.324 449.521 749.932 418.55C752.457 408.28 756.402 399.183 765.814 393.615Z" fill="#E1A476"/>
<path id="Vector_17" d="M774.794 654.527C790.121 664.921 809.515 672.745 826.556 680.573C865.468 698.453 881.994 732.697 889.836 772.648C894.055 794.142 894.878 817.865 897.471 839.833C892.861 841.019 890.68 841.417 885.946 841.965C889.939 861.992 888.573 889.103 892.052 910.57C901.526 969.031 912.015 1026.35 920.55 1085H842.047C833.965 1048.49 828.045 1011.7 822.536 974.724C821.802 969.792 821.074 964.882 820.512 959.93C815.078 975.204 810.53 985.567 804.376 1000.28C813.816 1026.43 818.961 1058.88 827.729 1085H554.327H530.854C533.222 1058.25 538.752 1032.56 540.995 1006.74C542.179 993.104 539.617 962.941 539.057 948.607C536.636 945.918 533.135 942.722 530.5 940.061C490.787 900.049 497.167 860.01 518.988 813.791C514.14 788.045 506.242 742.244 518.649 718.665C532.011 693.275 583.864 681.244 610.099 673.005C606.167 680.173 600.519 688.022 597.376 695.052C606.858 703.391 632.328 722.17 645.117 717.883C678.802 706.587 713.552 693.81 743.367 674.178C753.575 667.458 764.435 661.135 774.794 654.527Z" fill="#BD4D3B"/>
<path id="Vector_18" d="M802.565 855.216C825.52 850.621 850.663 848.824 873.755 843.893C877.672 843.056 881.974 842.391 885.946 841.966C889.938 861.992 888.573 889.103 892.051 910.57C901.526 969.031 912.015 1026.35 920.549 1085H842.046C833.965 1048.49 828.044 1011.7 822.535 974.724C821.801 969.792 821.074 964.882 820.512 959.93C816.347 938.011 812.478 916.036 808.904 894.014C807.106 882.656 805.289 865.894 802.565 855.216Z" fill="#E1A476"/>
<path id="Vector_19" d="M539.057 948.607C542.104 950.054 544.086 952.345 546.482 954.725C549.543 976.672 552.544 994.599 560.456 1015.75C556.626 1035.06 554.058 1065.54 554.327 1085H530.854C533.222 1058.25 538.752 1032.56 540.995 1006.74C542.179 993.104 539.617 962.941 539.057 948.607Z" fill="#E1A476"/>
</g>
<defs>
<clipPath id="clip0">
<rect width="1405" height="1085" fill="white"/>
</clipPath>
</defs>
</svg>
