<svg preserveAspectRatio="none" width="100%" height="100%" overflow="visible" style="display: block;" viewBox="0 0 521 905" fill="none" xmlns="http://www.w3.org/2000/svg">
<g id="human character">
<path id="Vector" d="M137.558 339.6C128.269 332.069 123.037 325.989 116.869 315.722C115.764 314.559 114.696 310.121 113.852 309.26C82.025 276.793 67.8184 234.012 71.989 188.556C76.2167 142.471 100.153 96.3688 137.106 67.2979C171.307 40.3917 216.751 25.4239 260.305 25.1439C267.566 25.1139 278.27 25.0654 285.477 25.9319C331.057 31.3617 372.554 54.8515 400.668 91.1372C421.069 117.289 432.852 149.706 432.032 183.058C431.823 191.563 430.195 198.253 429.173 206.547C447.203 235.013 431.462 280.888 401.332 294.568C397.551 296.285 394.332 297.103 390.295 298.089C395.074 306.792 404.825 311.952 410.122 320.1C412.036 323.593 410.461 326.684 407.09 328.091C398.525 331.663 387.579 328.78 379.323 325.163C383.713 332.633 392.869 339.504 387.988 347.889C398.196 357.232 400.862 372.054 393.757 384.207C391.526 388.022 388.615 391.766 386.596 395.625L386.38 396.043C413.898 418.559 474.464 457.918 447.225 499.809C453.279 506.676 456.24 508.179 449.889 515.77C458.436 525.492 469.196 531.122 478.251 539.531C482.762 543.72 492.555 561.794 494.596 567.64C495.365 569.823 495.741 572.125 495.706 574.441C495.498 585.625 488.339 607.132 474.397 606.279C465.042 605.709 452.466 594.737 446.266 588.086C445.435 593.734 444.176 607.221 437.969 609.222C421.469 614.529 423.303 590.999 418.918 582.934C413.575 573.106 407.937 567.768 403.472 557.251C401.945 557.949 400.379 558.563 398.824 559.191C390.676 556.928 388.824 552.925 384.265 546.164C380.367 546.588 378.147 546.394 374.315 546.084C377.595 558.709 380.755 571.361 383.795 584.043C387.409 598.767 392.304 620.208 392.888 635.281C392.142 643.553 392.031 648.909 392.863 657.186C391.977 672.784 381.712 685.188 365.671 686.249C352.014 706.059 333.217 701.914 312.643 696.828C311.228 705.087 308.925 705.454 301.112 706.174C299.062 716.859 299.584 729.957 298.921 740.801C297.502 761.185 297.286 781.336 298.265 801.742C298.8 819.807 301.985 836.816 302.561 854.947C303.59 887.284 264.299 900.634 242.426 879.635C235.127 872.627 234.469 860.974 234.623 851.35C231.116 855.371 226.483 859.043 221.133 861.332C206.58 867.558 166.36 873.519 157.978 856.003C153.74 847.147 166.084 825.605 170.129 815.98C168.163 809.396 170.728 807.456 176.012 804.535C172.651 800.797 172.359 799.131 174.446 794.416C169.31 784.809 163.677 774.858 171.099 764.676C167.341 757.628 161.17 734.707 158.296 725.953C154.894 715.595 148.957 700.398 146.254 690.341C141.543 689.625 139.477 689.629 135.403 687.128C133.008 682.13 132.174 677.097 131.007 671.715C122.799 671.777 114.62 669.616 106.506 669.086C98.8013 668.476 90.662 669.788 83.0193 668.865C71.1892 667.433 66.2121 659.382 63.7626 648.944C47.3169 634.918 41.5106 611.003 46.5232 590.411C37.151 586.01 31.2939 580.53 28.4504 570.079C25.6948 559.955 26.2656 550.106 33.3095 541.816C38.8477 535.302 45.4954 529.575 50.4438 522.607C50.8547 522.028 49.9767 519.288 49.7646 518.532C50.2537 517.277 51.081 515.616 51.6647 514.361C50.8923 512.624 50.191 510.914 49.8529 509.036C43.8625 475.686 83.5513 446.344 109.337 433.236C111.796 431.986 130.569 423.952 130.916 423.42C131.766 422.117 131.086 419.574 132.356 417.807L132.532 417.566C134.198 415.254 135.641 414.038 137.741 412.173C137.346 411.691 136.974 411.19 136.628 410.672C124.119 392.015 115.034 354.87 137.558 339.6ZM208.469 694.618C211.826 717.159 217.173 740.849 221.448 763.346C225.844 786.475 233.618 809.63 236.074 833.241C236.216 834.354 236.155 836.193 236.755 837.059L236.973 836.802C239.326 822.671 244.577 808.168 246.672 793.815C250.1 770.328 247.22 747.672 244.996 724.318C244.07 714.592 244.182 706.055 242.9 695.909C240.103 694.552 234.426 692.148 232.468 689.987C232.15 688.728 231.936 687.747 231.704 686.465C229.436 685.259 221.437 684.106 218.49 683.474C218.702 692.802 216.934 692.701 208.469 694.618Z" fill="var(--fill-0, black)"/>
<path id="Vector_2" d="M210.712 374.642C222.697 371.415 233.915 366.857 245.718 362.957C279.819 351.688 316.916 341.912 353.091 345.067C364.942 346.1 386.182 349.816 389.495 363.423C392.378 375.26 385.552 384.814 378.563 393.442L376.292 396.642C394.46 408.468 430.741 439.659 441.739 457.909C443.813 461.356 445.064 464.953 445.899 468.863C447.698 477.259 448.184 486.84 443.287 494.33C442.541 495.488 441.701 496.583 440.775 497.604L438.418 500.304C441.312 503.928 445.196 506.601 447.556 509.849C431.614 514.016 412.299 506.049 401.229 524.432C395.688 533.627 396.071 542.987 397.553 553.111C392.14 548.334 389.705 542.426 386.007 539.169L381.311 539.156C374.975 539.164 369.971 538.201 364.054 536.186C363.59 537.604 364.489 539.81 364.95 541.361C365.756 545.607 367.068 549.832 368.267 553.986C375.807 580.119 382.806 606.407 385.372 633.562C387.373 654.746 388.965 672.745 364.199 679.996C362.756 680.412 360.579 680.84 359.648 681.971C359.306 682.701 358.935 683.416 358.539 684.115C348.332 701.821 328.355 690.394 314.741 685.087C306.453 681.887 298.008 679.112 289.44 676.766C244.008 664.441 197.072 658.551 150.003 659.258C139.561 659.333 128.427 659.232 118.037 660.089C107.772 660.818 97.4266 663.107 87.144 663.297C75.4275 663.514 72.4932 658.096 69.9333 648.246L68.1228 645.387C54.4558 631.273 47.8374 611.246 53.3245 592.028C62.5067 559.867 81.6344 531.042 99.7037 503.247C105.772 493.91 111.999 484.034 118.443 475.019C117.074 485.783 123.036 493.203 133.981 488.439C140.214 482.695 137.155 475.691 134.017 469.323C135.472 466.596 137.232 464.047 139.263 461.714C158.849 466.026 167.853 457.542 166.992 437.911C172.765 435.091 179.604 433.21 185.792 431.396C188.751 435.655 190.265 438.246 194.397 441.489C195.379 439.631 197.695 427.361 198.498 424.242C200.231 417.524 201.861 412.558 204.17 406.037C201.498 393.839 199.991 387.411 203.507 375.115C206.078 375.815 208.19 375.21 210.712 374.642Z" fill="var(--fill-0, #FE5252)"/>
<path id="Vector_3" d="M166.992 437.911C172.765 435.091 179.604 433.21 185.792 431.396C188.751 435.655 190.265 438.246 194.397 441.489C194.599 443.587 191.895 459.831 190.88 461.524C190.941 464.21 190.07 468.85 188.507 471.113C189.364 472.964 186.801 485.032 186.016 487.299C186.328 488.603 185.843 492.098 185.047 493.128C185.114 497.458 184.117 502.076 183.53 506.376C180.996 524.953 178.301 543.504 175.953 562.108C175.666 564.374 175.212 574.763 174.48 575.952C174.427 580.234 173.758 584.967 173.366 589.275C171.835 606.125 173.295 623.076 172.915 639.885C150.026 636.562 90.281 639.541 68.1228 645.387C54.4558 631.273 47.8374 611.246 53.3245 592.028C62.5067 559.867 81.6344 531.042 99.7037 503.247C105.772 493.91 111.999 484.034 118.443 475.019C117.074 485.783 123.036 493.203 133.981 488.439C140.214 482.695 137.155 475.691 134.017 469.323C135.472 466.596 137.232 464.047 139.263 461.713C158.849 466.026 167.853 457.542 166.992 437.911Z" fill="var(--fill-0, #FE5252)"/>
<path id="Vector_4" d="M166.992 437.911C172.765 435.091 179.604 433.21 185.792 431.396C188.751 435.655 190.265 438.246 194.397 441.489C194.599 443.587 191.895 459.831 190.88 461.524C190.941 464.21 190.07 468.85 188.507 471.113C189.364 472.964 186.801 485.032 186.016 487.299C186.328 488.603 185.843 492.098 185.047 493.128C185.114 497.458 184.117 502.076 183.53 506.376C180.996 524.953 178.301 543.504 175.953 562.108C175.666 564.374 175.212 574.763 174.48 575.952C169.49 578.25 163.249 585.4 159.683 589.527C154.571 587.463 146.272 582.24 142.121 578.634C144.956 570.87 145.861 563.986 144.699 555.841C142.486 540.327 125.324 543.301 122.647 541.338C120.481 537.304 120.353 524.546 120.146 519.381C124.812 515.709 129.876 513.844 133.287 507.648C136.788 501.285 135.866 495.023 133.981 488.439C140.214 482.695 137.155 475.691 134.017 469.323C135.472 466.596 137.232 464.047 139.263 461.713C158.849 466.026 167.853 457.542 166.992 437.911Z" fill="var(--fill-0, #D7D5D5)"/>
<path id="Vector_5" d="M190.88 461.523C190.941 464.21 190.07 468.85 188.507 471.113C189.364 472.964 186.801 485.032 186.016 487.299C186.328 488.603 185.843 492.098 185.047 493.128C179.239 495.381 176.71 497.551 175.869 504.188C174.622 514.029 174.005 523.985 172.832 533.844C172.545 536.261 171.893 540.941 172.118 543.212L173.61 544.418C173.994 546.058 173.117 550.844 172.842 552.766C169.831 551.705 167.83 551.069 165.031 549.478C162.086 542.616 161.494 529.938 159.7 522.368C158.551 517.538 158.981 510.264 158.244 505.656C155.751 490.074 164.831 486.756 175.439 478.28C180.372 474.338 183.694 472.814 185.449 466.296C186.153 463.689 188.51 462.505 190.88 461.523Z" fill="var(--fill-0, #FE5252)"/>
<path id="Vector_6" d="M188.507 471.113C189.364 472.964 186.801 485.032 186.016 487.299C183.838 480.901 184.761 476.473 188.507 471.113Z" fill="var(--fill-0, #D7D5D5)"/>
<path id="Vector_7" d="M203.507 375.115C206.078 375.815 208.19 375.21 210.712 374.642C210.811 382.411 211.005 386.629 212.742 394.394C213.993 399.987 215.944 406.01 216.326 411.586C216.804 418.561 210.948 433.83 210.958 439.673C213.255 437.67 216.294 434.479 218.281 432.861C222.967 434.924 230.961 438.799 235.207 441.471C233.563 453.552 232.417 467.065 248.535 467.052C248.616 479.707 238.484 487.865 251.249 501.714C246.19 513.146 253.299 521.365 261.376 528.687C259.807 534.109 254.313 547.556 251.14 552.068C227.847 548.577 219.223 560.609 221.546 582.731C216.713 586.005 205.846 590.795 200.22 592.36C195.75 585.046 193.633 579.903 185.835 576.04C184.907 582.85 184.696 593.584 184.482 600.817C184.135 612.519 183.206 628.926 184.779 640.478C180.875 640.349 176.828 640.084 172.915 639.885C173.295 623.076 171.835 606.125 173.366 589.275C173.758 584.967 174.427 580.234 174.48 575.952C175.212 574.763 175.666 564.374 175.953 562.108C178.301 543.504 180.996 524.953 183.53 506.376C184.117 502.076 185.114 497.458 185.047 493.128C185.843 492.098 186.328 488.603 186.016 487.299C186.801 485.032 189.364 472.964 188.507 471.113C190.07 468.85 190.941 464.21 190.88 461.524C191.895 459.831 194.599 443.587 194.397 441.489C195.379 439.631 197.695 427.361 198.498 424.242C200.231 417.524 201.861 412.558 204.17 406.037C201.498 393.839 199.991 387.411 203.507 375.115Z" fill="var(--fill-0, #D7D5D5)"/>
<path id="Vector_8" d="M203.507 375.115C206.078 375.815 208.19 375.21 210.712 374.642C210.811 382.411 211.005 386.629 212.742 394.394C213.993 399.987 215.944 406.01 216.326 411.586C216.804 418.561 210.948 433.83 210.958 439.673C210.041 442.111 205.773 458.894 206.016 460.887C205.252 463.026 203.597 467.75 204.458 469.818C202.674 473.64 199.768 487.215 199.547 491.387C199.345 492.213 199.207 492.518 199.202 493.371C197.815 497.472 195.768 510.154 194.924 514.838C191.231 535.134 188.2 555.545 185.835 576.04C184.907 582.85 184.696 593.584 184.482 600.817C184.135 612.519 183.206 628.926 184.779 640.478C180.875 640.349 176.828 640.084 172.915 639.885C173.295 623.076 171.835 606.125 173.366 589.275C173.758 584.967 174.427 580.234 174.48 575.952C175.212 574.763 175.666 564.374 175.953 562.108C178.301 543.504 180.996 524.953 183.53 506.376C184.117 502.076 185.114 497.458 185.047 493.128C185.843 492.098 186.328 488.603 186.016 487.299C186.801 485.032 189.364 472.964 188.507 471.113C190.07 468.85 190.941 464.21 190.88 461.524C191.895 459.831 194.599 443.587 194.397 441.489C195.379 439.631 197.695 427.361 198.498 424.242C200.231 417.524 201.861 412.558 204.17 406.037C201.498 393.839 199.991 387.411 203.507 375.115Z" fill="var(--fill-0, #C0BEBE)"/>
<path id="Vector_9" d="M206.016 460.887C208.485 463.044 209.253 463.945 210.762 466.87C210.756 469.358 210.65 472.717 210.826 475.134C215.758 481.316 229.821 492.584 228.87 500.423C227.835 508.965 210.523 547.282 204.099 552.302C202.466 553.579 200.343 554.361 198.452 555.183C198.805 552.832 198.95 549.235 199.825 547.061C200.461 545.479 202.275 545.015 202.75 543.102C204.764 534.993 211.096 502.452 206.657 496.959C205.302 495.284 201.239 494.069 199.202 493.371C199.207 492.518 199.345 492.213 199.547 491.387C199.768 487.215 202.674 473.64 204.458 469.818C203.597 467.75 205.252 463.026 206.016 460.887Z" fill="var(--fill-0, #FE5252)"/>
<path id="Vector_10" d="M204.458 469.818C207.027 475.006 206.604 477.277 206.452 483.022C204.161 487.012 203.055 488.192 199.547 491.387C199.768 487.215 202.674 473.64 204.458 469.818Z" fill="var(--fill-0, #D7D5D5)"/>
<path id="Vector_11" d="M68.1228 645.387C90.281 639.541 150.026 636.562 172.915 639.885C176.828 640.084 180.875 640.349 184.779 640.478C191.698 640.623 198.575 641.529 205.421 642.311C257.265 648.211 308.35 659.254 357.36 677.336C359.21 678.016 362.719 678.962 364.199 679.996C362.756 680.411 360.579 680.84 359.648 681.971C359.306 682.701 358.935 683.416 358.539 684.115C348.332 701.821 328.355 690.394 314.741 685.087C306.453 681.887 298.008 679.112 289.44 676.766C244.008 664.441 197.072 658.551 150.003 659.258C139.561 659.333 128.427 659.232 118.037 660.089C107.772 660.818 97.4266 663.107 87.144 663.297C75.4275 663.513 72.4932 658.096 69.9333 648.246L68.1228 645.387Z" fill="var(--fill-0, #FE5252)"/>
<path id="Vector_12" d="M68.1228 645.387C90.281 639.541 150.026 636.562 172.915 639.885C176.828 640.084 180.875 640.349 184.779 640.478C191.698 640.623 198.575 641.529 205.421 642.311C257.265 648.211 308.35 659.254 357.36 677.336C359.21 678.016 362.719 678.962 364.199 679.996C362.756 680.411 360.579 680.84 359.648 681.971C357.619 680.005 346.61 676.558 343.465 675.52C333.884 672.303 324.206 669.382 314.446 666.761C264.157 652.647 212.382 644.508 160.189 642.501C136.194 641.573 111.767 642.042 87.9182 645.051C82.1015 645.785 75.4995 646.372 69.9333 648.246L68.1228 645.387Z" fill="var(--fill-0, #CA2727)"/>
<path id="Vector_13" d="M386.007 539.169C380.811 530.817 374.215 529.677 376.805 516.955C379.839 502.054 390.263 489.761 403.577 482.805C421.599 473.388 429.711 487.631 438.418 500.304C441.312 503.928 445.196 506.601 447.556 509.849C431.614 514.016 412.299 506.049 401.229 524.432C395.688 533.627 396.071 542.987 397.553 553.111C392.14 548.334 389.705 542.426 386.007 539.169Z" fill="var(--fill-0, #FE5252)"/>
<path id="Vector_14" d="M248.535 467.052C249.848 450.229 254.056 411.926 274.078 406.733C276.091 407.451 278.26 407.936 279.29 409.998C281.81 415.042 269.412 443.079 267.308 449.535C265.393 455.412 263.427 461.811 263.455 468.055C263.505 479.394 271.807 488.276 267.168 499.964C266.191 502.425 264.966 504.484 262.406 505.523C260.072 506.469 257.455 505.792 255.066 505.39L251.249 501.714C238.484 487.865 248.616 479.707 248.535 467.052Z" fill="var(--fill-0, black)"/>
<path id="Vector_15" d="M272.475 410.565C273.915 410.394 274.277 410.261 275.653 410.706C277.592 414.239 270.876 430.033 269.293 434.213C267.047 439.993 265.021 445.858 263.218 451.789C261.289 457.926 260.78 459.756 260.272 466.088C259.564 474.922 273.686 503.384 257.168 503.782C247.044 499.133 245.971 484.471 249.726 475.58C250.108 474.674 251.023 471.073 251.096 470.048C252.403 451.78 256.257 421.855 272.475 410.565Z" fill="var(--fill-0, #FE5252)"/>
<path id="Vector_16" d="M381.311 539.156C375.274 530.976 370.938 527.604 373.036 515.854C376.272 497.728 397.94 473.919 417.463 476.137C427.66 477.295 435.364 489.182 440.775 497.604L438.418 500.304C429.711 487.631 421.599 473.388 403.577 482.805C390.263 489.761 379.839 502.054 376.805 516.955C374.215 529.677 380.811 530.817 386.007 539.169L381.311 539.156Z" fill="var(--fill-0, #CA2727)"/>
<path id="Vector_17" d="M364.95 541.361L364.284 541.175C349.691 537.03 338.408 528.17 331.036 514.904C320.894 496.482 316.112 475.589 317.23 454.586C317.483 449.862 317.902 444.652 319.196 440.097C321.095 467.622 320.928 490.856 336.35 515.859C342.206 525.351 353.043 533.769 364.054 536.186C363.59 537.604 364.489 539.809 364.95 541.361Z" fill="var(--fill-0, #CA2727)"/>
<path id="Vector_18" d="M376.292 396.642C370.285 394.033 367.014 392.63 360.052 393.996C348.613 396.241 337.737 403.94 330.945 413.306C328.671 416.441 327.85 418.797 325.797 421.785L325.603 421.238C325.744 420.068 326.117 419.132 326.697 418.111C336.522 400.83 357.423 381.474 378.563 393.442L376.292 396.642Z" fill="var(--fill-0, #CA2727)"/>
<path id="Vector_19" d="M292.873 403.656C279.015 401.104 261.275 401.096 247.167 401.598C243.214 401.739 231.917 404.541 229.003 402.337C229.425 401.53 229.607 401.356 230.388 400.876C239.672 395.152 281.672 400.215 293.715 402.979C296.822 403.299 298.723 403.809 301.724 404.569L301.827 404.793C298.244 404.658 296.399 404.316 292.873 403.656Z" fill="var(--fill-0, #CA2727)"/>
<path id="Vector_20" d="M120.27 309.175C125.005 311.866 139.732 321.335 143.967 315.889C144.079 313.758 142.626 311.832 141.111 310.38C105.103 275.859 97.7611 219.45 111.213 173.131C117.577 151.218 139.537 123.467 161.321 115.274C166.267 147.927 174.667 178.683 196.21 204.801C198.855 208.008 213.28 225.438 217.708 220.782C218.922 217.367 215.806 210.109 214.567 206.626C207.506 186.769 199.843 164.691 200.657 143.324C216.317 153.778 231.46 162.067 249.137 168.701C250.787 169.32 252.535 170.108 254.117 170.89C251.708 172.99 246.5 176.937 246.578 180.365C248.633 182.413 252.95 180.497 255.461 179.732C259.82 178.403 264.332 177.079 268.605 175.505C272.349 177.156 276.077 177.957 280.033 178.931C268.089 181.71 258.438 188.095 251.751 198.492C248.898 202.927 243.998 214.936 246.914 219.427C248.223 219.77 247.677 219.825 248.961 219.149L249.352 218.284C253.982 206.322 259.42 198.151 271.677 192.709L272.088 192.529C270.3 197.386 269.574 202.617 268.821 207.736C281.708 201.087 285.143 217.735 268.406 215.033C269.11 231.033 273.213 251.77 288.568 260.193C294.045 261.404 296.428 260.118 300.928 258.432C318.484 244.741 316.046 208.295 306.568 190.531C317.624 194.351 326.772 202.319 329.945 213.899C330.921 215.004 330.437 214.785 331.706 214.894C332.744 213.498 332.527 213.09 332.338 211.154C331.345 200.971 324.054 191.991 315.999 185.92C323.575 188.895 330.79 192.434 338.663 194.597C340.022 194.97 341.562 195.43 342.864 195.955C348.508 216.369 351.119 234.295 353.933 255.196C354.259 257.616 356.315 262.34 359.488 261.478C367.636 254.75 367.317 219.608 392.364 205.739C396.889 203.233 402.769 201.374 407.994 201.913C413.665 202.499 418.631 205.586 422.132 210.012C428.867 218.528 430.483 230.403 429.17 240.909C427.2 256.676 419.15 273.363 406.455 283.235C401.204 287.319 393.294 291.098 386.459 290.254C383.529 289.891 380.68 289.044 377.763 288.612C374.92 305.427 355.201 326.945 342.091 337.077C335.395 342.901 327.75 340.476 320.122 341.579C300.346 344.438 278.324 348.518 259.341 354.888C237.815 362.111 223.896 366.243 200.617 362.208C172.313 357.303 141.715 340.419 125.086 316.596C123.407 314.17 121.801 311.696 120.27 309.175Z" fill="var(--fill-0, #B36D51)"/>
<path id="Vector_21" d="M249.352 218.284C253.982 206.322 259.42 198.151 271.677 192.709L272.088 192.529C270.3 197.386 269.574 202.617 268.821 207.736C281.708 201.087 285.143 217.735 268.406 215.032C269.11 231.033 273.213 251.77 288.568 260.193C283.901 261.232 275.68 257.686 271.647 255.103C257.078 245.772 253.071 233.92 249.352 218.284Z" fill="var(--fill-0, #D7D5D5)"/>
<path id="Vector_22" d="M306.568 190.531C317.624 194.351 326.772 202.319 329.945 213.899C329.021 228.56 324.809 241.55 313.545 251.495C310.538 254.151 305.019 258.788 300.928 258.432C318.484 244.741 316.046 208.295 306.568 190.531Z" fill="var(--fill-0, #D7D5D5)"/>
<path id="Vector_23" d="M111.605 222.374C110.227 221.478 109.263 221.167 108.993 219.379C108.409 215.523 111.556 209.388 113.681 206.47C122.116 194.891 137.139 198.207 147.055 205.968C152.722 210.404 160.334 219.277 161.778 226.634C163.278 242.239 171.458 259.424 162.49 274.325C160.4 275.489 158.669 276.796 156.299 276.331C136.938 280.622 116.661 248.765 113.549 233.141C112.95 230.133 110.838 225.306 111.605 222.374Z" fill="var(--fill-0, black)"/>
<path id="Vector_24" d="M111.605 222.374C118.461 215.584 115.979 208.743 129.882 208.369C130.354 208.357 130.827 208.348 131.299 208.34C130.35 214.595 130.371 216.69 130.982 223.016C134.293 221.5 138.582 219.506 141.35 223.228C142.263 228.444 136.079 229.509 132.192 229.379C134.007 242.404 142.554 271.337 156.299 276.331C136.938 280.622 116.661 248.765 113.549 233.141C112.95 230.133 110.838 225.306 111.605 222.374Z" fill="var(--fill-0, #D7D5D5)"/>
<path id="Vector_25" d="M153.592 242.674C160.65 242.077 162.666 243.905 163.546 251.235C164.31 257.603 165.754 268.254 159.96 272.548C158.653 273.517 156.24 272.827 154.781 272.451C147.046 266.469 142.065 257.645 142.44 247.762C146.062 244.348 148.943 243.763 153.592 242.674Z" fill="var(--fill-0, #24252E)"/>
<path id="Vector_26" d="M126.656 178.599C135.397 177.864 153.319 183.693 156.395 194.396C156.645 195.264 156.148 195.675 155.607 196.281C152.6 197.112 148.482 194.397 145.188 192.969C129.462 186.824 126.48 186.883 110.042 187.001C115.627 181.032 119.062 180.229 126.656 178.599Z" fill="var(--fill-0, black)"/>
<path id="Vector_27" d="M244.924 298.512C262.881 299.329 225.315 331.856 195.816 311.89C194.108 310.293 192.942 308.615 191.551 306.753C198.101 310.175 204.614 313.408 213.105 314.571C222.056 315.798 242.038 312.617 244.485 301.475C244.653 300.706 244.794 299.336 244.924 298.512Z" fill="var(--fill-0, black)"/>
<path id="Vector_28" d="M248.003 32.5137C250.574 32.202 253.403 32.2262 255.999 32.137C322.682 29.8478 389.233 66.8741 413.806 130.584C422.414 152.901 426.318 179.947 422.321 203.941C414.169 197.872 406.343 196.162 396.439 199.536C369.074 208.861 368.926 236.818 358.174 259.147C356.255 253.599 356.031 247.864 355.41 242.085C352.911 218.81 347.559 195.703 338.267 174.169C337.07 171.396 334.809 166.148 332.624 164.108L332.039 164.429C332.042 164.487 340.782 189.71 341.857 192.718C312.909 184.598 284.032 165.211 263.702 143.319C260.058 139.394 256.806 134.9 252.821 131.31C264.424 152.667 285.773 167.87 305.934 180.421C304.046 179.947 300.657 178.977 298.906 178.821C268.011 176.076 239.038 162.721 213.338 145.91C210.657 144.156 200.722 135.807 197.999 135.457C191.979 139.503 200.827 171.723 202.528 178.402C204.674 185.438 206.923 192.442 209.275 199.412C211.902 207.028 214.286 212.89 215.864 220.816C180.108 195.045 161.835 137.097 166.572 94.4872C166.709 93.249 166.886 89.7196 166.109 88.8787C162.122 87.7024 151.048 98.5995 148.168 101.463C98.914 150.41 84.0211 242.03 126.965 299.361C131.231 305.056 137.061 310.085 142.091 315.148C134.024 314.024 122.021 307.338 116.257 301.753C93.7137 279.907 79.4837 243.662 77.5967 213.344C74.9904 170.338 89.7026 128.078 118.452 95.987C151.47 58.4348 198.094 35.5914 248.003 32.5137Z" fill="var(--fill-0, #24252E)"/>
<path id="Vector_29" d="M146.585 342.489C150.721 344.624 157.183 349.053 161.297 351.651C169.898 357.18 178.644 362.48 187.527 367.546C192.574 370.419 197.863 373.688 203.507 375.115C199.991 387.411 201.498 393.839 204.17 406.037C201.861 412.558 200.231 417.524 198.498 424.242C197.695 427.361 195.379 439.631 194.397 441.489C190.265 438.246 188.751 435.655 185.792 431.396C179.604 433.21 172.765 435.091 166.992 437.911C167.853 457.542 158.849 466.026 139.263 461.714C137.232 464.047 135.472 466.596 134.017 469.323L133.365 468.673C128.663 454.899 181.907 416.553 171.415 405.722C170.616 404.894 169.511 404.431 168.36 404.442C162.214 404.48 145.334 422.129 140.62 427.19C140.063 425.417 139.536 423.266 139.036 421.444C140.358 418.531 142.926 416.117 145.192 413.896C144.404 411.387 141.839 406.395 140.619 403.692C138.317 398.613 136.369 393.382 134.787 388.035C130.154 372.492 126.4 348.328 146.585 342.489Z" fill="var(--fill-0, #FE5252)"/>
<path id="Vector_30" d="M400.825 538.758C401.382 532.735 403.183 527.286 407.646 523.062C417.478 513.76 427.093 514.896 439.263 515.094C448.356 523.132 458.118 530.967 467.605 538.475C475.069 544.379 488.688 562.607 489.404 571.458C489.612 573.133 489.63 576.854 489.303 578.48C488.587 583.566 487.955 585.21 485.807 589.973L484.636 591.904C481.525 597.048 478.556 598.307 473.054 599.797C465.4 596.942 446.535 580.954 438.227 574.967C438.229 580.981 440.603 599.231 434.52 602.673C432.808 602.709 431.715 602.36 430.906 600.535C428.338 594.737 427.678 587.543 425.195 581.617C422.04 574.083 416.346 568.007 412.617 560.786C410.054 555.819 409.03 549.969 406.388 545.086C405.053 542.62 402.862 540.667 400.825 538.758Z" fill="var(--fill-0, #B36D51)"/>
<path id="Vector_31" d="M459.395 559.315C461.348 560.791 469.333 572.519 471.759 575.532C476.916 581.953 479.523 584.578 485.807 589.973L484.636 591.904C474.075 579.58 467.225 574.092 459.395 559.315Z" fill="var(--fill-0, #91482D)"/>
<path id="Vector_32" d="M489.303 578.48C489.285 578.104 489.139 576.027 488.971 575.833C482.948 568.961 476.474 561.299 472.996 552.695C475.073 553.765 484.791 571.065 488.909 572.13L489.404 571.458C489.612 573.133 489.63 576.854 489.303 578.48Z" fill="var(--fill-0, #91482D)"/>
<path id="Vector_33" d="M58.5875 511.382C42.1632 481.683 102.504 443.653 124.712 433.782C127.929 432.352 134.633 428.273 137.695 427.633L138.313 428.075C138.625 433.293 108.415 453.521 117.378 470.454L117.596 470.861C112.456 477.971 107.416 485.156 102.476 492.412C102.203 492.801 100.499 495.275 100.29 495.479C96.1009 501.877 90.217 510.459 86.6075 516.986C75.5061 508.806 65.9584 517.017 55.6622 519.16C57.1792 517.529 58.7117 515.784 60.4258 514.374L58.5875 511.382Z" fill="var(--fill-0, #FE5252)"/>
<path id="Vector_34" d="M60.4258 514.374C63.8095 510.91 66.7896 504.405 70.8149 500.366C75.4734 495.691 80.4116 491.63 87.4564 491.206C90.9488 490.993 97.7858 493.092 100.29 495.479C96.1009 501.877 90.217 510.459 86.6075 516.986C75.5061 508.806 65.9584 517.017 55.6622 519.16C57.1792 517.529 58.7117 515.784 60.4258 514.374Z" fill="var(--fill-0, #FE5252)"/>
<path id="Vector_35" d="M58.5875 511.382C60.6879 510.074 62.1479 507.313 63.3724 505.169C68.4706 496.252 77.8208 488.66 88.4365 488.417C93.5692 488.302 97.9016 490.362 102.476 492.412C102.203 492.801 100.499 495.275 100.29 495.479C97.7858 493.092 90.9487 490.993 87.4564 491.206C80.4116 491.63 75.4734 495.691 70.8149 500.366C66.7896 504.405 63.8095 510.91 60.4258 514.374L58.5875 511.382Z" fill="var(--fill-0, #CA2727)"/>
<path id="Vector_36" d="M294.897 860.766C286.619 857.951 272.765 854.796 264.084 854.558C260.987 854.474 255.704 855.888 253.176 856.087C250.198 856.321 242.429 859.282 241.271 859.321L240.909 858.769C240.034 846.988 247.792 821.248 250.289 809.069C250.73 806.917 253.218 795.936 253.912 794.054C255.244 793.196 254.625 793.404 256.37 793.422L256.544 793.899C252.084 797.748 253.24 800.704 256.858 804.544C259.98 804.226 266.247 804.23 269.326 804.632C273.738 805.211 280.114 806.815 284.204 806.276C290.063 803.059 287.585 801.265 287.339 796.29L288.014 795.578C289.137 795.441 289.451 795.3 290.425 795.759C291.263 797.646 291.691 805.733 291.825 808.23C292.733 825.092 297.991 844.182 294.897 860.766Z" fill="var(--fill-0, #24252E)"/>
<path id="Vector_37" d="M255.287 828.716C266.6 826.387 275.762 830.236 284.401 829.321C284.857 832.799 284.211 843.935 283.966 847.708C268.905 844.818 270.538 844.217 254.224 845.366C254.008 841.036 254.794 832.976 255.287 828.716Z" fill="var(--fill-0, #343543)"/>
<path id="Vector_38" d="M258.381 815.123C268.656 813.4 274.008 813.934 283.821 817.315C286.484 819.162 288.333 818.963 289.945 822.454C291.38 825.565 286.579 828.371 284.401 829.321C275.762 830.236 266.6 826.387 255.287 828.716C253.451 828.168 251.275 826.926 250.693 825.075C248.932 819.471 254.757 816.524 258.381 815.123Z" fill="var(--fill-0, black)"/>
<path id="Vector_39" d="M262.887 816.785C271.454 815.821 275.382 817.664 283.302 818.605C291.905 825.583 284.036 827.691 276.969 826.497C270.425 825.702 246.213 829.44 254.809 818.826C258.144 817.545 259.336 817.222 262.887 816.785Z" fill="var(--fill-0, #D7D5D5)"/>
<path id="Vector_40" d="M269.326 804.633C273.738 805.211 280.114 806.815 284.204 806.276C284.889 808.252 284.592 814.394 284.401 816.617L283.821 817.315C274.008 813.934 268.656 813.4 258.381 815.123C258.132 814.982 257.764 814.602 257.534 814.385C257.275 812.728 258.058 807.05 258.253 804.805C262.052 804.823 265.535 804.814 269.326 804.633Z" fill="var(--fill-0, #343543)"/>
<path id="Vector_41" d="M204.422 713.889C204.575 713.863 205.031 714.044 205.215 714.102C205.803 715.56 208.251 729.634 208.836 732.599C211.017 743.576 213.318 754.53 215.738 765.459C217.115 771.769 218.593 779.414 220.411 785.521C217.103 789.374 214.168 791.698 209.609 793.85L207.618 791.76C206.892 787.151 215.848 782.343 206.774 770.386C205.992 769.63 205.182 768.901 204.346 768.203C196.55 761.8 186.411 763.315 177.163 764.128C176.222 761.663 175.617 758.985 174.838 756.457C171.173 744.57 168.017 732.241 163.757 720.558C172.319 717.124 194.989 714.676 204.422 713.889Z" fill="var(--fill-0, #D7D5D5)"/>
<path id="Vector_42" d="M257.489 708.547C263.836 707.893 286.137 709.338 292.994 710.35C291.073 727.292 290.949 750.359 290.397 767.756C288.999 766.404 287.25 765.03 285.729 763.779C275.716 757.584 264.265 757.518 255.41 765.839C255.327 754.88 254.317 742.577 253.493 731.583C252.926 724.009 251.529 717.098 251.452 709.227C253.248 708.914 255.632 708.737 257.489 708.547Z" fill="var(--fill-0, #D7D5D5)"/>
<path id="Vector_43" d="M203.483 799.63C208.463 799.436 217.055 792.149 220.908 788.764C223.374 799.135 232.565 836.802 227.661 844.571C227.077 845.499 226.33 846.056 225.272 846.277C222.804 846.789 217.994 844.133 215.625 843.183C204.585 838.742 188.298 834.209 176.66 838.853C171.801 840.793 167.858 844.248 164.24 847.929C165.552 841.981 167.435 834.173 170.692 828.91C172.855 824.531 174.991 820.094 177.354 815.821C181.97 815.234 185.56 814.96 190.207 814.964C194.205 814.964 199.516 815.295 203.332 814.672C204.45 813.545 205.637 812.542 206.217 811.08C206.084 809.197 206.114 809.732 204.937 808.026C205.662 805.481 207.201 802.176 205.715 799.9L203.483 799.63Z" fill="var(--fill-0, #24252E)"/>
<path id="Vector_44" d="M177.354 815.821C181.97 815.233 185.56 814.96 190.207 814.964C194.205 814.964 199.516 815.295 203.332 814.672C203.716 815.834 201.23 825.097 200.751 827.492C192.63 825.583 186.83 824.597 178.42 826.687C176.273 827.222 172.554 828.543 170.692 828.91C172.855 824.531 174.991 820.094 177.354 815.821Z" fill="var(--fill-0, #343543)"/>
<path id="Vector_45" d="M32.2351 560.808C32.9432 543.8 50.1972 534.737 59.0095 521.882C61.8536 517.737 81.1258 513.959 84.7728 519.076C83.8607 522.231 70.3898 542.965 67.7525 547.649C60.9946 559.81 55.2667 572.51 50.6294 585.625C46.1922 583.756 44.0848 583.08 40.6509 579.58L39.1001 577.569C36.0481 573.371 33.4661 568.696 32.6181 563.526L32.2351 560.808Z" fill="var(--fill-0, #B36D51)"/>
<path id="Vector_46" d="M62.0662 548.033C57.3657 559.452 46.7521 567.848 40.651 579.58L39.1001 577.569C43.7533 569.567 56.1231 556.624 62.0662 548.033Z" fill="var(--fill-0, #91482D)"/>
<path id="Vector_47" d="M50.8384 538.479C47.3381 546.76 42.9715 550.662 37.309 557.441C35.8283 559.213 34.061 562.041 32.6181 563.526L32.2351 560.808C38.7757 553.097 44.848 546.681 50.8384 538.479Z" fill="var(--fill-0, #91482D)"/>
<path id="Vector_48" d="M140.861 662.197C156.906 661.423 174.972 662.669 191.036 663.77C197.142 664.185 204.368 664.446 210.317 665.325C210.674 672.426 211.087 678.754 211.814 685.82L204.191 684.371C187.425 680.92 156.427 678.657 139.949 682.771C137.776 675.648 136.51 669.612 134.889 662.36L140.861 662.197Z" fill="var(--fill-0, #3E4C74)"/>
<path id="Vector_49" d="M153.699 683.284C170.527 682.639 183.901 684.517 200.339 686.382C201.428 690.893 203.787 705.308 204.413 709.992L195.869 711.273C193.535 711.737 188.638 712.051 185.995 712.436C177.783 713.629 170.618 714.61 162.622 716.855C159.389 706.125 155.029 694.892 151.391 684.194C151.985 683.421 152.53 683.536 153.699 683.284Z" fill="var(--fill-0, #B36D51)"/>
<path id="Vector_50" d="M166.842 407.326C167.759 407.244 168.116 407.353 168.999 407.517L169.633 408.46C171.579 418.757 141.986 444.961 136.061 453.954C132.915 458.731 131.943 461.475 130.231 466.999C132.813 473.932 141.438 488.298 126.205 487.264C119.073 484.378 120.169 478.444 121.423 472.133C119.949 468.912 117.825 464.802 119.1 461.152C124.744 445.005 142.385 429.935 154.364 418.019C157.414 414.986 163.684 409.141 166.842 407.326Z" fill="var(--fill-0, #FE5252)"/>
<path id="Vector_51" d="M241.604 862.839C241.918 862.114 241.877 862.021 242.674 861.708C261.098 854.474 275.865 857.152 294.056 862.989C294.741 864.324 294.386 866.233 293.901 867.594C286.781 887.611 252.1 888.235 243.403 869.724C242.374 867.563 241.763 865.229 241.604 862.839Z" fill="var(--fill-0, #D7D5D5)"/>
<path id="Vector_52" d="M294.056 862.989C294.741 864.324 294.386 866.233 293.901 867.594C286.781 887.611 252.1 888.235 243.403 869.724C242.374 867.563 241.763 865.229 241.604 862.839C243.357 864.266 246.296 868.818 249.152 870.872C255.907 875.72 264.446 876.67 272.461 875.685C282.198 874.492 288.26 870.342 294.056 862.989Z" fill="var(--fill-0, #C0BEBE)"/>
<path id="Vector_53" d="M238.417 668.896C263.038 673.739 282.422 677.128 306.569 685.312C306.38 689.457 306.101 693.598 305.73 697.729C291.68 691.949 252.476 685.825 237.511 685.922C237.429 680.999 238.098 673.955 238.417 668.896Z" fill="var(--fill-0, #3E4C74)"/>
<path id="Vector_54" d="M164.901 851.394C179.997 832.507 203.279 840.298 222.331 848.057C223.697 848.84 224.625 849.56 226.194 849.343C227.096 848.787 227.56 848.526 228.354 847.832C226.524 858.292 171.775 868.376 164.443 854.284C163.898 853.241 164.092 853.303 164.226 852.3L164.901 851.394Z" fill="var(--fill-0, #D7D5D5)"/>
<path id="Vector_55" d="M222.331 848.057C223.697 848.84 224.625 849.56 226.194 849.343C227.096 848.787 227.56 848.526 228.354 847.832C226.524 858.292 171.775 868.376 164.443 854.284C163.898 853.241 164.092 853.303 164.226 852.3L164.901 851.394C173.874 859.348 212.595 854.571 222.331 848.057Z" fill="var(--fill-0, #C0BEBE)"/>
<path id="Vector_56" d="M290.596 223.295C307.843 221.303 313.679 229.382 307.058 245.179C304.436 251.436 301.385 255.872 295.012 258.59C292.17 258.618 291.196 258.215 288.478 256.666C280.654 252.209 271.278 237.391 276.118 228.492C277.781 225.434 286.878 223.926 290.596 223.295Z" fill="var(--fill-0, #24252E)"/>
<path id="Vector_57" d="M267.866 763.717C277.475 762.776 290.45 766.44 289.511 778.989C289.183 783.369 285.836 789.506 282.982 792.799C282.574 793.271 281.592 792.887 280.979 792.772C272.586 791.508 271.818 790.748 263.159 791.111C258.476 780.474 251.69 766.727 267.866 763.717Z" fill="var(--fill-0, #24252E)"/>
<path id="Vector_58" d="M187.28 766.417C195.137 766.285 204.008 768.888 207.263 776.979C209.229 781.866 207.51 786.051 205.534 790.571C200.953 790.624 197.004 789.776 192.333 790.457C188.425 790.629 184.229 791.778 180.391 792.692C177.866 788.654 174.326 780.859 173.65 776.152C172.508 768.203 181.528 766.824 187.28 766.417Z" fill="var(--fill-0, #24252E)"/>
<path id="Vector_59" d="M249.51 689.351C263.173 691.481 280.973 693.098 294.147 696.894L293.318 707.738C290.389 707.84 281.312 706.187 277.695 705.781C268.03 704.703 260.797 704.694 251.146 705.414C250.714 700.045 250.169 694.694 249.51 689.351Z" fill="var(--fill-0, #B36D51)"/>
<path id="Vector_60" d="M366.909 316.687C368.569 319.485 369.34 322.37 371.616 325.912C375.13 331.38 379.042 336.844 381.906 342.614C380.401 346.101 368.621 343.764 365.804 342.8C360.678 341.286 353.071 339.765 347.767 338.7C356.577 330.277 359.727 326.281 366.909 316.687Z" fill="var(--fill-0, #24252E)"/>
<path id="Vector_61" d="M379.322 293.759C380.617 294.922 384.15 302.941 385.586 305.07C390.522 312.392 396.945 317.569 403.989 322.553C400.696 322.576 397.809 322.646 394.527 322.289C383.354 319.255 379.345 316.75 369.435 312.325C374.203 304.896 376.111 301.934 379.322 293.759Z" fill="var(--fill-0, #24252E)"/>
<path id="Vector_62" d="M213.354 665.82C220.739 666.921 227.571 667.371 235.079 668.763L234.924 680.593C231.732 680.381 227.321 679.342 224.048 678.962C220.655 678.569 217.331 678.237 213.958 677.698C213.446 674.243 213.449 669.417 213.354 665.82Z" fill="var(--fill-0, #FE5252)"/>
<path id="Vector_63" d="M266.012 793.263C274.37 792.246 281.184 793.727 286.166 800.761C283.352 804.951 282.405 804.345 277.748 803.718C267.471 801.482 266.657 802.922 257.668 801.941C256.845 801.292 256.989 801.623 256.686 800.682C255.028 795.525 262.325 794.354 266.012 793.263Z" fill="var(--fill-0, #D7D5D5)"/>
<path id="Vector_64" d="M195.051 792.533C197.536 792.489 207.414 791.614 207.568 795.565C205.368 798.313 192.559 798.751 187.847 799.613C184.321 799.683 180.566 803.227 178.041 798.733C178.675 794.372 191.209 792.975 195.051 792.533Z" fill="var(--fill-0, #D7D5D5)"/>
<path id="Vector_65" d="M186.91 807.522C190.419 807.355 202.162 807.916 203.417 811.5C201.52 813.855 194.044 812.953 191.291 812.732C186.962 812.551 177.406 814.602 174.686 812.71C174.2 808.596 183.964 807.986 186.91 807.522Z" fill="var(--fill-0, #D7D5D5)"/>
<path id="Vector_66" d="M204.937 808.026C201.332 806.692 195.381 805.786 191.458 805.481C189.264 805.309 183.913 805.874 182.641 805.362C183.237 800.465 199.464 799.873 203.483 799.63L205.715 799.9C207.201 802.176 205.662 805.481 204.937 808.026Z" fill="var(--fill-0, #343543)"/>
<path id="Vector_67" d="M255.512 780.682C255.866 781.146 259.014 789.696 259.506 790.965L259.206 791.468C254.014 791.667 253.583 790.845 254.722 785.671C255.042 784.213 255.279 782.202 255.512 780.682Z" fill="var(--fill-0, #D7D5D5)"/>
<path id="Vector_68" d="M130.204 662.581L131.898 662.515C132.847 663.328 132.577 662.89 132.731 664.393L132.025 665.069C129.897 665.453 125.915 664.636 123.222 664.441C122.047 664.415 118.658 663.792 117.341 663.584C121.588 663.496 125.964 662.996 130.204 662.581Z" fill="var(--fill-0, #FE5252)"/>
<path id="Vector_69" d="M308.902 685.984C311.857 687.04 319.498 689.643 321.865 691.251C318.173 690.496 312.835 690.61 309.635 688.675C308.811 688.18 308.978 687.075 308.902 685.984Z" fill="var(--fill-0, #FE5252)"/>
<path id="Vector_70" d="M290.147 786.462C290.383 788.256 291.035 791.265 290.31 792.776C288.815 794.005 288.886 793.616 286.547 793.775L286.228 793.457C286.734 791.548 289.01 788.265 290.147 786.462Z" fill="var(--fill-0, #D7D5D5)"/>
<path id="Vector_71" d="M297.556 697.358L303.593 699.223L303.724 699.74C301.823 699.974 299.916 700.805 298.107 700.367C297.102 699.21 297.442 699.272 297.556 697.358Z" fill="var(--fill-0, #3E4C74)"/>
<path id="Vector_72" d="M203.83 687.164C205.919 687.491 208.003 687.849 210.081 688.242L210.087 688.728C207.706 688.971 206.215 689.93 204.241 688.9L203.83 687.164Z" fill="var(--fill-0, #3E4C74)"/>
<path id="Vector_73" d="M239.85 688.551C240.78 688.591 241.709 688.644 242.638 688.701C244.928 688.856 245.442 688.821 246.796 690.376C243.672 690.69 242.577 690.098 239.85 688.551Z" fill="var(--fill-0, #3E4C74)"/>
<path id="Vector_74" d="M392.888 635.281C393.618 640.729 394.189 651.821 392.863 657.186C392.031 648.909 392.142 643.553 392.888 635.281Z" fill="var(--fill-0, black)" fill-opacity="0.968627"/>
<path id="Vector 19" d="M419.5 236.474C419.167 231.307 416.4 220.274 408 217.474C399.6 214.674 390.833 224.974 387.5 230.474C386 233.64 383 240.474 383 242.474C383 244.474 389.5 244.974 391.5 248.474C393.5 251.974 393 256.778 391 259.474C388.425 262.945 379 264.974 379 264.974" stroke="var(--stroke-0, #91482D)" stroke-width="2" stroke-linecap="round"/>
<path id="Vector 20" d="M388.5 241.5C391 238.167 397.3 232 402.5 234C407.7 236 409.462 238.766 411 243.5C412.776 248.965 410.9 254.8 408.5 258C406.1 261.2 400.167 262.667 397.5 263" stroke="var(--stroke-0, #91482D)" stroke-width="2" stroke-linecap="round"/>
</g>
</svg>
