<svg width="1417" height="1095" viewBox="0 0 1417 1095" fill="none" xmlns="http://www.w3.org/2000/svg">
<g id="Boy Variation 3">
<path id="Vector" d="M489.829 233.878C543.659 144.233 675.874 112.539 765.976 165.983C811.655 195.191 849.287 245.755 863.45 297.743C879.198 355.553 870.86 417.607 840.258 468.681C825.057 494.041 778.195 547.256 749.357 555.664C750.678 586.807 751.882 633.501 775.78 655.373C777.655 657.062 779.565 658.709 781.516 660.314C750.208 681.188 719.335 699.901 683.718 712.442C672.168 716.502 654.295 726.165 641.541 724.568C630.179 721.773 611.016 709.329 602.323 701.035C606.719 693.841 611.035 686.598 615.271 679.307C620.405 676.971 624.331 675.624 628.47 671.068C641.172 657.086 654.982 639.622 663.832 622.932C664.492 621.687 664.331 614.608 664.316 612.903C664.425 606.092 664.479 602.168 662.916 595.529C645.888 601.71 622.8 605.566 604.554 604.268C595.088 603.595 587.248 597.007 579.5 592.131C558.571 578.958 541.884 563.171 526.292 544.016C520.481 536.879 512.583 524.998 509.434 516.431C501.297 494.291 500.839 465.83 503.275 442.66C485.736 431.267 469.966 409.209 460.177 391.055C453.158 401.907 448.532 411.196 444.363 423.537C442.887 427.906 442.783 433.226 440.996 436.517L440.011 436.727C437.4 433.711 435.508 424.953 434.61 420.762C424.869 375.332 423.482 319.09 448.128 278.217C427.846 282.477 403.479 280.667 383.961 271.478C383.387 271.208 382.63 270.423 382.19 269.971L382.462 268.736C384.7 267.47 396.082 267.35 400.223 266.734C405.041 266.021 409.792 264.912 414.428 263.418C440.714 255.006 464.555 234.33 489.829 233.878Z" fill="#442301"/>
<path id="Vector_2" d="M486.923 317.739L606.031 359.726C623.398 366.033 646.765 373.612 663.074 381.192C656.482 370.181 650.55 351.937 644.904 339.734C672.101 368.582 696.392 408.142 712.049 444.774C714.291 450.014 718.29 460.819 720.567 466.62C721.127 466.749 721.694 466.877 722.255 467.006C733.374 463.024 744.638 427.7 747.89 417.557C750.097 410.675 763.443 400.84 769.906 398.279C780.242 393.961 790.524 402.838 793.049 412.724C800.916 443.53 790.586 471.558 772.791 496.313C777.648 501.518 782.394 506.825 787.023 512.227C778.374 527.412 764.709 540.931 750.422 550.721C749.114 551.616 749.426 554.195 749.356 555.664C750.678 586.807 751.882 633.501 775.78 655.373C777.655 657.062 779.564 658.709 781.516 660.314C750.207 681.188 719.335 699.901 683.718 712.442C672.168 716.502 654.295 726.165 641.54 724.568C630.179 721.773 611.015 709.329 602.322 701.035C606.718 693.841 611.034 686.598 615.271 679.307C620.404 676.971 624.331 675.624 628.469 671.068C641.172 657.086 654.982 639.622 663.831 622.932C664.491 621.687 664.331 614.608 664.316 612.903C664.424 606.092 664.479 602.168 662.915 595.529C645.888 601.71 622.8 605.566 604.554 604.268C595.087 603.595 587.247 597.007 579.5 592.131C558.571 578.958 541.883 563.171 526.292 544.016C520.481 536.879 512.582 524.998 509.434 516.431C501.296 494.291 500.839 465.83 503.274 442.66C502.94 439.549 487.062 411.635 484.372 406.078C482.971 402.538 481.629 398.21 480.395 394.546C472.197 370.736 476.593 340.219 486.923 317.739Z" fill="#E1A476"/>
<path id="Vector_3" d="M702.349 578.839C694.994 593.551 685.084 605.902 668.946 611.44C668.153 611.713 664.69 612.707 664.315 612.903C664.424 606.093 664.479 602.168 662.915 595.529C675.557 589.716 690.431 585.342 702.349 578.839Z" fill="#B58159"/>
<path id="Vector_4" d="M480.395 394.546C498.07 394.001 509.839 399.328 523.928 410.144C514.558 407.525 492.458 399.728 484.372 406.078C482.97 402.538 481.629 398.21 480.395 394.546Z" fill="#723B29"/>
<path id="Vector_5" d="M606.308 444.31C605.717 445.465 606.106 444.928 604.603 445.629L603.515 444.704C602.668 441.869 603.456 440.415 604.295 437.243C612.172 407.481 652.449 399.641 672.613 420.98C673.402 421.815 672.284 423.838 671.842 424.947C673.84 441.719 650.266 457.801 635.318 459.634C627.576 460.65 619.758 458.436 613.7 453.512C610.134 450.657 608.706 448.124 606.308 444.31Z" fill="#FEFEFE"/>
<path id="Vector_6" d="M619.818 422.799C623.975 415.103 645.568 412.331 653.413 416.697C654.7 420.047 657.963 424.639 658.534 427.706C663.184 452.657 636.133 457.266 623.522 438.313L623.484 437.149C626.433 436.018 629.976 435.656 631.829 433.844C632.282 431.699 632.223 432.486 631.121 430.111C624.451 424.823 619.561 433.058 620.215 424.517C620.276 423.715 620.137 423.623 619.818 422.799Z" fill="#3E382C"/>
<path id="Vector_7" d="M606.308 444.31C605.717 445.465 606.106 444.928 604.603 445.629L603.515 444.704C602.668 441.869 603.456 440.415 604.295 437.243C612.172 407.481 652.449 399.641 672.613 420.98C673.402 421.815 672.284 423.838 671.842 424.947C666.081 424.522 660.492 419.373 653.414 416.697C645.568 412.331 623.975 415.102 619.819 422.799C612.123 430.515 610.154 434.114 606.308 444.31Z" fill="black"/>
<path id="Vector_8" d="M582.516 573.978C576.484 573.948 568.074 559.647 562.258 555.783C557.941 552.915 555.658 553.655 552.889 551.446L553.072 550.257C564.992 550.364 574.568 548.415 586.235 546.613C596.149 545.08 606.906 545.794 616.645 543.46C618.927 542.913 620.165 541.485 622.693 541.968C622.947 548.008 619.858 563.849 615.902 568.526L614.608 567.288C604.923 582.392 597.142 584.258 582.516 573.978Z" fill="#BD4D3B"/>
<path id="Vector_9" d="M582.516 573.978C576.484 573.948 568.074 559.647 562.258 555.783C557.941 552.915 555.658 553.655 552.889 551.446L553.072 550.257C564.992 550.364 574.568 548.415 586.235 546.613C596.149 545.08 606.906 545.794 616.645 543.46C618.927 542.913 620.165 541.485 622.693 541.968C622.947 548.008 619.858 563.849 615.902 568.526L614.608 567.288C616.198 563.309 617.936 559.108 617.826 554.822C618.927 551.877 619.863 550.611 617.897 548.028C612.298 545.948 596.593 548.412 589.805 549.128L585.053 549.753C580.355 557.07 579.783 559.888 577.155 567.913C578.858 569.872 580.731 572.134 582.516 573.978Z" fill="#B58159"/>
<path id="Vector_10" d="M563.377 553.223C569.545 552.034 579.073 549.915 585.053 549.753C580.355 557.07 579.783 559.888 577.155 567.913C575.654 566.866 567.146 556.565 563.377 553.223Z" fill="#450200"/>
<path id="Vector_11" d="M585.053 549.753L589.806 549.128C587.943 554.915 586.348 559.524 585.588 565.642C586.594 568.097 587.893 571.912 590.613 572.677C600.534 575.468 612.58 561.022 617.826 554.822C617.936 559.108 616.198 563.309 614.608 567.288C604.924 582.392 597.142 584.258 582.516 573.978C580.731 572.134 578.858 569.872 577.155 567.913C579.783 559.888 580.355 557.07 585.053 549.753Z" fill="#FEFEFE"/>
<path id="Vector_12" d="M509.115 435.166C506.452 435.015 506.981 435.46 505.386 434.043C502.042 414.389 518.972 418.928 528.007 427.87C532.532 432.348 547.067 446.931 547.265 453.035C546.46 456.224 546.61 458.667 546.585 461.938L546.881 462.212C549.185 472.7 535.819 473.8 528.648 468.846C518.243 461.658 511.979 446.976 509.115 435.166Z" fill="#3E382C"/>
<path id="Vector_13" d="M509.114 435.166C509.244 430.906 508.741 428.207 512.598 425.769C515.538 425.217 517.005 425.971 519.788 426.924C519.587 429.842 519.111 432.929 519.892 435.671C523.887 439.167 527.181 435.66 530.24 441.355L529.886 442.703C526.468 444.261 524.539 443.521 522.919 445.298C525.029 452.653 537.714 471.863 546.584 461.938L546.881 462.212C549.185 472.7 535.819 473.8 528.648 468.846C518.242 461.658 511.978 446.976 509.114 435.166Z" fill="#FEFEFE"/>
<path id="Vector_14" d="M509.115 435.166C506.452 435.015 506.981 435.46 505.386 434.043C502.042 414.389 518.972 418.928 528.007 427.87C532.532 432.348 547.067 446.931 547.265 453.035C542.425 450.925 530.414 429.975 519.789 426.924C517.006 425.971 515.538 425.217 512.599 425.769C508.741 428.207 509.245 430.906 509.115 435.166Z" fill="black"/>
<path id="Vector_15" d="M618.106 378.537C639.224 377.197 646.304 383.428 664.658 393.344C655.631 392.325 648.369 391.296 639.141 390.611C622.562 389.064 608.501 387.885 592.49 394.029C601.829 386.045 607.08 383.423 618.106 378.537Z" fill="#723B29"/>
<path id="Vector_16" d="M539.181 513.243L539.055 511.105L539.985 510.52C543.263 512.242 546.331 516.536 549.527 519.096C560.512 527.893 569.925 521.775 579.991 521.403L581.089 521.92C580.107 524.299 571.64 529.052 569.066 530.675C555.314 539.344 544.687 523.713 539.181 513.243Z" fill="#B58159"/>
<path id="Vector_17" d="M539.181 513.243L539.055 511.105L539.985 510.52C543.263 512.242 546.331 516.536 549.527 519.096C560.512 527.893 569.925 521.775 579.991 521.403C577.084 523.705 569.945 526.232 566.304 526.634C553.388 528.063 548.245 520.202 539.68 513.622L539.181 513.243Z" fill="#936743"/>
<path id="Vector_18" d="M781.515 660.314C795.035 670.044 818.193 679.718 834.016 686.884C874.257 705.109 891.79 743.604 898.432 784.976C900.881 800.215 904.382 831.384 905.088 847.584C901.85 848.241 896.709 849.445 893.595 849.535C897.242 871.338 895.989 893.169 899.124 914.301C905.475 957.091 913.328 1000.03 920.752 1042.67C923.79 1060.14 925.81 1077.83 928.785 1095H849.861H552.44C552.785 1086.19 552.996 1077.39 553.073 1068.58C553.088 1061.13 552.731 1052.14 553.551 1044.9C554.694 1030.77 551.474 1019.26 549.803 1005.58C547.167 984.006 544.696 962.189 539.874 940.946C536.6 913.637 533.003 886.362 529.082 859.136C523.796 823.671 506.735 755.737 523.957 723.468C535.745 701.381 590.999 685.537 615.27 679.307C611.034 686.598 606.718 693.841 602.322 701.035C611.015 709.329 630.179 721.773 641.54 724.568C654.295 726.165 672.168 716.502 683.717 712.442C719.335 699.901 750.207 681.188 781.515 660.314Z" fill="#BD4D3B"/>
<path id="Vector_19" d="M809.517 862.85C819.404 862.062 833.608 859.482 843.544 857.828L893.596 849.535C897.242 871.338 895.99 893.169 899.124 914.301C905.475 957.091 913.328 1000.03 920.753 1042.67C923.79 1060.14 925.81 1077.83 928.785 1095H849.861C844.305 1078.38 841.351 1054.67 838.292 1037.46C831.138 997.169 826.26 956.724 818.165 916.556C814.644 899.055 812.679 880.545 809.517 862.85Z" fill="#E1A476"/>
<path id="Vector_20" d="M334.036 710.782C332.7 701.312 329.98 693.011 328.081 683.391C324.055 662.137 320.722 640.218 325.178 618.747C327.044 609.762 338.153 594.188 343.006 611.362C344.601 617.005 344.555 629.918 345.236 636.502C347.479 658.23 352.155 674.801 360.082 694.962C368.114 693.219 370.153 694.893 372.715 702.709C374.038 716.474 377.568 729.292 383.272 741.971C391.363 759.956 404.768 773.403 406.197 793.851C407.008 805.444 404.393 814.056 402.909 825.02L539.875 940.946C544.696 962.189 547.167 984.006 549.803 1005.58C551.474 1019.26 554.694 1030.77 553.551 1044.9C488.945 1011.13 430.666 928.993 380.562 876.436C370.506 865.894 360.432 854.605 349.99 844.291C346.212 840.563 339.336 837.18 335.95 833.161C332.617 829.198 331.549 821.52 328.301 817.321C320.305 823.443 315.786 818.31 311.095 811.58L310.213 811.407C299.866 809.325 285.876 789.818 278.431 781.96C273.72 776.987 277.59 760.62 279.463 754.139C282.22 744.614 284.33 731.838 293.159 726.166C297.022 721.074 299.837 720.445 305.784 718.999L309.948 716.8C315.261 713.403 316.465 713.21 322.512 712.144C326.053 711.058 330.332 710.643 334.036 710.782Z" fill="#E1A476"/>
<path id="Vector_21" d="M309.947 716.8C315.261 713.403 316.465 713.21 322.511 712.144C316.64 715.188 312.311 717.775 310.463 724.678C307.785 734.674 298.734 768.167 303.836 776.184C306.245 779.968 326.288 811.026 327.063 811.704C336.998 808.626 329.269 789.984 326.7 783.724C323.942 777.159 320.903 770.719 317.593 764.418C322.111 758.144 325.793 752.174 328.95 745.07C329.78 743.203 330.879 738.61 331.978 738.063C332.487 743.528 324.656 758.476 322.323 764.632C327.493 775.423 339.31 797.399 335.408 809.2C334.652 811.49 332.188 814.125 329.944 815.073C328.455 815.695 326.963 815.82 325.442 815.156C323.654 814.388 322.242 812.922 321.139 811.351C318.851 808.08 315.369 800.733 313.365 797.821C307.665 789.534 304.413 786.076 300.313 777.388C294.432 764.923 311.941 721.676 309.947 716.8Z" fill="#936743"/>
<path id="Vector_22" d="M360.082 694.962C368.113 693.219 370.152 694.893 372.715 702.709C369.611 699.569 366.246 696.006 361.471 697.95C357.738 701.18 358.639 704.086 357.672 706.859C353.654 718.397 365.174 745.043 363.295 751.925C359.536 765.704 350.335 773.23 348.686 791.291C347.672 802.414 354.424 812.5 353.759 815.744L352.725 815.267C346.549 807.097 344.994 796.382 345.304 786.498C344.595 773.244 360.493 760.115 360.176 748.737C359.765 734.01 344.664 707.932 360.082 694.962Z" fill="#936743"/>
<path id="Vector_23" d="M293.159 726.166C297.022 721.074 299.837 720.445 305.785 718.999C304.565 719.933 298.718 724.173 298.203 725.218C293.53 734.722 289.367 750.971 287.337 761.084C285.245 771.508 289.165 777.658 295.282 785.114C301.395 792.564 305.095 797.648 308.824 806.634C305.3 802.241 301.689 797.911 297.996 793.657C288.871 783.26 283.543 779.055 284.315 764.632C284.819 755.225 293.87 732.135 293.159 726.166Z" fill="#936743"/>
</g>

</svg>
