<svg width="172" height="230" viewBox="0 0 172 230" fill="none" xmlns="http://www.w3.org/2000/svg">
<g id="Think bubble">
<g id="Ellipse 47">
<circle cx="155.615" cy="214.82" r="14.3059" fill="white" fill-opacity="0.5"/>
<path d="M169.749 217.076L169.303 217.042L169.749 217.076ZM169.663 218.203L169.217 218.169L169.663 218.203ZM168.874 220.214L169.224 220.493L168.874 220.214ZM167.468 221.981L167.818 222.259L167.468 221.981ZM165.51 224.725L165.881 224.975L165.51 224.725ZM164.883 225.656L164.512 225.406L164.883 225.656ZM163.274 227.193L163.509 227.573L163.274 227.193ZM161.312 228.404L161.547 228.785L161.312 228.404ZM159.182 229.03L159.175 228.583L159.182 229.03ZM158.033 229.05L158.026 228.603L158.033 229.05ZM156.884 229.069L156.892 229.516L156.884 229.069ZM154.639 228.919L154.707 228.477L154.639 228.919ZM152.446 228.579L152.378 229.021L152.446 228.579ZM150.267 228.045L150.124 228.468L150.267 228.045ZM148.101 227.315L148.243 226.891L148.101 227.315ZM146.239 226.105L146.567 225.802L146.239 226.105ZM144.681 224.416L144.353 224.719L144.681 224.416ZM143.329 221.393L142.897 221.507L143.329 221.393ZM141.675 217.143L141.279 217.35L141.675 217.143ZM141.135 216.108L141.532 215.901L141.135 216.108ZM140.867 213.948L140.433 213.843L140.867 213.948ZM142.819 207.273L142.396 207.128V207.128L142.819 207.273ZM148.043 203.037L148.279 203.416L148.043 203.037ZM149.921 201.863L149.685 201.483L149.921 201.863ZM153.054 200.734L152.947 200.3L153.054 200.734ZM158.751 200.246L158.744 200.693L158.751 200.246ZM160.766 201.09L161.079 200.77L160.766 201.09ZM161.614 201.916L161.302 202.236L161.614 201.916ZM162.462 202.743L162.15 203.063L162.462 202.743ZM164.385 204.062L164.572 203.656L164.385 204.062ZM166.535 205.048L166.349 205.454L166.535 205.048ZM167.985 206.645L168.408 206.501L167.985 206.645ZM168.735 208.853L168.311 208.997L168.735 208.853ZM169.437 211.049L169.865 210.92L169.437 211.049ZM170.092 213.233L169.664 213.361L170.092 213.233ZM170.295 214.448L170.61 214.765L170.295 214.448ZM170.046 214.696L169.731 214.38L170.046 214.696ZM169.835 215.948L170.281 215.982L169.835 215.948ZM169.749 217.076L169.303 217.042L169.217 218.169L169.663 218.203L170.109 218.237L170.195 217.11L169.749 217.076ZM169.663 218.203L169.217 218.169C169.166 218.832 168.937 219.417 168.524 219.936L168.874 220.214L169.224 220.493C169.748 219.834 170.044 219.078 170.109 218.237L169.663 218.203ZM168.874 220.214L168.524 219.936L167.821 220.819L168.171 221.098L168.521 221.376L169.224 220.493L168.874 220.214ZM168.171 221.098L167.821 220.819L167.119 221.702L167.468 221.981L167.818 222.259L168.521 221.376L168.171 221.098ZM167.468 221.981L167.119 221.702C166.643 222.3 166.192 222.914 165.767 223.545L166.138 223.795L166.509 224.045C166.921 223.434 167.357 222.839 167.818 222.259L167.468 221.981ZM166.138 223.795L165.767 223.545L165.14 224.475L165.51 224.725L165.881 224.975L166.509 224.045L166.138 223.795ZM165.51 224.725L165.14 224.475L164.512 225.406L164.883 225.656L165.253 225.906L165.881 224.975L165.51 224.725ZM164.883 225.656L164.512 225.406C164.13 225.973 163.641 226.441 163.039 226.812L163.274 227.193L163.509 227.573C164.215 227.137 164.798 226.581 165.253 225.906L164.883 225.656ZM163.274 227.193L163.039 226.812L162.058 227.418L162.293 227.798L162.528 228.179L163.509 227.573L163.274 227.193ZM162.293 227.798L162.058 227.418L161.077 228.024L161.312 228.404L161.547 228.785L162.528 228.179L162.293 227.798ZM161.312 228.404L161.077 228.024C160.492 228.386 159.86 228.571 159.175 228.583L159.182 229.03L159.19 229.477C160.037 229.462 160.825 229.231 161.547 228.785L161.312 228.404ZM159.182 229.03L159.175 228.583L158.026 228.603L158.033 229.05L158.041 229.497L159.19 229.477L159.182 229.03ZM158.033 229.05L158.026 228.603L156.877 228.622L156.884 229.069L156.892 229.516L158.041 229.497L158.033 229.05ZM156.884 229.069L156.877 228.622C156.135 228.635 155.412 228.587 154.707 228.477L154.639 228.919L154.571 229.361C155.327 229.478 156.101 229.53 156.892 229.516L156.884 229.069ZM154.639 228.919L154.707 228.477L153.611 228.308L153.543 228.749L153.474 229.191L154.571 229.361L154.639 228.919ZM153.543 228.749L153.611 228.308L152.515 228.138L152.446 228.579L152.378 229.021L153.474 229.191L153.543 228.749ZM152.446 228.579L152.515 228.138C151.81 228.028 151.108 227.856 150.41 227.621L150.267 228.045L150.124 228.468C150.87 228.72 151.621 228.904 152.378 229.021L152.446 228.579ZM150.267 228.045L150.41 227.621L149.326 227.256L149.184 227.68L149.041 228.103L150.124 228.468L150.267 228.045ZM149.184 227.68L149.326 227.256L148.243 226.891L148.101 227.315L147.958 227.739L149.041 228.103L149.184 227.68ZM148.101 227.315L148.243 226.891C147.593 226.672 147.036 226.311 146.567 225.802L146.239 226.105L145.91 226.409C146.48 227.026 147.164 227.471 147.958 227.739L148.101 227.315ZM146.239 226.105L146.567 225.802L145.789 224.958L145.46 225.261L145.131 225.564L145.91 226.409L146.239 226.105ZM145.46 225.261L145.789 224.958L145.01 224.113L144.681 224.416L144.353 224.719L145.131 225.564L145.46 225.261ZM144.681 224.416L145.01 224.113C144.539 223.603 144.22 223.023 144.048 222.369L143.616 222.483L143.184 222.596C143.394 223.395 143.785 224.104 144.353 224.719L144.681 224.416ZM143.616 222.483L144.048 222.369L143.761 221.279L143.329 221.393L142.897 221.507L143.184 222.596L143.616 222.483ZM143.329 221.393L143.761 221.279L143.475 220.19L143.042 220.304L142.61 220.418L142.897 221.507L143.329 221.393ZM143.042 220.304L143.475 220.19C143.275 219.43 142.987 218.691 142.612 217.972L142.215 218.179L141.819 218.386C142.164 219.047 142.428 219.725 142.61 220.418L143.042 220.304ZM142.215 218.179L142.612 217.972L142.072 216.937L141.675 217.143L141.279 217.35L141.819 218.386L142.215 218.179ZM141.675 217.143L142.072 216.937L141.532 215.901L141.135 216.108L140.739 216.315L141.279 217.35L141.675 217.143ZM141.135 216.108L141.532 215.901C141.221 215.306 141.146 214.696 141.302 214.053L140.867 213.948L140.433 213.843C140.226 214.699 140.329 215.529 140.739 216.315L141.135 216.108ZM140.867 213.948L141.302 214.053L141.574 212.929L141.14 212.824L140.705 212.719L140.433 213.843L140.867 213.948ZM141.14 212.824L141.574 212.929L141.847 211.805L141.412 211.7L140.978 211.594L140.705 212.719L141.14 212.824ZM141.412 211.7L141.847 211.805C142.025 211.069 142.238 210.341 142.486 209.62L142.063 209.475L141.64 209.329C141.383 210.076 141.163 210.831 140.978 211.594L141.412 211.7ZM142.063 209.475L142.486 209.62L142.864 208.519L142.441 208.374L142.018 208.229L141.64 209.329L142.063 209.475ZM142.441 208.374L142.864 208.519L143.242 207.419L142.819 207.273L142.396 207.128L142.018 208.229L142.441 208.374ZM142.819 207.273L143.242 207.419C143.462 206.779 143.85 206.28 144.418 205.91L144.174 205.535L143.929 205.161C143.195 205.64 142.681 206.3 142.396 207.128L142.819 207.273ZM144.174 205.535L144.418 205.91L145.395 205.272L145.15 204.898L144.906 204.524L143.929 205.161L144.174 205.535ZM145.15 204.898L145.395 205.272L146.371 204.635L146.127 204.261L145.882 203.886L144.906 204.524L145.15 204.898ZM146.127 204.261L146.371 204.635C147.02 204.212 147.656 203.805 148.279 203.416L148.043 203.037L147.806 202.657C147.177 203.05 146.536 203.46 145.882 203.886L146.127 204.261ZM148.043 203.037L148.279 203.416L149.219 202.829L148.982 202.45L148.745 202.07L147.806 202.657L148.043 203.037ZM148.982 202.45L149.219 202.829L150.158 202.242L149.921 201.863L149.685 201.483L148.745 202.07L148.982 202.45ZM149.921 201.863L150.158 202.242C150.744 201.876 151.379 201.608 152.065 201.439L151.958 201.005L151.85 200.571C151.074 200.762 150.352 201.067 149.685 201.483L149.921 201.863ZM151.958 201.005L152.065 201.439L153.161 201.168L153.054 200.734L152.947 200.3L151.85 200.571L151.958 201.005ZM153.054 200.734L153.161 201.168L154.258 200.897L154.151 200.463L154.044 200.029L152.947 200.3L153.054 200.734ZM154.151 200.463L154.258 200.897C154.951 200.726 155.667 200.646 156.408 200.657L156.415 200.21L156.422 199.763C155.607 199.751 154.813 199.839 154.044 200.029L154.151 200.463ZM156.415 200.21L156.408 200.657L157.576 200.675L157.583 200.228L157.59 199.781L156.422 199.763L156.415 200.21ZM157.583 200.228L157.576 200.675L158.744 200.693L158.751 200.246L158.758 199.799L157.59 199.781L157.583 200.228ZM158.751 200.246L158.744 200.693C159.407 200.703 159.97 200.938 160.454 201.41L160.766 201.09L161.079 200.77C160.433 200.14 159.652 199.812 158.758 199.799L158.751 200.246ZM160.766 201.09L160.454 201.41L161.302 202.236L161.614 201.916L161.926 201.596L161.079 200.77L160.766 201.09ZM161.614 201.916L161.302 202.236L162.15 203.063L162.462 202.743L162.774 202.423L161.926 201.596L161.614 201.916ZM162.462 202.743L162.15 203.063C162.752 203.649 163.436 204.118 164.199 204.468L164.385 204.062L164.572 203.656C163.902 203.348 163.303 202.938 162.774 202.423L162.462 202.743ZM164.385 204.062L164.199 204.468L165.274 204.961L165.46 204.555L165.647 204.149L164.572 203.656L164.385 204.062ZM165.46 204.555L165.274 204.961L166.349 205.454L166.535 205.048L166.722 204.642L165.647 204.149L165.46 204.555ZM166.535 205.048L166.349 205.454C166.956 205.733 167.352 206.171 167.562 206.789L167.985 206.645L168.408 206.501C168.118 205.647 167.548 205.021 166.722 204.642L166.535 205.048ZM167.985 206.645L167.562 206.789L167.937 207.893L168.36 207.749L168.783 207.605L168.408 206.501L167.985 206.645ZM168.36 207.749L167.937 207.893L168.311 208.997L168.735 208.853L169.158 208.709L168.783 207.605L168.36 207.749ZM168.735 208.853L168.311 208.997C168.56 209.728 168.792 210.454 169.009 211.177L169.437 211.049L169.865 210.92C169.645 210.187 169.41 209.45 169.158 208.709L168.735 208.853ZM169.437 211.049L169.009 211.177L169.336 212.269L169.765 212.141L170.193 212.012L169.865 210.92L169.437 211.049ZM169.765 212.141L169.336 212.269L169.664 213.361L170.092 213.233L170.52 213.104L170.193 212.012L169.765 212.141ZM170.092 213.233L169.664 213.361C169.771 213.719 169.836 213.981 169.866 214.156C169.88 214.245 169.883 214.293 169.882 214.312C169.882 214.321 169.881 214.308 169.888 214.283C169.895 214.26 169.916 214.195 169.98 214.132L170.295 214.448L170.61 214.765C170.695 214.681 170.732 214.586 170.75 214.522C170.768 214.456 170.774 214.392 170.776 214.34C170.779 214.237 170.766 214.122 170.748 214.009C170.709 213.778 170.631 213.474 170.52 213.104L170.092 213.233ZM170.295 214.448L169.98 214.132L169.855 214.256L170.17 214.572L170.486 214.889L170.61 214.765L170.295 214.448ZM170.17 214.572L169.855 214.256L169.731 214.38L170.046 214.696L170.361 215.013L170.486 214.889L170.17 214.572ZM170.046 214.696L169.731 214.38C169.624 214.485 169.579 214.624 169.559 214.69C169.531 214.779 169.509 214.884 169.49 214.997C169.452 215.225 169.418 215.533 169.389 215.914L169.835 215.948L170.281 215.982C170.309 215.611 170.34 215.334 170.372 215.146C170.388 215.05 170.402 214.988 170.413 214.952C170.431 214.894 170.426 214.949 170.361 215.013L170.046 214.696ZM169.835 215.948L169.389 215.914L169.303 217.042L169.749 217.076L170.195 217.11L170.281 215.982L169.835 215.948Z" fill="white"/>
</g>
<g id="Ellipse 45">
<circle cx="85.8738" cy="86.0674" r="84.9412" fill="white" fill-opacity="0.5"/>
<path d="M170.938 88.3116L171.384 88.2871L170.938 88.3116ZM170.999 89.4336L170.553 89.4581L170.999 89.4336ZM170.745 91.6509L171.174 91.7749L170.745 91.6509ZM170.429 92.7461L169.999 92.6221L170.429 92.7461ZM170.112 93.8413L169.683 93.7173L170.112 93.8413ZM169.862 96.0707L169.415 96.0964L169.862 96.0707ZM169.992 98.3389L170.439 98.3132L169.992 98.3389ZM169.703 102.836L169.259 102.79L169.703 102.836ZM169.158 105.008L168.744 104.84L169.158 105.008ZM168.303 107.11L168.717 107.279L168.303 107.11ZM167.55 109.23L167.122 109.099L167.55 109.23ZM166.898 111.366L167.326 111.497L166.898 111.366ZM166.344 113.544L165.907 113.453L166.344 113.544ZM165.888 115.761L166.326 115.851L165.888 115.761ZM165.17 117.882L164.768 117.688L165.17 117.882ZM164.192 119.908L164.594 120.103L164.192 119.908ZM162.987 121.814L163.335 122.094L162.987 121.814ZM162.271 122.707L161.922 122.428L162.271 122.707ZM161.555 123.6L161.206 123.32L161.555 123.6ZM160.617 125.645L160.178 125.561L160.617 125.645ZM160.173 127.951L159.734 127.866L160.173 127.951ZM158.573 130.894L158.219 130.621L158.573 130.894ZM157.884 131.789L158.238 132.062L157.884 131.789ZM156.671 133.69L157.068 133.896L156.671 133.69ZM155.625 135.701L155.228 135.495L155.625 135.701ZM154.205 137.431L153.924 137.083L154.205 137.431ZM152.41 138.878L152.691 139.226L152.41 138.878ZM150.839 140.495L150.482 140.225L150.839 140.495ZM150.165 141.387L150.522 141.657L150.165 141.387ZM149.491 142.28L149.848 142.549L149.491 142.28ZM148.093 144.03L147.752 143.742L148.093 144.03ZM146.646 145.746L146.988 146.035L146.646 145.746ZM145.197 147.475L145.54 147.761L145.197 147.475ZM144.47 148.345L144.127 148.058L144.47 148.345ZM143.744 149.215L144.087 149.502L143.744 149.215ZM141.914 150.514L142.076 150.93L141.914 150.514ZM139.707 151.371L139.545 150.954L139.707 151.371ZM137.946 152.782L137.574 152.533L137.946 152.782ZM136.63 154.747L137.001 154.996L136.63 154.747ZM134.927 156.192L135.108 156.601L134.927 156.192ZM132.839 157.117L132.658 156.708L132.839 157.117ZM129.103 159.627L129.373 159.982L129.103 159.627ZM127.074 160.561L126.977 160.125L127.074 160.561ZM125.943 160.814L126.04 161.25L125.943 160.814ZM124.812 161.066L124.714 160.63L124.812 161.066ZM122.841 162.162L122.524 161.846L122.841 162.162ZM122.002 163.005L122.319 163.32L122.002 163.005ZM121.163 163.848L120.846 163.533L121.163 163.848ZM119.237 165.011L119.363 165.44L119.237 165.011ZM118.151 165.33L118.025 164.901L118.151 165.33ZM117.065 165.65L117.191 166.078L117.065 165.65ZM114.904 166.292L115.033 166.72L114.904 166.292ZM112.753 166.939L112.624 166.511L112.753 166.939ZM110.61 167.609L110.748 168.034L110.61 167.609ZM108.474 168.3L108.336 167.875L108.474 168.3ZM106.258 168.634L106.253 169.081L106.258 168.634ZM105.11 168.621L105.115 168.174L105.11 168.621ZM103.962 168.609L103.967 168.162L103.962 168.609ZM101.753 168.987L101.598 168.567L101.753 168.987ZM100.691 169.377L100.537 168.958L100.691 169.377ZM99.6294 169.768L99.7838 170.187L99.6294 169.768ZM97.4592 170.311L97.3981 169.869L97.4592 170.311ZM95.2419 170.618L95.3031 171.06L95.2419 170.618ZM93.0057 170.602L93.072 170.159L93.0057 170.602ZM90.7505 170.263L90.6842 170.705L90.7505 170.263ZM88.512 170.443L88.6458 170.869L88.512 170.443ZM86.2904 171.139L86.1566 170.713L86.2904 171.139ZM84.0627 171.343L84.1202 170.899L84.0627 171.343ZM81.829 171.053L81.7715 171.496L81.829 171.053ZM79.6119 170.688L79.6996 170.249L79.6119 170.688ZM78.5117 170.468L78.424 170.906L78.5117 170.468ZM77.4114 170.248L77.4991 169.81L77.4114 170.248ZM75.1811 170.049L75.1729 169.602V169.602L75.1811 170.049ZM72.9209 170.09L72.9291 170.537V170.537L72.9209 170.09ZM70.6869 169.912L70.6077 170.352L70.6869 169.912ZM68.4793 169.515L68.5585 169.075L68.4793 169.515ZM66.3662 168.76L66.1502 169.151L66.3662 168.76ZM65.357 168.203L65.5729 167.811L65.357 168.203ZM64.3477 167.646L64.1317 168.037L64.3477 167.646ZM62.155 167.14L62.1743 167.586L62.155 167.14ZM59.7883 167.242L59.7691 166.795L59.7883 167.242ZM57.6788 166.571L57.4041 166.924L57.6788 166.571ZM56.7526 165.85L56.4779 166.202L56.7526 165.85ZM55.8265 165.128L56.1012 164.776L55.8265 165.128ZM53.8579 164.023L53.7034 164.443L53.8579 164.023ZM51.773 163.256L51.9274 162.836L51.773 163.256ZM49.5785 162.678L49.5042 163.119L49.5785 162.678ZM48.4264 162.484L48.5007 162.043L48.4264 162.484ZM47.2744 162.29L47.3486 161.849L47.2744 162.29ZM45.1408 161.539L44.9203 161.928L45.1408 161.539ZM44.1593 160.983L44.3798 160.594L44.1593 160.983ZM43.1778 160.426L43.3983 160.037L43.1778 160.426ZM41.4186 159.003L41.7513 158.704L41.4186 159.003ZM40.641 158.136L40.3082 158.435L40.641 158.136ZM39.8633 157.27L39.5306 157.568L39.8633 157.27ZM38.1038 155.862L37.8878 156.253L38.1038 155.862ZM36.1402 154.778L36.3562 154.387L36.1402 154.778ZM34.2724 153.554L33.9997 153.908L34.2724 153.554ZM33.3864 152.872L33.1137 153.226L33.3864 152.872ZM32.5004 152.19L32.7732 151.836L32.5004 152.19ZM30.8132 150.727L30.5013 151.047L30.8132 150.727ZM29.2107 149.166L29.5226 148.846L29.2107 149.166ZM27.6425 147.576L27.967 147.269L27.6425 147.576ZM26.8756 146.767L26.5511 147.074L26.8756 146.767ZM24.6409 144.283L24.2935 144.564L24.6409 144.283ZM23.9401 143.418L24.2874 143.136L23.9401 143.418ZM23.2392 142.553L22.8918 142.834L23.2392 142.553ZM21.5996 141.016L21.8596 140.652L21.5996 141.016ZM19.7221 139.674L19.4621 140.037L19.7221 139.674ZM18.1972 138.04L18.5789 137.808L18.1972 138.04ZM17.0248 136.116L16.643 136.349L17.0248 136.116ZM15.6667 134.319L15.995 134.015L15.6667 134.319ZM14.1229 132.649L13.7946 132.952L14.1229 132.649ZM12.9925 130.722L12.5677 130.861L12.9925 130.722ZM12.2753 128.538L12.7001 128.399L12.2753 128.538ZM11.3416 126.488L11.725 126.258L11.3416 126.488ZM10.1913 124.57L9.80788 124.8L10.1913 124.57ZM9.1444 122.597L8.73905 122.785L9.1444 122.597ZM8.20098 120.569L8.60633 120.38L8.20098 120.569ZM7.2148 118.553L6.81709 118.757L7.2148 118.553ZM6.70032 117.551L6.30261 117.755L6.70032 117.551ZM6.18584 116.549L6.58354 116.344L6.18584 116.549ZM5.35238 114.469L5.78104 114.342L5.35238 114.469ZM4.71442 112.314L4.28575 112.441L4.71442 112.314ZM4.13699 110.146L4.57201 110.043L4.13699 110.146ZM3.62008 107.963L3.18506 108.067L3.62008 107.963ZM2.70598 103.581L2.26753 103.668L2.70598 103.581ZM2.22663 101.392L2.66145 101.288L2.22663 101.392ZM1.96582 100.3L1.531 100.404L1.96582 100.3ZM1.24511 97.0087L1.68512 96.9297L1.24511 97.0087ZM0.846889 94.7923L0.406876 94.8714L0.846889 94.7923ZM0.482833 90.3126L0.0363086 90.3344L0.482833 90.3126ZM0.457058 88.0619L0.0101491 88.0503L0.457058 88.0619ZM0.843006 83.5769L0.411409 83.4603L0.843006 83.5769ZM1.14133 82.4722L1.57293 82.5888L1.14133 82.4722ZM1.43966 81.3676L1.00807 81.251L1.43966 81.3676ZM1.89294 76.9299L1.44636 76.9091L1.89294 76.9299ZM1.88481 74.6797L1.43836 74.7031L1.88481 74.6797ZM2.14359 69.0565L2.58208 69.1436L2.14359 69.0565ZM2.36265 67.9538L1.92416 67.8667L2.36265 67.9538ZM3.01138 65.8049L3.42492 65.9747L3.01138 65.8049ZM3.87072 63.7126L3.45718 63.5428L3.87072 63.7126ZM4.69848 61.6235L4.28081 61.4641L4.69848 61.6235ZM5.09657 60.5805L5.51424 60.7399L5.09657 60.5805ZM6.31791 57.4667L6.73102 57.6376L6.31791 57.4667ZM7.16822 55.4111L6.75511 55.2402L7.16822 55.4111ZM8.55566 52.3819L8.15276 52.1881V52.1881L8.55566 52.3819ZM9.03681 51.3812L9.43971 51.5749L9.03681 51.3812ZM9.94718 49.3534L10.3597 49.5258L9.94718 49.3534ZM10.8057 47.2993L10.3932 47.1269L10.8057 47.2993ZM11.8097 45.3201L12.1924 45.5511L11.8097 45.3201ZM12.3844 44.3679L12.0017 44.1369L12.3844 44.3679ZM12.9592 43.4157L12.5765 43.1847L12.9592 43.4157ZM14.2117 41.581L14.5662 41.8533L14.2117 41.581ZM14.8893 40.6985L15.2439 40.9708L14.8893 40.6985ZM15.567 39.816L15.2124 39.5437L15.567 39.816ZM16.6848 37.8793L16.2722 37.7071L16.6848 37.8793ZM17.1249 36.8253L17.5374 36.9975L17.1249 36.8253ZM19.8062 31.8432L19.4274 31.6058L19.8062 31.8432ZM21.228 30.1118L20.9215 29.7863L21.228 30.1118ZM22.8708 28.5649L23.1773 28.8903L22.8708 28.5649ZM24.4976 27.0118L24.1866 26.6906L24.4976 27.0118ZM26.1082 25.4526L26.4192 25.7738L26.1082 25.4526ZM27.7195 23.8935L28.0303 24.2148L27.7195 23.8935ZM28.5255 23.114L28.2147 22.7926L28.5255 23.114ZM35.6502 17.7218L35.462 17.3163L35.6502 17.7218ZM36.6833 17.2423L36.8715 17.6478L36.6833 17.2423ZM38.5422 15.9887L38.2365 15.6625L38.5422 15.9887ZM40.1939 14.4405L39.8882 14.1143L40.1939 14.4405ZM42.008 13.1389L42.2185 13.5332L42.008 13.1389ZM42.9962 12.6113L42.7857 12.2169L42.9962 12.6113ZM45.9596 11.0293L46.1701 11.4237L45.9596 11.0293ZM46.9466 10.5025L46.7361 10.1081L46.9466 10.5025ZM47.9336 9.97567L47.7231 9.58127L47.9336 9.97567ZM49.9522 9.01663L50.125 9.42896L49.9522 9.01663ZM52.0155 8.15218L51.8427 7.73985L52.0155 8.15218ZM54.1394 7.45744L54.2439 7.89212L54.1394 7.45744ZM55.2317 7.19492L55.1272 6.76024V6.76024L55.2317 7.19492ZM58.3625 5.96474L58.6297 6.3232L58.3625 5.96474ZM59.3087 5.25958L59.0416 4.90112L59.3087 5.25958ZM60.255 4.55442L59.9878 4.19596L60.255 4.55442ZM62.3874 3.95168L62.4259 3.50628L62.3874 3.95168ZM63.5737 4.0541L63.5353 4.4995L63.5737 4.0541ZM64.76 4.15652L64.7985 3.71111L64.76 4.15652ZM67.0255 4.00766L67.1268 4.44307L67.0255 4.00766ZM68.1046 3.75638L68.0033 3.32097L68.1046 3.75638ZM69.1838 3.50511L69.2852 3.94052L69.1838 3.50511ZM71.3334 2.89803L71.4744 3.32226L71.3334 2.89803ZM72.4038 2.54222L72.2628 2.11798L72.4038 2.54222ZM73.4742 2.18641L73.3332 1.76217L73.4742 2.18641ZM75.6445 1.56441L75.5394 1.1299L75.6445 1.56441ZM76.7444 1.29823L76.8496 1.73274L76.7444 1.29823ZM77.8443 1.03204L77.9494 1.46656L77.8443 1.03204ZM80.0683 0.706625L80.0448 0.260186L80.0683 0.706625ZM81.1925 0.647397L81.216 1.09384L81.1925 0.647397ZM82.3166 0.58817L82.2931 0.14173L82.3166 0.58817ZM84.5702 0.5022L84.5596 0.0552661L84.5702 0.5022ZM95.7139 1.99006L95.7064 1.54306L95.7139 1.99006ZM97.9209 2.22539L98.0226 1.79005L97.9209 2.22539ZM100.095 2.73339L99.9936 3.16873L100.095 2.73339ZM103.412 3.21605L103.366 3.66077L103.412 3.21605ZM106.706 3.78321L106.841 3.35716L106.706 3.78321ZM107.77 4.12171L107.635 4.54775L107.77 4.12171ZM108.835 4.46021L108.7 4.88625V4.88625L108.835 4.46021ZM111.04 4.91629L111.086 4.47159L111.04 4.91629ZM112.18 5.03387L112.134 5.47857L112.18 5.03387ZM113.321 5.15145L113.275 5.59616L113.321 5.15145ZM115.367 6.02482L115.654 5.68144L115.367 6.02482ZM117.18 7.53638L116.894 7.87976L117.18 7.53638ZM119.219 8.48914L119.143 8.92958L119.219 8.48914ZM121.485 8.88309L121.561 8.44265L121.485 8.88309ZM123.568 9.67894L123.806 9.30063L123.568 9.67894ZM124.519 10.2778L124.758 9.8995L124.519 10.2778ZM125.47 10.8767L125.232 11.255L125.47 10.8767ZM127.37 12.065L127.134 12.4447L127.37 12.065ZM129.267 13.2438L129.031 13.6235L129.267 13.2438ZM131.282 14.25L131.444 13.8336L131.282 14.25ZM132.348 14.6667L132.186 15.0831L132.348 14.6667ZM133.415 15.0835L133.578 14.667L133.415 15.0835ZM135.276 16.3156L135.597 16.0037L135.276 16.3156ZM136.865 17.9466L136.545 18.2585L136.865 17.9466ZM138.507 19.4897L138.798 19.1506L138.507 19.4897ZM140.201 20.9451L139.91 21.2842L140.201 20.9451ZM142.456 23.4291L142.107 23.7086L142.456 23.4291ZM143.16 24.3072L143.509 24.0277L143.16 24.3072ZM144.863 25.763L144.639 26.15L144.863 25.763ZM146.861 26.9182L147.084 26.5312L146.861 26.9182ZM148.589 28.3479L148.928 28.0571L148.589 28.3479ZM150.048 30.052L149.708 30.3428L150.048 30.052ZM151.369 31.8621L150.988 32.097L151.369 31.8621ZM151.96 32.82L151.58 33.0549L151.96 32.82ZM152.552 33.7779L152.932 33.543L152.552 33.7779ZM153.733 35.6809L153.354 35.9176L153.733 35.6809ZM154.912 37.5709L155.292 37.3342L154.912 37.5709ZM156.149 39.4207L155.785 39.6806L156.149 39.4207ZM156.795 40.3255L156.431 40.5853L156.795 40.3255ZM157.441 41.2302L157.805 40.9703V40.9703L157.441 41.2302ZM158.775 43.027L158.421 43.2999L158.775 43.027ZM159.463 43.919L159.817 43.646L159.463 43.919ZM161.401 46.6755L161.788 46.4517L161.401 46.6755ZM161.963 47.6479L161.576 47.8717L161.963 47.6479ZM162.525 48.6203L162.138 48.8441L162.525 48.6203ZM163.597 50.5973L163.996 50.395L163.597 50.5973ZM164.107 51.6018L164.506 51.3995L164.107 51.6018ZM164.617 52.6064L164.218 52.8087L164.617 52.6064ZM165.201 54.7777L164.755 54.8061L165.201 54.7777ZM166.095 59.2365L165.729 59.493L166.095 59.2365ZM167.438 61.1534L167.804 60.8969L167.438 61.1534ZM168.304 63.223L168.744 63.1461L168.304 63.223ZM168.692 65.4455L168.252 65.5224L168.692 65.4455ZM169.125 67.653L168.688 67.7482L169.125 67.653ZM169.603 69.8455L170.04 69.7503L169.603 69.8455ZM169.896 72.0657L169.449 72.087L169.896 72.0657ZM170.003 74.3136L170.45 74.2924L170.003 74.3136ZM170.459 77.646L170.02 77.7262L170.459 77.646ZM170.661 78.7502L171.101 78.6699L170.661 78.7502ZM170.753 80.9774L171.198 81.0206L170.753 80.9774ZM170.535 83.2235L170.09 83.1803L170.535 83.2235ZM170.523 84.7767L170.959 84.6782L170.523 84.7767ZM170.718 85.6372L170.282 85.7357L170.718 85.6372ZM170.876 87.1895L171.323 87.165L170.876 87.1895ZM170.938 88.3116L170.492 88.336L170.553 89.4581L170.999 89.4336L171.446 89.4092L171.384 88.2871L170.938 88.3116ZM170.999 89.4336L170.553 89.4581C170.591 90.1553 170.512 90.8443 170.315 91.5269L170.745 91.6509L171.174 91.7749C171.399 90.9973 171.49 90.208 171.446 89.4092L170.999 89.4336ZM170.745 91.6509L170.315 91.5269L169.999 92.6221L170.429 92.7461L170.858 92.8701L171.174 91.7749L170.745 91.6509ZM170.429 92.7461L169.999 92.6221L169.683 93.7173L170.112 93.8413L170.542 93.9653L170.858 92.8701L170.429 92.7461ZM170.112 93.8413L169.683 93.7173C169.458 94.4959 169.369 95.2896 169.415 96.0964L169.862 96.0707L170.308 96.045C170.267 95.3395 170.345 94.647 170.542 93.9653L170.112 93.8413ZM169.862 96.0707L169.415 96.0964L169.481 97.2305L169.927 97.2048L170.373 97.1791L170.308 96.045L169.862 96.0707ZM169.927 97.2048L169.481 97.2305L169.546 98.3646L169.992 98.3389L170.439 98.3132L170.373 97.1791L169.927 97.2048ZM169.992 98.3389L169.546 98.3646C169.588 99.0967 169.571 99.8242 169.495 100.547L169.939 100.594L170.384 100.641C170.465 99.8693 170.483 99.0933 170.439 98.3132L169.992 98.3389ZM169.939 100.594L169.495 100.547L169.377 101.669L169.821 101.715L170.266 101.762L170.384 100.641L169.939 100.594ZM169.821 101.715L169.377 101.669L169.259 102.79L169.703 102.836L170.148 102.883L170.266 101.762L169.821 101.715ZM169.703 102.836L169.259 102.79C169.184 103.495 169.013 104.178 168.744 104.84L169.158 105.008L169.572 105.177C169.873 104.438 170.065 103.673 170.148 102.883L169.703 102.836ZM169.158 105.008L168.744 104.84L168.316 105.891L168.73 106.059L169.144 106.228L169.572 105.177L169.158 105.008ZM168.73 106.059L168.316 105.891L167.889 106.942L168.303 107.11L168.717 107.279L169.144 106.228L168.73 106.059ZM168.303 107.11L167.889 106.942C167.599 107.655 167.343 108.374 167.122 109.099L167.55 109.23L167.977 109.36C168.19 108.661 168.437 107.967 168.717 107.279L168.303 107.11ZM167.55 109.23L167.122 109.099L166.796 110.168L167.224 110.298L167.652 110.428L167.977 109.36L167.55 109.23ZM167.224 110.298L166.796 110.168L166.471 111.236L166.898 111.366L167.326 111.497L167.652 110.428L167.224 110.298ZM166.898 111.366L166.471 111.236C166.249 111.962 166.061 112.701 165.907 113.453L166.344 113.544L166.782 113.634C166.932 112.908 167.113 112.196 167.326 111.497L166.898 111.366ZM166.344 113.544L165.907 113.453L165.678 114.562L166.116 114.652L166.554 114.742L166.782 113.634L166.344 113.544ZM166.116 114.652L165.678 114.562L165.45 115.67L165.888 115.761L166.326 115.851L166.554 114.742L166.116 114.652ZM165.888 115.761L165.45 115.67C165.305 116.374 165.078 117.046 164.768 117.688L165.17 117.882L165.573 118.077C165.915 117.368 166.166 116.626 166.326 115.851L165.888 115.761ZM165.17 117.882L164.768 117.688L164.278 118.701L164.681 118.895L165.084 119.09L165.573 118.077L165.17 117.882ZM164.681 118.895L164.278 118.701L163.789 119.714L164.192 119.908L164.594 120.103L165.084 119.09L164.681 118.895ZM164.192 119.908L163.789 119.714C163.478 120.359 163.094 120.965 162.638 121.535L162.987 121.814L163.335 122.094C163.833 121.473 164.253 120.809 164.594 120.103L164.192 119.908ZM162.987 121.814L162.638 121.535L161.922 122.428L162.271 122.707L162.619 122.987L163.335 122.094L162.987 121.814ZM162.271 122.707L161.922 122.428L161.206 123.32L161.555 123.6L161.903 123.88L162.619 122.987L162.271 122.707ZM161.555 123.6L161.206 123.32C160.682 123.974 160.339 124.723 160.178 125.561L160.617 125.645L161.056 125.73C161.19 125.031 161.473 124.417 161.903 123.88L161.555 123.6ZM160.617 125.645L160.178 125.561L159.956 126.714L160.395 126.798L160.834 126.883L161.056 125.73L160.617 125.645ZM160.395 126.798L159.956 126.714L159.734 127.866L160.173 127.951L160.612 128.035L160.834 126.883L160.395 126.798ZM160.173 127.951L159.734 127.866C159.599 128.569 159.324 129.187 158.908 129.726L159.262 129.999L159.617 130.271C160.12 129.617 160.452 128.869 160.612 128.035L160.173 127.951ZM159.262 129.999L158.908 129.726L158.219 130.621L158.573 130.894L158.927 131.167L159.617 130.271L159.262 129.999ZM158.573 130.894L158.219 130.621L157.53 131.516L157.884 131.789L158.238 132.062L158.927 131.167L158.573 130.894ZM157.884 131.789L157.53 131.516C157.054 132.134 156.636 132.79 156.275 133.484L156.671 133.69L157.068 133.896C157.405 133.249 157.795 132.638 158.238 132.062L157.884 131.789ZM156.671 133.69L156.275 133.484L155.752 134.489L156.148 134.696L156.545 134.902L157.068 133.896L156.671 133.69ZM156.148 134.696L155.752 134.489L155.228 135.495L155.625 135.701L156.022 135.908L156.545 134.902L156.148 134.696ZM155.625 135.701L155.228 135.495C154.909 136.11 154.475 136.638 153.924 137.083L154.205 137.431L154.485 137.779C155.131 137.258 155.644 136.634 156.022 135.908L155.625 135.701ZM154.205 137.431L153.924 137.083L153.027 137.807L153.308 138.155L153.588 138.502L154.485 137.779L154.205 137.431ZM153.308 138.155L153.027 137.807L152.13 138.53L152.41 138.878L152.691 139.226L153.588 138.502L153.308 138.155ZM152.41 138.878L152.13 138.53C151.504 139.035 150.954 139.6 150.482 140.225L150.839 140.495L151.196 140.764C151.623 140.199 152.121 139.686 152.691 139.226L152.41 138.878ZM150.839 140.495L150.482 140.225L149.808 141.118L150.165 141.387L150.522 141.657L151.196 140.764L150.839 140.495ZM150.165 141.387L149.808 141.118L149.134 142.01L149.491 142.28L149.848 142.549L150.522 141.657L150.165 141.387ZM149.491 142.28L149.134 142.01C148.69 142.599 148.229 143.176 147.752 143.742L148.093 144.03L148.435 144.319C148.923 143.741 149.393 143.151 149.848 142.549L149.491 142.28ZM148.093 144.03L147.752 143.742L147.028 144.6L147.37 144.888L147.712 145.177L148.435 144.319L148.093 144.03ZM147.37 144.888L147.028 144.6L146.305 145.458L146.646 145.746L146.988 146.035L147.712 145.177L147.37 144.888ZM146.646 145.746L146.305 145.458C145.822 146.031 145.338 146.607 144.853 147.188L145.197 147.475L145.54 147.761C146.024 147.182 146.506 146.606 146.988 146.035L146.646 145.746ZM145.197 147.475L144.853 147.188L144.127 148.058L144.47 148.345L144.813 148.631L145.54 147.761L145.197 147.475ZM144.47 148.345L144.127 148.058L143.401 148.929L143.744 149.215L144.087 149.502L144.813 148.631L144.47 148.345ZM143.744 149.215L143.401 148.929C142.967 149.448 142.421 149.837 141.752 150.097L141.914 150.514L142.076 150.93C142.879 150.619 143.552 150.142 144.087 149.502L143.744 149.215ZM141.914 150.514L141.752 150.097L140.649 150.525L140.811 150.942L140.972 151.359L142.076 150.93L141.914 150.514ZM140.811 150.942L140.649 150.525L139.545 150.954L139.707 151.371L139.869 151.787L140.972 151.359L140.811 150.942ZM139.707 151.371L139.545 150.954C138.724 151.273 138.064 151.802 137.574 152.533L137.946 152.782L138.317 153.03C138.705 152.452 139.219 152.04 139.869 151.787L139.707 151.371ZM137.946 152.782L137.574 152.533L136.916 153.516L137.288 153.764L137.659 154.013L138.317 153.03L137.946 152.782ZM137.288 153.764L136.916 153.516L136.258 154.498L136.63 154.747L137.001 154.996L137.659 154.013L137.288 153.764ZM136.63 154.747L136.258 154.498C135.865 155.086 135.362 155.511 134.746 155.783L134.927 156.192L135.108 156.601C135.885 156.257 136.517 155.719 137.001 154.996L136.63 154.747ZM134.927 156.192L134.746 155.783L133.702 156.246L133.883 156.654L134.064 157.063L135.108 156.601L134.927 156.192ZM133.883 156.654L133.702 156.246L132.658 156.708L132.839 157.117L133.019 157.525L134.064 157.063L133.883 156.654ZM132.839 157.117L132.658 156.708C131.93 157.03 131.252 157.429 130.626 157.906L130.897 158.261L131.168 158.617C131.738 158.184 132.355 157.82 133.019 157.525L132.839 157.117ZM130.897 158.261L130.626 157.906L129.729 158.588L130 158.944L130.27 159.3L131.168 158.617L130.897 158.261ZM130 158.944L129.729 158.588L128.832 159.271L129.103 159.627L129.373 159.982L130.27 159.3L130 158.944ZM129.103 159.627L128.832 159.271C128.286 159.686 127.67 159.97 126.977 160.125L127.074 160.561L127.171 160.998C127.987 160.816 128.722 160.477 129.373 159.982L129.103 159.627ZM127.074 160.561L126.977 160.125L125.846 160.377L125.943 160.814L126.04 161.25L127.171 160.998L127.074 160.561ZM125.943 160.814L125.846 160.377L124.714 160.63L124.812 161.066L124.909 161.502L126.04 161.25L125.943 160.814ZM124.812 161.066L124.714 160.63C123.875 160.817 123.142 161.225 122.524 161.846L122.841 162.162L123.158 162.477C123.659 161.974 124.24 161.652 124.909 161.502L124.812 161.066ZM122.841 162.162L122.524 161.846L121.685 162.69L122.002 163.005L122.319 163.32L123.158 162.477L122.841 162.162ZM122.002 163.005L121.685 162.69L120.846 163.533L121.163 163.848L121.479 164.164L122.319 163.32L122.002 163.005ZM121.163 163.848L120.846 163.533C120.336 164.044 119.759 164.391 119.111 164.582L119.237 165.011L119.363 165.44C120.163 165.204 120.87 164.776 121.479 164.164L121.163 163.848ZM119.237 165.011L119.111 164.582L118.025 164.901L118.151 165.33L118.277 165.759L119.363 165.44L119.237 165.011ZM118.151 165.33L118.025 164.901L116.939 165.221L117.065 165.65L117.191 166.078L118.277 165.759L118.151 165.33ZM117.065 165.65L116.939 165.221C116.214 165.434 115.493 165.648 114.775 165.864L114.904 166.292L115.033 166.72C115.749 166.505 116.468 166.291 117.191 166.078L117.065 165.65ZM114.904 166.292L114.775 165.864L113.7 166.188L113.828 166.616L113.957 167.044L115.033 166.72L114.904 166.292ZM113.828 166.616L113.7 166.188L112.624 166.511L112.753 166.939L112.882 167.367L113.957 167.044L113.828 166.616ZM112.753 166.939L112.624 166.511C111.904 166.728 111.187 166.952 110.472 167.183L110.61 167.609L110.748 168.034C111.456 167.804 112.168 167.582 112.882 167.367L112.753 166.939ZM110.61 167.609L110.472 167.183L109.404 167.529L109.542 167.954L109.68 168.38L110.748 168.034L110.61 167.609ZM109.542 167.954L109.404 167.529L108.336 167.875L108.474 168.3L108.612 168.726L109.68 168.38L109.542 167.954ZM108.474 168.3L108.336 167.875C107.672 168.09 106.981 168.195 106.263 168.187L106.258 168.634L106.253 169.081C107.066 169.09 107.853 168.972 108.612 168.726L108.474 168.3ZM106.258 168.634L106.263 168.187L105.115 168.174L105.11 168.621L105.105 169.068L106.253 169.081L106.258 168.634ZM105.11 168.621L105.115 168.174L103.967 168.162L103.962 168.609L103.957 169.056L105.105 169.068L105.11 168.621ZM103.962 168.609L103.967 168.162C103.148 168.153 102.358 168.288 101.598 168.567L101.753 168.987L101.907 169.407C102.563 169.165 103.245 169.048 103.957 169.056L103.962 168.609ZM101.753 168.987L101.598 168.567L100.537 168.958L100.691 169.377L100.845 169.797L101.907 169.407L101.753 168.987ZM100.691 169.377L100.537 168.958L99.4751 169.348L99.6294 169.768L99.7838 170.187L100.845 169.797L100.691 169.377ZM99.6294 169.768L99.4751 169.348C98.7972 169.598 98.105 169.771 97.3981 169.869L97.4592 170.311L97.5204 170.754C98.2916 170.648 99.0462 170.459 99.7838 170.187L99.6294 169.768ZM97.4592 170.311L97.3981 169.869L96.2894 170.022L96.3506 170.464L96.4117 170.907L97.5204 170.754L97.4592 170.311ZM96.3506 170.464L96.2894 170.022L95.1808 170.175L95.2419 170.618L95.3031 171.06L96.4117 170.907L96.3506 170.464ZM95.2419 170.618L95.1808 170.175C94.4848 170.271 93.7823 170.266 93.072 170.159L93.0057 170.602L92.9394 171.044C93.7325 171.163 94.5209 171.168 95.3031 171.06L95.2419 170.618ZM93.0057 170.602L93.072 170.159L91.9444 169.99L91.8781 170.432L91.8118 170.875L92.9394 171.044L93.0057 170.602ZM91.8781 170.432L91.9444 169.99L90.8168 169.821L90.7505 170.263L90.6842 170.705L91.8118 170.875L91.8781 170.432ZM90.7505 170.263L90.8168 169.821C89.9966 169.698 89.1821 169.764 88.3783 170.016L88.512 170.443L88.6458 170.869C89.3231 170.657 90.0009 170.603 90.6842 170.705L90.7505 170.263ZM88.512 170.443L88.3783 170.016L87.2674 170.364L87.4012 170.791L87.535 171.218L88.6458 170.869L88.512 170.443ZM87.4012 170.791L87.2674 170.364L86.1566 170.713L86.2904 171.139L86.4241 171.566L87.535 171.218L87.4012 170.791ZM86.2904 171.139L86.1566 170.713C85.4757 170.926 84.7984 170.987 84.1202 170.899L84.0627 171.343L84.0052 171.786C84.8161 171.891 85.6239 171.817 86.4241 171.566L86.2904 171.139ZM84.0627 171.343L84.1202 170.899L83.0034 170.754L82.9459 171.198L82.8883 171.641L84.0052 171.786L84.0627 171.343ZM82.9459 171.198L83.0034 170.754L81.8866 170.609L81.829 171.053L81.7715 171.496L82.8883 171.641L82.9459 171.198ZM81.829 171.053L81.8866 170.609C81.1521 170.514 80.4231 170.394 79.6996 170.249L79.6119 170.688L79.5243 171.126C80.2678 171.275 81.0169 171.398 81.7715 171.496L81.829 171.053ZM79.6119 170.688L79.6996 170.249L78.5993 170.029L78.5117 170.468L78.424 170.906L79.5243 171.126L79.6119 170.688ZM78.5117 170.468L78.5993 170.029L77.4991 169.81L77.4114 170.248L77.3238 170.686L78.424 170.906L78.5117 170.468ZM77.4114 170.248L77.4991 169.81C76.7338 169.657 75.9582 169.587 75.1729 169.602L75.1811 170.049L75.1893 170.496C75.9108 170.482 76.6221 170.546 77.3238 170.686L77.4114 170.248ZM75.1811 170.049L75.1729 169.602L74.0427 169.623L74.051 170.07L74.0592 170.516L75.1893 170.496L75.1811 170.049ZM74.051 170.07L74.0427 169.623L72.9126 169.643L72.9209 170.09L72.9291 170.537L74.0592 170.516L74.051 170.07ZM72.9209 170.09L72.9126 169.643C72.1883 169.657 71.4729 169.6 70.7661 169.472L70.6869 169.912L70.6077 170.352C71.3727 170.49 72.1466 170.552 72.9291 170.537L72.9209 170.09ZM70.6869 169.912L70.7661 169.472L69.6623 169.274L69.5831 169.714L69.5039 170.154L70.6077 170.352L70.6869 169.912ZM69.5831 169.714L69.6623 169.274L68.5585 169.075L68.4793 169.515L68.4001 169.955L69.5039 170.154L69.5831 169.714ZM68.4793 169.515L68.5585 169.075C67.8719 168.952 67.2136 168.716 66.5822 168.368L66.3662 168.76L66.1502 169.151C66.8645 169.545 67.615 169.814 68.4001 169.955L68.4793 169.515ZM66.3662 168.76L66.5822 168.368L65.5729 167.811L65.357 168.203L65.141 168.594L66.1502 169.151L66.3662 168.76ZM65.357 168.203L65.5729 167.811L64.5637 167.254L64.3477 167.646L64.1317 168.037L65.141 168.594L65.357 168.203ZM64.3477 167.646L64.5637 167.254C63.8169 166.842 63.0043 166.656 62.1358 166.693L62.155 167.14L62.1743 167.586C62.8836 167.556 63.5328 167.707 64.1317 168.037L64.3477 167.646ZM62.155 167.14L62.1358 166.693L60.9525 166.744L60.9717 167.191L60.9909 167.637L62.1743 167.586L62.155 167.14ZM60.9717 167.191L60.9525 166.744L59.7691 166.795L59.7883 167.242L59.8075 167.688L60.9909 167.637L60.9717 167.191ZM59.7883 167.242L59.7691 166.795C59.0852 166.824 58.4864 166.634 57.9535 166.218L57.6788 166.571L57.4041 166.924C58.106 167.471 58.9136 167.727 59.8075 167.688L59.7883 167.242ZM57.6788 166.571L57.9535 166.218L57.0274 165.497L56.7526 165.85L56.4779 166.202L57.4041 166.924L57.6788 166.571ZM56.7526 165.85L57.0274 165.497L56.1012 164.776L55.8265 165.128L55.5518 165.481L56.4779 166.202L56.7526 165.85ZM55.8265 165.128L56.1012 164.776C55.4495 164.268 54.753 163.876 54.0123 163.604L53.8579 164.023L53.7034 164.443C54.3527 164.682 54.9687 165.027 55.5518 165.481L55.8265 165.128ZM53.8579 164.023L54.0123 163.604L52.9699 163.22L52.8154 163.639L52.661 164.059L53.7034 164.443L53.8579 164.023ZM52.8154 163.639L52.9699 163.22L51.9274 162.836L51.773 163.256L51.6185 163.675L52.661 164.059L52.8154 163.639ZM51.773 163.256L51.9274 162.836C51.2052 162.57 50.4467 162.371 49.6527 162.237L49.5785 162.678L49.5042 163.119C50.2463 163.244 50.9509 163.429 51.6185 163.675L51.773 163.256ZM49.5785 162.678L49.6527 162.237L48.5007 162.043L48.4264 162.484L48.3522 162.925L49.5042 163.119L49.5785 162.678ZM48.4264 162.484L48.5007 162.043L47.3486 161.849L47.2744 162.29L47.2001 162.731L48.3522 162.925L48.4264 162.484ZM47.2744 162.29L47.3486 161.849C46.6302 161.728 45.9687 161.495 45.3614 161.15L45.1408 161.539L44.9203 161.928C45.6216 162.326 46.3825 162.593 47.2001 162.731L47.2744 162.29ZM45.1408 161.539L45.3614 161.15L44.3798 160.594L44.1593 160.983L43.9388 161.371L44.9203 161.928L45.1408 161.539ZM44.1593 160.983L44.3798 160.594L43.3983 160.037L43.1778 160.426L42.9573 160.815L43.9388 161.371L44.1593 160.983ZM43.1778 160.426L43.3983 160.037C42.7874 159.691 42.2386 159.247 41.7513 158.704L41.4186 159.003L41.0859 159.301C41.6356 159.914 42.2596 160.419 42.9573 160.815L43.1778 160.426ZM41.4186 159.003L41.7513 158.704L40.9737 157.838L40.641 158.136L40.3082 158.435L41.0859 159.301L41.4186 159.003ZM40.641 158.136L40.9737 157.838L40.196 156.971L39.8633 157.27L39.5306 157.568L40.3082 158.435L40.641 158.136ZM39.8633 157.27L40.196 156.971C39.6454 156.358 39.0198 155.856 38.3198 155.47L38.1038 155.862L37.8878 156.253C38.4969 156.589 39.0443 157.027 39.5306 157.568L39.8633 157.27ZM38.1038 155.862L38.3198 155.47L37.338 154.928L37.122 155.32L36.906 155.711L37.8878 156.253L38.1038 155.862ZM37.122 155.32L37.338 154.928L36.3562 154.387L36.1402 154.778L35.9243 155.17L36.906 155.711L37.122 155.32ZM36.1402 154.778L36.3562 154.387C35.7215 154.037 35.1179 153.641 34.5452 153.2L34.2724 153.554L33.9997 153.908C34.6084 154.377 35.25 154.798 35.9243 155.17L36.1402 154.778ZM34.2724 153.554L34.5452 153.2L33.6592 152.518L33.3864 152.872L33.1137 153.226L33.9997 153.908L34.2724 153.554ZM33.3864 152.872L33.6592 152.518L32.7732 151.836L32.5004 152.19L32.2277 152.544L33.1137 153.226L33.3864 152.872ZM32.5004 152.19L32.7732 151.836C32.1962 151.391 31.6469 150.915 31.1251 150.407L30.8132 150.727L30.5013 151.047C31.0478 151.58 31.6233 152.079 32.2277 152.544L32.5004 152.19ZM30.8132 150.727L31.1251 150.407L30.3239 149.626L30.0119 149.947L29.7 150.267L30.5013 151.047L30.8132 150.727ZM30.0119 149.947L30.3239 149.626L29.5226 148.846L29.2107 149.166L28.8988 149.487L29.7 150.267L30.0119 149.947ZM29.2107 149.166L29.5226 148.846C28.9927 148.33 28.4742 147.804 27.967 147.269L27.6425 147.576L27.318 147.884C27.8334 148.428 28.3603 148.962 28.8988 149.487L29.2107 149.166ZM27.6425 147.576L27.967 147.269L27.2001 146.46L26.8756 146.767L26.5511 147.074L27.318 147.884L27.6425 147.576ZM26.8756 146.767L27.2001 146.46L26.4332 145.65L26.1087 145.958L25.7841 146.265L26.5511 147.074L26.8756 146.767ZM26.1087 145.958L26.4332 145.65C25.9299 145.119 25.4482 144.569 24.9883 144.001L24.6409 144.283L24.2935 144.564C24.768 145.15 25.2649 145.717 25.7841 146.265L26.1087 145.958ZM24.6409 144.283L24.9883 144.001L24.2874 143.136L23.9401 143.418L23.5927 143.699L24.2935 144.564L24.6409 144.283ZM23.9401 143.418L24.2874 143.136L23.5866 142.271L23.2392 142.553L22.8918 142.834L23.5927 143.699L23.9401 143.418ZM23.2392 142.553L23.5866 142.271C23.0932 141.662 22.517 141.122 21.8596 140.652L21.5996 141.016L21.3396 141.38C21.9339 141.805 22.4508 142.289 22.8918 142.834L23.2392 142.553ZM21.5996 141.016L21.8596 140.652L20.9209 139.981L20.6609 140.345L20.4008 140.708L21.3396 141.38L21.5996 141.016ZM20.6609 140.345L20.9209 139.981L19.9821 139.31L19.7221 139.674L19.4621 140.037L20.4008 140.708L20.6609 140.345ZM19.7221 139.674L19.9821 139.31C19.4041 138.897 18.9376 138.396 18.5789 137.808L18.1972 138.04L17.8154 138.273C18.2383 138.967 18.7885 139.556 19.4621 140.037L19.7221 139.674ZM18.1972 138.04L18.5789 137.808L17.9928 136.846L17.611 137.078L17.2292 137.311L17.8154 138.273L18.1972 138.04ZM17.611 137.078L17.9928 136.846L17.4066 135.883L17.0248 136.116L16.643 136.349L17.2292 137.311L17.611 137.078ZM17.0248 136.116L17.4066 135.883C17.0002 135.217 16.5296 134.594 15.995 134.015L15.6667 134.319L15.3384 134.622C15.8331 135.158 16.2678 135.733 16.643 136.349L17.0248 136.116ZM15.6667 134.319L15.995 134.015L15.2231 133.18L14.8948 133.484L14.5665 133.787L15.3384 134.622L15.6667 134.319ZM14.8948 133.484L15.2231 133.18L14.4512 132.345L14.1229 132.649L13.7946 132.952L14.5665 133.787L14.8948 133.484ZM14.1229 132.649L14.4512 132.345C13.9806 131.836 13.6364 131.25 13.4172 130.582L12.9925 130.722L12.5677 130.861C12.8266 131.65 13.236 132.348 13.7946 132.952L14.1229 132.649ZM12.9925 130.722L13.4172 130.582L13.0586 129.491L12.6339 129.63L12.2091 129.77L12.5677 130.861L12.9925 130.722ZM12.6339 129.63L13.0586 129.491L12.7001 128.399L12.2753 128.538L11.8506 128.678L12.2091 129.77L12.6339 129.63ZM12.2753 128.538L12.7001 128.399C12.4509 127.64 12.126 126.926 11.725 126.258L11.3416 126.488L10.9582 126.718C11.3241 127.328 11.6216 127.981 11.8506 128.678L12.2753 128.538ZM11.3416 126.488L11.725 126.258L11.1498 125.299L10.7664 125.529L10.383 125.759L10.9582 126.718L11.3416 126.488ZM10.7664 125.529L11.1498 125.299L10.5747 124.34L10.1913 124.57L9.80788 124.8L10.383 125.759L10.7664 125.529ZM10.1913 124.57L10.5747 124.34C10.1993 123.714 9.85762 123.07 9.54974 122.408L9.1444 122.597L8.73905 122.785C9.06011 123.475 9.4164 124.147 9.80788 124.8L10.1913 124.57ZM9.1444 122.597L9.54974 122.408L9.07803 121.394L8.67269 121.583L8.26735 121.771L8.73905 122.785L9.1444 122.597ZM8.67269 121.583L9.07803 121.394L8.60633 120.38L8.20098 120.569L7.79564 120.757L8.26735 121.771L8.67269 121.583ZM8.20098 120.569L8.60633 120.38C8.28939 119.699 7.95812 119.022 7.6125 118.349L7.2148 118.553L6.81709 118.757C7.15745 119.42 7.48363 120.087 7.79564 120.757L8.20098 120.569ZM7.2148 118.553L7.6125 118.349L7.09802 117.346L6.70032 117.551L6.30261 117.755L6.81709 118.757L7.2148 118.553ZM6.70032 117.551L7.09802 117.346L6.58354 116.344L6.18584 116.549L5.78813 116.753L6.30261 117.755L6.70032 117.551ZM6.18584 116.549L6.58354 116.344C6.25323 115.701 5.98578 115.034 5.78104 114.342L5.35238 114.469L4.92371 114.596C5.14428 115.341 5.43247 116.06 5.78813 116.753L6.18584 116.549ZM5.35238 114.469L5.78104 114.342L5.46207 113.265L5.0334 113.392L4.60473 113.518L4.92371 114.596L5.35238 114.469ZM5.0334 113.392L5.46207 113.265L5.14309 112.187L4.71442 112.314L4.28575 112.441L4.60473 113.518L5.0334 113.392ZM4.71442 112.314L5.14309 112.187C4.93277 111.477 4.74241 110.762 4.57201 110.043L4.13699 110.146L3.70197 110.249C3.87617 110.984 4.07077 111.715 4.28575 112.441L4.71442 112.314ZM4.13699 110.146L4.57201 110.043L4.31355 108.952L3.87853 109.055L3.44351 109.158L3.70197 110.249L4.13699 110.146ZM3.87853 109.055L4.31355 108.952L4.0551 107.86L3.62008 107.963L3.18506 108.067L3.44351 109.158L3.87853 109.055ZM3.62008 107.963L4.0551 107.86C3.88403 107.138 3.72617 106.414 3.58152 105.688L3.14308 105.775L2.70463 105.863C2.85138 106.599 3.01152 107.334 3.18506 108.067L3.62008 107.963ZM3.14308 105.775L3.58152 105.688L3.36297 104.591L2.92453 104.678L2.48608 104.765L2.70463 105.863L3.14308 105.775ZM2.92453 104.678L3.36297 104.591L3.14442 103.493L2.70598 103.581L2.26753 103.668L2.48608 104.765L2.92453 104.678ZM2.70598 103.581L3.14442 103.493C2.99762 102.756 2.83662 102.021 2.66145 101.288L2.22663 101.392L1.7918 101.496C1.96436 102.218 2.12294 102.942 2.26753 103.668L2.70598 103.581ZM2.22663 101.392L2.66145 101.288L2.40064 100.196L1.96582 100.3L1.531 100.404L1.7918 101.496L2.22663 101.392ZM1.96582 100.3L2.40064 100.196L2.13984 99.1047L1.70502 99.2086L1.2702 99.3124L1.531 100.404L1.96582 100.3ZM1.70502 99.2086L2.13984 99.1047C1.96794 98.3852 1.81637 97.6602 1.68512 96.9297L1.24511 97.0087L0.805094 97.0878C0.939324 97.8349 1.09436 98.5764 1.2702 99.3124L1.70502 99.2086ZM1.24511 97.0087L1.68512 96.9297L1.48601 95.8215L1.046 95.9005L0.605985 95.9796L0.805094 97.0878L1.24511 97.0087ZM1.046 95.9005L1.48601 95.8215L1.2869 94.7133L0.846889 94.7923L0.406876 94.8714L0.605985 95.9796L1.046 95.9005ZM0.846889 94.7923L1.2869 94.7133C1.15756 93.9934 1.07504 93.2685 1.03932 92.5384L0.592798 92.5603L0.146273 92.5821C0.183867 93.3506 0.270741 94.1137 0.406876 94.8714L0.846889 94.7923ZM0.592798 92.5603L1.03932 92.5384L0.98434 91.4146L0.537815 91.4364L0.0912907 91.4583L0.146273 92.5821L0.592798 92.5603ZM0.537815 91.4364L0.98434 91.4146L0.929358 90.2907L0.482833 90.3126L0.0363086 90.3344L0.0912907 91.4583L0.537815 91.4364ZM0.482833 90.3126L0.929358 90.2907C0.893249 89.5526 0.884784 88.8136 0.903967 88.0735L0.457058 88.0619L0.0101491 88.0503C-0.0096103 88.8126 -0.000891805 89.574 0.0363086 90.3344L0.482833 90.3126ZM0.457058 88.0619L0.903967 88.0735L0.933173 86.9467L0.486264 86.9351L0.0393556 86.9235L0.0101491 88.0503L0.457058 88.0619ZM0.486264 86.9351L0.933173 86.9467L0.96238 85.8199L0.515471 85.8083L0.0685621 85.7967L0.0393556 86.9235L0.486264 86.9351ZM0.515471 85.8083L0.96238 85.8199C0.980917 85.1047 1.08483 84.3961 1.2746 83.6934L0.843006 83.5769L0.411409 83.4603C0.203412 84.2305 0.0889665 85.0095 0.0685621 85.7967L0.515471 85.8083ZM0.843006 83.5769L1.2746 83.6934L1.57293 82.5888L1.14133 82.4722L0.709737 82.3557L0.411409 83.4603L0.843006 83.5769ZM1.14133 82.4722L1.57293 82.5888L1.87126 81.4841L1.43966 81.3676L1.00807 81.251L0.709737 82.3557L1.14133 82.4722ZM1.43966 81.3676L1.87126 81.4841C2.07835 80.7173 2.20023 79.9466 2.23622 79.1727L1.78964 79.1519L1.34306 79.1311C1.31018 79.8385 1.19874 80.545 1.00807 81.251L1.43966 81.3676ZM1.78964 79.1519L2.23622 79.1727L2.28786 78.0616L1.84129 78.0409L1.39471 78.0201L1.34306 79.1311L1.78964 79.1519ZM1.84129 78.0409L2.28786 78.0616L2.33951 76.9506L1.89294 76.9299L1.44636 76.9091L1.39471 78.0201L1.84129 78.0409ZM1.89294 76.9299L2.33951 76.9506C2.37465 76.1949 2.37186 75.43 2.33125 74.6562L1.88481 74.6797L1.43836 74.7031C1.47746 75.4482 1.48009 76.1835 1.44636 76.9091L1.89294 76.9299ZM1.88481 74.6797L2.33125 74.6562L2.27147 73.517L1.82503 73.5405L1.37858 73.5639L1.43836 74.7031L1.88481 74.6797ZM1.82503 73.5405L2.27147 73.517L2.2117 72.3778L1.76525 72.4013L1.31881 72.4247L1.37858 73.5639L1.82503 73.5405ZM1.76525 72.4013L2.2117 72.3778C2.17376 71.6549 2.22431 70.9447 2.36302 70.2464L1.92453 70.1593L1.48604 70.0722C1.33267 70.8443 1.27704 71.6287 1.31881 72.4247L1.76525 72.4013ZM1.92453 70.1593L2.36302 70.2464L2.58208 69.1436L2.14359 69.0565L1.7051 68.9694L1.48604 70.0722L1.92453 70.1593ZM2.14359 69.0565L2.58208 69.1436L2.80114 68.0409L2.36265 67.9538L1.92416 67.8667L1.7051 68.9694L2.14359 69.0565ZM2.36265 67.9538L2.80114 68.0409C2.94152 67.3342 3.14938 66.6456 3.42492 65.9747L3.01138 65.8049L2.59784 65.635C2.30049 66.359 2.07586 67.103 1.92416 67.8667L2.36265 67.9538ZM3.01138 65.8049L3.42492 65.9747L3.85459 64.9286L3.44105 64.7588L3.02751 64.5889L2.59784 65.635L3.01138 65.8049ZM3.44105 64.7588L3.85459 64.9286L4.28425 63.8825L3.87072 63.7126L3.45718 63.5428L3.02751 64.5889L3.44105 64.7588ZM3.87072 63.7126L4.28425 63.8825C4.5721 63.1816 4.8494 62.4818 5.11615 61.7829L4.69848 61.6235L4.28081 61.4641C4.01676 62.1559 3.74222 62.8488 3.45718 63.5428L3.87072 63.7126ZM4.69848 61.6235L5.11615 61.7829L5.51424 60.7399L5.09657 60.5805L4.6789 60.4211L4.28081 61.4641L4.69848 61.6235ZM5.09657 60.5805L5.51424 60.7399L5.91233 59.697L5.49466 59.5375L5.07699 59.3781L4.6789 60.4211L5.09657 60.5805ZM5.49466 59.5375L5.91233 59.697C6.17626 59.0055 6.44916 58.319 6.73102 57.6376L6.31791 57.4667L5.9048 57.2958C5.61978 57.9849 5.34385 58.679 5.07699 59.3781L5.49466 59.5375ZM6.31791 57.4667L6.73102 57.6376L7.15618 56.6098L6.74307 56.4389L6.32995 56.268L5.9048 57.2958L6.31791 57.4667ZM6.74307 56.4389L7.15618 56.6098L7.58133 55.5819L7.16822 55.4111L6.75511 55.2402L6.32995 56.268L6.74307 56.4389ZM7.16822 55.4111L7.58133 55.5819C7.86159 54.9044 8.16028 54.2359 8.47743 53.5763L8.07452 53.3825L7.67161 53.1888C7.34723 53.8635 7.04173 54.5473 6.75511 55.2402L7.16822 55.4111ZM8.07452 53.3825L8.47743 53.5763L8.95857 52.5756L8.55566 52.3819L8.15276 52.1881L7.67161 53.1888L8.07452 53.3825ZM8.55566 52.3819L8.95857 52.5756L9.43971 51.5749L9.03681 51.3812L8.6339 51.1875L8.15276 52.1881L8.55566 52.3819ZM9.03681 51.3812L9.43971 51.5749C9.76386 50.9007 10.0705 50.2177 10.3597 49.5258L9.94718 49.3534L9.5347 49.181C9.25154 49.8586 8.95127 50.5274 8.6339 51.1875L9.03681 51.3812ZM9.94718 49.3534L10.3597 49.5258L10.7889 48.4988L10.3764 48.3264L9.96394 48.154L9.5347 49.181L9.94718 49.3534ZM10.3764 48.3264L10.7889 48.4988L11.2181 47.4717L10.8057 47.2993L10.3932 47.1269L9.96394 48.154L10.3764 48.3264ZM10.8057 47.2993L11.2181 47.4717C11.4958 46.8072 11.8206 46.1671 12.1924 45.5511L11.8097 45.3201L11.4269 45.089C11.0324 45.7426 10.6878 46.422 10.3932 47.1269L10.8057 47.2993ZM11.8097 45.3201L12.1924 45.5511L12.7672 44.5989L12.3844 44.3679L12.0017 44.1369L11.4269 45.089L11.8097 45.3201ZM12.3844 44.3679L12.7672 44.5989L13.3419 43.6468L12.9592 43.4157L12.5765 43.1847L12.0017 44.1369L12.3844 44.3679ZM12.9592 43.4157L13.3419 43.6468C13.7165 43.0263 14.1246 42.4285 14.5662 41.8533L14.2117 41.581L13.8571 41.3088C13.3951 41.9103 12.9683 42.5357 12.5765 43.1847L12.9592 43.4157ZM14.2117 41.581L14.5662 41.8533L15.2439 40.9708L14.8893 40.6985L14.5347 40.4262L13.8571 41.3088L14.2117 41.581ZM14.8893 40.6985L15.2439 40.9708L15.9216 40.0882L15.567 39.816L15.2124 39.5437L14.5347 40.4262L14.8893 40.6985ZM15.567 39.816L15.9216 40.0882C16.3976 39.4684 16.7894 38.7891 17.0973 38.0516L16.6848 37.8793L16.2722 37.7071C15.9933 38.3751 15.64 38.9868 15.2124 39.5437L15.567 39.816ZM16.6848 37.8793L17.0973 38.0516L17.5374 36.9975L17.1249 36.8253L16.7123 36.653L16.2722 37.7071L16.6848 37.8793ZM17.1249 36.8253L17.5374 36.9975L17.9775 35.9434L17.5649 35.7712L17.1524 35.599L16.7123 36.653L17.1249 36.8253ZM17.5649 35.7712L17.9775 35.9434C18.2615 35.2631 18.5971 34.6142 18.9842 33.9966L18.6054 33.7592L18.2266 33.5218C17.8132 34.1814 17.4551 34.8739 17.1524 35.599L17.5649 35.7712ZM18.6054 33.7592L18.9842 33.9966L19.5846 33.0386L19.2058 32.8012L18.827 32.5638L18.2266 33.5218L18.6054 33.7592ZM19.2058 32.8012L19.5846 33.0386L20.185 32.0807L19.8062 31.8432L19.4274 31.6058L18.827 32.5638L19.2058 32.8012ZM19.8062 31.8432L20.185 32.0807C20.565 31.4743 21.0147 30.9267 21.5345 30.4373L21.228 30.1118L20.9215 29.7863C20.3461 30.3282 19.8478 30.9349 19.4274 31.6058L19.8062 31.8432ZM21.228 30.1118L21.5345 30.4373L22.3559 29.6638L22.0494 29.3383L21.7429 29.0129L20.9215 29.7863L21.228 30.1118ZM22.0494 29.3383L22.3559 29.6638L23.1773 28.8903L22.8708 28.5649L22.5643 28.2394L21.7429 29.0129L22.0494 29.3383ZM22.8708 28.5649L23.1773 28.8903C23.7264 28.3733 24.2701 27.8542 24.8085 27.333L24.4976 27.0118L24.1866 26.6906C23.6512 27.2089 23.1105 27.7251 22.5643 28.2394L22.8708 28.5649ZM24.4976 27.0118L24.8085 27.333L25.6138 26.5534L25.3029 26.2322L24.9919 25.911L24.1866 26.6906L24.4976 27.0118ZM25.3029 26.2322L25.6138 26.5534L26.4192 25.7738L26.1082 25.4526L25.7973 25.1314L24.9919 25.911L25.3029 26.2322ZM26.1082 25.4526L26.4192 25.7738C26.956 25.2541 27.493 24.7345 28.0303 24.2148L27.7195 23.8935L27.4087 23.5721C26.8713 24.0919 26.3342 24.6116 25.7973 25.1314L26.1082 25.4526ZM27.7195 23.8935L28.0303 24.2148L28.8363 23.4353L28.5255 23.114L28.2147 22.7926L27.4087 23.5721L27.7195 23.8935ZM28.5255 23.114L28.8363 23.4353L29.6423 22.6558L29.3315 22.3344L29.0207 22.0131L28.2147 22.7926L28.5255 23.114ZM29.3315 22.3344L29.6423 22.6558C30.1717 22.1437 30.7194 21.6517 31.2854 21.1797L30.9991 20.8364L30.7128 20.493C30.1299 20.9791 29.5659 21.4858 29.0207 22.0131L29.3315 22.3344ZM30.9991 20.8364L31.2854 21.1797L32.1471 20.4612L31.8608 20.1178L31.5745 19.7745L30.7128 20.493L30.9991 20.8364ZM31.8608 20.1178L32.1471 20.4612L33.0088 19.7427L32.7225 19.3993L32.4361 19.056L31.5745 19.7745L31.8608 20.1178ZM32.7225 19.3993L33.0088 19.7427C33.5529 19.2889 34.1514 18.9103 34.8054 18.6068L34.6172 18.2013L34.429 17.7958C33.7055 18.1316 33.0409 18.5517 32.4361 19.056L32.7225 19.3993ZM34.6172 18.2013L34.8054 18.6068L35.8384 18.1273L35.6502 17.7218L35.462 17.3163L34.429 17.7958L34.6172 18.2013ZM35.6502 17.7218L35.8384 18.1273L36.8715 17.6478L36.6833 17.2423L36.495 16.8368L35.462 17.3163L35.6502 17.7218ZM36.6833 17.2423L36.8715 17.6478C37.603 17.3082 38.2624 16.8637 38.8479 16.3149L38.5422 15.9887L38.2365 15.6625C37.7208 16.1458 37.1409 16.537 36.495 16.8368L36.6833 17.2423ZM38.5422 15.9887L38.8479 16.3149L39.6738 15.5408L39.368 15.2146L39.0623 14.8884L38.2365 15.6625L38.5422 15.9887ZM39.368 15.2146L39.6738 15.5408L40.4997 14.7667L40.1939 14.4405L39.8882 14.1143L39.0623 14.8884L39.368 15.2146ZM40.1939 14.4405L40.4997 14.7667C41.0219 14.2772 41.5947 13.8663 42.2185 13.5332L42.008 13.1389L41.7975 12.7445C41.1037 13.1149 40.4671 13.5718 39.8882 14.1143L40.1939 14.4405ZM42.008 13.1389L42.2185 13.5332L43.2067 13.0056L42.9962 12.6113L42.7857 12.2169L41.7975 12.7445L42.008 13.1389ZM42.9962 12.6113L43.2067 13.0056L44.1949 12.4781L43.9844 12.0837L43.7738 11.6893L42.7857 12.2169L42.9962 12.6113ZM43.9844 12.0837L44.1949 12.4781C44.8537 12.1264 45.5121 11.7749 46.1701 11.4237L45.9596 11.0293L45.7491 10.6349C45.0911 10.9861 44.4327 11.3376 43.7738 11.6893L43.9844 12.0837ZM45.9596 11.0293L46.1701 11.4237L47.1571 10.8969L46.9466 10.5025L46.7361 10.1081L45.7491 10.6349L45.9596 11.0293ZM46.9466 10.5025L47.1571 10.8969L48.1441 10.3701L47.9336 9.97567L47.7231 9.58127L46.7361 10.1081L46.9466 10.5025ZM47.9336 9.97567L48.1441 10.3701C48.7898 10.0254 49.4501 9.71172 50.125 9.42896L49.9522 9.01663L49.7794 8.60429C49.0788 8.89783 48.3934 9.2235 47.7231 9.58127L47.9336 9.97567ZM49.9522 9.01663L50.125 9.42896L51.1566 8.99673L50.9838 8.5844L50.8111 8.17207L49.7794 8.60429L49.9522 9.01663ZM50.9838 8.5844L51.1566 8.99673L52.1882 8.56451L52.0155 8.15218L51.8427 7.73985L50.8111 8.17207L50.9838 8.5844ZM52.0155 8.15218L52.1882 8.56451C52.8537 8.28567 53.5389 8.06155 54.2439 7.89212L54.1394 7.45744L54.0349 7.02276C53.2835 7.20335 52.5527 7.44239 51.8427 7.73985L52.0155 8.15218ZM54.1394 7.45744L54.2439 7.89212L55.3362 7.62961L55.2317 7.19492L55.1272 6.76024L54.0349 7.02276L54.1394 7.45744ZM55.2317 7.19492L55.3362 7.62961L56.4285 7.36709L56.324 6.93241L56.2196 6.49773L55.1272 6.76024L55.2317 7.19492ZM56.324 6.93241L56.4285 7.36709C57.2185 7.17723 57.9529 6.8276 58.6297 6.3232L58.3625 5.96474L58.0954 5.60627C57.5106 6.04208 56.886 6.33756 56.2196 6.49773L56.324 6.93241ZM58.3625 5.96474L58.6297 6.3232L59.5759 5.61804L59.3087 5.25958L59.0416 4.90112L58.0954 5.60627L58.3625 5.96474ZM59.3087 5.25958L59.5759 5.61804L60.5221 4.91289L60.255 4.55442L59.9878 4.19596L59.0416 4.90112L59.3087 5.25958ZM60.255 4.55442L60.5221 4.91289C61.0642 4.50885 61.6661 4.33813 62.349 4.39709L62.3874 3.95168L62.4259 3.50628C61.5271 3.42868 60.7073 3.65979 59.9878 4.19596L60.255 4.55442ZM62.3874 3.95168L62.349 4.39709L63.5353 4.4995L63.5737 4.0541L63.6122 3.6087L62.4259 3.50628L62.3874 3.95168ZM63.5737 4.0541L63.5353 4.4995L64.7216 4.60192L64.76 4.15652L64.7985 3.71111L63.6122 3.6087L63.5737 4.0541ZM64.76 4.15652L64.7216 4.60192C65.5558 4.67394 66.3583 4.62202 67.1268 4.44307L67.0255 4.00766L66.9241 3.57225C66.2537 3.72833 65.546 3.77565 64.7985 3.71111L64.76 4.15652ZM67.0255 4.00766L67.1268 4.44307L68.206 4.19179L68.1046 3.75638L68.0033 3.32097L66.9241 3.57225L67.0255 4.00766ZM68.1046 3.75638L68.206 4.19179L69.2852 3.94052L69.1838 3.50511L69.0824 3.0697L68.0033 3.32097L68.1046 3.75638ZM69.1838 3.50511L69.2852 3.94052C70.0182 3.76983 70.748 3.56372 71.4744 3.32226L71.3334 2.89803L71.1924 2.47379C70.4916 2.70674 69.7882 2.90535 69.0824 3.0697L69.1838 3.50511ZM71.3334 2.89803L71.4744 3.32226L72.5448 2.96645L72.4038 2.54222L72.2628 2.11798L71.1924 2.47379L71.3334 2.89803ZM72.4038 2.54222L72.5448 2.96645L73.6152 2.61064L73.4742 2.18641L73.3332 1.76217L72.2628 2.11798L72.4038 2.54222ZM73.4742 2.18641L73.6152 2.61064C74.317 2.37738 75.0285 2.17347 75.7497 1.99893L75.6445 1.56441L75.5394 1.1299C74.794 1.31027 74.0586 1.52103 73.3332 1.76217L73.4742 2.18641ZM75.6445 1.56441L75.7497 1.99893L76.8496 1.73274L76.7444 1.29823L76.6392 0.863711L75.5394 1.1299L75.6445 1.56441ZM76.7444 1.29823L76.8496 1.73274L77.9494 1.46656L77.8443 1.03204L77.7391 0.597525L76.6392 0.863711L76.7444 1.29823ZM77.8443 1.03204L77.9494 1.46656C78.6561 1.29555 79.3701 1.19109 80.0919 1.15306L80.0683 0.706625L80.0448 0.260186C79.2677 0.301129 78.499 0.413619 77.7391 0.597525L77.8443 1.03204ZM80.0683 0.706625L80.0919 1.15306L81.216 1.09384L81.1925 0.647397L81.1689 0.200958L80.0448 0.260186L80.0683 0.706625ZM81.1925 0.647397L81.216 1.09384L82.3401 1.03461L82.3166 0.58817L82.2931 0.14173L81.1689 0.200958L81.1925 0.647397ZM82.3166 0.58817L82.3401 1.03461C83.0852 0.995352 83.8321 0.966859 84.5808 0.949133L84.5702 0.5022L84.5596 0.0552661C83.8024 0.0731958 83.0468 0.102017 82.2931 0.14173L82.3166 0.58817ZM84.5702 0.5022L84.5808 0.949133L85.7102 0.922391L85.6996 0.475458L85.6891 0.0285243L84.5596 0.0552661L84.5702 0.5022ZM85.6996 0.475458L85.7102 0.922391L86.8397 0.89565L86.8291 0.448716L86.8185 0.00178242L85.6891 0.0285243L85.6996 0.475458ZM86.8291 0.448716L86.8397 0.89565C87.5341 0.879207 88.2209 0.995491 88.9025 1.24735L89.0575 0.828003L89.2124 0.408651C88.4288 0.119143 87.63 -0.0174307 86.8185 0.00178242L86.8291 0.448716ZM89.0575 0.828003L88.9025 1.24735L90.0015 1.65338L90.1564 1.23403L90.3114 0.81468L89.2124 0.408651L89.0575 0.828003ZM90.1564 1.23403L90.0015 1.65338L91.1004 2.05941L91.2554 1.64006L91.4103 1.22071L90.3114 0.81468L90.1564 1.23403ZM91.2554 1.64006L91.1004 2.05941C91.8826 2.3484 92.6771 2.48783 93.4816 2.47441L93.4742 2.02741L93.4667 1.58042C92.778 1.5919 92.0934 1.4731 91.4103 1.22071L91.2554 1.64006ZM93.4742 2.02741L93.4816 2.47441L94.6015 2.45573L94.594 2.00874L94.5866 1.56174L93.4667 1.58042L93.4742 2.02741ZM94.594 2.00874L94.6015 2.45573L95.7213 2.43706L95.7139 1.99006L95.7064 1.54306L94.5866 1.56174L94.594 2.00874ZM95.7139 1.99006L95.7213 2.43706C96.4313 2.42522 97.1303 2.49977 97.8192 2.66072L97.9209 2.22539L98.0226 1.79005C97.2619 1.61233 96.4896 1.53 95.7064 1.54306L95.7139 1.99006ZM97.9209 2.22539L97.8192 2.66072L98.9064 2.91472L99.0081 2.47939L99.1098 2.04405L98.0226 1.79005L97.9209 2.22539ZM99.0081 2.47939L98.9064 2.91472L99.9936 3.16873L100.095 2.73339L100.197 2.29805L99.1098 2.04405L99.0081 2.47939ZM100.095 2.73339L99.9936 3.16873C100.737 3.34239 101.49 3.4683 102.252 3.54645L102.297 3.10172L102.343 2.657C101.619 2.58271 100.903 2.46306 100.197 2.29805L100.095 2.73339ZM102.297 3.10172L102.252 3.54645L103.366 3.66077L103.412 3.21605L103.457 2.77132L102.343 2.657L102.297 3.10172ZM103.412 3.21605L103.366 3.66077L104.481 3.7751L104.526 3.33038L104.572 2.88565L103.457 2.77132L103.412 3.21605ZM104.526 3.33038L104.481 3.7751C105.193 3.8482 105.89 3.9929 106.57 4.20925L106.706 3.78321L106.841 3.35716C106.102 3.12218 105.346 2.96499 104.572 2.88565L104.526 3.33038ZM106.706 3.78321L106.57 4.20925L107.635 4.54775L107.77 4.12171L107.906 3.69566L106.841 3.35716L106.706 3.78321ZM107.77 4.12171L107.635 4.54775L108.7 4.88625L108.835 4.46021L108.971 4.03416L107.906 3.69566L107.77 4.12171ZM108.835 4.46021L108.7 4.88625C109.439 5.12143 110.204 5.27955 110.994 5.36099L111.04 4.91629L111.086 4.47159C110.355 4.39626 109.65 4.25033 108.971 4.03416L108.835 4.46021ZM111.04 4.91629L110.994 5.36099L112.134 5.47857L112.18 5.03387L112.226 4.58917L111.086 4.47159L111.04 4.91629ZM112.18 5.03387L112.134 5.47857L113.275 5.59616L113.321 5.15145L113.366 4.70675L112.226 4.58917L112.18 5.03387ZM113.321 5.15145L113.275 5.59616C113.944 5.66514 114.543 5.91948 115.081 6.3682L115.367 6.02482L115.654 5.68144C114.983 5.12245 114.218 4.79454 113.366 4.70675L113.321 5.15145ZM115.367 6.02482L115.081 6.3682L115.988 7.12398L116.274 6.7806L116.56 6.43722L115.654 5.68144L115.367 6.02482ZM116.274 6.7806L115.988 7.12398L116.894 7.87976L117.18 7.53638L117.467 7.193L116.56 6.43722L116.274 6.7806ZM117.18 7.53638L116.894 7.87976C117.557 8.43238 118.309 8.78447 119.143 8.92958L119.219 8.48914L119.296 8.04869C118.62 7.93117 118.013 7.64809 117.467 7.193L117.18 7.53638ZM119.219 8.48914L119.143 8.92958L120.275 9.12656L120.352 8.68611L120.429 8.24567L119.296 8.04869L119.219 8.48914ZM120.352 8.68611L120.275 9.12656L121.408 9.32354L121.485 8.88309L121.561 8.44265L120.429 8.24567L120.352 8.68611ZM121.485 8.88309L121.408 9.32354C122.107 9.44511 122.746 9.68976 123.33 10.0573L123.568 9.67894L123.806 9.30063C123.122 8.86962 122.372 8.58371 121.561 8.44265L121.485 8.88309ZM123.568 9.67894L123.33 10.0573L124.281 10.6561L124.519 10.2778L124.758 9.8995L123.806 9.30063L123.568 9.67894ZM124.519 10.2778L124.281 10.6561L125.232 11.255L125.47 10.8767L125.709 10.4984L124.758 9.8995L124.519 10.2778ZM125.47 10.8767L125.232 11.255C125.867 11.6547 126.501 12.0513 127.134 12.4447L127.37 12.065L127.606 11.6853C126.974 11.2928 126.342 10.8972 125.709 10.4984L125.47 10.8767ZM127.37 12.065L127.134 12.4447L128.082 13.0341L128.318 12.6544L128.554 12.2747L127.606 11.6853L127.37 12.065ZM128.318 12.6544L128.082 13.0341L129.031 13.6235L129.267 13.2438L129.503 12.8642L128.554 12.2747L128.318 12.6544ZM129.267 13.2438L129.031 13.6235C129.687 14.0313 130.383 14.3789 131.119 14.6664L131.282 14.25L131.444 13.8336C130.758 13.5655 130.111 13.2423 129.503 12.8642L129.267 13.2438ZM131.282 14.25L131.119 14.6664L132.186 15.0831L132.348 14.6667L132.511 14.2503L131.444 13.8336L131.282 14.25ZM132.348 14.6667L132.186 15.0831L133.253 15.4999L133.415 15.0835L133.578 14.667L132.511 14.2503L132.348 14.6667ZM133.415 15.0835L133.253 15.4999C133.905 15.7546 134.471 16.1299 134.956 16.6276L135.276 16.3156L135.597 16.0037C135.022 15.4141 134.348 14.9679 133.578 14.667L133.415 15.0835ZM135.276 16.3156L134.956 16.6276L135.75 17.4431L136.071 17.1311L136.391 16.8192L135.597 16.0037L135.276 16.3156ZM136.071 17.1311L135.75 17.4431L136.545 18.2585L136.865 17.9466L137.185 17.6347L136.391 16.8192L136.071 17.1311ZM136.865 17.9466L136.545 18.2585C137.083 18.8115 137.64 19.335 138.215 19.8289L138.507 19.4897L138.798 19.1506C138.243 18.6743 137.706 18.169 137.185 17.6347L136.865 17.9466ZM138.507 19.4897L138.215 19.8289L139.063 20.5566L139.354 20.2174L139.645 19.8782L138.798 19.1506L138.507 19.4897ZM139.354 20.2174L139.063 20.5566L139.91 21.2842L140.201 20.9451L140.493 20.6059L139.645 19.8782L139.354 20.2174ZM140.201 20.9451L139.91 21.2842C140.454 21.7511 140.952 22.2665 141.404 22.8305L141.752 22.5509L142.101 22.2713C141.615 21.6644 141.079 21.1092 140.493 20.6059L140.201 20.9451ZM141.752 22.5509L141.404 22.8305L142.107 23.7086L142.456 23.4291L142.805 23.1495L142.101 22.2713L141.752 22.5509ZM142.456 23.4291L142.107 23.7086L142.811 24.5868L143.16 24.3072L143.509 24.0277L142.805 23.1495L142.456 23.4291ZM143.16 24.3072L142.811 24.5868C143.316 25.2166 143.926 25.7379 144.639 26.15L144.863 25.763L145.086 25.376C144.467 25.018 143.942 24.5688 143.509 24.0277L143.16 24.3072ZM144.863 25.763L144.639 26.15L145.638 26.7276L145.862 26.3406L146.085 25.9536L145.086 25.376L144.863 25.763ZM145.862 26.3406L145.638 26.7276L146.637 27.3052L146.861 26.9182L147.084 26.5312L146.085 25.9536L145.862 26.3406ZM146.861 26.9182L146.637 27.3052C147.26 27.6657 147.797 28.11 148.249 28.6386L148.589 28.3479L148.928 28.0571C148.408 27.4496 147.793 26.9408 147.084 26.5312L146.861 26.9182ZM148.589 28.3479L148.249 28.6386L148.979 29.4907L149.318 29.1999L149.658 28.9092L148.928 28.0571L148.589 28.3479ZM149.318 29.1999L148.979 29.4907L149.708 30.3428L150.048 30.052L150.387 29.7613L149.658 28.9092L149.318 29.1999ZM150.048 30.052L149.708 30.3428C150.179 30.8932 150.606 31.4779 150.988 32.097L151.369 31.8621L151.749 31.6272C151.343 30.969 150.889 30.347 150.387 29.7613L150.048 30.052ZM151.369 31.8621L150.988 32.097L151.58 33.0549L151.96 32.82L152.34 32.5851L151.749 31.6272L151.369 31.8621ZM151.96 32.82L151.58 33.0549L152.171 34.0128L152.552 33.7779L152.932 33.543L152.34 32.5851L151.96 32.82ZM152.552 33.7779L152.171 34.0128C152.566 34.652 152.96 35.287 153.354 35.9176L153.733 35.6809L154.112 35.4442C153.719 34.8148 153.326 34.1811 152.932 33.543L152.552 33.7779ZM153.733 35.6809L153.354 35.9176L153.943 36.8626L154.323 36.6259L154.702 36.3892L154.112 35.4442L153.733 35.6809ZM154.323 36.6259L153.943 36.8626L154.533 37.8076L154.912 37.5709L155.292 37.3342L154.702 36.3892L154.323 36.6259ZM154.912 37.5709L154.533 37.8076C154.931 38.4455 155.348 39.0698 155.785 39.6806L156.149 39.4207L156.512 39.1608C156.087 38.5652 155.68 37.9564 155.292 37.3342L154.912 37.5709ZM156.149 39.4207L155.785 39.6806L156.431 40.5853L156.795 40.3255L157.159 40.0656L156.512 39.1608L156.149 39.4207ZM156.795 40.3255L156.431 40.5853L157.077 41.4901L157.441 41.2302L157.805 40.9703L157.159 40.0656L156.795 40.3255ZM157.441 41.2302L157.077 41.4901C157.512 42.0977 157.96 42.701 158.421 43.2999L158.775 43.027L159.129 42.754C158.674 42.1636 158.233 41.569 157.805 40.9703L157.441 41.2302ZM158.775 43.027L158.421 43.2999L159.109 44.192L159.463 43.919L159.817 43.646L159.129 42.754L158.775 43.027ZM159.463 43.919L159.109 44.192L159.797 45.084L160.151 44.811L160.505 44.5381L159.817 43.646L159.463 43.919ZM160.151 44.811L159.797 45.084C160.243 45.663 160.649 46.2681 161.014 46.8992L161.401 46.6755L161.788 46.4517C161.403 45.7862 160.975 45.1483 160.505 44.5381L160.151 44.811ZM161.401 46.6755L161.014 46.8992L161.576 47.8717L161.963 47.6479L162.35 47.4241L161.788 46.4517L161.401 46.6755ZM161.963 47.6479L161.576 47.8717L162.138 48.8441L162.525 48.6203L162.912 48.3966L162.35 47.4241L161.963 47.6479ZM162.525 48.6203L162.138 48.8441C162.509 49.4853 162.862 50.1372 163.199 50.7996L163.597 50.5973L163.996 50.395C163.652 49.7181 163.291 49.0519 162.912 48.3966L162.525 48.6203ZM163.597 50.5973L163.199 50.7996L163.708 51.8041L164.107 51.6018L164.506 51.3995L163.996 50.395L163.597 50.5973ZM164.107 51.6018L163.708 51.8041L164.218 52.8087L164.617 52.6064L165.015 52.4041L164.506 51.3995L164.107 51.6018ZM164.617 52.6064L164.218 52.8087C164.529 53.4222 164.709 54.0865 164.755 54.8061L165.201 54.7777L165.647 54.7493C165.594 53.9132 165.384 53.13 165.015 52.4041L164.617 52.6064ZM165.201 54.7777L164.755 54.8061L164.829 55.9729L165.275 55.9445L165.721 55.9161L165.647 54.7493L165.201 54.7777ZM165.275 55.9445L164.829 55.9729L164.903 57.1397L165.349 57.1113L165.796 57.0829L165.721 55.9161L165.275 55.9445ZM165.349 57.1113L164.903 57.1397C164.958 57.9996 165.234 58.7869 165.729 59.493L166.095 59.2365L166.461 58.98C166.061 58.4082 165.84 57.7787 165.796 57.0829L165.349 57.1113ZM166.095 59.2365L165.729 59.493L166.4 60.4514L166.767 60.1949L167.133 59.9384L166.461 58.98L166.095 59.2365ZM166.767 60.1949L166.4 60.4514L167.072 61.4099L167.438 61.1534L167.804 60.8969L167.133 59.9384L166.767 60.1949ZM167.438 61.1534L167.072 61.4099C167.483 61.9972 167.746 62.6261 167.863 63.3L168.304 63.223L168.744 63.1461C168.603 62.3382 168.288 61.5874 167.804 60.8969L167.438 61.1534ZM168.304 63.223L167.863 63.3L168.057 64.4112L168.498 64.3342L168.938 64.2573L168.744 63.1461L168.304 63.223ZM168.498 64.3342L168.057 64.4112L168.252 65.5224L168.692 65.4455L169.132 65.3685L168.938 64.2573L168.498 64.3342ZM168.692 65.4455L168.252 65.5224C168.382 66.2693 168.528 67.0113 168.688 67.7482L169.125 67.653L169.562 67.5577C169.404 66.833 169.261 66.1033 169.132 65.3685L168.692 65.4455ZM169.125 67.653L168.688 67.7482L168.927 68.8445L169.364 68.7492L169.801 68.654L169.562 67.5577L169.125 67.653ZM169.364 68.7492L168.927 68.8445L169.167 69.9408L169.603 69.8455L170.04 69.7503L169.801 68.654L169.364 68.7492ZM169.603 69.8455L169.167 69.9408C169.321 70.6472 169.415 71.3625 169.449 72.087L169.896 72.0657L170.342 72.0445C170.306 71.2703 170.205 70.5055 170.04 69.7503L169.603 69.8455ZM169.896 72.0657L169.449 72.087L169.503 73.2109L169.949 73.1897L170.396 73.1684L170.342 72.0445L169.896 72.0657ZM169.949 73.1897L169.503 73.2109L169.556 74.3349L170.003 74.3136L170.45 74.2924L170.396 73.1684L169.949 73.1897ZM170.003 74.3136L169.556 74.3349C169.593 75.1039 169.68 75.8663 169.818 76.622L170.258 76.5418L170.698 76.4615C170.567 75.7449 170.484 75.0219 170.45 74.2924L170.003 74.3136ZM170.258 76.5418L169.818 76.622L170.02 77.7262L170.459 77.646L170.899 77.5657L170.698 76.4615L170.258 76.5418ZM170.459 77.646L170.02 77.7262L170.221 78.8304L170.661 78.7502L171.101 78.6699L170.899 77.5657L170.459 77.646ZM170.661 78.7502L170.221 78.8304C170.348 79.5256 170.377 80.2265 170.308 80.9342L170.753 80.9774L171.198 81.0206C171.275 80.231 171.242 79.447 171.101 78.6699L170.661 78.7502ZM170.753 80.9774L170.308 80.9342L170.199 82.0572L170.644 82.1004L171.089 82.1437L171.198 81.0206L170.753 80.9774ZM170.644 82.1004L170.199 82.0572L170.09 83.1803L170.535 83.2235L170.98 83.2667L171.089 82.1437L170.644 82.1004ZM170.535 83.2235L170.09 83.1803C170.018 83.9249 170.005 84.5097 170.087 84.8753L170.523 84.7767L170.959 84.6782C170.912 84.4702 170.907 84.0194 170.98 83.2667L170.535 83.2235ZM170.523 84.7767L170.087 84.8753L170.184 85.3055L170.62 85.207L171.057 85.1084L170.959 84.6782L170.523 84.7767ZM170.62 85.207L170.184 85.3055L170.282 85.7357L170.718 85.6372L171.154 85.5386L171.057 85.1084L170.62 85.207ZM170.718 85.6372L170.282 85.7357C170.337 85.9815 170.389 86.4642 170.43 87.214L170.876 87.1895L171.323 87.165C171.282 86.4187 171.228 85.8665 171.154 85.5386L170.718 85.6372ZM170.876 87.1895L170.43 87.214L170.492 88.336L170.938 88.3116L171.384 88.2871L171.323 87.165L170.876 87.1895Z" fill="white"/>
</g>
<g id="Ellipse 46">
<circle cx="117.616" cy="191.126" r="20.1176" fill="white" fill-opacity="0.5"/>
<path d="M137.63 194.513L138.077 194.526L137.63 194.513ZM137.017 196.615L136.633 196.387L137.017 196.615ZM135.859 198.563L136.243 198.792L135.859 198.563ZM134.873 200.589L134.456 200.429L134.873 200.589ZM132.917 204.621L132.575 204.332L132.917 204.621ZM131.44 206.37L131.782 206.658L131.44 206.37ZM129.658 207.715L129.475 207.307L129.658 207.715ZM127.571 208.656L127.755 209.063L127.571 208.656ZM125.48 209.499L125.63 209.921L125.48 209.499ZM124.432 209.872L124.282 209.451L124.432 209.872ZM123.384 210.245L123.533 210.667L123.384 210.245ZM121.235 210.914L121.119 210.483L121.235 210.914ZM120.134 211.21L120.25 211.642L120.134 211.21ZM119.034 211.506L118.918 211.075L119.034 211.506ZM116.804 211.633L116.738 212.076L116.804 211.633ZM114.546 211.295L114.48 211.738V211.738L114.546 211.295ZM112.449 210.537L112.681 210.155L112.449 210.537ZM111.48 209.948L111.712 209.566L111.48 209.948ZM106.124 207.964L106.226 207.529L106.124 207.964ZM104.238 206.824L104.577 206.533L104.238 206.824ZM102.745 205.079L102.405 205.37L102.745 205.079ZM101.246 203.332L100.907 203.624L101.246 203.332ZM100.493 202.457L100.832 202.166L100.493 202.457ZM99.7407 201.582L99.4017 201.874L99.7407 201.582ZM98.8328 199.555L98.3897 199.615L98.8328 199.555ZM98.5221 197.251L98.0791 197.311L98.5221 197.251ZM98.1406 195.011L97.7029 195.102L98.1406 195.011ZM97.7552 186.095L97.3158 186.012L97.7552 186.095ZM99.2901 181.908L98.9971 181.57L99.2901 181.908ZM101.08 180.354L100.787 180.017L101.08 180.354ZM106.013 174.299L105.829 173.892L106.013 174.299ZM110.137 172.29L109.929 171.894L110.137 172.29ZM117.869 171.444L117.745 171.014L117.869 171.444ZM120.156 170.783L120.28 171.213L120.156 170.783ZM122.371 170.888L122.203 171.302L122.371 170.888ZM123.443 171.323L123.611 170.909L123.443 171.323ZM124.516 171.758L124.348 172.172L124.516 171.758ZM126.554 172.787L126.32 173.168L126.554 172.787ZM128.487 173.976L128.721 173.596L128.487 173.976ZM130.319 175.301L130.607 174.959L130.319 175.301ZM132.052 176.761L131.764 177.103L132.052 176.761ZM133.339 178.549L132.923 178.714L133.339 178.549ZM134.18 180.666L134.595 180.501L134.18 180.666ZM135.206 182.661L135.581 182.418L135.206 182.661ZM135.811 183.598L136.187 183.356L135.811 183.598ZM136.417 184.536L136.042 184.778L136.417 184.536ZM137.23 186.576L137.67 186.493L137.23 186.576ZM137.438 187.679L136.999 187.762L137.438 187.679ZM137.646 188.782L138.085 188.699L137.646 188.782ZM137.824 190.195L137.379 190.152L137.824 190.195ZM137.793 190.506L138.238 190.549L137.793 190.506ZM137.763 190.816L137.318 190.773L137.763 190.816ZM137.699 192.255L138.146 192.269L137.699 192.255ZM137.665 193.384L137.218 193.37L137.183 194.499L137.63 194.513L138.077 194.526L138.111 193.397L137.665 193.384ZM137.63 194.513L137.183 194.499C137.163 195.176 136.98 195.803 136.633 196.387L137.017 196.615L137.401 196.844C137.826 196.13 138.052 195.355 138.077 194.526L137.63 194.513ZM137.017 196.615L136.633 196.387L136.053 197.361L136.438 197.589L136.822 197.818L137.401 196.844L137.017 196.615ZM136.438 197.589L136.053 197.361L135.474 198.335L135.859 198.563L136.243 198.792L136.822 197.818L136.438 197.589ZM135.859 198.563L135.474 198.335C135.076 199.005 134.736 199.703 134.456 200.429L134.873 200.589L135.291 200.75C135.552 200.072 135.87 199.42 136.243 198.792L135.859 198.563ZM134.873 200.589L134.456 200.429L134.05 201.481L134.467 201.642L134.885 201.803L135.291 200.75L134.873 200.589ZM134.467 201.642L134.05 201.481L133.644 202.533L134.061 202.694L134.479 202.855L134.885 201.803L134.467 201.642ZM134.061 202.694L133.644 202.533C133.392 203.188 133.036 203.787 132.575 204.332L132.917 204.621L133.259 204.909C133.782 204.289 134.19 203.604 134.479 202.855L134.061 202.694ZM132.917 204.621L132.575 204.332L131.837 205.207L132.179 205.495L132.52 205.784L133.259 204.909L132.917 204.621ZM132.179 205.495L131.837 205.207L131.099 206.081L131.44 206.37L131.782 206.658L132.52 205.784L132.179 205.495ZM131.44 206.37L131.099 206.081C130.649 206.613 130.109 207.021 129.475 207.307L129.658 207.715L129.842 208.122C130.599 207.781 131.246 207.292 131.782 206.658L131.44 206.37ZM129.658 207.715L129.475 207.307L128.431 207.778L128.615 208.185L128.799 208.593L129.842 208.122L129.658 207.715ZM128.615 208.185L128.431 207.778L127.387 208.248L127.571 208.656L127.755 209.063L128.799 208.593L128.615 208.185ZM127.571 208.656L127.387 208.248C126.703 208.557 126.017 208.834 125.33 209.078L125.48 209.499L125.63 209.921C126.34 209.668 127.049 209.382 127.755 209.063L127.571 208.656ZM125.48 209.499L125.33 209.078L124.282 209.451L124.432 209.872L124.581 210.294L125.63 209.921L125.48 209.499ZM124.432 209.872L124.282 209.451L123.234 209.824L123.384 210.245L123.533 210.667L124.581 210.294L124.432 209.872ZM123.384 210.245L123.234 209.824C122.546 210.069 121.841 210.288 121.119 210.483L121.235 210.914L121.351 211.346C122.096 211.146 122.823 210.919 123.533 210.667L123.384 210.245ZM121.235 210.914L121.119 210.483L120.018 210.779L120.134 211.21L120.25 211.642L121.351 211.346L121.235 210.914ZM120.134 211.21L120.018 210.779L118.918 211.075L119.034 211.506L119.15 211.938L120.25 211.642L120.134 211.21ZM119.034 211.506L118.918 211.075C118.243 211.256 117.562 211.295 116.87 211.191L116.804 211.633L116.738 212.076C117.551 212.197 118.357 212.151 119.15 211.938L119.034 211.506ZM116.804 211.633L116.87 211.191L115.741 211.022L115.675 211.464L115.609 211.907L116.738 212.076L116.804 211.633ZM115.675 211.464L115.741 211.022L114.612 210.853L114.546 211.295L114.48 211.738L115.609 211.907L115.675 211.464ZM114.546 211.295L114.612 210.853C113.918 210.749 113.275 210.517 112.681 210.155L112.449 210.537L112.216 210.919C112.913 211.343 113.669 211.616 114.48 211.738L114.546 211.295ZM112.449 210.537L112.681 210.155L111.712 209.566L111.48 209.948L111.248 210.33L112.216 210.919L112.449 210.537ZM111.48 209.948L111.712 209.566L110.744 208.977L110.512 209.359L110.279 209.741L111.248 210.33L111.48 209.948ZM110.512 209.359L110.744 208.977C110.057 208.559 109.31 208.256 108.506 208.066L108.403 208.501L108.301 208.936C109.016 209.105 109.675 209.373 110.279 209.741L110.512 209.359ZM108.403 208.501L108.506 208.066L107.366 207.798L107.264 208.233L107.161 208.668L108.301 208.936L108.403 208.501ZM107.264 208.233L107.366 207.798L106.226 207.529L106.124 207.964L106.021 208.399L107.161 208.668L107.264 208.233ZM106.124 207.964L106.226 207.529C105.557 207.371 105.012 207.041 104.577 206.533L104.238 206.824L103.898 207.114C104.459 207.769 105.171 208.199 106.021 208.399L106.124 207.964ZM104.238 206.824L104.577 206.533L103.831 205.661L103.491 205.951L103.152 206.242L103.898 207.114L104.238 206.824ZM103.491 205.951L103.831 205.661L103.084 204.789L102.745 205.079L102.405 205.37L103.152 206.242L103.491 205.951ZM102.745 205.079L103.084 204.789C102.587 204.207 102.087 203.624 101.585 203.041L101.246 203.332L100.907 203.624C101.408 204.207 101.908 204.789 102.405 205.37L102.745 205.079ZM101.246 203.332L101.585 203.041L100.832 202.166L100.493 202.457L100.154 202.749L100.907 203.624L101.246 203.332ZM100.493 202.457L100.832 202.166L100.08 201.291L99.7407 201.582L99.4017 201.874L100.154 202.749L100.493 202.457ZM99.7407 201.582L100.08 201.291C99.6347 200.774 99.3679 200.179 99.2758 199.496L98.8328 199.555L98.3897 199.615C98.5047 200.468 98.8432 201.225 99.4017 201.874L99.7407 201.582ZM98.8328 199.555L99.2758 199.496L99.1205 198.344L98.6774 198.403L98.2344 198.463L98.3897 199.615L98.8328 199.555ZM98.6774 198.403L99.1205 198.344L98.9652 197.192L98.5221 197.251L98.0791 197.311L98.2344 198.463L98.6774 198.403ZM98.5221 197.251L98.9652 197.192C98.8603 196.414 98.7313 195.656 98.5783 194.92L98.1406 195.011L97.7029 195.102C97.8514 195.817 97.9769 196.553 98.0791 197.311L98.5221 197.251ZM98.1406 195.011L98.5783 194.92L98.3522 193.831L97.9144 193.922L97.4767 194.013L97.7029 195.102L98.1406 195.011ZM97.9144 193.922L98.3522 193.831L98.126 192.742L97.6883 192.833L97.2506 192.924L97.4767 194.013L97.9144 193.922ZM97.6883 192.833L98.126 192.742C97.9821 192.05 97.9163 191.344 97.929 190.624L97.482 190.616L97.035 190.609C97.0212 191.393 97.0929 192.166 97.2506 192.924L97.6883 192.833ZM97.482 190.616L97.929 190.624L97.9489 189.496L97.5019 189.488L97.0549 189.48L97.035 190.609L97.482 190.616ZM97.5019 189.488L97.9489 189.496L97.9688 188.368L97.5218 188.36L97.0749 188.352L97.0549 189.48L97.5019 189.488ZM97.5218 188.36L97.9688 188.368C97.9817 187.641 98.0568 186.911 98.1945 186.177L97.7552 186.095L97.3158 186.012C97.169 186.794 97.0886 187.574 97.0749 188.352L97.5218 188.36ZM97.7552 186.095L98.1945 186.177L98.4079 185.04L97.9686 184.958L97.5292 184.875L97.3158 186.012L97.7552 186.095ZM97.9686 184.958L98.4079 185.04L98.6213 183.904L98.182 183.821L97.7426 183.739L97.5292 184.875L97.9686 184.958ZM98.182 183.821L98.6213 183.904C98.7445 183.247 99.0608 182.699 99.5832 182.245L99.2901 181.908L98.9971 181.57C98.3264 182.152 97.9039 182.879 97.7426 183.739L98.182 183.821ZM99.2901 181.908L99.5832 182.245L100.478 181.469L100.185 181.131L99.8919 180.793L98.9971 181.57L99.2901 181.908ZM100.185 181.131L100.478 181.469L101.373 180.692L101.08 180.354L100.787 180.017L99.8919 180.793L100.185 181.131ZM101.08 180.354L101.373 180.692C102.019 180.131 102.517 179.459 102.865 178.679L102.456 178.497L102.048 178.315C101.753 178.976 101.334 179.542 100.787 180.017L101.08 180.354ZM102.456 178.497L102.865 178.679L103.347 177.598L102.938 177.416L102.53 177.234L102.048 178.315L102.456 178.497ZM102.938 177.416L103.347 177.598L103.828 176.517L103.42 176.335L103.012 176.153L102.53 177.234L102.938 177.416ZM103.42 176.335L103.828 176.517C104.106 175.894 104.54 175.456 105.142 175.184L104.957 174.777L104.773 174.369C103.967 174.733 103.376 175.334 103.012 176.153L103.42 176.335ZM104.957 174.777L105.142 175.184L106.197 174.707L106.013 174.299L105.829 173.892L104.773 174.369L104.957 174.777ZM106.013 174.299L106.197 174.707L107.253 174.23L107.069 173.822L106.884 173.415L105.829 173.892L106.013 174.299ZM107.069 173.822L107.253 174.23C107.964 173.908 108.659 173.569 109.338 173.213L109.131 172.818L108.923 172.422C108.26 172.769 107.58 173.1 106.884 173.415L107.069 173.822ZM109.131 172.818L109.338 173.213L110.345 172.686L110.137 172.29L109.929 171.894L108.923 172.422L109.131 172.818ZM110.137 172.29L110.345 172.686L111.351 172.158L111.144 171.762L110.936 171.366L109.929 171.894L110.137 172.29ZM111.144 171.762L111.351 172.158C111.941 171.849 112.567 171.734 113.242 171.813L113.294 171.369L113.346 170.925C112.496 170.825 111.688 170.972 110.936 171.366L111.144 171.762ZM113.294 171.369L113.242 171.813L114.385 171.948L114.438 171.504L114.49 171.06L113.346 170.925L113.294 171.369ZM114.438 171.504L114.385 171.948L115.529 172.083L115.582 171.639L115.634 171.195L114.49 171.06L114.438 171.504ZM115.582 171.639L115.529 172.083C116.353 172.18 117.175 172.109 117.993 171.873L117.869 171.444L117.745 171.014C117.038 171.218 116.335 171.278 115.634 171.195L115.582 171.639ZM117.869 171.444L117.993 171.873L119.136 171.543L119.012 171.114L118.888 170.684L117.745 171.014L117.869 171.444ZM119.012 171.114L119.136 171.543L120.28 171.213L120.156 170.783L120.032 170.354L118.888 170.684L119.012 171.114ZM120.156 170.783L120.28 171.213C120.949 171.02 121.584 171.051 122.203 171.302L122.371 170.888L122.539 170.474C121.729 170.145 120.887 170.107 120.032 170.354L120.156 170.783ZM122.371 170.888L122.203 171.302L123.275 171.737L123.443 171.323L123.611 170.909L122.539 170.474L122.371 170.888ZM123.443 171.323L123.275 171.737L124.348 172.172L124.516 171.758L124.684 171.343L123.611 170.909L123.443 171.323ZM124.516 171.758L124.348 172.172C125.04 172.453 125.697 172.785 126.32 173.168L126.554 172.787L126.788 172.406C126.123 171.997 125.421 171.642 124.684 171.343L124.516 171.758ZM126.554 172.787L126.32 173.168L127.286 173.762L127.52 173.382L127.755 173.001L126.788 172.406L126.554 172.787ZM127.52 173.382L127.286 173.762L128.252 174.357L128.487 173.976L128.721 173.596L127.755 173.001L127.52 173.382ZM128.487 173.976L128.252 174.357C128.878 174.742 129.471 175.17 130.031 175.643L130.319 175.301L130.607 174.959C130.013 174.458 129.384 174.003 128.721 173.596L128.487 173.976ZM130.319 175.301L130.031 175.643L130.898 176.373L131.186 176.031L131.474 175.689L130.607 174.959L130.319 175.301ZM131.186 176.031L130.898 176.373L131.764 177.103L132.052 176.761L132.34 176.419L131.474 175.689L131.186 176.031ZM132.052 176.761L131.764 177.103C132.285 177.542 132.67 178.077 132.923 178.714L133.339 178.549L133.754 178.384C133.447 177.61 132.974 176.953 132.34 176.419L132.052 176.761ZM133.339 178.549L132.923 178.714L133.344 179.772L133.759 179.607L134.175 179.442L133.754 178.384L133.339 178.549ZM133.759 179.607L133.344 179.772L133.764 180.831L134.18 180.666L134.595 180.501L134.175 179.442L133.759 179.607ZM134.18 180.666L133.764 180.831C134.055 181.563 134.41 182.254 134.83 182.904L135.206 182.661L135.581 182.418C135.193 181.819 134.865 181.18 134.595 180.501L134.18 180.666ZM135.206 182.661L134.83 182.904L135.436 183.841L135.811 183.598L136.187 183.356L135.581 182.418L135.206 182.661ZM135.811 183.598L135.436 183.841L136.042 184.778L136.417 184.536L136.793 184.293L136.187 183.356L135.811 183.598ZM136.417 184.536L136.042 184.778C136.414 185.354 136.663 185.98 136.791 186.659L137.23 186.576L137.67 186.493C137.521 185.701 137.228 184.967 136.793 184.293L136.417 184.536ZM137.23 186.576L136.791 186.659L136.999 187.762L137.438 187.679L137.878 187.596L137.67 186.493L137.23 186.576ZM137.438 187.679L136.999 187.762L137.207 188.865L137.646 188.782L138.085 188.699L137.878 187.596L137.438 187.679ZM137.646 188.782L137.207 188.865C137.275 189.228 137.323 189.52 137.351 189.743C137.38 189.976 137.383 190.103 137.379 190.152L137.824 190.195L138.269 190.239C138.284 190.081 138.268 189.869 138.238 189.631C138.207 189.383 138.155 189.071 138.085 188.699L137.646 188.782ZM137.824 190.195L137.379 190.152L137.349 190.463L137.793 190.506L138.238 190.549L138.269 190.239L137.824 190.195ZM137.793 190.506L137.349 190.463L137.318 190.773L137.763 190.816L138.208 190.859L138.238 190.549L137.793 190.506ZM137.763 190.816L137.318 190.773C137.297 190.997 137.275 191.493 137.252 192.241L137.699 192.255L138.146 192.269C138.169 191.512 138.19 191.048 138.208 190.859L137.763 190.816ZM137.699 192.255L137.252 192.241L137.218 193.37L137.665 193.384L138.111 193.397L138.146 192.269L137.699 192.255Z" fill="white"/>
</g>
<g id="question_mark">
<g id="Frame">
<path id="Vector" d="M84.9871 100.45C84.5413 100.45 84.2255 100.302 84.0397 100.004C83.854 99.7071 83.7611 99.3728 83.7611 99.0012C83.984 96.029 84.7642 93.2983 86.1017 90.8091C87.4392 88.3198 89.9284 85.4776 93.5694 82.2825C96.2444 79.9047 98.2321 77.5084 99.5324 75.0934C100.833 72.6785 101.483 70.0221 101.483 67.1241C101.483 62.7401 99.9783 59.1177 96.9689 56.257C93.9595 53.3962 89.8913 51.9658 84.7642 51.9658C81.0489 51.9658 78.0395 52.6717 75.7361 54.0835C73.4326 55.4953 71.5006 57.3901 69.9402 59.7679C69.7916 60.0651 69.5316 60.2509 69.16 60.3252C68.7885 60.3995 68.417 60.3623 68.0454 60.2137C67.7482 60.0651 67.5996 59.8051 67.5996 59.4335C67.5996 59.062 67.7111 58.7648 67.934 58.5419C69.8659 55.5696 72.188 53.3219 74.9001 51.7986C77.6123 50.2754 80.9003 49.5137 84.7642 49.5137C90.9316 49.5137 95.6685 51.2971 98.9751 54.8637C102.282 58.4304 103.935 62.5544 103.935 67.2356C103.935 70.2821 103.248 73.1801 101.873 75.9294C100.498 78.6787 98.585 81.1307 96.1329 83.2856C92.2691 86.6294 89.6869 89.4344 88.3866 91.7007C87.0862 93.967 86.3989 96.4377 86.3246 99.1127C86.3246 99.4842 86.1946 99.8 85.9345 100.06C85.6744 100.32 85.3586 100.45 84.9871 100.45ZM84.7642 124.414C84.0211 124.414 83.371 124.135 82.8137 123.578C82.2564 123.021 81.9777 122.37 81.9777 121.627C81.9777 120.884 82.2564 120.234 82.8137 119.677C83.371 119.119 84.0211 118.841 84.7642 118.841C85.5072 118.841 86.1574 119.119 86.7147 119.677C87.272 120.234 87.5507 120.884 87.5507 121.627C87.5507 122.37 87.272 123.021 86.7147 123.578C86.1574 124.135 85.5072 124.414 84.7642 124.414Z" fill="#2D3A4A"/>
</g>
</g>
</g>
</svg>