<svg viewBox="0 0 478 549" fill="none" xmlns="http://www.w3.org/2000/svg">
<path id="Vector" d="M219.879 59.0723C220.303 38.474 234.411 20.8956 256.034 21.6501C273.335 22.2537 288.626 32.2229 300.206 44.3881C316.413 61.1176 324.123 86.6003 326.032 109.294C326.963 120.354 326.247 132.459 327.702 143.885C331.739 175.592 345.534 212.059 377.72 224.389C357.715 222.217 343.319 212.952 332.968 195.775C334.277 200.328 335.276 203.934 337.533 208.149C343.76 219.788 355.93 228.608 369.451 228.412C356.361 240.682 335.342 240.277 320.638 231.18C322.433 235.321 323.8 237.417 327.129 240.488C318.479 239.067 313.678 237.179 307.239 230.734C297.092 249.816 279.982 268.507 260.699 278.524C262.845 285.976 264.605 291.322 268.673 297.982C265.354 296.664 263.431 295.507 260.529 293.404C260.689 304.526 264.414 320.454 272.661 328.149C273.72 329.137 274.939 330.228 276.039 331.184C270.797 334.528 265.302 337.728 260.137 341.128C245.051 351.061 227.468 357.527 210.424 363.242C203.952 365.411 191.065 355.909 186.267 351.69C187.857 348.133 190.715 344.161 192.704 340.534C194.8 339.898 197.347 338.634 198.991 336.876C205.383 330.038 212.449 321.09 216.794 312.799C217.261 311.908 217.289 309.647 217.318 308.651C217.529 306.358 217.249 300.759 216.551 298.525C209.914 301.42 194.803 303.697 187.681 302.949C178.566 301.993 159.669 286.303 153.883 279.315C153.305 292.372 148.775 303.746 137.658 311.33C140.355 304.849 143.811 298.414 143.561 290.869C142.937 271.987 131.482 253.101 123.975 236.224C119.222 225.541 114.652 215.416 110.08 204.813C105.707 194.67 99.8596 181.688 99.5222 170.685C99.2904 163.131 101.888 154.397 104.929 147.493C105.639 145.881 108.501 139.919 108.67 138.577C109.38 132.969 108.648 131.715 110.602 126.113C114.048 122.971 123.63 120.446 128.386 119.627C145.716 89.321 174.323 74.7784 208.216 70.4677C210.901 64.8794 213.953 61.3842 219.879 59.0723Z" fill="#442301"/>
<path id="Vector_2" d="M128.516 159.085C144.508 159.513 181.126 180.999 195.83 188.963C198.333 190.363 205.339 194.34 207.288 196.244C212.675 198.995 218.686 203.547 223.925 206.76C226.194 208.151 228.4 209.888 230.865 210.955C234.678 200.72 236.434 194.458 237.351 183.623C242.915 213.218 236.67 244.141 245.748 272.814C248.087 280.2 254.662 288.272 260.528 293.404C260.688 304.526 264.413 320.454 272.661 328.149C273.719 329.137 274.938 330.228 276.038 331.184C270.797 334.528 265.301 337.728 260.136 341.128C245.05 351.062 227.467 357.527 210.423 363.242C203.952 365.411 191.064 355.91 186.266 351.69C187.856 348.133 190.714 344.161 192.704 340.534C194.8 339.898 197.346 338.634 198.99 336.876C205.382 330.039 212.449 321.09 216.793 312.799C217.26 311.908 217.288 309.647 217.317 308.651C217.528 306.358 217.248 300.759 216.55 298.525C209.913 301.42 194.802 303.697 187.68 302.949C178.565 301.993 159.668 286.303 153.882 279.315C152.914 278.521 149.494 274.364 148.467 273.154C137.777 260.558 136.496 249.542 135.666 233.509C135.53 230.885 136.785 223.615 136.155 221.7C134.423 216.424 129.73 208.759 127.047 203.668C126.448 201.78 125.692 199.749 125.007 197.88C124.896 197.576 124.793 197.269 124.699 196.96C121.2 185.644 122.933 169.429 128.516 159.085Z" fill="#E1A476"/>
<path id="Vector_3" d="M216.551 298.525C223.121 295.916 230.209 293.347 236.515 290.214C233.356 295.589 231.162 298.966 226.315 303.206C222.859 306.23 218.298 305.748 217.317 308.651C217.528 306.358 217.249 300.759 216.551 298.525Z" fill="#B27F57"/>
<path id="Vector_4" d="M195.833 188.963C198.336 190.363 205.342 194.34 207.291 196.244C198.503 194.701 190.183 194.502 181.643 197.301C187.551 191.934 189.709 192.339 195.612 189.088L195.833 188.963Z" fill="#733B29"/>
<path id="Vector_5" d="M125.008 197.88C134.248 197.687 139.617 199.988 147.028 205.793C142.921 204.452 130.189 200.191 127.048 203.667C126.448 201.78 125.693 199.749 125.008 197.88Z" fill="#733B29"/>
<path id="Vector_6" d="M188.262 222.778C187.641 223.139 187.651 223.078 186.92 223.023L186.592 222.32C187.081 217.795 189.181 213.596 192.509 210.489C199.818 203.594 213.027 203.038 220.832 210.324C221.62 211.059 221.391 211.887 221.337 212.885C220.394 225.917 200.943 236.571 190.796 226.436C190.081 225.723 188.812 223.678 188.262 222.778Z" fill="#FEFEFE"/>
<path id="Vector_7" d="M195.197 211.701C199.639 207.593 206.183 206.8 211.766 208.759L211.636 209.285C216.869 216.521 215.688 226.443 204.504 225.319C202.108 225.078 197.279 221.723 196.842 219.326C198.009 217.991 201.362 219.148 201.096 216.136C199.606 214.103 197.997 214.617 195.688 214.929C195.053 214.086 195.194 212.878 195.197 211.701Z" fill="#3E382C"/>
<path id="Vector_8" d="M188.262 222.778C187.641 223.139 187.651 223.078 186.92 223.023L186.592 222.32C187.081 217.795 189.181 213.596 192.509 210.489C199.818 203.594 213.027 203.038 220.832 210.324C221.62 211.059 221.391 211.887 221.337 212.885C218.419 212.84 215.127 210.217 211.766 208.759C206.184 206.8 199.64 207.593 195.197 211.701C191.6 215.168 189.669 217.879 188.262 222.778Z" fill="black"/>
<path id="Vector_9" d="M139.425 216.382L139.058 217.684L138.401 217.982C136.02 216.087 137.792 210.894 141.019 210.395C145.996 209.626 158.969 224.123 158.499 227.259C158.34 228.651 158.219 229.483 158.267 230.902C158.751 231.883 158.599 234.511 157.814 235.229C154.723 238.057 149.006 235.318 146.685 232.894C143.143 229.195 139.43 221.337 139.425 216.382Z" fill="#3E382C"/>
<path id="Vector_10" d="M139.424 216.382C140.023 212.406 141.796 212.961 144.836 213.926C144.695 215.397 144.422 216.851 144.797 218.247C146.481 220.194 148.307 218.137 150.002 221.231C149.55 223.314 147.301 222.098 146.35 223.314C147.88 226.769 154.319 237.699 158.266 230.902C158.75 231.883 158.597 234.511 157.813 235.229C154.722 238.057 149.005 235.318 146.684 232.894C143.142 229.195 139.429 221.338 139.424 216.382Z" fill="#FEFEFE"/>
<path id="Vector_11" d="M139.425 216.382L139.058 217.684L138.401 217.982C136.02 216.087 137.792 210.894 141.019 210.395C145.996 209.626 158.969 224.123 158.499 227.259C156.672 226.528 151.377 217.015 144.837 213.926C141.798 212.961 140.024 212.406 139.425 216.382Z" fill="black"/>
<path id="Vector_12" d="M154.525 257.068L154.544 256.228L154.91 256C162.321 260.695 159.036 263.734 170.832 262.199C171.493 261.899 175.2 261.476 176.169 261.344C173.189 264.343 166.912 268.484 162.532 266.613C159.315 265.239 155.763 260.239 154.525 257.068Z" fill="#B27F57"/>
<path id="Vector_13" d="M154.525 257.068L154.544 256.228L154.91 256C162.322 260.696 159.037 263.734 170.833 262.2C171.189 262.768 171.1 262.46 170.983 263.166C163.831 266.158 159.167 261.443 154.525 257.068Z" fill="#936645"/>
<path id="Vector_14" d="M192.566 271.655C193.123 271.761 193.224 271.905 193.751 272.209C194.642 276.662 180.607 278.277 177.529 278.381C171.513 278.585 167.752 278.929 162.466 275.874L162.062 275.125L162.401 274.686C166.617 276.067 167.328 277.269 172.071 277.742C179.443 278.551 186.831 276.357 192.566 271.655Z" fill="#B27F57"/>
<path id="Vector_15" d="M219.88 59.0724C237.047 53.63 254.178 59.1588 257.962 78.2128C245.632 72.6184 233.326 70.3412 219.798 70.1899C216.091 70.1482 211.623 70.5987 208.217 70.4678C210.902 64.8796 213.954 61.3843 219.88 59.0724Z" fill="#F0C100"/>
<path id="Vector_16" d="M271.494 199.166C277.875 198.774 280.985 202.838 282.283 208.579C284.529 218.506 282.155 229.824 277.965 238.971C276.42 242.339 273.702 245.632 271.783 248.808C274.167 251.259 276.667 254.29 278.923 256.912C276.191 261.33 273.47 264.533 269.957 268.303C267.273 271.111 263.608 274.078 260.383 276.179C256.776 261.067 259.609 227.453 263.458 211.783C264.736 206.586 266.732 201.983 271.494 199.166Z" fill="#E1A476"/>
<path id="Vector_17" d="M276.04 331.184C283.795 336.444 293.608 340.403 302.231 344.363C321.92 353.411 330.282 370.738 334.25 390.952C336.384 401.828 336.801 413.832 338.113 424.947C335.78 425.548 334.677 425.749 332.281 426.027C334.302 436.16 333.611 449.878 335.371 460.74C340.165 490.321 345.472 519.322 349.791 549H310.069C305.98 530.524 302.984 511.913 300.196 493.201C299.825 490.706 299.457 488.221 299.172 485.716C296.423 493.444 294.122 498.688 291.008 506.135C295.784 519.364 298.388 535.782 302.824 549H164.486H152.608C153.807 535.462 156.604 522.466 157.739 509.4C158.339 502.501 157.042 487.239 156.759 479.986C155.534 478.626 153.762 477.009 152.429 475.662C132.335 455.417 135.563 435.157 146.604 411.771C144.151 398.743 140.155 375.569 146.432 363.638C153.193 350.791 179.431 344.703 192.705 340.534C190.716 344.161 187.858 348.133 186.268 351.69C191.065 355.909 203.953 365.411 210.424 363.242C227.469 357.527 245.052 351.061 260.138 341.128C265.303 337.728 270.798 334.528 276.04 331.184Z" fill="#BD4D3B"/>
<path id="Vector_18" d="M290.092 432.731C301.707 430.406 314.429 429.497 326.113 427.002C328.095 426.579 330.272 426.242 332.282 426.027C334.302 436.16 333.611 449.878 335.371 460.74C340.165 490.321 345.473 519.322 349.791 549H310.069C305.98 530.524 302.984 511.913 300.197 493.201C299.825 490.706 299.457 488.221 299.173 485.716C297.066 474.625 295.108 463.506 293.299 452.363C292.39 446.616 291.47 438.135 290.092 432.731Z" fill="#E1A476"/>
<path id="Vector_19" d="M156.76 479.986C158.302 480.719 159.304 481.878 160.517 483.082C162.066 494.187 163.585 503.258 167.588 513.96C165.65 523.733 164.351 539.155 164.487 549H152.609C153.808 535.462 156.606 522.466 157.741 509.401C158.34 502.502 157.043 487.239 156.76 479.986Z" fill="#E1A476"/>
</svg>
