<svg viewBox="0 0 478 547" fill="none" xmlns="http://www.w3.org/2000/svg">
<path id="Vector" d="M130.505 116.655C159.55 66.3225 240.908 53.3629 282.737 94.0441C299.294 110.145 311.017 126.948 316.979 149.435C324.494 177.396 320.604 207.196 306.16 232.29C297.509 247.164 283.221 262.312 269.067 272.185C266.813 273.758 262.356 276.525 259.87 277.259C260.795 294.632 260.706 318.142 275.895 329.454C260.561 339.975 244.757 349.206 227.212 355.477C221.499 357.52 212.473 362.304 206.156 361.589C200.547 360.216 190.74 353.934 186.504 349.789C188.542 346.31 191.002 342.426 192.903 338.955C195.734 337.807 197.606 337.006 199.722 334.723C206.294 327.632 212.305 319.355 217.374 311.162L217.476 305.809C217.523 302.465 217.518 300.344 216.805 297.074C209.444 300.072 196.201 302.026 188.129 301.555C183.632 301.182 179.897 298.48 176.151 296.126C162.54 287.571 146.988 272.893 140.369 258.142C135.851 248.073 136.159 231.635 137.097 220.869C127.842 214.729 121.034 204.582 115.546 195.19C111.758 201.097 108.721 207.19 106.954 214.14C106.585 215.592 107.102 217.494 105.482 217.93C103.835 215.687 103.299 211.799 102.705 209.05C97.95 187.07 97.4916 158.457 109.589 138.814C100.745 140.667 90.4154 140.275 81.8924 137.113C80.3506 136.541 77.5703 135.998 76.6465 134.585C77.3424 133.147 81.8727 133.524 83.6554 133.338C87.3105 132.965 90.9059 132.143 94.3598 130.891C106.996 126.385 117.845 117.071 130.505 116.655Z" fill="#442301"/>
<path id="Vector_2" d="M128.991 158.546L188.651 179.583C197.263 182.71 208.741 186.43 216.835 190.192C213.552 184.711 210.647 175.741 207.853 169.679C220.733 182.591 234.094 205.001 241.271 221.915C242.369 224.508 244.399 229.937 245.52 232.816C245.804 232.88 246.083 232.944 246.363 233.008C251.907 231.023 257.534 213.398 259.153 208.337C260.251 204.906 266.913 199.993 270.138 198.719C275.35 196.557 280.429 201.082 281.668 206.047C285.534 221.497 280.363 235.149 271.595 247.597C274.087 250.238 276.359 252.841 278.741 255.584C275.382 261.191 271.111 266.199 266.106 270.402C264.217 271.984 262.139 273.496 260.227 275.058C259.788 275.415 259.871 276.652 259.871 277.259C260.796 294.632 260.706 318.141 275.896 329.454C260.562 339.975 244.758 349.206 227.213 355.477C221.5 357.52 212.473 362.304 206.157 361.589C200.548 360.216 190.741 353.934 186.505 349.789C188.542 346.31 191.003 342.426 192.904 338.955C195.734 337.807 197.607 337.006 199.723 334.723C206.295 327.632 212.306 319.355 217.374 311.162L217.477 305.809C217.524 302.465 217.519 300.344 216.806 297.074C209.445 300.072 196.202 302.026 188.13 301.555C183.632 301.182 179.898 298.48 176.152 296.126C162.541 287.571 146.989 272.893 140.37 258.142C135.852 248.072 136.16 231.635 137.098 220.869C136.907 219.127 129.051 205.348 127.672 202.593C126.968 200.77 126.321 198.725 125.691 196.858C121.806 185.606 123.51 169.874 128.646 159.248C128.759 159.013 128.874 158.779 128.991 158.546Z" fill="#E1A476"/>
<path id="Vector_3" d="M216.807 297.074C222.867 294.448 230.882 291.841 236.421 288.813C233.27 295.131 227.276 303.005 220.266 304.898C219.89 305 217.677 305.7 217.477 305.809C217.525 302.465 217.52 300.344 216.807 297.074Z" fill="#B27E57"/>
<path id="Vector_4" d="M125.691 196.858C134.45 196.566 140.345 199.261 147.321 204.603C142.137 203.132 132.4 199.523 127.673 202.593C126.968 200.77 126.322 198.725 125.691 196.858Z" fill="#733B29"/>
<path id="Vector_5" d="M188.485 221.663C188.417 221.79 188.002 222.18 187.881 222.302L187.272 222.043C186.722 220.682 187.098 219.903 187.499 218.335C191.307 203.412 211.338 199.438 221.514 209.985C221.965 210.452 221.397 211.421 221.151 212.028C222.937 221.648 199.923 239.811 188.485 221.663Z" fill="#FEFEFE"/>
<path id="Vector_6" d="M195.225 210.945C197.455 206.94 207.468 206.115 211.605 207.683C212.738 209.894 214.202 211.479 214.675 214.011C216.114 221.723 209.832 226.545 202.582 223.524C200.589 222.694 197.446 220.176 197.001 217.993C198.481 217.717 199.6 217.627 200.854 216.766C201.481 215.644 201.374 216.218 201.272 215.003C199.681 213.14 198.179 213.707 195.898 213.838C195.311 212.709 195.763 212.043 195.225 210.945Z" fill="#3E382C"/>
<path id="Vector_7" d="M188.485 221.663C188.417 221.79 188.002 222.18 187.881 222.302L187.272 222.043C186.722 220.682 187.098 219.903 187.499 218.335C191.307 203.412 211.338 199.438 221.514 209.985C221.965 210.452 221.397 211.421 221.151 212.028C218.584 211.825 215.076 208.999 211.605 207.683C207.469 206.115 197.455 206.94 195.225 210.945C191.54 214.533 190.225 216.774 188.485 221.663Z" fill="black"/>
<path id="Vector_8" d="M139.989 217.064L138.707 217.01C137.745 215.866 137.881 214.519 138.211 213.103C140.984 201.186 158.758 222.25 159.014 226.006C158.608 227.451 158.702 228.904 158.713 230.404L158.895 230.633C159.16 232.673 158.736 234.489 156.389 234.958C146.741 236.883 141.889 224.339 139.989 217.064Z" fill="#3E382C"/>
<path id="Vector_9" d="M139.988 217.064C140.11 215.007 139.756 213.692 141.634 212.467C143.215 212.152 144.033 212.528 145.551 212.986C145.251 214.681 145.139 215.166 145.269 216.947C146.691 218.878 149.494 217.497 150.664 220.45C149.717 221.986 147.966 220.828 146.936 222.301C148.273 225.875 154.28 235.514 158.713 230.404L158.895 230.633C159.16 232.673 158.736 234.489 156.388 234.958C146.74 236.883 141.889 224.339 139.988 217.064Z" fill="#FEFEFE"/>
<path id="Vector_10" d="M139.989 217.064L138.707 217.01C137.745 215.866 137.881 214.519 138.211 213.103C140.984 201.186 158.758 222.25 159.014 226.006C156.565 224.92 151.932 216.114 145.551 212.986C144.034 212.528 143.215 212.152 141.634 212.467C139.756 213.692 140.11 215.007 139.989 217.064Z" fill="black"/>
<path id="Vector_11" d="M194.381 188.868C204.938 188.2 208.448 191.298 217.625 196.255C213.198 195.769 209.787 195.218 205.239 194.933C197.041 193.993 189.927 193.619 181.963 196.358C186.463 192.5 189.068 191.301 194.381 188.868Z" fill="#733B29"/>
<path id="Vector_12" d="M154.906 255.883L155.066 254.923L155.564 254.742C156.868 255.633 158.14 257.111 159.312 258.219C164.607 263.226 169.308 260.907 175.343 260.109C175.724 260.25 175.513 260.134 175.912 260.553C174.736 262.08 172.016 263.426 170.376 264.499C163.41 269.057 157.716 261.826 154.906 255.883Z" fill="#B27E57"/>
<path id="Vector_13" d="M154.906 255.883L155.066 254.923L155.564 254.742C156.868 255.633 158.14 257.111 159.312 258.219C164.607 263.226 169.308 260.907 175.343 260.109C173.916 261.344 170.4 262.531 168.557 262.732C162.102 263.437 159.408 259.371 155.133 256.056L154.906 255.883Z" fill="#936645"/>
<path id="Vector_14" d="M192.966 270.064C194.199 270.952 194.185 271.077 193.843 272.41C189.723 277.198 172.816 278.001 166.755 276.314C165.676 276.013 163.805 275.067 162.751 274.535L162.611 273.654L162.95 273.21C172.251 278.298 185.173 277.537 192.966 270.064Z" fill="#B27E57"/>
<path id="Vector_15" d="M275.896 329.454L276.159 329.664C281.254 333.652 294.352 339.255 300.607 341.99C324.475 352.429 332.494 374.818 335.256 398.918C336.036 405.728 337.206 415.909 337.572 422.867C336.015 423.174 333.199 423.809 331.728 423.899C333.854 434.546 333.019 445.632 334.59 456.383C338.601 483.831 344.214 511.024 348.202 538.472C348.578 541.067 348.882 543.78 349.386 546.341H310.114H161.78H153.106C154.143 532.957 156.797 520.698 158.296 507.531C158.886 502.347 157.902 492.293 157.963 486.512C157.686 485.487 157.693 484 157.51 482.906C154.347 463.982 152.587 444.652 149.524 425.742C147.018 410.266 143.917 395.553 143.58 379.753C143.207 362.307 149.52 354.286 165.415 348.064C174.656 344.344 183.371 341.671 192.904 338.955C191.004 342.426 188.543 346.31 186.505 349.789C190.741 353.934 200.548 360.216 206.157 361.589C212.474 362.304 221.5 357.52 227.213 355.477C244.758 349.206 260.562 339.975 275.896 329.454Z" fill="#BD4D3B"/>
<path id="Vector_16" d="M290.016 430.439C293.602 430.315 300.231 429.014 303.948 428.441C313.169 427.026 322.497 425.179 331.728 423.899C333.854 434.546 333.019 445.632 334.59 456.383C338.601 483.831 344.214 511.024 348.202 538.472C348.578 541.067 348.882 543.78 349.386 546.341H310.114C308.198 541.367 305.174 523.179 304.311 517.729L299.088 484.5C297.78 475.72 295.902 466.605 294.362 457.818C292.833 448.703 291.386 439.578 290.016 430.439Z" fill="#E1A476"/>
<path id="Vector_17" d="M157.962 486.512C158.685 487.413 159.197 491.996 159.521 493.342C163.791 511.13 161.965 528.245 161.78 546.34H153.105C154.142 532.956 156.796 520.697 158.295 507.531C158.885 502.347 157.902 492.293 157.962 486.512Z" fill="#E1A476"/>
</svg>
